<?xml version="1.0" encoding="UTF-8"?>
<!DOCTYPE svg PUBLIC "-//W3C//DTD SVG 1.1//EN" "http://www.w3.org/Graphics/SVG/1.1/DTD/svg11.dtd">
<!-- Creator: CorelDRAW -->
<svg xmlns="http://www.w3.org/2000/svg" xml:space="preserve" width="12.17mm" height="3.6922mm" version="1.1" style="shape-rendering:geometricPrecision; text-rendering:geometricPrecision; image-rendering:optimizeQuality; fill-rule:evenodd; clip-rule:evenodd"
viewBox="0 0 49.25 14.94"
 xmlns:xlink="http://www.w3.org/1999/xlink"
 xmlns:xodm="http://www.corel.com/coreldraw/odm/2003">
 <defs>
  <style type="text/css">
   <![CDATA[
    .fil0 {fill:black}
   ]]>
  </style>
 </defs>
 <g id="Layer_x0020_1">
  <metadata id="CorelCorpID_0Corel-Layer"/>
  <g id="_1719875293584">
   <path class="fil0" d="M1.87 3.78l0 0.69 -1.87 0 0 2.78 1.87 0 0 7.38c0,0.03 0.01,0.04 0.04,0.04l3.21 0c0.03,0 0.04,-0.01 0.04,-0.04l0 -7.38 3.14 0 0 7.41 3.27 0 0 -10.2 -6.41 0 0 -0.71c0,-0.14 0.07,-0.32 0.12,-0.42 0.21,-0.39 0.62,-0.58 1.06,-0.58l1.96 0 0 -2.77 -2.59 0c-0.65,0 -1.34,0.17 -1.92,0.46 -0.06,0.03 -0.1,0.05 -0.15,0.08 -0.26,0.16 -0.47,0.29 -0.69,0.51 -0.29,0.29 -0.42,0.45 -0.62,0.8 -0.33,0.56 -0.45,1.26 -0.45,1.94z"/>
   <path class="fil0" d="M31.99 14.67l3.32 0 0 -5.21c0,-0.6 0.14,-1.16 0.37,-1.52l0.1 -0.13c0.27,-0.32 0.67,-0.55 1.12,-0.55l1.5 0 0 7.41 3.3 0c0.06,0 0.04,-0.1 0.04,-0.17l0 -4.93c0,-0.62 0.06,-1.22 0.42,-1.72 0.18,-0.25 0.44,-0.43 0.75,-0.53 0.25,-0.08 0.47,-0.07 0.79,-0.07l1.28 0c0.03,0 0.07,0 0.1,0 0.11,-0 0.07,-0.01 0.07,-0.26l0.01 -0.41c0,-0.07 -0,-0.15 -0,-0.22 0,-0.08 0.01,-0.11 0.01,-0.2 -0,-0.57 0.03,-1.12 0.03,-1.69l-1.1 0c-0.78,0 -1.34,0.17 -1.79,0.63l-0.22 0.27c-0.1,0.14 -0.19,0.3 -0.27,0.46 -0.02,0.03 -0.02,0.05 -0.04,0.08l-0.05 0.08 0 -1.35c0,-0.06 0.02,-0.17 -0.04,-0.17l-4.01 0c-1.02,0 -1.63,0.28 -2.16,1.13l-0.13 0.24c-0.02,0.03 -0.02,0.05 -0.04,0.08l-0.05 0.08 0 -1.53 -3.32 0 0 10.2z"/>
   <path class="fil0" d="M21.14 9.41c0,0.58 0.03,0.81 0.14,1.35 0.11,0.55 0.36,1.13 0.64,1.6 0.04,0.07 0.08,0.12 0.12,0.2l0.49 0.62c0.07,0.07 0.12,0.16 0.24,0.25 0.17,0.13 0.27,0.26 0.53,0.43 0.19,0.13 0.4,0.26 0.6,0.36 0.15,0.08 0.53,0.23 0.68,0.28 0.77,0.23 1.14,0.27 1.98,0.27 0.28,0 0.59,-0.03 0.84,-0.07 0.3,-0.05 0.45,-0.09 0.74,-0.17 0.57,-0.16 1.19,-0.49 1.65,-0.87 0.53,-0.43 0.9,-0.93 1.19,-1.55 0.03,-0.06 0.05,-0.11 0.07,-0.16l-0.91 -0.26c-0.06,-0.02 -0.12,-0.03 -0.19,-0.05l-0.55 -0.16c-0.07,-0.02 -0.13,-0.04 -0.19,-0.05l-1.11 -0.31c-0.01,0.08 -0.09,0.21 -0.13,0.27 -0.09,0.15 -0.26,0.31 -0.41,0.41 -0.57,0.39 -1.66,0.42 -2.28,0.06 -0.29,-0.17 -0.44,-0.31 -0.63,-0.59 -0.13,-0.2 -0.31,-0.69 -0.31,-0.92l6.86 0c0,-0.05 0.02,-0.09 0.02,-0.13 0.04,-0.28 0.03,-0.65 0.03,-0.93 0,-0.89 -0.23,-1.74 -0.62,-2.52 -0.12,-0.23 -0.35,-0.56 -0.5,-0.76 -0.05,-0.06 -0.09,-0.11 -0.14,-0.17 -0.04,-0.03 -0.04,-0.05 -0.07,-0.08 -0.21,-0.25 -0.67,-0.58 -0.97,-0.77 -1.35,-0.82 -3.51,-0.89 -4.91,-0.29 -0.41,0.18 -0.95,0.49 -1.26,0.79 -0.11,0.11 -0.13,0.1 -0.24,0.24l-0.15 0.16c-0.05,0.06 -0.09,0.11 -0.15,0.17l-0.44 0.67c-0.11,0.22 -0.16,0.3 -0.26,0.55 -0.25,0.63 -0.42,1.4 -0.42,2.11zm3.21 -1l3.7 0c0,0 0.03,-0.39 -0.26,-0.85 -0.36,-0.57 -0.97,-0.81 -1.64,-0.8 -0.52,0.01 -1.04,0.17 -1.37,0.59 -0.35,0.46 -0.42,1.06 -0.42,1.06z"/>
   <path class="fil0" d="M15.38 14.67l2.89 0 0.45 -1.26c0.08,-0.21 0.15,-0.42 0.23,-0.63l0.23 -0.64c0.11,-0.29 0.24,-0.69 0.34,-0.95 0.1,-0.26 0.24,-0.67 0.34,-0.95l1.03 -2.87c0.04,-0.11 0.08,-0.21 0.12,-0.32 0.07,-0.22 0.16,-0.42 0.23,-0.63 0.13,-0.4 0.33,-0.88 0.46,-1.27 0.04,-0.11 0.08,-0.22 0.12,-0.32 0.02,-0.06 0.04,-0.1 0.06,-0.16 0.02,-0.05 0.07,-0.13 0.01,-0.13l-3.26 0c-0.05,0 -0.06,0.08 -0.08,0.15l-0.17 0.56c-0.08,0.24 -0.14,0.49 -0.22,0.74l-0.22 0.74c-0.15,0.47 -0.29,1.01 -0.44,1.48 -0.04,0.12 -0.07,0.24 -0.11,0.37 -0.04,0.13 -0.07,0.25 -0.11,0.38l-0.44 1.49 -1 -3.34c-0.04,-0.13 -0.07,-0.25 -0.11,-0.38 -0.14,-0.47 -0.29,-1.03 -0.44,-1.49l-0.22 -0.76 -3.32 0c0,0.06 0.08,0.25 0.1,0.32l0.23 0.63c0.04,0.11 0.08,0.22 0.11,0.32 0.11,0.31 0.23,0.66 0.34,0.95l0.8 2.23c0.04,0.11 0.07,0.21 0.11,0.32 0.04,0.11 0.07,0.21 0.12,0.32l0.69 1.91c0.04,0.1 0.07,0.22 0.11,0.32l0.57 1.59c0.08,0.24 0.41,1.11 0.45,1.28z"/>
   <path class="fil0" d="M47.14 14.94c0.49,0 0.86,-0.11 1.23,-0.37 0.49,-0.35 0.89,-0.98 0.89,-1.59 0,-0.31 -0.02,-0.51 -0.13,-0.8 -0.2,-0.5 -0.61,-0.96 -1.11,-1.17 -0.63,-0.26 -1.23,-0.23 -1.81,0.1l-0.23 0.15 -0.24 0.23c-0.12,0.13 -0.19,0.2 -0.29,0.38 -0.34,0.6 -0.38,1.2 -0.11,1.82 0.07,0.15 0.18,0.34 0.29,0.47 0.37,0.44 0.92,0.77 1.52,0.77z"/>
  </g>
 </g>
</svg>
