<?xml version="1.0" encoding="UTF-8"?>
<!DOCTYPE svg PUBLIC "-//W3C//DTD SVG 1.1//EN" "http://www.w3.org/Graphics/SVG/1.1/DTD/svg11.dtd">
<!-- Creator: CorelDRAW -->
<svg xmlns="http://www.w3.org/2000/svg" xml:space="preserve" width="15.1402mm" height="4.6111mm" version="1.1" style="shape-rendering:geometricPrecision; text-rendering:geometricPrecision; image-rendering:optimizeQuality; fill-rule:evenodd; clip-rule:evenodd"
viewBox="0 0 86.1 26.22"
 xmlns:xlink="http://www.w3.org/1999/xlink"
 xmlns:xodm="http://www.corel.com/coreldraw/odm/2003">
 <defs>
  <style type="text/css">
   <![CDATA[
    .fil0 {fill:white}
   ]]>
  </style>
 </defs>
 <g id="Layer_x0020_1">
  <metadata id="CorelCorpID_0Corel-Layer"/>
  <g id="_1719456884416">
   <path class="fil0" d="M9.99 5.49c0,1.67 0.22,7.72 -0.06,8.9 -0.53,2.3 -3.85,3.5 -5.73,1.1 -0.71,-0.9 -0.66,-1.72 -0.66,-3.27l0 -6.81c0,-0.45 -0.08,-0.59 -0.08,-0.96l-3.48 0c0,1.01 0.07,1.79 0.07,2.74 -0,2.07 -0.17,6.73 0.25,8.19 0.6,2.08 1.97,3.65 3.95,4.49 1.82,0.77 3.86,0.62 5.58,-0.24 0.76,-0.38 1.55,-0.99 2.06,-1.64 1.52,-1.93 1.64,-3.18 1.64,-5.84 0.07,0.08 -0,-0.02 0.09,0.13l0.73 1.34c0.3,0.49 0.57,0.96 0.87,1.42 0.62,0.94 0.81,0.82 0.67,1.47 -0.22,0.97 -2,9.18 -2,9.71 0.66,0 1.12,-0.08 1.7,-0.08 0.62,0 1.24,0 1.85,0 0.04,-0.52 0.26,-1.28 0.36,-1.78 0.13,-0.62 0.23,-1.25 0.38,-1.85l0.74 -3.63c0.49,0.13 1.99,1.33 4.59,1.33 2.2,0 3.86,-0.94 4.98,-2.05 1.97,-1.96 2.63,-5.18 1.46,-7.79 -1.12,-2.49 -3.57,-4.15 -6.44,-4.15 -3.3,0 -5.9,2.58 -6.59,5.55 -0.17,-0.13 -0.4,-0.58 -0.53,-0.8 -1,-1.65 -1.53,-2.82 -2.26,-4.63 -0.27,-0.67 -0.57,-1.98 -0.84,-1.98l-3.33 0 0 1.11zm9.78 9.67c0.41,-1.74 0.69,-5.3 3.84,-5.46 2.23,-0.11 3.56,1.8 3.55,3.14 -0.04,3.87 -3.92,5.08 -7.39,2.32z"/>
   <path class="fil0" d="M48.94 12.82c0,1.34 0.12,2.17 0.67,3.26 0.25,0.5 0.59,1.12 0.98,1.54l0.43 0.45c2.03,1.95 4.92,2.59 7.54,1.41 2.31,-1.04 4.15,-3.52 4.15,-6.07 0,-1.85 -0.43,-3.51 -1.61,-4.83l-0.85 -0.85c-3.57,-3.12 -9.03,-1.5 -10.67,2.33 -0.32,0.76 -0.64,1.72 -0.64,2.76zm6.89 -3.72c2.23,0 4.03,1.81 4.03,4.03 0,2.23 -1.81,4.03 -4.03,4.03 -2.23,0 -4.03,-1.81 -4.03,-4.03 0,-2.23 1.81,-4.03 4.03,-4.03z"/>
   <path class="fil0" d="M43.38 15.49l-0.05 -0.1c-0.14,-0.38 0.09,0.28 -0.04,-0.11 -0.03,-0.1 -0.04,-0.14 -0.08,-0.29l-1.99 -7.93c-0.05,-0.23 -0.02,-0.46 -0.28,-0.46l-2.74 0c-0.01,0.35 -0.38,1.7 -0.49,2.18l-1.27 5.47c-0.08,0.37 -0.23,0.82 -0.24,1.17l-0.15 0c-0.03,-0.31 -0.2,-0.85 -0.29,-1.12l-0.96 -3.26c-0.21,-0.76 -0.41,-1.41 -0.63,-2.18 -0.22,-0.77 -0.46,-1.49 -0.64,-2.25l-2.96 0 0.56 1.95c0.78,2.41 1.55,5.28 2.31,7.75l0.87 2.91c0.26,0.84 0.01,0.66 1.8,0.56 0.42,-0.02 0.91,0 1.33,0l2.27 -9.06c0,-0.01 0.01,-0.03 0.02,-0.05l2.29 9.11 2.96 0 3.27 -11.53c0.11,-0.39 0.43,-1.27 0.43,-1.72l-2.81 0c-0.31,0 -0.28,0.45 -0.44,0.97l-1.49 5.69c-0.19,0.77 -0.41,1.51 -0.59,2.3z"/>
   <path class="fil0" d="M74.11 0.09c0,0.8 0.07,1.49 0.07,2.37l0 12.29c0,1.66 0.07,3.17 0.07,4.89l3.04 0 0 -6.22c0.53,0 0.81,0.01 1.1,0.46 1.1,1.69 2.99,3.95 4.16,5.69l3.55 0c-0.07,-0.26 -1.05,-1.57 -1.23,-1.81 -0.45,-0.62 -0.81,-1.16 -1.26,-1.78l-0.92 -1.3c-0.12,-0.17 -0.19,-0.3 -0.33,-0.49 -0.18,-0.25 -1.16,-1.55 -1.23,-1.81 0.28,-0.07 0.44,-0.23 0.74,-0.44 0.48,-0.34 1.38,-1.38 1.69,-1.87 0.58,-0.91 1.05,-2.21 1.05,-3.69l-3.04 0c0,2.22 -1.76,4.07 -4,4.07l-0.37 0 0 -10.22c0,-0.3 -0.27,-0.23 -0.59,-0.23 -0.29,0 -0.59,-0.01 -0.87,0.03 -0.48,0.06 -1.06,0.05 -1.65,0.05z"/>
   <path class="fil0" d="M64.56 16.52c0,1.15 0.07,2.04 0.07,3.18l3.04 -0.07 0 -4.59c0,-1.63 -0.4,-3.84 1.54,-5.05 1.14,-0.71 1.79,-0.58 3.13,-0.58l0 -2.96c-2.22,0 -3.14,0.16 -4.74,2l0 -2 -3.04 0 0 10.07z"/>
  </g>
 </g>
</svg>
