<?xml version="1.0" encoding="UTF-8"?>
<!DOCTYPE svg PUBLIC "-//W3C//DTD SVG 1.1//EN" "http://www.w3.org/Graphics/SVG/1.1/DTD/svg11.dtd">
<!-- Creator: CorelDRAW -->
<svg xmlns="http://www.w3.org/2000/svg" xml:space="preserve" width="29.3786mm" height="37.6579mm" version="1.1" style="shape-rendering:geometricPrecision; text-rendering:geometricPrecision; image-rendering:optimizeQuality; fill-rule:evenodd; clip-rule:evenodd"
viewBox="0 0 115.74 148.35"
 xmlns:xlink="http://www.w3.org/1999/xlink"
 xmlns:xodm="http://www.corel.com/coreldraw/odm/2003">
 <defs>
  <style type="text/css">
   <![CDATA[
    .fil0 {fill:black}
    .fil8 {fill:#010101}
    .fil7 {fill:#020202}
    .fil10 {fill:#030303}
    .fil12 {fill:#040404}
    .fil9 {fill:#060606}
    .fil13 {fill:#127DE0}
    .fil4 {fill:whitesmoke}
    .fil11 {fill:#F7F7F7}
    .fil6 {fill:#F91818}
    .fil5 {fill:#F91819}
    .fil1 {fill:#F91919}
    .fil3 {fill:#F9F9F9}
    .fil2 {fill:#FAF9F9}
   ]]>
  </style>
 </defs>
 <g id="Layer_x0020_1">
  <metadata id="CorelCorpID_0Corel-Layer"/>
  <g id="_1719834284464">
   <g>
    <path class="fil0" d="M107.43 40.19c-0.68,3.14 -1.9,6.17 -3.65,8.86 -2.05,3.12 -4.46,5.39 -7.57,7.44 -0.63,0.39 -1.24,0.77 -1.84,1.2l-0.1 0.08c-0.09,0.12 0.19,0.31 0.31,0.44 3.27,3.56 6.02,7.77 9.18,11.47 1.59,1.87 2.5,3.06 0.57,5.19 -0.82,0.9 -0.58,1.26 -0.22,2.27 0.8,2.27 1.04,4.1 1.32,6.47 0.25,2.19 -0.04,4.28 -0.12,6.45 -0.03,0.77 0.5,0.84 1.1,1.3 0.37,0.28 0.73,0.58 1.1,0.87 1.73,1.35 3.67,3.3 4.92,5.11 0.35,0.51 0.57,0.74 0.92,1.33 3,5.06 2.96,9.25 1.01,14.7 -1.92,5.36 -5.61,11.28 -9.17,15.72 -0.98,1.22 -2.03,2.41 -3.26,3.4 -1.41,1.05 -1.4,1.02 -0.29,2.36 1.44,1.72 2.54,3.02 3.16,5.25 0.35,1.27 0.36,2.4 -0.12,3.65 -1.07,2.6 -4.16,3.15 -6.63,3.5l-0.19 0.03c-2.01,0.27 -4.05,0.38 -6.07,0.45 -1.1,0.03 -2.2,0.05 -3.31,0.09 -3.97,0.12 -7.79,0.04 -11.75,0.02 -3.19,-0.01 -6.11,0.3 -9.27,0.5 -3.93,0.24 -3.82,-0.86 -5.17,-4.04 -1.91,-4.51 -2.43,-10.08 -3.34,-14.92 -1.11,-5.79 -1.96,-11.36 -2.51,-17.23 -0.26,-2.76 -0.72,-3.4 -3.51,-3.81 -1.79,-0.25 -2.26,0.5 -3.54,1.52 -4.3,2.85 -10.45,4.04 -15.55,4.16 -1.35,0.03 -2.71,-0.01 -4.06,-0.13l-0.19 -0.02c-7.42,-0.69 -15.19,-3.93 -20.68,-9.01 -3.75,-3.48 -6.79,-8.7 -8.09,-13.64 -1.26,-4.94 -1.09,-10.11 0.52,-14.94 0.87,-2.49 2.13,-4.55 3.94,-6.47 1.36,-1.41 2.84,-2.48 4.59,-3.36l0.19 -0.09c0.32,-0.15 0.64,-0.29 0.97,-0.42 2.52,-1 5.85,-1.36 8.52,-0.83 6.54,1.3 8.44,5.17 8.32,11.45 -0.04,2.25 -0.09,4.48 0.17,6.72 0.03,0.22 0.06,0.41 0.11,0.63 0.08,0.26 0.04,0.18 0.26,-0.11 0.47,-0.63 0.9,-1.4 1.39,-2.08 1.78,-2.53 3.23,-5.07 4.65,-7.81 1.22,-2.39 2.4,-4.78 3.77,-7.09 1.17,-1.96 1.62,-2.55 3.3,-4.1 1.76,-1.63 0.3,-1.76 -1.25,-2.65 -3.24,-1.86 -7.13,-5.71 -9.15,-8.85 -2.94,-4.58 -4.91,-11.06 -5.54,-16.45 -0.13,-1.13 -0.32,-2.8 0.64,-3.63l0.09 -0.04 0.1 -0.03c0.98,-0.18 1.28,2.09 1.64,2.85 1.05,2.05 3.43,4.47 5.98,3.55 1.1,-0.4 1.78,-1.28 2.33,-2.26l0.12 -0.23c1.64,-3.27 1.63,-7.8 1.07,-11.35 -0.66,-4.15 -1.25,-6.99 -0.5,-11.27 0.26,-1.49 0.66,-2.87 1.18,-4.29 1.15,-3.07 2.99,-6.14 6.53,-6.58 1.18,-0.15 2.33,-0.04 3.47,0.26 3.72,1.04 8,4.74 10.31,7.79 0.62,0.82 1.56,2.48 2.51,2.75 0.63,0.18 1.59,-0.05 2.24,-0.15 0.93,-0.13 4.37,-0.26 4.79,-0.76 0.17,-0.41 -0.09,-3.3 -0.1,-3.99l0 -0.14c0.09,-4.05 1.6,-7.17 6.08,-7.2 3.88,0.1 7.09,3.41 9.55,6.07 1.25,1.35 2.39,2.75 3.51,4.21 0.32,0.41 0.63,0.82 0.95,1.23 0.2,0.25 0.4,0.51 0.59,0.77 0.57,0.76 1.21,1.91 1.7,2.75 0.27,0.46 0.39,0.64 0.71,1.11 2.22,3.23 3.31,6.83 4.96,10.33 1.33,2.8 4.08,7.29 7.31,3.65 1.5,-1.68 2.24,-3.03 3.66,0.02 1.43,3.08 1.04,6.83 0.4,10.06zm-78.78 46.33c0.06,-0.21 0.51,0.27 0.66,0.37 1.55,1.12 4.45,1.78 6.32,2.1 1.02,0.18 0.56,0.35 0.73,1.46 0.35,2.19 1.07,3.25 1.96,5.18 1.47,3.19 -3.5,0.08 -4.27,-0.48 -2.7,-2 -4.35,-4.97 -5.27,-8.15 -0.05,-0.17 -0.09,-0.31 -0.12,-0.48zm10.72 10.85c-0.02,-0 -0.02,-0 0,0z"/>
   </g>
   <g>
    <path class="fil1" d="M74.4 23.2c-1.07,-1.26 -1.06,-2.1 -1.82,-3.23 -0.76,-1.14 -1.14,0.26 -1.22,0.95 -0.17,1.54 0.09,2.2 -0.71,3.77 -0.2,0.4 -0.35,0.56 -0.73,0.78 -1.17,0.22 -1.06,-0.48 -1.8,-1.33 -5.45,-6.11 -15.58,-4.3 -18.45,3.28 -0.99,2.61 -0.55,4.41 -0.58,7.03 -0.04,2.97 -1.27,4.77 -3.73,6.39 -0.65,0.43 -1.32,0.78 -2,1.14 -0.31,0.16 -0.55,0.24 -0.88,0.34 -0.39,0.12 -0.48,0.2 -0.91,0.27 -0.3,0.05 -0.52,0.16 -0.95,0.22 -0.55,0.08 -0.91,0.18 -1.5,0.21 -1.39,0.02 -2.58,0.06 -3.98,-0.12 -1.28,-0.16 -2.06,-0.16 -1.55,1.42 1.39,3.79 5.08,7.46 8.6,9.33 4.28,2.25 9.76,3.34 14.58,3.23 2.46,-0.06 4.84,-0.51 7.08,-1.54 0.78,-0.37 1.95,-0.99 1.49,-2.01l-0.12 -0.18c-0.65,-0.77 -1.3,-1.22 -1.98,-2.09 -3.91,-5.01 -3.48,-10.53 2.32,-13.8 1.87,-1.02 5.04,-2.15 7.18,-1.8 1.16,0.19 2.27,0.58 3.44,0.78 1.97,0.31 4.2,0.49 6.19,0.34 0.78,-0.08 1.69,-0.13 2.44,-0.3 0.5,-0.1 0.66,-0.11 1.19,-0.26 0.62,-0.18 1.24,-0.32 1.87,-0.53 0.99,-0.33 0.67,-0.05 1.26,0.82 1.14,1.6 2.51,1.17 2.76,1.41 0.14,0.13 -0.67,1.47 -0.86,1.68 -0.1,0.11 -0.13,0.18 -0.19,0.32 -0,0 -0.55,0.85 -0.59,0.89 -0.43,0.54 -0.82,1.43 -1.32,2.03 -2.22,2.53 -6.39,2.86 -9.16,1.1 -0.67,-0.42 -1.3,-0.89 -1.93,-1.35 -2.37,-1.71 -3.52,-1.99 -6.42,-2.11 -2.02,-0.07 -3.32,0.27 -4.75,1.79 -2.93,3.13 -0.67,6.8 -0.76,7.03 -0.41,0.07 -1.67,-1.58 -1.9,-1.91 -0.01,-0.01 -1.68,-2.64 -1.28,-1.28 0.39,1.34 1.32,2.7 2.32,3.67 1.4,1.35 3.08,2.23 4.96,2.71 0.26,0.06 0.69,0.05 0.96,0.05 0.29,0.01 0.58,0.01 0.88,0.02 3.23,0.31 6.32,-0.04 9.38,-1.17 0.9,-0.33 1.02,-0.09 1.9,0.09 2.19,0.47 3.92,0.17 6.04,-0.34 0.54,-0.13 1.46,-0.49 1.96,-0.71 2.01,-0.85 4.72,-2.59 6.35,-4.04 0.69,-0.61 1.24,-1.24 1.82,-1.96 1.18,-1.53 3.28,-4.93 3.48,-6.82 0.18,-1.69 -2.1,-0.42 -2.95,-0.19 -1.71,0.47 -3.4,0.53 -5.06,-0.16 -0.48,-0.24 -0.75,-0.49 -0.89,-1.01 -0.1,-0.59 -0.04,-0.77 -0.27,-1.41 -0.22,-0.62 -0.17,-0.78 0.12,-1.32 0.58,-1.09 0.78,-1.38 0.99,-2.72 0.06,-0.42 0.11,-2 0.17,-2.17 0.14,0.01 0.41,0.78 0.52,0.98 1.57,2.82 3.88,5.24 7.37,3.83 1.15,-0.47 1.82,-1.25 2.5,-2.25 0.2,-0.31 0.06,-0.58 0.29,0.14 0.42,1.53 0.18,4.56 -0.07,6.2 -0.55,3.6 -1.76,7.7 -3.88,10.7 -0.28,0.4 -0.4,0.6 -0.72,1 -1.04,1.32 -2.13,2.36 -3.42,3.43 -3.1,2.59 -6.45,4.31 -10.2,5.76l-0.19 0.07c-1.39,0.53 -2.81,1 -4.26,1.35 -0.35,0.08 -0.76,0.22 -1.15,0.32 -1.01,0.25 -1.91,0.49 -2.94,0.71 -0.52,0.11 -0.97,0.26 -1.5,0.33 -0.16,0.02 -0.74,0.19 -0.97,0.23 -0.67,0.13 -1.24,0.2 -1.91,0.35 -0.7,0.16 -1.57,0.21 -2.34,0.37 -1.85,0.38 -4.01,0.58 -5.9,0.76 -6.24,0.58 -13.14,0.56 -19.04,-1.78 -0.78,-0.31 -1.34,-0.5 -2.13,-0.87 -1.94,-0.92 -3.66,-1.88 -5.37,-3.18 -0.99,-0.77 -2.44,-2.06 -3.32,-2.97 -2.51,-2.61 -4.03,-5.32 -5.46,-8.61 -0.39,-0.9 -0.74,-1.81 -1.07,-2.74 -0.2,-0.57 -1.8,-5.1 -1.64,-5.33 0.06,0.01 0.92,0.76 1.08,0.87 3.43,2.4 7.04,1.18 8.78,-2.55 1.19,-2.55 1.88,-5.76 1.79,-8.57 -0.15,-4.96 -1.73,-8.44 -0.97,-13.76 0.52,-3.65 2.11,-9.07 6.32,-9.86 2,-0.33 4.32,0.86 5.98,1.91 3.03,1.96 5.54,4.82 7.94,7.5 0.23,0.26 -0.11,0.24 -0.44,0.32 -1.01,0.23 -1.71,0.36 -2.72,0.68 -2.2,0.7 -2.01,0.41 -3.26,-1.29 -0.2,-0.27 -0.38,-0.52 -0.6,-0.77 -1.46,-1.62 -4.47,-4.59 -6.83,-3.14l-0.34 0.24c-1.9,1.68 -1.57,5.66 -1.32,7.98 0.12,1.1 0.53,5.21 2.39,3.37 1.43,-1.46 1.39,-1.98 3.46,-3.02 5.9,-2.96 18.62,-4.26 25.27,-3.77 2.12,0.16 4.14,0.27 6.24,0.64 0.64,0.12 1.23,0.26 1.85,0.43 0.37,0.1 2.11,0.67 2.28,0.37 0.21,-0.36 -0.81,-0.74 -1.1,-0.89 -0.36,-0.18 -1.16,-0.46 -1.41,-0.75 -0.18,-0.22 -0.27,-0.47 -0.41,-0.73 -1.12,-2.08 -3.62,-6.8 -6.62,-5.6 -1.75,0.79 -1.91,3.17 -1.52,4.79 0.1,0.43 -0.2,0.28 -0.74,0.29 -0.54,0.01 -2.67,0.29 -2.84,-0.33 -0.17,-0.63 -0.22,-3.15 -0.23,-3.94l0 -0.1 0 -0.08c0.08,-2.3 0.87,-5.05 3.62,-5.23 5.04,-0.1 10.29,6.93 13.02,10.69 0.47,0.64 0.89,1.31 1.3,1.99 0.15,0.26 0.26,0.33 0.43,0.66 0.39,0.73 0.94,1.5 1.36,2.21 0.57,0.99 1.29,2.47 1.75,3.51 0.51,1.16 -0.16,0.29 -0.77,-0.14 -0.98,-0.68 -2.53,-1.38 -3.7,-1.57 -2.79,-0.42 -5.15,0.08 -7.46,1.75 -2.45,1.78 -3.66,4.41 -3.75,7.39 -0.04,1.46 -0.02,2.33 -0.52,0.14 -0.43,-1.89 -0.26,-2.19 0.05,-3.98 0.17,-1 -0.32,-0.92 -1,-1.64z"/>
   </g>
   <g>
    <path class="fil2" d="M75.39 18.61c0.47,-0.62 1.31,-0.9 2.05,-1.07 0.54,-0.13 1.55,-0.24 1.88,0.35 0.22,0.39 -0.37,1.12 -0.6,1.46 -0.36,0.52 -0.89,1.3 -1.49,1.56 -1.39,0.6 -2.8,-0.84 -1.84,-2.29z"/>
   </g>
   <g>
    <path class="fil2" d="M67.13 21.23c-0.88,-0.35 -1.41,-1.23 -1.86,-2.03 -0.14,-0.24 -0.59,-0.99 -0.35,-1.25 0.39,-0.42 1.8,-0.19 2.3,-0.01 0.98,0.33 2.27,1.21 1.82,2.43 -0.29,0.77 -1.13,1.11 -1.91,0.86z"/>
   </g>
   <g>
    <path class="fil3" d="M91.26 26.65c-0.06,-0.14 -0.14,-0.39 -0.33,-0.37 -0.51,0.35 -0.31,1.11 -1.74,1.46 -1.31,0.32 -2.74,-0.62 -2.75,-2.05 -0.01,-2.15 1.76,-2.04 2.04,-2.43 0.02,-0.11 -0.2,-0.26 -0.26,-0.31 -0.65,-0.49 -2.09,-0.94 -2.91,-1.04 -1.09,-0.14 -1.72,-0.07 -2.79,0.06 -0.22,0.03 -0.44,0.15 -0.68,0.21 -1.25,0.34 -2.55,1.24 -3.38,2.23 -0.28,0.34 -0.43,0.5 -0.66,0.88 -0.13,0.22 -0.33,0.33 -0.17,0.1 0.07,-0.1 0.24,-0.52 0.32,-0.66 0.76,-1.43 2.36,-2.81 3.82,-3.49 1.64,-0.75 3,-0.9 4.78,-0.69 3.58,0.55 6.27,3.09 7.12,6.61 0.27,1.12 0.25,2.29 0.04,3.42 -0.14,0.66 -0.55,1.96 -0.96,2.46 -0.23,0.24 -0.45,0.05 -0.77,-0.03 -2,-0.51 -1.98,0.15 -3.69,0.87 -1.38,0.59 -2.87,1 -4.39,0.85 -0.75,-0.07 0.48,-0.22 0.66,-0.26 1.44,-0.33 2.56,-0.73 3.88,-1.38 0.77,-0.38 1.29,-0.62 2.11,-0.9 0.95,-0.32 0.95,-0.66 1.08,-1.61 0.17,-1.26 0.08,-2.74 -0.37,-3.93z"/>
   </g>
   <g>
    <path class="fil3" d="M52.41 27.59c-0.37,0.66 -0.85,1.81 -0.98,2.55 -0.43,2.8 0.5,5.68 2.69,7.54 0.27,0.23 1.13,0.8 1.45,0.94 0.76,0.34 0.98,0.52 1.84,0.7 0.86,0.18 1.8,0.26 2.68,0.14 0.46,-0.06 0.16,0.37 0.07,0.62 -0.1,0.26 -0.27,1.02 -0.5,1.12 -0.35,0.15 -2.18,-0.28 -2.61,-0.41 -0.49,-0.15 -1.1,-0.37 -1.54,-0.63 -0.42,-0.26 -0.7,-0.31 -1.11,-0.65 -0.31,-0.26 -0.54,-0.35 -0.87,-0.66 -1.56,-1.44 -2.29,-2.56 -3.01,-4.56 -0.11,-0.32 -0.29,-1.15 -0.33,-1.48 -0.08,-0.59 -0.12,-1.28 -0.08,-1.87 0.04,-0.63 0.06,-1.23 0.26,-1.83 0.09,-0.25 0.09,-0.42 0.2,-0.72 0.18,-0.48 0.24,-0.75 0.49,-1.24 0.38,-0.74 0.9,-1.53 1.43,-2.18 1.11,-1.3 2.55,-2.18 4.13,-2.8 2.5,-0.91 5.33,-0.75 7.7,0.47 0.15,0.08 0.3,0.16 0.45,0.24 0.2,0.11 0.17,0.06 0.39,0.23 1.5,1.11 2.09,1.66 3.16,3.21 1.02,1.64 1.59,3.89 1.4,5.81 -0.05,0.41 -0.22,1.81 -0.44,2.09 -0.46,0.32 -1.63,0.32 -2.25,0.43 -0.85,0.15 -1.19,0.22 -2.01,0.54 -0.44,0.17 -0.83,0.31 -1.24,0.54 -0.59,0.33 -0.17,-0.14 0.09,-0.32 0.57,-0.38 1.19,-0.7 1.85,-0.89 1.22,-0.36 1.32,-0.82 1.41,-1.98 0.06,-0.84 0.07,-2.78 -0.38,-3.5 -0.33,-0.53 -0.74,0.56 -1.04,0.85 -0.71,0.64 -1.58,0.76 -2.49,0.53 -1.07,-0.27 -1.85,-1.54 -1.67,-2.61 0.27,-1.39 0.92,-1.95 2.25,-2.23 0.18,-0.04 0.3,-0.09 0.16,-0.31 -0.38,-0.61 -2.48,-1.3 -3.23,-1.44 -0.73,-0.14 -1.38,-0.14 -2.12,-0.08 -2.54,0.24 -4.88,1.61 -6.18,3.83z"/>
   </g>
   <g>
    <path class="fil4" d="M63.38 35.93c-0.03,0.09 -0.09,0.12 -0.19,0.09 0.06,-0.04 0.12,-0.07 0.19,-0.09z"/>
   </g>
   <g>
    <g>
     <path class="fil3" d="M68.68 48.43c-0.85,-1.05 -1.26,-3.01 -0.57,-4.23 0.68,-1.18 1.78,-1.97 3.14,-2.17 0.68,-0.1 0.45,0.21 0.23,0.69 -0.85,1.9 -1.56,3.66 -2.04,5.7 -0.14,0.6 -0.26,0.6 -0.7,0.1l-0.07 -0.08z"/>
    </g>
    <g>
     <path class="fil3" d="M75.81 47.18c-0.18,0.89 -0.25,1.77 -0.46,2.66 -0.01,0.05 -0.02,0.09 -0.04,0.14 -0.18,0.41 -0.69,0.25 -1.09,0.24 -1.05,-0.02 -1.83,0.04 -2.88,-0.26 -0.77,-0.25 -0.28,-0.51 -0.02,-1.13 0.59,-1.5 1.15,-3.47 1.51,-5.05 0.04,-0.17 0.29,-1.48 0.32,-1.52 0.24,-0.26 2.93,1.04 3.25,1.39 0.31,0.35 0.01,0.91 -0.11,1.33 -0.19,0.69 -0.33,1.41 -0.47,2.11l-0.02 0.09z"/>
    </g>
    <g>
     <path class="fil3" d="M80.31 49.23c-0.45,0.21 -3.01,1.01 -3.35,0.79 -0.09,-0.1 0.05,-0.43 0.09,-0.55 0.35,-1.36 0.56,-2.64 0.79,-4.02 0.04,-0.24 0.09,-0.44 0.17,-0.66 0.72,0.34 1.26,0.77 2.06,1.06 0.79,0.29 0.7,0.21 0.7,0.99 0,0.3 0,0.61 -0.01,0.91 -0.02,0.42 -0.06,1.24 -0.45,1.48z"/>
    </g>
    <g>
     <path class="fil3" d="M83.49 47.69c-0.13,0.08 -1,0.69 -1.09,0.43 -0.05,-0.23 -0.1,-1.44 0.14,-1.52 0.18,-0.06 0.93,-0.04 1.17,-0.03 0.45,-0 0.79,-0.02 1.23,-0.06 0.68,-0.06 0.43,0.09 0.02,0.35 -0.49,0.32 -0.99,0.55 -1.48,0.84z"/>
    </g>
   </g>
   <g>
    <path class="fil3" d="M99.69 74.95c-0.59,0.31 -0.58,-0 -0.74,-0.55 -0.18,-0.6 -0.33,-0.99 -0.56,-1.57 -0.39,-0.96 -0.59,-1.95 -1.01,-2.93 -0.25,-0.57 -0.38,-1.15 -0.62,-1.74 -0.18,-0.45 -0.32,-0.91 -0.51,-1.38 -0.17,-0.44 -0.33,-0.87 -0.51,-1.31 -0.07,-0.18 -0.08,-0.28 -0.18,-0.46 -0.07,-0.12 -0.15,-0.42 -0.23,-0.59 -0.1,-0.22 -0.11,-0.35 -0.24,-0.58 -0.05,-0.1 -0.31,-0.8 -0.34,-0.91 -0.09,-0.26 -0.14,-0.4 -0.29,-0.64 -0.14,-0.22 -0.11,-0.33 -0.22,-0.53 -0.2,-0.36 -0.2,-0.49 -0.07,-0.88 0.29,-0 0.32,0.21 0.49,0.45 2.01,2.88 4.21,5.69 6.32,8.51 0.39,0.52 0.75,1.01 1.17,1.51 0.15,0.17 0.79,0.92 0.8,1.09 0.01,0.21 -0.33,0.42 -0.49,0.55 -0.86,0.72 -1.81,1.41 -2.79,1.93z"/>
   </g>
   <g>
    <path class="fil3" d="M75.48 95.62c-0.42,0.09 -0.91,0.09 -1.36,0.17 -0.75,0.12 -1.5,0.18 -2.26,0.28 -0.88,0.11 -1.92,0.19 -2.81,0.24 -0.41,0.03 -1.34,0.09 -1.72,-0.02 -0.56,-0.2 -1,-0.55 -1.65,-0.76 -0.19,-0.06 -0.32,-0.11 -0.51,-0.2 -0.14,-0.08 -0.3,-0.08 -0.52,-0.21 -0.35,-0.2 -0.88,-0.38 -1.28,-0.58 -0.3,-0.15 -0.47,-0.32 -0.76,-0.44 -0.57,-0.24 -2.2,-1.48 -2.71,-1.93 -0.67,-0.6 -1.2,-1.21 -1.7,-1.97 -0.38,-0.58 -0.83,-1.78 -0.71,-2.47 0.04,-0.26 0.1,-0.8 0.23,-0.99 0.07,-0.1 0.16,-0.22 0.23,-0.32 0.63,-0.9 1.26,-1.99 1.65,-3.01 0.09,-0.22 0.2,-0.37 0.29,-0.64 0.16,-0.46 0.32,-0.88 0.53,-1.33 0.08,-0.17 0.12,-0.37 0.21,-0.58 0.18,-0.42 0.29,-0.86 0.45,-1.28 0.08,-0.22 0.14,-0.47 0.23,-0.72 0.39,-1.09 0.78,-2.56 1.02,-3.7 0.07,-0.33 0.18,-0.64 0.25,-0.99 0.12,-0.56 0.24,-1.16 0.34,-1.72 0.09,-0.49 0.11,-0.95 0.21,-1.45 0.06,-0.28 0.19,-1.15 -0.32,-1.09 -0.34,0.04 -0.45,0.85 -0.55,1.13 -0.1,0.28 -0.11,0.48 -0.22,0.76 -0.11,0.27 -0.16,0.52 -0.27,0.8 -0.26,0.69 -0.41,1.42 -0.69,2.12 -0.09,0.22 -0.14,0.51 -0.22,0.75 -0.61,1.76 -1.21,3.46 -1.93,5.18 -0.15,0.35 -0.32,0.79 -0.48,1.13 -0.14,0.29 -0.3,0.74 -0.46,0.98 -0.08,0.12 -0.14,0.31 -0.24,0.48 -0.2,0.32 -0.36,0.67 -0.57,1 -0.35,0.59 -0.44,0.76 -0.93,1.26 -0.53,-0.29 -1.01,-0.63 -1.54,-0.92 -0.54,-0.29 -0.93,-0.49 -1.5,-0.74 -0.34,-0.15 -0.52,-0.27 -0.9,-0.41 -0.27,-0.1 -0.55,-0.25 -0.8,-0.32 -0.19,-0.05 -0.25,-0.16 -0.5,-0.22 -0.25,-0.07 -0.37,-0.16 -0.66,-0.23 -0.18,-0.04 -0.26,-0.13 -0.5,-0.19 -0.29,-0.07 -0.51,-0.18 -0.81,-0.26 -0.34,-0.09 -0.66,-0.19 -1,-0.28 -1.36,-0.36 -2.49,-0.56 -3.89,-0.71 -0.13,-0.01 -0.26,-0.03 -0.39,-0.04 -1.46,-0.18 -3.2,-0.15 -4.68,-0.04 -1,0.08 -1.99,0.2 -2.99,0.33 -1.38,0.19 -2.67,0.52 -4.01,0.87 -0.3,0.08 -0.49,0.14 -0.77,0.27 -0.08,0.04 -0.14,0.04 -0.22,0.01 0.45,-0.54 0.92,-0.98 1.34,-1.56 0.26,-0.36 0.54,-0.71 0.8,-1.08 0.4,-0.59 0.79,-1.12 1.17,-1.73 0.22,-0.36 0.43,-0.61 0.63,-0.99 0.26,-0.49 0.63,-1.01 0.93,-1.51 0.35,-0.61 0.7,-1.23 1.06,-1.84 0.09,-0.15 0.21,-0.3 0.31,-0.48 0.49,-0.84 0.93,-1.71 1.41,-2.57 0.41,-0.72 0.83,-1.42 1.23,-2.15 0.31,-0.56 0.77,-1.27 1.13,-1.81 0.09,-0.14 0.19,-0.28 0.28,-0.41 0.98,-1.35 2.04,-2.65 3.67,-3.22 0.31,-0.11 1.05,-0.44 1.33,-0.41 0.2,0.02 0.87,0.34 1.13,0.43 1.07,0.39 2.2,0.61 3.31,0.87 1.27,0.3 2.6,0.48 3.89,0.67 0.52,0.08 1.07,0.1 1.61,0.17 0.61,0.08 1.11,0.11 1.72,0.16 0.69,0.06 1.34,0.19 2.04,0.24 1.57,0.12 3.22,0.19 4.8,0.27 6.21,0.32 12.62,0.4 18.74,-0.79 2.55,-0.5 5.11,-1.14 7.59,-1.9 0.46,-0.14 0.72,-0.25 1.14,-0.48 0.3,-0.17 0.27,0.08 0.39,0.35 0.45,1.06 0.75,2.2 1.17,3.29 0.23,0.61 0.42,1.15 0.61,1.77 0.15,0.48 0.35,1.01 0.51,1.5 0.3,0.9 0.52,1.72 0.87,2.62 0.44,1.14 0.76,2.31 1.18,3.47 0.22,0.62 0.4,1.29 0.62,1.93 0.42,1.22 0.95,2.6 1.27,3.82 0.13,0.48 0.33,1.16 0.56,1.59 0.04,0.07 0.24,0.95 0.38,1.23 0.15,0.3 0.15,0.53 0.26,0.85 0.15,0.43 1.17,3.39 1.12,3.57 -0.19,0.34 -1.66,0.82 -2.11,1.01 -2.12,0.85 -4.22,1.62 -6.4,2.3 -2.95,0.92 -5.82,1.74 -8.86,2.34 -0.41,0.08 -0.75,0.17 -1.17,0.25 -0.35,0.06 -0.53,0.15 -0.91,0.2 -0.5,0.06 -0.99,0.17 -1.48,0.25 -0.4,0.06 -0.73,0.15 -1.15,0.2 -0.64,0.08 -1.21,0.23 -1.87,0.31 -0.63,0.08 -1.23,0.14 -1.86,0.26z"/>
   </g>
   <g>
    <path class="fil5" d="M100.7 79.62c-0.14,-0.28 -0.8,-2.03 -0.68,-2.25 0.07,-0.13 1.62,-0.94 1.7,-0.92 0.16,0.03 0.33,1.26 0.38,1.5 0.26,1.25 0.23,1.18 -0.87,1.58 -0.13,0.05 -0.43,0.2 -0.54,0.09z"/>
   </g>
   <g>
    <path class="fil6" d="M38.35 88.91c-0.36,-1.9 -0.38,-3.84 -0.23,-5.76 3.59,-0.73 8.13,-0.35 11.54,0.95 1.25,0.48 3.28,1.45 4.34,2.24 0.46,0.34 -0.6,-0.05 -0.76,-0.09 -2.74,-0.65 -5.01,-0.57 -7.76,0.05 -2.18,0.49 -5.37,1.57 -6.84,3.33 -0.17,0.21 -0.25,-0.58 -0.28,-0.73z"/>
   </g>
   <g>
    <path class="fil5" d="M103.01 85.93c-0.21,1.14 -0.37,0.13 -0.53,-0.45 -0.14,-0.51 -0.27,-0.99 -0.39,-1.5 0.87,-0.34 0.87,-0.12 0.97,0.81 0.05,0.45 0.03,0.71 -0.05,1.15z"/>
   </g>
   <g>
    <g>
     <path class="fil7" d="M92.73 68.63c0.07,0.1 0.15,0.2 0.24,0.28 0.06,0.46 0,0.55 -0.3,0.92 -0.78,0.85 -1.47,0.98 -2.53,0.52 -0.89,-0.42 -1.47,-1.24 -1.58,-2.21 -0.07,-0.81 0.14,-1.6 0.36,-2.37 0.3,-1.05 0.95,-1.46 2.04,-1.22 0.9,0.2 0.95,1.56 0.3,1.45 -0.51,-0.08 -0.74,-0.58 -0.96,0.32 -0.22,0.87 -0.49,2.05 0.48,2.58 0.62,0.34 0.82,-0.28 1.43,-0.31l0.13 -0.01 0.15 0 0.25 0.05z"/>
    </g>
    <g>
     <path class="fil7" d="M83.88 69.5c-0.12,0.4 0.96,1.86 -0.13,2.34 -0.63,0.28 -1.04,-0.34 -1.14,-0.9 -0.11,-0.6 0.07,-0.73 -0.28,-1.36 -0.18,-0.32 -0.29,-0.4 -0.13,-0.73 0.12,-0.24 -0.01,-0.48 -0.07,-0.75 -0.09,-0.42 -0.24,-0.97 -0.38,-1.37 -0.25,-0.73 0.45,-1.11 0.74,-0.63 0.32,0.53 0.46,0.91 0.69,1.46 0.31,0.75 0.26,0.35 0.92,0.16 0.48,-0.08 0.5,-0.01 0.45,-0.58 -0.05,-0.56 -0.46,-1.52 0.1,-1.95 0.18,-0.14 0.66,-0.03 0.74,0.17 0.05,0.12 0.05,0.17 0.12,0.33 0.14,0.28 0.14,0.6 0.25,0.93 0.11,0.3 0.08,0.54 0.17,0.85 0.12,0.39 0.18,0.81 0.28,1.22 0.09,0.35 0.18,0.83 0.26,1.19 0.13,0.67 0.27,2.08 -0.81,1.96 -0.54,-0.06 -0.75,-0.63 -0.8,-1.1 -0.02,-0.23 0,-1.47 -0.26,-1.51 -0.2,-0.03 -0.57,0.13 -0.71,0.26z"/>
    </g>
    <g>
     <path class="fil8" d="M86.7 70.03c-0.15,-0.66 -0.1,-2.2 -0.1,-2.95 -0,-0.3 -0.03,-1.11 0.08,-1.34 0.34,-0.57 0.86,-0.31 0.94,0.24 0.05,0.39 0.08,0.57 0.17,0.96 0.11,0.49 0.12,0.94 0.25,1.48 0.13,0.53 0.53,1.93 -0,2.31 -0.11,0.08 -0.24,0.11 -0.37,0.14 -0.53,0.09 -0.85,-0.39 -0.97,-0.84z"/>
    </g>
    <path class="fil7" d="M64.53 70.04c0.2,-0.5 0.12,-0.47 0.47,-0.98 0.67,-0.92 1.14,-1.01 2.19,-1.3 0.91,-0.25 1.18,0.47 1.3,-0.13 0.12,-0.6 0.34,-1.02 1.02,-0.96 0.86,0.12 0.89,1.19 0.99,1.88 0.02,0.13 0.04,0.26 0.06,0.4 0.18,1.21 0.34,2.64 0.27,3.86 -0.04,0.55 -0.18,1.28 -0.41,1.79 -0.3,0.68 -0.35,0.88 -0.92,1.47 -0.82,0.85 -1.66,0.94 -2.79,0.89 -0.78,-0.04 -1.59,-0.23 -2.04,-0.92 -0.28,-0.46 -0.07,-1.26 0.64,-1.21 0.38,0.03 0.85,0.34 1.33,0.44 0.65,0.14 1.24,0.05 1.75,-0.4 0.09,-0.08 0.16,-0.16 0.23,-0.25 0.27,-0.33 0.46,-0.91 0.54,-1.33 0.02,-0.09 0.07,-0.15 -0.07,-0.09 -0.07,0.03 -0.33,0.35 -0.42,0.43 -0.72,0.67 -1.54,1.04 -2.52,0.79 -0.68,-0.18 -1.06,-0.43 -1.45,-1.05 -0.43,-0.68 -0.4,-1.48 -0.37,-2.26 0.01,-0.14 0.02,-0.28 0.03,-0.42 0.03,-0.24 0.08,-0.42 0.16,-0.64zm1.4 2.01c-0.17,-0.7 0.17,-1.99 0.73,-2.45 0.43,-0.34 1.18,-0.71 1.71,-0.4 0.51,0.3 -0.05,2.05 -0.33,2.5 -0.46,0.73 -1.65,2.02 -2.08,0.5l-0.04 -0.15z"/>
    <path class="fil7" d="M75.92 73.63c-0.99,-0.02 -1.9,-0.13 -2.41,-1.13 -0.41,-0.81 -0.11,-2.09 0.68,-2.53 0.52,-0.29 1.06,-0.41 1.65,-0.23 0.62,0.25 0.63,0.41 0.67,-0.52 0.02,-0.48 0.02,-1.11 -0.49,-1.35 -0.4,-0.19 -0.52,0.4 -0.87,-0.04l-0.1 -0.14c-0.06,-0.1 0.09,-0.45 0.13,-0.55 0.06,-0.12 0.5,-0.37 0.65,-0.38 0.66,-0.01 0.59,0.04 1.15,0.3 0.2,0.09 0.47,0.45 0.55,0.67 0.22,0.58 0.21,0.23 0.26,0.99 0.05,0.88 -0.02,1.68 -0.05,2.55 -0.02,0.65 0.44,0.5 0.3,1.23 -0.06,0.33 -0.56,1.11 -0.87,1.24 -0.3,0.12 -0.8,-0.08 -1.14,-0.1l-0.12 -0.01zm-0.29 -1.66c-1.39,0.02 -0.75,-1.15 -0.25,-0.93 0.15,0.07 0.84,0.75 0.59,0.88 -0.07,0.04 -0.26,0.05 -0.34,0.06z"/>
    <path class="fil7" d="M78.23 73.42c-0.01,-1.3 0.07,-2.61 0.05,-3.91 -0.01,-0.58 -0.21,-0.29 -0.19,-0.65 0.07,-0.54 0.52,-0.92 0.9,-1.3 0.05,-0.05 0.38,-0.28 0.46,-0.3 0.2,-0.05 0.33,-0.1 0.51,-0.19 0.37,-0.06 0.72,0.08 1.07,0.2 0.37,0.13 0.7,0.56 0.85,0.91 0.36,0.84 0.24,1.76 -0.3,2.5 -0.28,0.38 -0.68,0.56 -1.1,0.76 -0.27,0.13 -0.56,0.24 -0.78,0.46l-0.03 0.04c-0.01,0.03 0.09,1.37 0.1,1.49 0.03,0.56 0.21,1.71 -0.61,1.78 -0.37,0.03 -0.69,-0.21 -0.82,-0.54l-0.02 -0.04c-0.12,-0.36 -0.09,-0.83 -0.09,-1.21zm2.1 -5.05c0.36,0.33 0.46,0.69 0.24,1.14 -0.07,0.14 -0.21,0.23 -0.32,0.36 -0.04,0.05 -0.2,0.05 -0.33,0.15 -0.09,0.07 -0.33,0.22 -0.34,0.02 -0.01,-0.21 -0.04,-1.46 0.03,-1.52 0.34,-0.26 0.14,-0.26 0.56,-0.23 0.08,0.01 0.09,0.03 0.17,0.08z"/>
    <g>
     <path class="fil7" d="M72.64 74.52c-0.49,0.17 -0.94,-0.14 -1.06,-0.65 -0.07,-0.31 -0.08,-0.66 -0.16,-1.01 -0.18,-0.84 -0.16,-2.94 -0.11,-3.86 0.04,-0.79 0.67,-0.79 0.82,-0.44 0.08,0.2 0.23,0.02 0.4,-0.1 0.53,-0.35 1.19,-0.55 1.73,-0.08 0.54,0.61 0.2,1.14 -0.48,1.39 -0.71,0.26 -0.97,0.22 -1.02,1.11 -0.02,0.91 0.62,2.47 0.31,3.21 -0.09,0.22 -0.22,0.33 -0.43,0.43z"/>
    </g>
    <g>
     <path class="fil7" d="M94.23 75.27c0.23,-0.16 0.14,-0.29 -0.06,-0.45 -0.5,-0.43 -1.23,-0.53 -1.4,-1.36 -0.1,-0.48 0.05,-1.65 0.34,-2.05 0.24,-0.32 0.57,-0.38 0.95,-0.38 0.73,0.09 0.98,1.03 0.47,1.06 -0.37,0.02 -0.41,0.03 -0.43,0.47 -0.03,0.7 0.49,0.53 0.99,0.9 1.09,0.81 1.35,2.58 -0.11,3.21 -0.67,0.24 -2.39,0.49 -2.27,-0.67 0.07,-0.66 0.92,-0.55 1.41,-0.69l0.1 -0.04z"/>
    </g>
    <g>
     <path class="fil7" d="M92.24 76.53c-0.68,0.64 -1.28,0.15 -1.38,-0.66 -0.11,-0.85 -0.2,-1.73 -0.23,-2.59 -0.01,-0.28 -0.07,-1.25 0.13,-1.45 0.27,-0.28 0.7,-0.06 0.84,0.28 0.06,0.14 0.27,1.13 0.31,1.33 0.11,0.67 0.65,2.45 0.38,3l-0.04 0.08z"/>
    </g>
    <g>
     <path class="fil7" d="M86.74 77.46c0.12,0.43 0.24,0.9 -0.24,1.19 -0.43,0.26 -0.86,0.03 -1.06,-0.4 -0.19,-0.42 -0.16,-0.78 -0.3,-1.22 -0.1,-0.36 -0.14,-0.72 -0.24,-1.09 -0.15,-0.61 -0.13,-0.76 -0.43,-1.35 -0.29,-0.56 0.01,-0.88 0.62,-0.72 0.22,0.1 0.18,-0 0.37,-0.21 0.4,-0.42 0.73,-0.46 1.29,-0.55 1.1,-0.15 1.95,0.44 2.23,1.52 0.09,0.33 0.22,0.59 0.3,0.95 0.09,0.38 0.39,1.67 0.34,2 -0.11,0.72 -1.12,0.96 -1.5,0.23 -0.39,-0.75 -0.37,-2.81 -0.89,-3.21 -0.19,-0.15 -0.79,-0.12 -0.92,0.23 -0.08,0.21 -0.04,0.58 -0.03,0.81 0.02,0.43 0.23,1.2 0.38,1.61 0.03,0.07 0.05,0.14 0.07,0.21z"/>
    </g>
    <path class="fil7" d="M84.71 76.54c0.18,0.78 0.38,1.31 0.18,2.14 -0.32,1.06 -1.32,1.92 -2.46,1.72 -0.65,-0.12 -0.73,-0.97 -0.04,-1.35 0.43,-0.24 1.06,-0.39 1.07,-1 0,-0.12 -0.02,-0.2 -0.06,-0.31 -0.84,0.55 -1.9,1.03 -2.75,0.21 -0.68,-0.66 -0.53,-2.36 0.1,-3 0.25,-0.25 0.54,-0.39 0.86,-0.52 0.1,-0.04 0.19,-0.06 0.29,-0.09 0.36,-0.09 0.4,-0.09 0.73,-0.28 0.57,-0.34 1.05,0.14 1.29,0.63 0.08,0.15 0.13,0.26 0.23,0.41 0.11,0.16 0.49,1.23 0.56,1.46zm-2.89 0.11c-0.14,-0.41 -0.08,-0.73 0.21,-1.05 0.14,-0.13 0.31,-0.24 0.46,-0.36 0.46,0.48 0.37,0.89 -0.13,1.3 -0.08,0.06 -0.42,0.25 -0.5,0.17l-0.04 -0.06z"/>
    <g>
     <path class="fil7" d="M76.11 75.01c0.3,0.17 0.57,0.58 0.55,0.94 -0.01,0.26 -0.04,0.47 -0.38,0.41 -0.37,-0.13 -0.36,-0.54 -0.89,-0.44 -0.39,0.08 -0.71,0.58 -0.81,0.93 -0.08,0.29 -0.22,0.18 -0.14,0.65 0.75,0.05 1.26,-0.07 1.99,0.2 0.35,0.13 0.65,0.19 0.91,0.47 0.32,0.36 0.48,0.37 0.63,0.93 0.16,0.58 0,1.07 -0.23,1.59 -0.18,0.4 -0.67,0.75 -1.08,0.88 -0.84,0.27 -2.07,0.36 -2.69,-0.4l-0.07 -0.09c-0.2,-0.26 -0.19,-0.82 0.11,-1 0.7,-0.34 1,0.18 1.61,0.16 0.41,-0.01 1.04,-0.24 0.86,-0.77 -0.14,-0.42 -1.23,-0.55 -1.63,-0.57 -0.3,-0.01 -0.86,-0.02 -1.13,-0.11 -1.04,-0.54 -0.7,-2.08 -0.22,-2.9 0.33,-0.53 0.95,-1.04 1.6,-1.07 0.34,-0.02 0.69,0.04 0.99,0.19z"/>
    </g>
    <g>
     <path class="fil7" d="M80.52 80.55c-0.38,0.51 -1.15,0.41 -1.37,-0.23 -0.18,-0.52 -0.17,-1.18 -0.28,-1.76 -0.07,-0.4 -0.11,-0.68 -0.15,-1.09 -0.05,-0.49 -0.42,-1.28 0.07,-1.65 0.39,-0.29 0.78,0.2 0.91,0.55 0.24,0.63 0.46,1.39 0.63,2.04 0.12,0.46 0.42,1.61 0.23,2.04l-0.04 0.09z"/>
    </g>
    <path class="fil7" d="M66.08 83.52c-0.81,0.15 -2.1,0.56 -2.74,-0.18 -0.28,-0.32 -0.3,-0.82 0.09,-1.08 0.51,-0.33 0.61,-0.22 0.7,-0.94 0.05,-0.48 0.06,-0.85 0.15,-1.34 0.04,-0.23 0.28,-1.68 0.27,-1.8 -0.07,-0.43 -0.87,0.01 -0.87,-0.63 0.01,-0.54 0.53,-0.48 0.95,-0.57 0.47,-0.1 1.04,-0.27 1.49,-0.02 1.45,0.76 1.9,0.86 2.48,2.57 0.09,0.28 0.11,-0.1 0.13,-0.23 0.17,-1.11 0.29,-2.12 1.56,-2.43 0.93,-0.22 1.97,0.45 1.94,1.45l-0 0.11c-0.07,0.86 -0.58,1.12 -1.33,1.41 -0.34,0.11 -0.5,0.02 -0.81,0.22 0.12,0.71 0.47,0.86 1.14,0.95 0.42,0.04 0.57,-0.15 1.19,-0.06 0.12,0.03 0.35,0.22 0.38,0.35 0.04,0.33 -0.01,0.57 -0.27,0.79 -1.29,0.61 -3.07,0.33 -3.62,-1.14 -0.14,-0.38 -0.1,-0.27 -0.19,0.16 -0.32,1.47 -0.98,1.91 -2.37,2.33 -0.09,0.03 -0.17,0.05 -0.26,0.07zm-0.12 -1.67c-0.75,0.26 -0.73,0.31 -0.71,-0.64 0.01,-0.67 0.15,-1.24 0.17,-1.91 0.02,-0.38 0.03,-0.73 0.08,-1.12 0.82,0.33 1.32,0.7 1.61,1.57 0.18,0.55 0.12,1.25 -0.27,1.7 -0.14,0.16 -0.53,0.28 -0.73,0.35zm4.81 -3.4c-0.14,0.39 -0.69,0.55 -0.74,0.35 -0.11,-0.47 0.69,-0.88 0.74,-0.35z"/>
    <g>
     <path class="fil9" d="M92.05 78.34c-0.36,0.03 -0.74,-0.05 -0.75,-0.49 -0.01,-0.41 0.33,-0.56 0.69,-0.57 0.52,0.04 0.82,0.75 0.06,1.06z"/>
    </g>
    <path class="fil7" d="M98.52 84.79c0.09,0.42 0.09,0.94 -0.47,0.98 -0.66,-0.06 -0.7,-0.57 -0.81,-1.13 -0.11,-0.52 -0.51,-2.71 -0.69,-3.02 -0.31,-0.53 -0.52,0.36 -0.55,0.59 -0.09,0.8 0.45,2.14 0.05,2.82 -0.22,0.38 -0.64,0.27 -0.86,-0.08 -0.4,-0.63 -0.66,-2.94 -0.57,-3.62 0.12,-0.85 0.66,-0.19 0.71,-0.25 0.17,-0.19 0.16,-0.26 0.42,-0.46 0.39,-0.29 0.98,-0.53 1.4,-0.17 0.54,0.46 0.74,1.62 0.93,2.29 0.19,0.62 0.28,1.13 0.38,1.77 0.02,0.1 0.03,0.19 0.05,0.29z"/>
    <path class="fil7" d="M90.85 85.3c-0.1,0.55 -0.1,0.76 -0.5,1.15 -0.24,0.24 -0.04,0.07 -0.37,0.26 -0.28,0.16 -0.2,0.17 -0.57,0.15 -0.52,-0.05 -0.68,-0.56 -0.3,-0.96 0.35,-0.33 0.84,-0.49 0.58,-1.08 -0.21,-0.48 -0.94,-0.33 -1.46,-0.58l-0.23 -0.16c-0.37,-0.3 -0.46,-0.87 -0.34,-1.31 0.09,-0.33 0.12,-0.49 0.4,-0.71 0.1,-0.08 0.63,-0.26 0.75,-0.24 0.24,0.06 0.6,0.17 0.61,0.46 0.01,0.48 -0.13,0.2 -0.46,0.42 -0.14,0.09 -0.17,0.23 -0.2,0.38 0.38,0.14 0.54,0.2 0.93,0.3 0.68,0.18 1,0.61 1.11,1.28 0.13,0.63 0.01,-1.22 -0.01,-1.36 -0.06,-0.36 -0.13,-0.46 -0.15,-0.88 -0.02,-0.36 -0.04,-0.88 0.39,-1.01 0.5,-0.1 0.65,0.3 0.69,0.71 0.02,0.24 0.03,0.33 0.23,0.48 0.04,-0.47 -0.05,-0.57 0.3,-0.94 0.07,-0.08 0.32,-0.14 0.45,-0.21 1.32,-0.36 1.81,0.51 1.98,1.68 0.17,1.21 -0.13,2.89 -1.77,2.29 -0.58,-0.21 -0.4,-0.29 -0.72,0.24 -0.22,0.35 -0.42,0.45 -0.8,0.27 -0.17,-0.1 -0.24,-0.23 -0.33,-0.4 -0.05,-0.12 -0.09,-0.15 -0.19,-0.23zm2.31 -2.73c0.55,0.6 0.19,2.31 -0.11,1.07 -0.04,-0.15 -0.13,-1.15 0.05,-1.11l0.06 0.03z"/>
    <g>
     <path class="fil7" d="M80.11 84.46c0.18,-0.52 0.07,-0.75 -0.45,-0.98 -0.69,-0.25 -0.99,-0.22 -1.66,0.08 -0.43,0.2 -0.9,0.82 -1.23,0.8 -0.46,-0.07 -0.46,-0.49 -0.3,-0.84 0.22,-0.4 0.65,-0.67 1,-0.96 0.13,-0.1 0.82,-0.3 1.01,-0.32 0.6,-0.07 1.21,-0.07 1.77,0.17 0.47,0.22 0.82,0.37 1.05,0.9 0.29,0.67 0.16,1.75 -0.31,2.31 -0.16,0.19 -0.34,0.34 -0.53,0.49 -0.28,0.21 -0.29,0.2 -0.6,0.34 -0.58,0.25 -0.15,0.97 -0.1,1.4 0.03,0.27 0.02,0.47 0.13,0.72 0.11,0.26 0.12,0.52 0.2,0.73 0.13,0.3 0.27,0.85 0.01,1.11 -0.37,0.37 -0.81,0.31 -1.14,-0.06 -0.24,-0.27 -0.17,-0.28 -0.3,-0.61 -0.18,-0.49 -0.13,-0.87 -0.27,-1.36 -0.14,-0.48 -0.05,-0.82 -0.2,-1.31 -0.14,-0.47 -0.18,-1.05 -0.27,-1.55 -0.11,-0.59 -0.19,-1.26 0.26,-1.74 0.36,-0.39 0.86,-0.15 0.92,0.41 0.05,0.4 -0.02,0.48 0.26,0.83 0.35,-0.09 0.56,-0.22 0.74,-0.54z"/>
    </g>
    <g>
     <path class="fil10" d="M84.78 83.53c0.08,-0.58 0.36,-1.15 1.03,-1.12 0.43,0.02 0.75,0.31 0.71,0.76 -0.06,0.66 -0.81,0.17 -0.46,0.56 0.2,0.21 1.03,0.19 1.51,0.46 0.34,0.2 0.16,0.13 0.35,0.32 0.13,0.13 0.34,0.69 0.36,0.86 0.11,1.01 -0.76,2.16 -1.84,2.09 -0.82,-0.05 -1.05,-1.14 -0.34,-1.24 0.34,-0.04 0.94,0.01 0.97,-0.53 0.04,-0.75 -1.17,-0.43 -1.66,-0.72 -0.22,-0.13 -0.62,-0.65 -0.64,-0.9 -0.02,-0.17 -0.01,-0.37 0,-0.55z"/>
    </g>
    <g>
     <path class="fil7" d="M80.97 87.03c-0.22,-0.6 -0.13,-0.77 0.05,-1.32 0.05,-0.14 0.42,-0.4 0.58,-0.46 0.45,-0.18 0.99,-0.05 1.5,-0.1 -0.03,-0.29 -0.06,-1.32 -0.22,-1.45 -0.22,-0.18 -0.69,0.63 -1.13,0.21 -0.4,-0.38 0.32,-1.06 0.74,-1.2 0.83,-0.23 1.39,0.11 1.54,0.97 0.05,0.3 0.06,0.51 0.14,0.82 0.12,0.48 0.07,1.46 0.18,1.74 0.16,0.26 0.29,0.21 0.23,0.65 -0.03,0.22 -0.26,1.12 -0.37,1.28 -0.25,0.4 -0.67,0.32 -1.01,0.1 -0.68,-0.44 -1.04,0.05 -1.89,-0.76 -0.04,-0.04 -0.3,-0.44 -0.33,-0.49z"/>
    </g>
    <g>
     <path class="fil7" d="M73.66 84.14c0.3,-0.1 0.72,0.21 0.87,0.46 0.1,0.17 0.16,0.31 0.27,0.48 0.09,0.15 0.04,0.18 0.18,0.4 0.11,0.17 0.1,0.25 0.21,0.42 0.08,0.13 0.17,0.38 0.25,0.55 0.16,0.33 0.26,0.53 0.37,0.88 0.04,0.13 0.1,0.03 0.14,0.27 0.06,0.35 0.19,0.42 0.23,0.76 0.06,0.48 0.24,0.94 0.25,1.4 0.01,0.24 0.02,1.15 -0.08,1.32 -0.24,0.38 -0.05,0.3 -0.46,0.72 -2.03,1.97 -2.92,0.23 -1.91,-0.57 0.54,-0.36 0.91,-0.2 0.99,-1.04 0.03,-0.61 -0.18,-1.19 -0.31,-1.78 -0.12,0.19 -0.15,0.23 -0.27,0.45 -0.94,1.54 -2.47,0.96 -3.07,-0.5 -0.27,-0.65 -1.07,-3.04 -0.09,-3.37l0.08 -0.02c0.33,-0.07 0.55,0.15 0.66,0.43 0.08,0.24 -0.09,0.51 -0.07,0.84 0.03,0.44 0.55,2.24 1.13,2.13 0.41,-0.08 0.54,-1.34 0.5,-1.67 -0.05,-0.5 -0.2,-0.98 -0.33,-1.47 -0.15,-0.56 -0.12,-0.87 0.46,-1.1z"/>
    </g>
    <g>
     <path class="fil7" d="M67.72 90.48c-0.61,0.1 -0.86,-0.38 -0.97,-0.89 -0.16,-0.76 -0.15,-1.23 -0.41,-2.02 -0.09,-0.27 -0.31,-1.01 -0.58,-1.12 -0.28,-0.01 -0.62,0.76 -0.66,1.03 -0.16,0.99 0.58,2.74 0.37,3.37 -0.22,0.64 -1.01,0.53 -1.3,-0.13 -0.28,-0.63 -0.43,-1.7 -0.45,-2.39 -0.01,-0.32 -0.05,-1.98 0.09,-2.17 0.09,-0.13 0.34,0.02 0.73,-0.34 0.46,-0.42 0.73,-0.73 1.42,-0.7 0.76,0.11 0.88,0.62 1.07,0.65 0.04,0.01 0.34,-0.3 0.41,-0.36 0.44,-0.31 1.14,-0.64 1.67,-0.41 0.81,0.42 0.94,1.82 1.22,2.65 0.19,0.57 1.06,2.72 0.05,2.95 -0.46,0.1 -0.77,-0.3 -0.86,-0.71 -0.11,-0.5 -0.11,-0.79 -0.28,-1.32 -0.2,-0.65 -0.31,-1.21 -0.47,-1.86 -0.14,-0.55 -0.37,-0.72 -0.76,-0.17 -0.78,1.08 0.67,2.74 0.12,3.69 -0.11,0.16 -0.23,0.2 -0.4,0.24z"/>
    </g>
    <g>
     <path class="fil11" d="M82.55 86.5c0.06,0.17 -0.17,-0.03 -0.06,-0.05 0.02,-0.01 0.05,0.03 0.06,0.05z"/>
    </g>
    <g>
     <path class="fil12" d="M91.26 87.4c-0.01,-0.53 0.45,-0.82 0.93,-0.8 0.9,0.05 0.92,1.34 -0.28,1.38 -0.44,0.01 -0.57,-0.19 -0.65,-0.58z"/>
    </g>
    <g>
     <path class="fil8" d="M72.31 92.98c0.25,1.37 -0.43,1.24 -1.43,1.43 -0.69,0.13 -1.38,0.11 -2.08,0.22 -0.49,0.08 -1.75,0.34 -2.16,-0.02 -0.3,-0.27 -0.34,-0.41 -0.43,-0.82 -0.14,-0.63 -0.23,-1.53 0.57,-1.72 1.08,-0.25 2.82,-0.38 3.95,-0.45 0.3,-0.02 0.99,-0.11 1.23,0.1 0.27,0.24 0.27,0.89 0.35,1.26z"/>
    </g>
   </g>
   <g>
    <path class="fil5" d="M52.52 103.31c-0.1,0.56 -0.15,0.79 -0.2,1.37 -0.02,0.2 -0.04,0.29 -0.15,0.46 -0.8,-0.32 -5.15,-2.67 -5.05,-3.43 0.06,-0.48 0.82,-2.53 1.07,-3.06 1.49,-3.12 4.45,-5.49 7.8,-6.33 1.97,-0.49 1.66,0.32 2.98,1.48 0.46,0.41 0.95,0.73 1.38,1.18 -1.21,0.71 -1.99,0.77 -3.28,1.74 -1.81,1.37 -4.02,4.23 -4.53,6.45l-0.03 0.14z"/>
   </g>
   <g>
    <path class="fil13" d="M88.62 110.1c-0.04,-0.23 -0.13,-0.79 -0.1,-1.01 0.11,-0.21 1.52,0.86 1.71,0.99 0.2,0.13 6.47,4.51 5.79,2.59 -0.57,-1.62 -6.88,-6.15 -6.78,-7.06 0.08,-0.74 2.64,-1.87 3.43,-2.3 1.4,-0.83 2.77,-1.7 4.08,-2.66 0.31,-0.22 1.18,-0.65 1.02,-1.18 -0.26,-0.82 -3.29,0.74 -3.86,0.94 -1.67,0.61 -3.05,1.32 -4.67,1.99 -0.22,0.09 -2,0.86 -2.1,0.6 -0.13,-0.35 -0.31,-1.34 -0.42,-1.77 -0.09,-0.36 -0.7,-2.85 -1.28,-2.64l-0.09 0.06c-0.72,0.62 0.26,6.62 0.44,7.78 0.41,2.99 0.95,5.96 1.43,8.94 0.11,0.71 0.23,1.42 0.36,2.13 1.23,6.71 2.81,13.3 3.53,20.1l0.02 0.2c0.08,0.87 0.42,2.8 0.29,3.55 -0.14,0.54 -0.56,0.32 -0.76,-0.07 -1.11,-2.14 -1.15,-3.47 -3.02,-5.4 -1.28,-1.33 -2.75,-2.08 -4.48,-2.66 -1.91,-0.61 -3.76,-0.67 -5.74,-0.45 -3.21,0.43 -6.01,1.51 -8.4,3.77 -1.41,1.33 -2.26,2.7 -2.71,4.59 -0.37,1.56 -0.72,2.44 -1.56,0.37 -0.42,-1.14 -0.73,-2.43 -1.05,-3.61 -0.14,-0.5 -0.28,-1 -0.43,-1.49 -1.03,-3.36 -1.56,-7.39 -2.2,-10.88 -0.8,-4.36 -1.62,-8.72 -2.47,-13.07 -0.12,-0.59 -0.53,-1.92 -0.5,-2.42 0.1,-0.38 0.16,-0.24 0.56,-0.22 3.07,0.14 4.45,-0.25 6.66,-2.45 1.6,-1.68 3.17,-4.34 3.25,-6.71 0.02,-0.65 -0.18,-2.26 0.35,-2.64 0.5,-0.36 2.15,-0.08 2.82,-0.04 3.61,0.25 7.42,-0.07 11.02,-0.49l0.39 -0.05c2.19,-0.27 4.32,-0.57 6.49,-0.98 4.26,-0.84 8.85,-1.77 12.8,-3.6 1.18,-0.55 1.64,0.3 2.43,1.07 4.29,4.05 8.91,8.76 7.56,15.23 -0.74,3.55 -1.74,5.63 -3.47,8.78 -1.47,2.66 -3.18,5.17 -5.03,7.57l-0.12 0.16c-1.09,1.39 -3.98,5.31 -5.8,5.4 -1.67,0.08 -4.93,-1.75 -5.72,-3.24 -0.66,-1.26 -0.74,-3.49 -1.05,-4.97 -0.87,-4.27 -1.96,-8.44 -2.67,-12.76z"/>
   </g>
   <g>
    <path class="fil5" d="M61.5 107.31c-0.08,-0.51 0.94,-2.97 1.2,-3.52 0.71,-1.47 2.3,-4.02 3.77,-4.8 0.31,-0.16 0.21,0.47 0.2,0.68 -0.11,2.85 -2.34,5.86 -4.65,7.41 -0.06,0.04 -0.44,0.31 -0.52,0.22z"/>
   </g>
   <g>
    <g>
     <path class="fil5" d="M24.93 76.78c-0.7,-0.81 -2.03,-1.89 -3,-2.34 -2.28,-1.09 -4.62,-1.6 -7.14,-1.61 -3.05,-0.02 -6.88,0.84 -9.29,2.74 -1.39,1.1 -1.72,1.55 -0.67,-0.4 2.89,-5.35 8.29,-8.66 14.46,-7.55 3.05,0.55 5.34,2.27 6.07,5.37 0.3,1.27 0.56,3.29 0.35,4.57 -0.24,0.1 -0.61,-0.56 -0.79,-0.77z"/>
    </g>
    <g>
     <path class="fil6" d="M4.94 93.84l-0.02 -0.14c-0.13,-1.09 0.09,-2.28 0.26,-3.35 0.22,-1.38 0.8,-2.44 1.6,-3.56 1.94,-2.71 5.46,-4.75 8.76,-5.19 2.52,-0.31 5.13,0.11 7.31,1.45 0.74,0.46 1.04,0.65 1.72,1.25 0.57,0.51 0.9,0.98 1.41,1.51 0.41,0.52 0.77,2.16 1.01,2.88 0.06,0.17 0.71,1.76 0.61,1.84 -0.07,0.06 -0.79,-0.32 -0.99,-0.38 -2.43,-0.75 -4.86,-0.6 -7.26,0.17 -2.6,0.83 -4.67,2.21 -6.35,4.39 -1.63,2.12 -2.49,4.6 -1.77,7.25 0.39,1.42 0.66,1.65 -0.8,0.15 -1.87,-1.91 -4.99,-5.64 -5.51,-8.27z"/>
    </g>
    <g>
     <path class="fil5" d="M34.29 106.08c-0.08,1.82 0.08,3.18 1.15,4.7 0.47,0.67 0.31,0.56 -0.62,0.58 -4.04,0.07 -7.79,-0.23 -11.65,-1.54 -1.72,-0.58 -1.65,-1.06 -1.6,-2.83 0.08,-2.83 1.53,-5.58 3.47,-7.59 1.62,-1.67 3.75,-2.8 6.11,-2.92 1.48,-0.08 1.76,0.53 3.01,1.16 1.32,0.66 1.82,0.79 3.23,1.16 0.54,0.14 0.21,0.28 -0.18,0.65 -1.74,1.66 -2.77,4.25 -2.92,6.63z"/>
    </g>
    <g>
     <path class="fil5" d="M47.16 108.02c-0.8,0.42 -0.83,0.13 -1.32,-0.67 -0.7,-1.14 -1.39,-2.62 -1.32,-3.99 0.01,-0.19 0.04,-0.27 0.17,-0.42 1.56,1 2.89,2.2 4.54,3.18 0.65,0.39 0.58,0.32 -0.24,0.82 -0.6,0.37 -1.23,0.72 -1.84,1.07z"/>
    </g>
   </g>
   <g>
    <g>
     <path class="fil3" d="M93.8 136.12c-0.96,-5.76 -1.63,-3.69 1.98,-2.71 1.19,0.32 1.54,0.61 2.41,1.49 1.04,1.06 2.84,3.21 3.28,4.61 0.34,1.08 -4.5,2.06 -5.22,2.18 -0.29,0.05 -1.72,0.35 -1.88,0.13 -0.1,-0.14 -0.28,-3.42 -0.34,-3.92 -0.06,-0.6 -0.14,-1.19 -0.24,-1.79z"/>
    </g>
    <g>
     <path class="fil3" d="M74.42 136.24c4.65,-1.7 10.26,-0.97 13.13,3.43 0.18,0.27 1.45,2.03 0.8,2.15 -0.99,0.08 -2.31,0.04 -3.35,0.05 -2.78,0.02 -5.43,0.07 -8.21,0.2 -1.86,0.09 -3.58,0.1 -5.46,0.25 -0.31,0.02 -2.65,0.27 -2.79,0.18 -0.55,-0.36 1.32,-3.03 1.63,-3.41 1.17,-1.44 2.55,-2.18 4.25,-2.85z"/>
    </g>
    <g>
     <path class="fil3" d="M91.98 144.96c-0.51,-0.01 -0.68,-0.28 -0.74,-0.77 -0.05,-0.51 0.76,-0.46 1.16,-0.5 1.69,-0.16 2.96,-0.18 4.68,-0.48 1.51,-0.27 3.21,-0.44 4.48,-1.36 0.85,-0.61 0.53,0.46 0.12,0.88 -1.75,1.77 -7.27,2.17 -9.71,2.23z"/>
    </g>
    <g>
     <path class="fil3" d="M89.1 143.88c0.27,0.23 0.73,1.18 0.12,1.37 -0.74,0.16 -4.71,0.09 -5.64,0.09 -3.21,-0.01 -6.27,-0.06 -9.47,0.06 -0.25,0.01 -7.41,0.35 -5.92,-0.77 1.04,-0.79 12.16,-0.95 14.41,-1.02 1.2,-0.04 5.78,-0.19 6.51,0.27z"/>
    </g>
   </g>
  </g>
 </g>
</svg>
