<?xml version="1.0" encoding="UTF-8"?>
<!DOCTYPE svg PUBLIC "-//W3C//DTD SVG 1.1//EN" "http://www.w3.org/Graphics/SVG/1.1/DTD/svg11.dtd">
<!-- Creator: CorelDRAW -->
<svg xmlns="http://www.w3.org/2000/svg" xml:space="preserve" width="7.9799mm" height="7.7826mm" version="1.1" style="shape-rendering:geometricPrecision; text-rendering:geometricPrecision; image-rendering:optimizeQuality; fill-rule:evenodd; clip-rule:evenodd"
viewBox="0 0 12.82 12.5"
 xmlns:xlink="http://www.w3.org/1999/xlink"
 xmlns:xodm="http://www.corel.com/coreldraw/odm/2003">
 <defs>
  <style type="text/css">
   <![CDATA[
    .fil1 {fill:#108A00}
    .fil0 {fill:#108A00;fill-rule:nonzero}
   ]]>
  </style>
 </defs>
 <g id="Layer_x0020_1">
  <metadata id="CorelCorpID_0Corel-Layer"/>
  <g id="_1717791396160">
   <path class="fil0" d="M0.79 1.57c-0.43,0 -0.78,-0.34 -0.79,-0.78 -0,-0.43 0.34,-0.78 0.78,-0.79l1.01 -0.01c0.65,-0 1.11,0.17 1.48,0.57 0.32,0.34 0.5,0.81 0.63,1.43l0.08 0.38 8.06 -0.05c0.43,-0 0.78,0.34 0.79,0.78 0,0.1 -0.02,0.19 -0.05,0.27l-0.87 3.2c-0.01,0.05 -0.03,0.1 -0.06,0.15 -0.14,0.32 -0.78,1.48 -2.38,1.49l-4.28 0.03 0.06 0.28c0.05,0.09 0.21,0.33 0.66,0.33l4.26 -0.03c0.43,-0 0.78,0.34 0.79,0.78 0,0.43 -0.34,0.78 -0.78,0.79l-4.26 0.03c-1.4,0.01 -1.96,-0.98 -2.12,-1.32 -0.03,-0.06 -0.06,-0.13 -0.07,-0.21l-0.25 -1.23c-0.01,-0.02 -0.01,-0.05 -0.01,-0.07l-0.87 -4.23c-0.01,-0.02 -0.01,-0.05 -0.02,-0.07l-0.2 -0.98c-0.07,-0.35 -0.15,-0.58 -0.24,-0.68 -0.04,-0.05 -0.15,-0.07 -0.33,-0.07l-1.01 0.01zm3.51 2.38l0.56 2.75 4.59 -0.03c0.66,-0 0.9,-0.41 0.96,-0.53l0.61 -2.23 -6.72 0.04z"/>
   <circle class="fil1" transform="matrix(0.546508 -0.00336707 0.00336707 0.546508 5.63811 11.624)" r="1.61"/>
   <circle class="fil1" transform="matrix(0.546508 -0.00336707 0.00336707 0.546508 9.35191 11.6011)" r="1.61"/>
  </g>
 </g>
</svg>
