<?xml version="1.0" encoding="UTF-8"?>
<!DOCTYPE svg PUBLIC "-//W3C//DTD SVG 1.1//EN" "http://www.w3.org/Graphics/SVG/1.1/DTD/svg11.dtd">
<!-- Creator: CorelDRAW -->
<svg xmlns="http://www.w3.org/2000/svg" xml:space="preserve" width="5.5427mm" height="5.5339mm" version="1.1" style="shape-rendering:geometricPrecision; text-rendering:geometricPrecision; image-rendering:optimizeQuality; fill-rule:evenodd; clip-rule:evenodd"
viewBox="0 0 8.76 8.75"
 xmlns:xlink="http://www.w3.org/1999/xlink"
 xmlns:xodm="http://www.corel.com/coreldraw/odm/2003">
 <defs>
  <style type="text/css">
   <![CDATA[
    .fil0 {fill:white}
   ]]>
  </style>
 </defs>
 <g id="Layer_x0020_1">
  <metadata id="CorelCorpID_0Corel-Layer"/>
  <path class="fil0" d="M-0 4.35c0,0.5 0.07,1.05 0.26,1.51 0.08,0.2 0.16,0.4 0.26,0.59 0.03,0.05 0.05,0.09 0.08,0.13 0.07,0.13 0.17,0.27 0.26,0.39 0.12,0.17 0.24,0.31 0.39,0.46 0.33,0.33 0.55,0.51 0.96,0.75l0.35 0.18c0.07,0.03 0.16,0.09 0.23,0.09 -0.04,-0.09 -0.04,-0.66 -0.04,-0.82 0,-0.31 0.15,-0.88 0.23,-1.22l0.32 -1.37c0.01,-0.04 -0.12,-0.29 -0.12,-0.61 0,-0.18 0.01,-0.34 0.07,-0.51 0.04,-0.11 0.08,-0.21 0.14,-0.29 0.12,-0.17 0.3,-0.33 0.53,-0.33 0.2,0 0.34,0.03 0.46,0.18 0.28,0.35 0.05,0.89 -0.05,1.26l-0.17 0.57c-0.04,0.17 -0.05,0.32 0.02,0.48 0.09,0.22 0.35,0.37 0.58,0.37 0.27,0 0.47,-0.06 0.68,-0.21 0.08,-0.05 0.14,-0.12 0.21,-0.19 0.1,-0.11 0.18,-0.22 0.25,-0.35 0.26,-0.51 0.38,-1.32 0.18,-1.88 -0.16,-0.45 -0.49,-0.81 -0.93,-1 -0.3,-0.12 -0.53,-0.15 -0.87,-0.15 -0.49,0 -0.99,0.19 -1.33,0.53 -0.25,0.25 -0.43,0.54 -0.51,0.88 -0.05,0.18 -0.06,0.35 -0.06,0.55 0,0.29 0.13,0.66 0.25,0.83 0.16,0.24 0.13,0.14 0.02,0.61 -0.05,0.23 -0.09,0.24 -0.32,0.08 -0.26,-0.18 -0.45,-0.47 -0.56,-0.77 -0.1,-0.26 -0.17,-0.54 -0.17,-0.83 0,-0.21 0.03,-0.42 0.07,-0.62 0.06,-0.3 0.19,-0.59 0.36,-0.84 0.13,-0.2 0.31,-0.4 0.5,-0.55l0.31 -0.21c0.15,-0.09 0.29,-0.16 0.47,-0.22 0.67,-0.26 1.59,-0.27 2.26,-0 0.08,0.03 0.14,0.06 0.22,0.1 0.25,0.12 0.56,0.33 0.74,0.54 0.1,0.11 0.19,0.23 0.28,0.36 0.04,0.06 0.08,0.14 0.12,0.21 0.13,0.26 0.26,0.65 0.26,1.02l0 0.21c0,0.46 -0.15,0.98 -0.3,1.28 -0.07,0.13 -0.13,0.26 -0.22,0.37 -0.03,0.04 -0.05,0.07 -0.08,0.11 -0.07,0.09 -0.14,0.18 -0.23,0.26 -0.33,0.29 -0.69,0.49 -1.13,0.56 -0.18,0.03 -0.38,0.03 -0.55,-0 -0.11,-0.02 -0.21,-0.06 -0.31,-0.1 -0.13,-0.05 -0.4,-0.23 -0.43,-0.37l-0.02 0c-0.01,0.07 -0.13,0.52 -0.15,0.6 -0.16,0.56 -0.11,0.55 -0.39,1.11l-0.2 0.36c-0.02,0.04 -0.06,0.08 -0.07,0.12 0.05,0 0.1,0.03 0.15,0.04l0.46 0.1c0.34,0.06 0.6,0.06 0.95,0.05 0.05,-0 0.07,-0.01 0.13,-0.01 0.2,-0.01 0.4,-0.05 0.59,-0.09 0.47,-0.1 1.12,-0.37 1.5,-0.66 0.13,-0.1 0.26,-0.19 0.38,-0.3l0.28 -0.27c0.16,-0.17 0.3,-0.32 0.44,-0.52l0.21 -0.33c0.3,-0.53 0.49,-1.12 0.56,-1.74 0,-0.03 0.01,-0.09 0.01,-0.13l0.02 -0.26c0.01,-0.1 -0.01,-0.17 -0.01,-0.26 0,-0.47 -0.17,-1.12 -0.35,-1.55 -0.11,-0.25 -0.24,-0.48 -0.38,-0.7 -0.18,-0.27 -0.4,-0.51 -0.62,-0.74 -0.03,-0.03 -0.04,-0.04 -0.07,-0.07 -0.13,-0.1 -0.24,-0.21 -0.38,-0.3 -0.6,-0.41 -1.2,-0.68 -1.93,-0.78 -0.71,-0.1 -1.45,-0.02 -2.1,0.21 -0.31,0.11 -0.62,0.26 -0.9,0.44 -0.06,0.04 -0.11,0.07 -0.17,0.11l-0.58 0.5 -0.19 0.2c-0.07,0.07 -0.12,0.15 -0.18,0.22 -0.2,0.26 -0.37,0.54 -0.5,0.85 -0.11,0.26 -0.21,0.51 -0.27,0.8 -0.07,0.29 -0.11,0.62 -0.11,0.97z"/>
 </g>
</svg>
