<?xml version="1.0" encoding="UTF-8"?>
<!DOCTYPE svg PUBLIC "-//W3C//DTD SVG 1.1//EN" "http://www.w3.org/Graphics/SVG/1.1/DTD/svg11.dtd">
<!-- Creator: CorelDRAW -->
<svg xmlns="http://www.w3.org/2000/svg" xml:space="preserve" width="21.1521mm" height="2.897mm" version="1.1" style="shape-rendering:geometricPrecision; text-rendering:geometricPrecision; image-rendering:optimizeQuality; fill-rule:evenodd; clip-rule:evenodd"
viewBox="0 0 64.41 8.82"
 xmlns:xlink="http://www.w3.org/1999/xlink"
 xmlns:xodm="http://www.corel.com/coreldraw/odm/2003">
 <defs>
  <style type="text/css">
   <![CDATA[
    .fil0 {fill:white}
   ]]>
  </style>
 </defs>
 <g id="PowerClip_x0020_Contents">
  <metadata id="CorelCorpID_0Corel-Layer"/>
  <g id="_1717774707056">
   <g>
    <path class="fil0" d="M2.21 2.63c0,0.03 0.04,0.11 0.05,0.14l0.09 0.21c0.03,0.06 0.06,0.12 0.08,0.18 0.01,0.02 0.02,0.04 0.03,0.06 0.02,0.05 0.05,0.12 0.07,0.16 0.02,0.03 0.05,0.03 0.1,0.04 0.03,0.01 0.05,0.01 0.08,0.02 0.03,0.01 0.05,0.01 0.08,0.01 0.01,0 0.01,0 0.02,0 0.08,0 0.16,0 0.24,-0 0.01,0 0.13,0.01 0.13,0.02l0 0.05c0,0.01 0,0.01 0,0.02 0,0.03 0,0.06 0.01,0.09 0,0.01 -0,0.01 0,0.02 0,0.01 0,0.02 0,0.04 0,0.05 -0,0.16 -0,0.22 0,0.01 -0,0.02 -0,0.03 -0,0.01 0,0.03 0,0.04 0,0.01 -0,0.02 -0,0.03l-0.03 0.38c-0,0.02 -0.01,0.05 -0.01,0.07 -0,0.05 -0.01,0.09 -0.01,0.14l-0.01 0.1c-0,0.03 -0,0.05 -0,0.07 0,0.02 -0,0.04 -0,0.07 -0,0.01 -0,0.01 -0,0.02 -0,0.01 0,0.01 -0,0.02l-0 0.03c-0,0.04 -0.01,0.1 -0.01,0.14 0,0.01 -0,0.02 -0,0.04 -0,0.01 0,0.02 -0,0.04 -0,0.02 -0,0.09 -0,0.11l-0 0.07c-0,0.01 0,0.02 -0,0.04 -0,0.01 -0,0.02 -0,0.03l-0 0.07c-0,0.02 -0,0.05 -0,0.07l-0 0.07c-0,0.05 -0,0.1 -0,0.15l0 0.38c0,0.05 0.01,0.17 0.02,0.22 0,0.01 0.01,0.01 0.02,0.01 0.05,0.01 0.2,0.02 0.25,0.02 0.02,0 0.04,0.01 0.06,0.01l0.25 0.02c0.02,0 0.04,0 0.06,0 0.02,0 0.04,0 0.06,0.01l0.13 0.01c0.02,0 0.04,0 0.06,0.01l0.13 0.01c0.08,0.01 0.16,0.02 0.25,0.03l0.09 0.01c0.03,0 0.05,0 0.08,0.01 0.01,0 0.01,-0 0.02,0 0.01,0 0.02,0 0.03,0 0.03,0 0.12,0.01 0.16,0.01 0.02,0 0.05,-0 0.07,0 0.05,0.01 0.33,-0.01 0.38,-0.01l0.15 -0.01c0.01,0 0.01,-0 0.02,-0 0.02,-0 0.04,-0 0.06,-0l0.12 -0.01c0.01,-0 0.01,-0 0.02,-0 0.01,-0 0.01,0 0.02,0 0.01,-0 0.01,-0 0.02,-0 0.01,0 0.01,0 0.02,0 0.03,-0 0.06,-0 0.1,-0 0.01,-0 0.01,-0 0.02,-0 0.07,-0 0.15,0 0.23,0 0.01,-0 0.01,-0 0.02,-0 0.03,-0 0.05,0 0.08,-0 0.01,-0 0.03,-0 0.03,-0.01 0.01,-0 0.01,-0.01 0.01,-0.01 0,-0.02 0,-0.05 0,-0.07 -0,-0.02 0,-0.03 -0,-0.05 -0.01,-0.04 -0,-0.08 -0.01,-0.12 -0,-0.01 -0,-0.05 -0,-0.07l-0 -0.17c-0,-0.01 -0,-0.01 -0,-0.02l-0 -0.15c0,-0.01 0,-0.02 0,-0.03l-0 -0.07c0,-0.02 -0,-0.03 -0,-0.05 0,-0.1 -0.01,-0.19 -0.01,-0.29 0,-0.03 0,-0.07 0,-0.1 0,-0.02 -0,-0.03 -0,-0.05 0,-0.02 0,-0.03 0,-0.05 0,-0.03 -0,-0.06 -0,-0.1 0,-0.02 -0,-0.03 -0,-0.05 0,-0.02 0,-0.03 0,-0.05l-0 -0.14c0,-0.02 -0,-0.03 -0,-0.05l0 -0.08c-0,-0.07 -0.01,-0.15 -0.01,-0.22l-0 -0.07c0,-0.01 -0,-0.01 -0,-0.02 -0,-0.04 -0,-0.06 -0,-0.1l-0 -0.05c0,-0.05 -0.01,-0.1 -0.01,-0.14 0,-0.03 -0,-0.06 -0,-0.09 -0,-0.01 -0,-0.01 -0,-0.02l-0 -0.07c-0,-0.04 -0.01,-0.14 -0.01,-0.19l-0.01 -0.14c0,-0.02 -0,-0.05 -0,-0.07 0,-0.01 0,-0.02 0,-0.02 0.01,-0.02 0.1,-0.03 0.12,-0.03 0.02,0 0.07,0.01 0.09,0.01 0.11,0.02 0.2,0.02 0.3,0.02 0.02,0 0.05,-0 0.06,-0.01 0,-0 0.01,-0.02 0.02,-0.02 0.04,-0.07 0.08,-0.13 0.12,-0.2l0.03 -0.06c0,-0.01 0.01,-0.02 0.01,-0.02 0.07,-0.14 0.09,-0.18 0.15,-0.33 0.01,-0.03 0.03,-0.08 0.04,-0.11 -0.01,-0.02 -0.12,-0.07 -0.16,-0.09 -0.02,-0.01 -0.04,-0.02 -0.06,-0.03 -0.01,-0 -0.02,-0.01 -0.03,-0.01 -0.01,-0 -0.02,-0.01 -0.03,-0.01l-0.22 -0.11c-0.02,-0.01 -0.04,-0.02 -0.05,-0.03l-0.19 -0.09c-0.11,-0.05 -0.23,-0.07 -0.33,-0.12 -0.04,-0.02 -0.08,-0.03 -0.12,-0.04 -0.02,-0.01 -0.04,-0.01 -0.06,-0.02 -0.11,-0.03 -0.21,-0.05 -0.32,-0.09 -0.1,-0.03 -0.14,-0.03 -0.24,-0.05 -0.03,-0 -0.06,-0.04 -0.08,-0.04 -0.01,0 -0.03,0.03 -0.04,0.03 -0.07,0.06 -0.14,0.12 -0.24,0.13 -0.1,0.02 -0.25,0.02 -0.35,-0 -0.07,-0.01 -0.12,-0.04 -0.18,-0.08 -0.02,-0.02 -0.04,-0.04 -0.06,-0.06 -0.04,-0.04 -0.02,-0.04 -0.11,-0.02 -0.07,0.02 -0.14,0.03 -0.21,0.03 -0.06,0.01 -0.16,0.01 -0.22,0.03 -0.02,0.01 -0.04,0.01 -0.06,0.02 -0.06,0.02 -0.12,0.04 -0.19,0.06 -0.05,0.01 -0.1,0.04 -0.15,0.06 -0.01,0 -0.02,0.01 -0.03,0.01 -0.01,0 -0.02,0.01 -0.03,0.01l-0.09 0.04c-0.02,0.01 -0.04,0.01 -0.06,0.02 -0.03,0.01 -0.06,0.02 -0.09,0.04 -0.01,0 -0.01,0 -0.01,0.01l-0.04 0.02c-0.08,0.04 -0.15,0.07 -0.23,0.09 -0.05,0.02 -0.1,0.04 -0.15,0.05 -0.04,0.01 -0.08,0.03 -0.12,0.04 -0.04,0.01 -0.08,0.03 -0.12,0.05 -0.03,0.01 -0.09,0.04 -0.11,0.06z"/>
    <path class="fil0" d="M2.06 1.16c0,-0.01 0.02,-0.03 0.03,-0.04 0.01,-0.01 0.01,-0.01 0.01,-0.02 0.02,-0.03 0.04,-0.07 0.06,-0.11 0.01,-0.03 0.02,-0.07 0.03,-0.1 0.03,-0.14 -0,-0.28 -0.06,-0.4 -0.02,-0.05 -0.05,-0.09 -0.07,-0.13 -0.02,0.01 -0.06,0.05 -0.07,0.08 -0.01,0.01 -0.02,0.03 -0.03,0.04 -0.01,0.01 -0.01,0.01 -0.01,0.02 -0,0.01 -0.01,0.02 -0.01,0.02 -0.09,0.17 -0.08,0.34 -0.02,0.52l0.02 0.05c0,0.01 0.01,0.02 0.01,0.03 0,0.01 0.01,0.02 0.01,0.02l0.03 0.05c0,0.01 0.01,0.02 0.01,0.02l-0.07 0.06c-0.01,0.01 -0.01,0.01 -0.02,0.02l-0.05 0.04c-0,0 -0.01,0.01 -0.01,0.01 -0.05,0.04 -0.09,0.09 -0.13,0.13 -0,0 -0.01,0.01 -0.01,0.01l-0.05 0.06c-0,0 -0.01,0.01 -0.01,0.01 0,-0.02 0.05,-0.08 0.07,-0.2 0.03,-0.19 -0.03,-0.36 -0.14,-0.5 -0.01,-0.01 -0.02,-0.02 -0.03,-0.04 -0.01,-0.01 -0.02,-0.02 -0.03,-0.04 -0.01,0.01 -0.06,0.07 -0.06,0.09 -0.02,0.04 -0.03,0.06 -0.05,0.1 -0.08,0.21 -0.01,0.41 0.11,0.58 0.02,0.04 0.05,0.07 0.07,0.09l-0.13 0.16c-0.04,0.05 -0.09,0.12 -0.12,0.17l-0.06 0.09c-0,0.01 -0.02,0.03 -0.02,0.03l0.01 -0.02c0.02,-0.05 0.05,-0.14 0.05,-0.2 0,-0.05 0,-0.08 -0,-0.14 -0.01,-0.08 -0.04,-0.14 -0.07,-0.21 -0,-0.01 -0.01,-0.01 -0.01,-0.02 -0.02,-0.04 -0.05,-0.07 -0.08,-0.1 -0,-0 -0,-0.01 -0.01,-0.01 -0,-0 -0.01,-0.01 -0.01,-0.01l-0.04 -0.04c-0,-0 -0.01,-0.01 -0.01,-0.01l-0.04 -0.03c-0.01,-0.01 -0,-0 -0.01,-0.01 -0.04,0.07 -0.07,0.14 -0.09,0.22 -0.02,0.09 -0.01,0.2 0.02,0.27 0.01,0.03 0.02,0.05 0.03,0.08 0.04,0.07 0.09,0.15 0.14,0.2l0.05 0.05c0,0 0.01,0 0.01,0.01 0,0 0.01,0.01 0.01,0.01 0,0 0.01,0.01 0.01,0.01l-0.07 0.13c-0.02,0.03 -0.03,0.06 -0.05,0.1l-0.07 0.13c-0.02,0.05 -0.04,0.09 -0.06,0.14 -0,0.01 -0,0.01 -0.01,0.02l-0 0.01c-0,0 -0,0 -0,0 0,-0.02 0.01,-0.04 0.01,-0.06 0.01,-0.06 0.01,-0.11 0.01,-0.17 -0.01,-0.11 -0.05,-0.21 -0.11,-0.29 -0.02,-0.03 -0.04,-0.05 -0.07,-0.08 -0.01,-0.01 -0.02,-0.02 -0.04,-0.04l-0.04 -0.03c-0.01,-0.01 -0.03,-0.02 -0.04,-0.03 -0.02,-0.01 -0.03,-0.02 -0.04,-0.03 -0.02,-0.01 -0.03,-0.02 -0.05,-0.03 -0.03,0.07 -0.05,0.19 -0.04,0.26 0.01,0.11 0.04,0.19 0.1,0.28l0.04 0.05c0.02,0.03 0.05,0.05 0.08,0.08l0.03 0.03c0.01,0.01 0.03,0.02 0.04,0.03 0.01,0.01 0.08,0.05 0.1,0.06 -0,0.01 -0.04,0.11 -0.05,0.12 -0.04,0.11 -0.07,0.21 -0.1,0.32 -0,0.01 -0.01,0.02 -0.01,0.03 -0,0.01 -0,0.02 -0.01,0.03 0,-0.01 0,-0.02 0,-0.03 0,-0.02 0,-0.05 -0,-0.07 -0.01,-0.05 -0.01,-0.1 -0.03,-0.15 -0.03,-0.07 -0.05,-0.12 -0.1,-0.18 -0.07,-0.08 -0.15,-0.14 -0.24,-0.19 -0.02,-0.01 -0.08,-0.04 -0.1,-0.04l-0.01 0.07c-0.01,0.07 -0,0.15 0.01,0.21 0.02,0.07 0.05,0.15 0.1,0.2 0.01,0.01 0.02,0.03 0.03,0.04 0.01,0.02 0.04,0.04 0.06,0.06 0.01,0.01 0.01,0.01 0.02,0.02 0.03,0.02 0.06,0.04 0.09,0.06 0.03,0.02 0.13,0.07 0.16,0.08 -0,0.01 -0.01,0.04 -0.01,0.06 -0.02,0.1 -0.04,0.2 -0.05,0.3 -0,0.03 -0.01,0.1 -0.01,0.13l-0 0c0,-0.03 -0.02,-0.08 -0.03,-0.11 -0.03,-0.08 -0.06,-0.13 -0.11,-0.19 -0.01,-0.01 -0.01,-0.01 -0.02,-0.02l-0.07 -0.06c-0.04,-0.03 -0.08,-0.06 -0.13,-0.08 -0.08,-0.03 -0.13,-0.05 -0.21,-0.07 0,0.02 -0,0.05 -0,0.07l0.01 0.07c0.01,0.1 0.05,0.19 0.11,0.26l0.04 0.04c0.05,0.05 0.11,0.09 0.18,0.13 0.05,0.03 0.1,0.05 0.16,0.07 0.01,0 0.05,0.02 0.06,0.02 0,0.06 -0.01,0.12 -0.01,0.18 0,0.02 -0,0.04 -0,0.06l0 0.1c-0,0.01 0,0.02 0,0.03 0,0.04 0,0.08 0,0.13l-0.04 -0.1c-0.01,-0.01 -0.02,-0.03 -0.02,-0.04 -0,-0.01 -0.01,-0.01 -0.01,-0.02 -0.01,-0.02 -0.03,-0.04 -0.04,-0.06 -0.02,-0.02 -0.04,-0.04 -0.06,-0.06 -0.03,-0.02 -0.06,-0.04 -0.09,-0.07 -0.04,-0.03 -0.1,-0.05 -0.14,-0.06 -0.06,-0.02 -0.13,-0.03 -0.2,-0.04 -0.01,-0 -0.02,0 -0.03,-0 0,0.09 0.05,0.21 0.09,0.28 0.01,0.02 0.02,0.03 0.03,0.04 0,0 0,0.01 0.01,0.01 0.02,0.02 0.04,0.05 0.07,0.07 0.01,0.01 0.03,0.02 0.04,0.03 0.02,0.01 0.03,0.02 0.05,0.03 0.09,0.05 0.21,0.08 0.32,0.1 0.01,0 0.03,0 0.04,0 0,0.02 0.01,0.11 0.01,0.13 0.01,0.09 0.02,0.17 0.04,0.26 0,0.02 0.01,0.04 0.01,0.06 0,0.02 0.01,0.04 0.01,0.06 -0,-0 -0,-0 -0,-0l-0.02 -0.04c-0.02,-0.03 -0.04,-0.05 -0.05,-0.08l-0.05 -0.05c-0.03,-0.03 -0.07,-0.06 -0.11,-0.09 -0.01,-0.01 -0.03,-0.02 -0.04,-0.02 -0.02,-0.01 -0.05,-0.02 -0.07,-0.03 -0.06,-0.02 -0.14,-0.04 -0.2,-0.04 -0.01,0 -0.02,-0 -0.03,-0 -0.02,-0 -0.07,0 -0.09,0.01 -0.01,0 -0.02,0 -0.03,0 0,0.02 0.03,0.09 0.04,0.11 0.03,0.06 0.07,0.12 0.12,0.17l0.03 0.03c0.02,0.01 0.04,0.03 0.05,0.04 0.11,0.07 0.19,0.08 0.31,0.1 0.03,0 0.08,0 0.11,0 0.01,0 0.02,0 0.04,-0 0.01,-0 0.03,-0 0.04,-0 0.02,0.11 0.06,0.21 0.09,0.31 0,0.01 0.01,0.02 0.01,0.03l0.05 0.15c-0,-0 -0,-0 -0,-0 -0,-0 -0,-0 -0,-0 -0.01,-0.02 -0.03,-0.05 -0.05,-0.07l-0.07 -0.07c-0.03,-0.02 -0.05,-0.04 -0.08,-0.05 -0.06,-0.03 -0.12,-0.06 -0.2,-0.07 -0.03,-0.01 -0.09,-0.01 -0.12,-0.01 -0.02,0 -0.1,0.01 -0.12,0.01l-0.08 0.02c-0.01,0 -0.02,0.01 -0.03,0.01 0,0.01 0.02,0.04 0.02,0.05l0.03 0.05c0.01,0.02 0.04,0.06 0.06,0.07 0,0 0,0 0.01,0.01 0.01,0.01 0.03,0.03 0.04,0.04l0.08 0.06c0.05,0.03 0.1,0.05 0.16,0.06 0.04,0.01 0.06,0.01 0.09,0.02l0.04 0c0.08,0 0.13,-0 0.21,-0.01 0.01,-0 0.05,-0.01 0.06,-0.01 0,0.01 0.04,0.1 0.05,0.11 0,0.01 0.01,0.02 0.01,0.03 0.01,0.01 0.01,0.02 0.01,0.03l0.04 0.08c0.01,0.01 0.01,0.02 0.01,0.03 0.02,0.05 0.05,0.09 0.07,0.13 0,0.01 0.01,0.02 0.01,0.03 -0.01,-0.01 -0.02,-0.02 -0.03,-0.03 -0.04,-0.03 -0.06,-0.05 -0.11,-0.08l-0.04 -0.02c-0.15,-0.07 -0.33,-0.06 -0.49,-0.01l-0.07 0.03c-0.01,0 -0.02,0.01 -0.02,0.01 0,0.01 0.02,0.04 0.03,0.05 0.02,0.02 0.03,0.04 0.05,0.06 0.01,0.01 0.01,0.01 0.02,0.02 0.02,0.02 0.06,0.05 0.08,0.07 0.05,0.03 0.1,0.06 0.15,0.07 0.12,0.03 0.26,0.03 0.39,-0.01 0.02,-0.01 0.04,-0.01 0.06,-0.02l0.05 -0.02c0,0.01 0.08,0.13 0.09,0.15 0.01,0.01 0.01,0.02 0.02,0.03l0.04 0.06c0.01,0.02 0.03,0.04 0.04,0.06l0.04 0.06c0.01,0.02 0.03,0.04 0.04,0.05l0.03 0.04c0,0.01 0.01,0.01 0.01,0.01l-0.1 -0.08c-0.01,-0 -0.01,-0.01 -0.02,-0.01 -0.02,-0.01 -0.03,-0.02 -0.05,-0.02 -0.05,-0.03 -0.13,-0.05 -0.19,-0.05 -0.09,-0.01 -0.14,-0 -0.22,0.02l-0.06 0.02c-0.02,0.01 -0.03,0.01 -0.05,0.02 -0.05,0.02 -0.09,0.04 -0.14,0.07 0,0.01 0.03,0.03 0.03,0.04 0.04,0.04 0.08,0.07 0.13,0.1 0.03,0.02 0.07,0.04 0.1,0.05l0.06 0.02c0.02,0 0.05,0.01 0.07,0.01 0.01,0 0.02,0 0.03,0 0.02,0 0.09,-0.01 0.11,-0.01 0.07,-0.01 0.14,-0.03 0.21,-0.06l0.08 -0.04c0.01,-0.01 0.02,-0.01 0.02,-0.01 0.01,-0.01 0.02,-0.01 0.02,-0.01 0,0 0.01,0.01 0.01,0.01l0.06 0.07c0,0 0.01,0.01 0.01,0.01 0.02,0.02 0.05,0.05 0.06,0.07 0,0.01 0.01,0.01 0.01,0.01 0.03,0.03 0.06,0.06 0.09,0.09l0.1 0.09c0.01,0.01 0.06,0.06 0.07,0.06l-0.05 -0.03c-0.17,-0.09 -0.35,-0.11 -0.53,-0.03 -0.07,0.03 -0.17,0.09 -0.22,0.14l-0.02 0.02c-0.01,0.01 -0.01,0.01 -0.02,0.02 0,0 0.01,0 0.01,0.01 0.06,0.05 0.12,0.08 0.19,0.1 0.17,0.06 0.33,0.02 0.49,-0.07 0.01,-0 0.02,-0.01 0.02,-0.01l0.02 -0.01c0.02,-0.01 0.03,-0.02 0.05,-0.03l0.08 -0.07c0,0.01 0.01,0.01 0.01,0.01 0.06,0.06 0.17,0.13 0.23,0.18 0.01,0.01 0.02,0.01 0.03,0.02 0.03,0.02 0.11,0.08 0.15,0.1 0.01,0 0.01,0.01 0.01,0.01 0.01,0 0.01,0.01 0.01,0.01l-0.05 -0.02c-0.15,-0.05 -0.3,-0.05 -0.45,0.02l-0.07 0.04c-0.03,0.02 -0.06,0.04 -0.08,0.06 -0.01,0.01 -0.01,0.01 -0.02,0.02 -0,0 -0.01,0 -0.01,0.01 -0,0 -0.01,0 -0.01,0.01 -0.02,0.02 -0.03,0.04 -0.05,0.05 -0,0 -0.01,0.01 -0.01,0.01 -0.01,0.01 -0.04,0.04 -0.04,0.05 0.05,0.03 0.04,0.02 0.1,0.05 0.11,0.04 0.22,0.05 0.33,0.02 0.1,-0.02 0.2,-0.08 0.27,-0.15 0.04,-0.03 0.1,-0.09 0.12,-0.13 0,-0 0,-0.01 0.01,-0.01l0.19 0.11c0.01,0 0.01,0 0.01,0.01 0.04,0.02 0.12,0.06 0.15,0.08l0.09 0.04c-0.01,-0 -0.02,-0 -0.03,-0 -0.19,-0.02 -0.35,0.03 -0.49,0.15 -0.02,0.02 -0.07,0.07 -0.09,0.1 -0.01,0.01 -0.02,0.03 -0.03,0.04 -0.02,0.03 -0.03,0.05 -0.05,0.08l0.06 0.02c0.02,0.01 0.04,0.01 0.06,0.01 0.04,0.01 0.1,0.02 0.14,0.01 0.05,-0.01 0.07,-0 0.13,-0.02 0.06,-0.02 0.1,-0.04 0.15,-0.07 0.01,-0.01 0.03,-0.02 0.04,-0.03 0.04,-0.03 0.05,-0.04 0.08,-0.07 0.04,-0.04 0.09,-0.1 0.12,-0.15 0.01,-0.01 0.01,-0.02 0.01,-0.02l0.06 0.02c0.07,0.03 0.2,0.07 0.28,0.1l0.16 0.05c-0.02,0 -0.05,0 -0.07,0 -0.09,-0 -0.2,0.03 -0.27,0.08 -0.03,0.02 -0.06,0.04 -0.08,0.06 -0.03,0.02 -0.05,0.04 -0.07,0.07 -0,0 -0,0.01 -0.01,0.01 -0.04,0.05 -0.08,0.1 -0.11,0.16 -0.01,0.02 -0.02,0.03 -0.02,0.05l-0.02 0.05c0.02,0.01 0.14,0.02 0.17,0.02 0.02,-0 0.05,-0 0.07,-0.01 0.01,-0 0.02,-0 0.03,-0.01 0.04,-0.01 0.08,-0.02 0.11,-0.04 0.06,-0.03 0.14,-0.09 0.19,-0.14l0.03 -0.03c0.03,-0.03 0.05,-0.06 0.07,-0.1l0.05 -0.09c0,-0.01 0.02,-0.05 0.02,-0.05 0.02,0 0.03,0.01 0.05,0.01 0.17,0.04 0.45,0.1 0.6,0.15l0.05 0.01c0.02,0 0.08,0.03 0.1,0.03l0 0c-0.02,0 -0.04,0.02 -0.06,0.02 -0.02,0.01 -0.04,0.02 -0.06,0.02l-0.12 0.05c-0.11,0.05 -0.22,0.11 -0.31,0.19 -0.02,0.02 -0.04,0.03 -0.06,0.05l-0.07 0.07c-0,0 -0,0.01 -0.01,0.01 -0,0 -0.01,0.01 -0.01,0.01 -0.01,0.02 -0.05,0.06 -0.05,0.07 -0,0.03 0.01,0.05 0.04,0.05 0.03,-0 0.03,-0.02 0.04,-0.04 0.02,-0.02 0.04,-0.05 0.06,-0.07l0.04 -0.04c0,-0 0.01,-0 0.01,-0.01 0.03,-0.03 0.08,-0.06 0.11,-0.08 0.02,-0.01 0.03,-0.02 0.05,-0.03l0.05 -0.03c0.04,-0.02 0.07,-0.04 0.11,-0.06l0.17 -0.08 0.12 -0.05c0.01,-0 0.02,-0.01 0.03,-0.01 0.01,-0 0.02,-0.01 0.03,-0.01 0.02,-0 0.21,0.08 0.24,0.09l0.11 0.05c0.06,0.03 0.13,0.07 0.19,0.11 0.01,0 0.01,0 0.01,0.01 0.04,0.02 0.07,0.05 0.11,0.08 0.04,0.03 0.07,0.07 0.1,0.11 0.02,0.03 0.04,0.06 0.06,0.06 0.02,0 0.04,-0.02 0.04,-0.04 -0,-0.02 -0.04,-0.07 -0.06,-0.09l-0.03 -0.03c-0.01,-0.02 -0.04,-0.04 -0.05,-0.05l-0.03 -0.03c-0.07,-0.06 -0.15,-0.11 -0.23,-0.15l-0.03 -0.01c-0.01,-0 -0.02,-0.01 -0.03,-0.01 -0.05,-0.02 -0.09,-0.05 -0.14,-0.07 -0.03,-0.01 -0.12,-0.05 -0.15,-0.06l0 -0c0.01,-0 0.04,-0.01 0.05,-0.01 0.16,-0.05 0.33,-0.09 0.49,-0.14 0.08,-0.02 0.15,-0.03 0.23,-0.05 0.01,-0 0.02,-0.01 0.03,-0.01 0,0.02 0.06,0.12 0.08,0.15 0.02,0.03 0.04,0.06 0.06,0.09 0,0 0.01,0.01 0.01,0.01 0.02,0.02 0.04,0.04 0.06,0.06 0,0 0.01,0.01 0.01,0.01 0.02,0.02 0.05,0.04 0.07,0.06l0.06 0.04c0.05,0.03 0.12,0.04 0.18,0.05 0.02,0 0.05,0.01 0.07,0 0.02,-0 0.05,-0 0.07,-0.01 0.02,-0 0.05,-0.01 0.06,-0.01 -0.01,-0.02 -0.02,-0.05 -0.03,-0.07 -0.03,-0.06 -0.07,-0.12 -0.11,-0.17 -0.02,-0.03 -0.04,-0.05 -0.07,-0.07 -0.04,-0.04 -0.09,-0.07 -0.15,-0.1 -0.01,-0.01 -0.03,-0.01 -0.05,-0.02 -0.05,-0.02 -0.12,-0.03 -0.18,-0.03 -0.02,0 -0.05,0 -0.07,0l0.06 -0.02c0.12,-0.03 0.26,-0.08 0.37,-0.13 0.01,-0 0.02,-0.01 0.03,-0.01 0.01,-0 0.02,-0.01 0.03,-0.01 0.01,0.02 0.03,0.05 0.04,0.07 0.03,0.04 0.09,0.11 0.14,0.15 0.04,0.03 0.08,0.07 0.12,0.09 0.06,0.03 0.09,0.05 0.17,0.06 0.01,0 0.02,0 0.03,0 0.01,0 0.02,0 0.04,0 0.05,0 0.1,-0 0.14,-0.01 0.03,-0.01 0.06,-0.01 0.09,-0.02 0.01,-0 0.02,-0.01 0.03,-0.01 -0.01,-0.01 -0.02,-0.03 -0.02,-0.04 -0,-0.01 -0.01,-0.01 -0.01,-0.02 -0,-0.01 -0.01,-0.01 -0.01,-0.02 -0,-0.01 -0.01,-0.01 -0.01,-0.02l-0.08 -0.09c-0.01,-0.01 -0.01,-0.01 -0.02,-0.02 -0.02,-0.02 -0.07,-0.06 -0.1,-0.07 -0.01,-0 -0.01,-0.01 -0.02,-0.01l-0.07 -0.03c-0.09,-0.04 -0.16,-0.05 -0.25,-0.05 -0.04,-0 -0.07,0.01 -0.09,0.01l0.17 -0.08c0.07,-0.03 0.13,-0.07 0.19,-0.1l0.03 -0.02c0.01,-0.01 0.05,-0.03 0.06,-0.03 0,0.01 0.06,0.07 0.07,0.08 0.01,0.01 0.01,0.01 0.02,0.02 0,0 0.01,0.01 0.01,0.01l0.05 0.04c0.01,0.01 0.03,0.02 0.04,0.03 0.05,0.04 0.15,0.08 0.21,0.1 0.05,0.01 0.09,0.02 0.14,0.02 0.06,0 0.14,-0.02 0.19,-0.04 0.07,-0.03 0.05,-0.02 0.1,-0.05l-0.02 -0.03c-0.01,-0.01 -0.03,-0.03 -0.04,-0.05 -0.01,-0.01 -0.02,-0.03 -0.04,-0.04 -0.07,-0.06 -0.11,-0.1 -0.22,-0.14 -0.12,-0.05 -0.24,-0.06 -0.37,-0.02 -0.03,0.01 -0.06,0.02 -0.08,0.03 -0.01,0 -0.02,0.01 -0.03,0.01 0,-0.01 0.1,-0.07 0.12,-0.08 0.02,-0.01 0.04,-0.03 0.06,-0.04 0.05,-0.03 0.09,-0.07 0.14,-0.1 0.01,-0.01 0.13,-0.1 0.13,-0.11 0.01,0.01 0.03,0.02 0.04,0.04 0.04,0.03 0.07,0.05 0.11,0.08 0.01,0.01 0.02,0.01 0.02,0.01 0.07,0.04 0.14,0.07 0.22,0.08 0.1,0.02 0.19,0.01 0.27,-0.02 0.02,-0.01 0.04,-0.01 0.06,-0.02 0.05,-0.02 0.08,-0.04 0.12,-0.07 0.01,-0.01 0.01,-0.01 0.02,-0.02 -0.01,-0.01 -0.03,-0.03 -0.05,-0.04l-0.03 -0.03c-0.09,-0.07 -0.18,-0.12 -0.3,-0.14 -0.12,-0.02 -0.26,-0.01 -0.37,0.04l-0.07 0.04c-0.01,0 -0.02,0.01 -0.02,0.01 0,-0.01 0.01,-0.01 0.01,-0.01l0.11 -0.1c0.01,-0.01 0.01,-0.01 0.01,-0.01 0.01,-0.01 0.02,-0.02 0.03,-0.03l0.18 -0.19 0.07 -0.09 0.05 0.03c0.01,0 0.02,0.01 0.02,0.01 0.08,0.04 0.17,0.07 0.26,0.08 0.02,0 0.08,0.01 0.11,0.01 0.03,-0 0.07,-0.01 0.1,-0.01l0.06 -0.02c0.09,-0.03 0.13,-0.06 0.19,-0.11 0.01,-0.01 0.05,-0.04 0.06,-0.06 0.01,-0.01 0.01,-0.01 0.02,-0.02l-0.09 -0.05c-0.02,-0.01 -0.03,-0.01 -0.05,-0.02 -0.03,-0.01 -0.05,-0.02 -0.08,-0.03 -0.01,-0 -0.02,-0.01 -0.03,-0.01 -0.1,-0.03 -0.21,-0.03 -0.31,-0 -0.09,0.02 -0.17,0.06 -0.23,0.12 -0.01,0.01 -0.01,0.01 -0.02,0.02 -0.01,0.01 -0.01,0.01 -0.02,0.02 0,-0 0.02,-0.02 0.02,-0.03 0.06,-0.07 0.09,-0.12 0.15,-0.19 0.04,-0.05 0.08,-0.11 0.11,-0.16 0,-0.01 0.01,-0.01 0.01,-0.02l0.03 -0.04c0,-0.01 0.01,-0.01 0.01,-0.02l0.05 0.02c0.14,0.05 0.3,0.07 0.45,0.03 0.07,-0.02 0.16,-0.07 0.21,-0.12 0,-0 0.01,-0 0.01,-0.01l0.04 -0.04c0,-0 0.01,-0.01 0.01,-0.01l0.03 -0.04c0.01,-0.01 0.01,-0.01 0.02,-0.02 0,-0.01 0.01,-0.02 0.01,-0.02l-0.05 -0.02c-0.2,-0.08 -0.43,-0.08 -0.61,0.04 -0.05,0.03 -0.04,0.03 -0.07,0.06 -0.01,0.01 -0.02,0.02 -0.03,0.03 0,-0.01 0.04,-0.06 0.04,-0.08l0.14 -0.28 0.04 -0.09c0.02,0.01 0.1,0.02 0.12,0.02 0.03,0 0.12,0.01 0.16,0l0.05 -0c0.1,-0.01 0.21,-0.05 0.29,-0.12 0,-0 0.01,-0 0.01,-0.01 0.04,-0.04 0.08,-0.08 0.11,-0.13 0.01,-0.02 0.05,-0.08 0.05,-0.1l-0.05 -0.01c-0.03,-0.01 -0.09,-0.02 -0.11,-0.02l-0.06 -0 -0.06 0c-0.11,0.01 -0.26,0.06 -0.34,0.14 -0,0 -0.01,0 -0.01,0.01 -0.01,0.01 -0.01,0.01 -0.02,0.02 -0.01,0.01 -0.02,0.02 -0.03,0.03 -0,0 -0,0 -0.01,0.01l-0.05 0.07c0,-0.01 0.04,-0.1 0.04,-0.12 0.02,-0.07 0.05,-0.14 0.07,-0.21l0.04 -0.16c0.02,0 0.04,0 0.07,0 0.01,0 0.02,0 0.03,0 0.02,-0 0.05,-0 0.07,-0 0.07,-0.01 0.14,-0.02 0.21,-0.05 0.05,-0.02 0.08,-0.04 0.12,-0.06 0.02,-0.01 0.04,-0.03 0.06,-0.05 0.05,-0.05 0.09,-0.1 0.12,-0.17 0.01,-0.02 0.04,-0.08 0.04,-0.11 -0.03,-0 -0.06,-0.01 -0.09,-0.01 -0.03,0 -0.02,-0 -0.05,0 -0.01,0 -0.01,0 -0.02,0 -0.01,0 -0.02,0 -0.03,0 -0.08,0 -0.15,0.02 -0.22,0.05 -0.02,0.01 -0.03,0.01 -0.05,0.02 -0.05,0.03 -0.06,0.03 -0.11,0.07 -0.06,0.05 -0.11,0.12 -0.15,0.19 -0,0 -0,0 -0,0.01l-0 0.01c0,-0.01 0.02,-0.08 0.02,-0.09 0.03,-0.13 0.05,-0.26 0.06,-0.4 0,-0.02 -0,-0.03 0.01,-0.03l0.07 -0.01c0.02,-0 0.03,-0.01 0.05,-0.01 0.1,-0.02 0.2,-0.06 0.28,-0.11 0.02,-0.02 0.07,-0.05 0.09,-0.08 0.02,-0.02 0.03,-0.03 0.05,-0.06 0,-0.01 0.01,-0.01 0.01,-0.02 0.02,-0.03 0.03,-0.06 0.05,-0.09 0.02,-0.05 0.04,-0.12 0.04,-0.18 -0.01,0 -0.05,0 -0.06,0.01 -0.02,0 -0.04,0 -0.06,0.01 -0.04,0.01 -0.08,0.02 -0.11,0.03 -0.04,0.01 -0.08,0.03 -0.12,0.05 -0.04,0.02 -0.07,0.04 -0.1,0.07 -0.01,0.01 -0.01,0.01 -0.02,0.02 -0.03,0.02 -0.06,0.06 -0.08,0.09 -0.02,0.03 -0.04,0.06 -0.05,0.09l-0.04 0.1c0,-0.04 0,-0.08 0,-0.13 0,-0.01 0,-0.02 0,-0.03l-0 -0.19c-0,-0.01 -0,-0.02 -0,-0.03 0,-0.04 -0.01,-0.08 -0.01,-0.13 0.04,0 0.13,-0.04 0.17,-0.06 0.03,-0.01 0.05,-0.02 0.07,-0.04l0.05 -0.03c0.01,-0.01 0.02,-0.01 0.02,-0.02 0.03,-0.02 0.06,-0.04 0.08,-0.07 0.01,-0.01 0.01,-0.01 0.02,-0.02 0.07,-0.07 0.13,-0.21 0.14,-0.32l0 -0.07c0,-0.02 -0,-0.02 -0,-0.04 -0.04,0.01 -0.09,0.02 -0.13,0.04l-0.07 0.03c-0.03,0.01 -0.06,0.03 -0.09,0.05l-0.04 0.03c-0.02,0.02 -0.05,0.04 -0.07,0.06 -0.02,0.02 -0.03,0.04 -0.05,0.06 -0.05,0.06 -0.08,0.13 -0.1,0.21 -0,0.01 -0.01,0.04 -0.01,0.06l-0 0c0,-0.01 -0,-0.02 -0,-0.03 -0,-0.01 -0,-0.02 -0,-0.03 -0.01,-0.1 -0.03,-0.2 -0.05,-0.3l-0.02 -0.09c-0,-0.01 -0.01,-0.02 -0.01,-0.03 0.01,-0 0.04,-0.02 0.05,-0.02 0.02,-0.01 0.03,-0.02 0.05,-0.02 0.03,-0.02 0.07,-0.04 0.09,-0.06l0.06 -0.05c0.02,-0.02 0.04,-0.04 0.06,-0.06 0,-0 0,-0.01 0.01,-0.01 0,-0 0.01,-0.01 0.01,-0.01 0.04,-0.05 0.08,-0.1 0.1,-0.17 0.01,-0.02 0.01,-0.04 0.02,-0.06 0.02,-0.08 0.02,-0.16 0.01,-0.24 -0,-0.01 -0.01,-0.02 -0.01,-0.03 -0.02,0 -0.08,0.03 -0.1,0.04 -0.03,0.02 -0.06,0.03 -0.09,0.05 -0.01,0.01 -0.03,0.02 -0.04,0.03 -0.13,0.1 -0.22,0.24 -0.24,0.4 -0.01,0.03 -0.01,0.07 -0.01,0.1 0,0.01 0,0.02 0,0.03 0,-0 -0,-0 -0,-0 0,0 -0,-0 -0,-0 -0,-0 -0,-0 -0,-0 -0.02,-0.06 -0.03,-0.13 -0.05,-0.19l-0.09 -0.25c-0,-0.01 -0.01,-0.02 -0.01,-0.03 -0,-0.01 -0.01,-0.02 -0.01,-0.03 0.02,-0 0.03,-0.02 0.05,-0.03 0.03,-0.02 0.06,-0.04 0.09,-0.06 0.01,-0.01 0.01,-0.01 0.02,-0.02l0.02 -0.02c0.01,-0.01 0.02,-0.02 0.04,-0.04 0.06,-0.06 0.12,-0.15 0.15,-0.23 0.04,-0.11 0.04,-0.22 0.01,-0.33 -0.01,-0.02 -0.01,-0.04 -0.02,-0.06 -0.01,0 -0.04,0.02 -0.05,0.02 -0.02,0.01 -0.03,0.02 -0.04,0.03 -0.06,0.04 -0.12,0.1 -0.17,0.16 -0.07,0.08 -0.12,0.2 -0.13,0.31l-0 0.07c0,0.01 0,0.02 0,0.03 0,0.02 0,0.04 0.01,0.07 0,0.01 0,0.02 0.01,0.03 0,0.01 0.01,0.02 0.01,0.03 -0.01,-0.01 -0.01,-0.02 -0.02,-0.03l-0.04 -0.09c-0.02,-0.06 -0.08,-0.17 -0.12,-0.23 -0.02,-0.04 -0.04,-0.07 -0.06,-0.11 -0.01,-0.01 -0.03,-0.05 -0.04,-0.06 0.01,-0 0,-0 0.01,-0.01 0.05,-0.04 0.1,-0.1 0.14,-0.15 0.02,-0.03 0.05,-0.07 0.07,-0.11 0.02,-0.03 0.03,-0.06 0.04,-0.09 0.04,-0.13 0.04,-0.26 -0.01,-0.39 -0.01,-0.04 -0.03,-0.07 -0.05,-0.1 -0.01,0 -0,0 -0.01,0.01l-0.04 0.03c-0,0 -0.01,0.01 -0.01,0.01l-0.05 0.06c-0.01,0.01 -0.02,0.03 -0.03,0.04 -0.01,0.01 -0.02,0.03 -0.03,0.04 -0.03,0.04 -0.05,0.09 -0.07,0.14 -0.03,0.07 -0.04,0.14 -0.04,0.21 -0,0.03 0,0.07 0.01,0.1 0.02,0.1 0.05,0.15 0.05,0.16l-0.22 -0.32c-0.03,-0.04 -0.07,-0.08 -0.1,-0.12 -0.01,-0.01 -0.01,-0.01 -0.01,-0.01 0.01,-0.02 0.04,-0.05 0.07,-0.08 0.03,-0.05 0.04,-0.07 0.07,-0.12 0.03,-0.06 0.05,-0.13 0.06,-0.2 0.02,-0.13 -0.01,-0.26 -0.07,-0.37 -0.01,-0.01 -0.05,-0.08 -0.06,-0.09 -0.01,0.01 -0.05,0.06 -0.06,0.07 -0.11,0.14 -0.17,0.32 -0.14,0.5 0.01,0.06 0.03,0.12 0.06,0.17 0,0.01 0.01,0.02 0.01,0.02l-0.11 -0.11c-0.01,-0.01 -0.01,-0.01 -0.02,-0.02l-0.23 -0.22 0.05 -0.1 0.03 -0.08c0.05,-0.12 0.07,-0.28 0.03,-0.42 -0.02,-0.06 -0.04,-0.1 -0.07,-0.15l-0.07 -0.09c-0.01,-0.01 -0.03,-0.03 -0.03,-0.03 -0.02,0.02 -0.04,0.06 -0.05,0.08 -0.02,0.03 -0.03,0.06 -0.04,0.09 -0.02,0.05 -0.03,0.11 -0.04,0.16 -0,0.02 -0,0.04 -0,0.06 0,0.15 0.04,0.27 0.13,0.38 0.01,0.01 0.01,0.01 0.01,0.02l-0.26 -0.2 -0.17 -0.11c0,-0 0.03,-0.08 0.04,-0.11 0.01,-0.02 0.01,-0.04 0.02,-0.06 0,-0.02 0.01,-0.04 0.01,-0.06 0.02,-0.13 0.01,-0.26 -0.04,-0.38 -0.02,-0.03 -0.04,-0.06 -0.06,-0.09 -0.04,-0.05 -0.08,-0.09 -0.13,-0.13l-0.02 -0.02 -0.03 0.07c-0,0.01 -0.01,0.02 -0.01,0.03 -0.04,0.1 -0.06,0.25 -0.04,0.35 0.02,0.13 0.07,0.21 0.14,0.3l0.03 0.04c0.01,0.01 0.01,0.01 0.02,0.02 -0.01,-0 -0.06,-0.04 -0.07,-0.04 -0.03,-0.01 -0.05,-0.03 -0.08,-0.04 -0.01,-0 -0.01,-0.01 -0.02,-0.01l-0.06 -0.03c-0.05,-0.02 -0.14,-0.07 -0.2,-0.09 -0,-0 -0.01,-0 -0.01,-0 -0.01,-0.01 -0.01,-0 -0.02,-0.02 -0.01,-0.01 -0.01,-0.02 -0.02,-0.03 -0.09,-0.13 -0.22,-0.23 -0.37,-0.27 -0.05,-0.02 -0.15,-0.03 -0.21,-0.02l-0.05 0.01c-0.02,0 -0.07,0.01 -0.1,0.02l-0.05 0.01c0.02,0.04 0.09,0.13 0.12,0.16l0.03 0.03c0.03,0.03 0.06,0.06 0.09,0.08 0.08,0.06 0.18,0.11 0.29,0.12 0.07,0.01 0.15,-0 0.21,-0.02 0.03,-0.01 0.02,-0.01 0.04,0l0.31 0.15c0.01,0.01 0.02,0.01 0.04,0.02 0.01,0 0.07,0.04 0.07,0.04 -0.07,-0.02 -0.12,-0.02 -0.2,-0.02 -0.03,0 -0.06,0.01 -0.09,0.02 -0.04,0.01 -0.04,0.02 -0.08,0.03 -0.06,0.03 -0.07,0.04 -0.12,0.08l-0.06 0.06c-0.01,0.01 -0.03,0.03 -0.04,0.05 -0.01,0.01 -0.02,0.02 -0.02,0.03l0.04 0.02c0.19,0.08 0.37,0.04 0.53,-0.09 0.02,-0.01 0.07,-0.06 0.08,-0.08 0.01,-0.01 0.04,-0.04 0.04,-0.05l0.1 0.07c0.01,0.01 0.02,0.01 0.03,0.02l0.08 0.05c0.02,0.01 0.03,0.02 0.05,0.04 0.02,0.01 0.03,0.02 0.05,0.04l0.07 0.06c0.01,0.01 0.02,0.01 0.02,0.02 -0.01,-0 -0.07,-0.04 -0.2,-0.04 -0.02,-0 -0.06,0 -0.07,0.01 -0.1,0.01 -0.19,0.06 -0.26,0.12 -0.02,0.01 -0.08,0.06 -0.09,0.08 0.01,0.02 0.09,0.06 0.12,0.07 0.08,0.03 0.18,0.05 0.27,0.02 0.08,-0.02 0.13,-0.04 0.2,-0.08l0.12 -0.1c0.02,0.01 0.06,0.05 0.07,0.07l0.04 0.03c0,0 0.01,0.01 0.01,0.01l0.02 0.02c0.03,0.03 0.1,0.1 0.12,0.12l0.1 0.11c0.01,0.01 0.01,0.01 0.01,0.01 -0.01,-0 -0.01,-0.01 -0.02,-0.01 -0.12,-0.08 -0.29,-0.11 -0.43,-0.06 -0.07,0.02 -0.13,0.05 -0.19,0.09l-0.03 0.02c0.01,0.01 0.03,0.03 0.05,0.04 0.02,0.02 0.05,0.04 0.08,0.05l0.04 0.02c0.14,0.05 0.26,0.04 0.39,-0.01 0.05,-0.02 0.1,-0.05 0.14,-0.08 0.01,-0.01 0.01,-0.01 0.02,-0.01 0.01,0.01 0.14,0.18 0.15,0.19l0.09 0.12c0.01,0.01 0.01,0.02 0.02,0.03 0.01,0.02 0.02,0.03 0.03,0.05 -0,-0 -0.02,-0.02 -0.03,-0.02 -0.07,-0.05 -0.14,-0.08 -0.23,-0.09 -0.08,-0.01 -0.16,-0 -0.24,0.02 -0.03,0.01 -0.1,0.04 -0.13,0.05 -0.01,0 -0.01,0.01 -0.02,0.01 0,0.01 0.02,0.03 0.03,0.04 0.02,0.03 0.07,0.07 0.1,0.09 0.12,0.08 0.26,0.1 0.4,0.07 0.06,-0.01 0.13,-0.04 0.18,-0.07 0,0.01 0.01,0.02 0.01,0.03l0.06 0.11c0,0 0,0.01 0.01,0.01 0.03,0.06 0.06,0.11 0.09,0.18 0.01,0.02 0.02,0.04 0.03,0.06 0.01,0.01 0.02,0.05 0.02,0.06l-0.08 -0.07c-0.05,-0.04 -0.11,-0.07 -0.17,-0.09 -0.07,-0.02 -0.15,-0.02 -0.24,-0.01 -0.03,0.01 -0.05,0.01 -0.09,0.02 -0.01,0 -0.03,0.01 -0.04,0.01 0.02,0.04 0.02,0.04 0.04,0.08l0.03 0.04c0.01,0.01 0.02,0.02 0.03,0.03 0.07,0.07 0.14,0.11 0.24,0.13 0.1,0.02 0.21,0.02 0.31,-0.01 0.01,-0 0.02,-0.01 0.03,-0.01l0.02 0.06c0.02,0.06 0.04,0.11 0.06,0.17 0.02,0.05 0.05,0.15 0.06,0.21 0,0.01 0.01,0.02 0.01,0.03 -0.01,-0.01 -0.02,-0.02 -0.02,-0.03 -0.03,-0.04 -0.03,-0.04 -0.05,-0.06 -0,-0.01 -0.01,-0.01 -0.01,-0.01 -0.02,-0.02 -0.05,-0.04 -0.07,-0.06 -0.07,-0.05 -0.14,-0.07 -0.24,-0.08 -0.05,-0.01 -0.11,-0.01 -0.15,0 -0.01,0 -0.03,0.01 -0.05,0.01 0,0.03 0.04,0.1 0.06,0.13 0.01,0.03 0.03,0.05 0.05,0.07l0.01 0.02c0.07,0.07 0.17,0.12 0.27,0.13 0.06,0.01 0.14,0.02 0.2,0.01 0.01,-0 0.02,-0 0.03,-0l0.03 0.13c0.01,0.04 0.02,0.09 0.02,0.13 0,0.02 0.01,0.04 0.01,0.07 0,0.03 0.02,0.18 0.02,0.21 -0,-0.01 -0.01,-0.04 -0.02,-0.04 -0.06,-0.15 -0.19,-0.27 -0.35,-0.31 -0.07,-0.02 -0.13,-0.03 -0.21,-0.03 0,0.03 0.01,0.07 0.02,0.1 0.02,0.05 0.04,0.08 0.07,0.13 0.01,0.01 0.02,0.02 0.03,0.04 0.02,0.02 0.05,0.05 0.07,0.06 0.02,0.01 0.04,0.03 0.06,0.04 0.07,0.04 0.13,0.06 0.22,0.07 0.04,0.01 0.07,0.01 0.12,0.01 0,0.04 0.01,0.08 0.01,0.13 0,0.01 0,0.02 0,0.03l0 0.1c0,0.05 -0,0.09 -0,0.13l-0.01 0.13c0,-0.01 -0.01,-0.04 -0.01,-0.05 -0.01,-0.04 -0.02,-0.07 -0.04,-0.11 -0,-0.01 -0.01,-0.01 -0.01,-0.02 -0,-0.01 -0.01,-0.01 -0.01,-0.02 -0.04,-0.06 -0.1,-0.12 -0.17,-0.16 -0.05,-0.03 -0.11,-0.05 -0.17,-0.07 -0.03,-0.01 -0.07,-0.01 -0.1,-0.02 0,0.04 0,0.08 0.01,0.12 0.01,0.03 0.02,0.07 0.03,0.1 0.04,0.1 0.11,0.16 0.2,0.22 0.01,0 0.01,0.01 0.02,0.01 0.04,0.02 0.09,0.04 0.14,0.06 0.03,0.01 0.07,0.02 0.11,0.02 -0,0 -0.01,0.06 -0.01,0.07 -0.01,0.09 -0.02,0.18 -0.04,0.27l-0.02 0.13c-0,0.01 -0,0.02 -0.01,0.03 -0,0.01 -0.01,0.02 -0.01,0.03l-0 0c0,-0.11 -0.05,-0.24 -0.12,-0.32 -0.06,-0.07 -0.13,-0.12 -0.22,-0.16l-0.06 -0.02c-0.01,-0 -0.01,-0.01 -0.02,-0.01 -0.01,0 -0.01,0.07 -0.01,0.09 -0,0.01 0,0.02 0,0.03 -0,0.05 0.01,0.11 0.03,0.16 0,0.01 0.01,0.01 0.01,0.02l0.02 0.04c0.02,0.03 0.04,0.06 0.07,0.09 0.04,0.04 0.09,0.08 0.14,0.11 0.01,0 0.01,0.01 0.02,0.01 0.04,0.02 0.07,0.04 0.11,0.05l-0.03 0.12c-0.03,0.1 -0.06,0.2 -0.1,0.29 -0,0.01 -0.01,0.05 -0.02,0.06 0,-0.02 0,-0.03 0,-0.05 0,-0.01 -0,-0.01 -0,-0.02 -0,-0.08 -0.03,-0.17 -0.07,-0.23 -0.02,-0.03 -0.05,-0.07 -0.07,-0.09l-0.11 -0.09c-0.02,-0.01 -0.08,-0.05 -0.09,-0.05 -0,0.01 -0.01,0.03 -0.01,0.05 -0.02,0.09 -0.02,0.19 0.01,0.27 0.02,0.05 0.07,0.13 0.11,0.17l0.07 0.06c0.01,0.01 0.01,0.01 0.02,0.01l0.08 0.05c0.01,0 0.04,0.02 0.04,0.02l-0.07 0.15c-0.01,0.03 -0.03,0.06 -0.04,0.09 -0.01,0.02 -0.02,0.04 -0.03,0.06 -0.01,0.02 -0.02,0.04 -0.03,0.06l-0.06 0.11c-0,0 -0,0 -0,0l0.01 -0.07c0.01,-0.09 -0,-0.18 -0.04,-0.27l-0.02 -0.04c-0.03,-0.05 -0.06,-0.09 -0.1,-0.13 -0.01,-0.01 -0.02,-0.02 -0.03,-0.03l-0.08 -0.06c-0.01,-0 -0.01,-0.01 -0.02,-0.01 -0.03,0.06 -0.05,0.13 -0.06,0.2 -0.01,0.14 0.03,0.24 0.11,0.33 0.01,0.02 0.03,0.04 0.04,0.05l0.03 0.03c0.01,0.01 0.01,0.01 0.02,0.02l0.03 0.03c0.01,0.01 0.02,0.02 0.04,0.03 -0.01,0.01 -0.01,0.02 -0.02,0.02l-0.05 0.07c-0.02,0.03 -0.04,0.06 -0.07,0.1l-0.07 0.09c-0.01,0.02 -0.06,0.08 -0.07,0.09l0.02 -0.08c0,-0.01 0,-0.03 0.01,-0.05 0,-0.09 -0,-0.14 -0.04,-0.22 -0.03,-0.08 -0.07,-0.13 -0.12,-0.19 -0.01,-0.01 -0.05,-0.05 -0.05,-0.05 -0.01,0.01 -0.04,0.06 -0.05,0.08 -0.1,0.2 -0.04,0.39 0.09,0.56 0.01,0.01 0.05,0.06 0.06,0.07l-0.08 0.09c-0,0 -0.01,0.01 -0.01,0.01l-0.06 0.06c-0.04,0.05 -0.09,0.09 -0.13,0.13 -0.01,0.01 -0.04,0.04 -0.04,0.04 0,-0.01 0.01,-0.02 0.02,-0.03 0.04,-0.09 0.05,-0.19 0.04,-0.3 -0.01,-0.05 -0.03,-0.11 -0.05,-0.15 -0.01,-0.02 -0.06,-0.11 -0.08,-0.12 -0.03,0.02 -0.09,0.1 -0.11,0.14 -0.01,0.03 -0.03,0.05 -0.04,0.09 -0.01,0.03 -0.02,0.07 -0.02,0.11 0,0.05 0,0.07 0.01,0.11 0.01,0.07 0.05,0.16 0.08,0.22 0.01,0.01 0.02,0.02 0.02,0.04 -0.01,0 -0.09,0.07 -0.09,0.07 -0.03,0.02 -0.06,0.05 -0.09,0.07 -0.05,0.04 -0.11,0.08 -0.17,0.12 -0.01,0 -0.02,0.01 -0.03,0.02l0.04 -0.06c0.01,-0.02 0.02,-0.04 0.03,-0.07 0.02,-0.06 0.03,-0.11 0.04,-0.17 0,-0.01 0,-0.01 0,-0.02 -0,-0.02 -0,-0.04 -0.01,-0.07 -0.01,-0.07 -0.03,-0.14 -0.06,-0.2 -0,-0.01 -0.01,-0.03 -0.02,-0.04 -0.01,0 -0.04,0.03 -0.05,0.04 -0.01,0.01 -0.01,0.01 -0.02,0.01 -0.01,0.01 -0.05,0.06 -0.06,0.07 -0.09,0.13 -0.1,0.23 -0.08,0.39 0.01,0.05 0.03,0.1 0.04,0.14 0,0.01 0.02,0.04 0.02,0.04 -0.01,0 -0.07,0.04 -0.08,0.05l-0.23 0.12c-0.01,0.01 -0.14,0.07 -0.15,0.07l0.03 -0.03c0,-0 0.01,-0.01 0.01,-0.01 0.02,-0.02 0.05,-0.06 0.07,-0.07 0.1,-0.15 0.12,-0.32 0.07,-0.49 -0,-0.01 -0.01,-0.03 -0.01,-0.04 -0.01,0.01 -0.03,0.01 -0.04,0.02 -0.04,0.03 -0.07,0.05 -0.1,0.08 -0.01,0.01 -0.02,0.02 -0.03,0.03l-0.04 0.05c-0.03,0.05 -0.05,0.1 -0.06,0.16 -0.01,0.08 -0.01,0.15 0,0.23 0,0.02 0.01,0.03 0.01,0.05l0.01 0.05 -0.29 0.1c-0.02,0.01 -0.04,0.01 -0.06,0.02 -0.01,0 -0.11,0.03 -0.12,0.03 0,-0 -0,0 0,-0 0,-0 0,-0 0,-0l0.05 -0.04c0.05,-0.04 0.1,-0.1 0.12,-0.15 0.01,-0.01 0.01,-0.02 0.02,-0.04 0.04,-0.08 0.05,-0.16 0.05,-0.25 0,-0.02 -0.01,-0.11 -0.02,-0.12 -0.03,0 -0.13,0.06 -0.16,0.09 -0.01,0.01 -0.04,0.03 -0.05,0.04 -0.07,0.08 -0.11,0.15 -0.13,0.27 -0.01,0.05 -0.01,0.09 -0.01,0.15l0 0.06c0,0.01 0,0.02 0,0.03 -0.11,0.03 -0.23,0.05 -0.35,0.08 -0.12,0.03 -0.22,0.06 -0.34,0.09l-0.19 0.06c-0.01,0 -0.02,0.01 -0.03,0.01l-0.16 -0.05c-0.02,-0.01 -0.04,-0.01 -0.05,-0.02 -0.08,-0.02 -0.14,-0.04 -0.22,-0.06l-0.4 -0.1c-0.02,-0 -0.04,-0.01 -0.06,-0.01 0,-0.01 0,-0.02 0,-0.03 0.01,-0.05 0.01,-0.12 0,-0.17 -0.01,-0.07 -0.02,-0.11 -0.04,-0.17 -0.02,-0.04 -0.05,-0.09 -0.07,-0.12 -0.01,-0.01 -0.02,-0.02 -0.03,-0.03l-0.03 -0.03c-0.03,-0.02 -0.06,-0.04 -0.09,-0.06 -0.01,-0.01 -0.06,-0.03 -0.07,-0.03 -0,0.01 -0.01,0.08 -0.01,0.09 -0,0.01 -0,0.01 -0,0.02 0,0.05 0,0.08 0.01,0.13 0.01,0.05 0.03,0.12 0.05,0.16 0.02,0.03 0.02,0.04 0.04,0.07l0.04 0.05c0.04,0.04 0.05,0.05 0.1,0.08l0.01 0.01c-0.03,-0 -0.21,-0.06 -0.24,-0.07 -0.04,-0.01 -0.08,-0.03 -0.12,-0.04l-0.08 -0.03c-0.01,-0 -0.02,-0.01 -0.03,-0.01 0,-0.01 0.01,-0.02 0.01,-0.02 0,-0.01 0,-0.01 0.01,-0.02 0.02,-0.09 0.03,-0.19 0.02,-0.28 -0.01,-0.04 -0.01,-0.07 -0.03,-0.1 -0.03,-0.07 -0.06,-0.12 -0.11,-0.17 -0.02,-0.02 -0.06,-0.05 -0.09,-0.07 -0.01,-0 -0.01,-0.01 -0.02,-0.01 -0.01,-0 -0.01,-0.01 -0.02,-0.01 -0.02,0.03 -0.04,0.14 -0.04,0.18l-0 0.05c0,0.02 0,0.04 0,0.05 0.01,0.09 0.03,0.15 0.08,0.23 0.02,0.03 0.04,0.06 0.06,0.08 0.02,0.02 0.02,0.02 0.04,0.03l0.02 0.02 -0.18 -0.08 -0.17 -0.09c-0.02,-0.01 -0.1,-0.06 -0.11,-0.06 0,-0.01 0.01,-0.04 0.02,-0.04 0.02,-0.04 0.02,-0.05 0.03,-0.09 0.02,-0.08 0.03,-0.19 0.01,-0.27 -0.01,-0.07 -0.04,-0.12 -0.08,-0.17 -0.01,-0.01 -0.05,-0.06 -0.06,-0.07 -0.01,-0.01 -0.06,-0.05 -0.07,-0.05l-0.03 0.07c-0.02,0.05 -0.05,0.15 -0.05,0.21l0 0.05c0,0.08 0.03,0.17 0.07,0.24 0.01,0.01 0.01,0.02 0.02,0.03l0.02 0.03c-0.01,-0 -0.09,-0.06 -0.1,-0.07l-0.07 -0.05c-0.01,-0.01 -0.02,-0.01 -0.02,-0.02 -0.07,-0.05 -0.11,-0.09 -0.17,-0.14 -0.01,-0 -0.01,-0.01 -0.01,-0.01 0.01,-0.01 0.01,-0.02 0.02,-0.04 0.01,-0.02 0.02,-0.04 0.03,-0.06l0.03 -0.07c0.04,-0.1 0.05,-0.21 0.02,-0.32 -0.02,-0.06 -0.05,-0.11 -0.08,-0.16 -0.01,-0.02 -0.04,-0.05 -0.06,-0.06 -0.02,0.01 -0.07,0.11 -0.08,0.12 -0.06,0.12 -0.08,0.28 -0.03,0.41 0.01,0.03 0.02,0.04 0.03,0.07 -0.01,-0 -0.17,-0.16 -0.17,-0.16l-0.15 -0.16c-0,-0 -0.01,-0.01 -0.01,-0.01 0.01,-0 0.01,-0.01 0.02,-0.01l0.01 -0.02c0.03,-0.03 0.06,-0.07 0.08,-0.11 0,-0.01 0.01,-0.01 0.01,-0.02l0.03 -0.06c0.02,-0.05 0.04,-0.1 0.04,-0.15 0.01,-0.08 -0.01,-0.16 -0.04,-0.24 -0,-0.01 -0.01,-0.01 -0.01,-0.02 -0.01,-0.01 -0.02,-0.05 -0.03,-0.06 -0,-0.01 -0.01,-0.01 -0.01,-0.02 -0.02,0.01 -0.09,0.09 -0.1,0.11 -0.06,0.08 -0.11,0.2 -0.11,0.3 0,0.02 -0,0.03 -0,0.05 0,0.01 0,0.03 0.01,0.05l0.01 0.06c0,0.01 0,0.01 0.01,0.02 -0.01,-0.01 -0.03,-0.03 -0.04,-0.04 -0.01,-0.01 -0.01,-0.02 -0.02,-0.02l-0.09 -0.12c-0.05,-0.06 -0.09,-0.13 -0.13,-0.2 0.03,-0.01 0.05,-0.04 0.07,-0.06 0.04,-0.03 0.11,-0.12 0.14,-0.18 0.03,-0.06 0.06,-0.13 0.06,-0.2 0,-0.01 0,-0.02 0,-0.03 -0,-0.05 -0.01,-0.09 -0.02,-0.14 -0.01,-0.03 -0.02,-0.06 -0.04,-0.09 -0.01,0 -0.01,0.01 -0.02,0.01 -0.01,0 -0.01,0.01 -0.02,0.01 -0.04,0.03 -0.08,0.07 -0.12,0.11l-0.02 0.03c-0.05,0.07 -0.09,0.15 -0.1,0.24 -0.01,0.05 -0.01,0.11 0,0.16 0,0.02 0.01,0.03 0.01,0.05 -0.01,-0.01 -0.01,-0.02 -0.02,-0.03 -0.01,-0.01 -0.01,-0.02 -0.02,-0.03l-0.05 -0.08c-0.01,-0.02 -0.03,-0.06 -0.04,-0.09 -0.01,-0.03 -0.03,-0.06 -0.04,-0.09l-0.04 -0.09c-0.01,-0.02 -0.02,-0.04 -0.03,-0.06 0.03,-0.01 0.12,-0.07 0.14,-0.09 0.02,-0.02 0.04,-0.04 0.06,-0.05 0.02,-0.02 0.03,-0.03 0.04,-0.05 0.05,-0.07 0.08,-0.14 0.09,-0.22 0.01,-0.07 0,-0.13 -0.02,-0.2 -0,-0.01 -0.01,-0.02 -0.01,-0.03 -0.02,0.01 -0.08,0.04 -0.11,0.06 -0.03,0.02 -0.06,0.05 -0.09,0.08 -0.02,0.02 -0.04,0.04 -0.05,0.06 -0.05,0.07 -0.09,0.15 -0.1,0.24 -0.01,0.05 -0,0.06 -0,0.11 -0.01,-0.01 -0.01,-0.02 -0.01,-0.03 -0,-0.01 -0.01,-0.02 -0.01,-0.03 -0.01,-0.02 -0.01,-0.04 -0.02,-0.06 -0.04,-0.11 -0.06,-0.18 -0.09,-0.3 -0,-0.02 -0.01,-0.05 -0.02,-0.06 0.02,-0 0.05,-0.02 0.07,-0.03 0.02,-0.01 0.04,-0.02 0.06,-0.03 0.05,-0.03 0.07,-0.04 0.11,-0.08l0.06 -0.07c0.01,-0.01 0.01,-0.01 0.01,-0.02 0.03,-0.05 0.06,-0.09 0.07,-0.15 0.02,-0.06 0.02,-0.16 0.01,-0.23 -0.01,0.01 -0.06,0.02 -0.08,0.03 -0.03,0.01 -0.05,0.02 -0.08,0.04 -0.04,0.02 -0.07,0.05 -0.1,0.08 -0.01,0.01 -0.01,0.01 -0.02,0.01l-0.04 0.05c-0.01,0.01 -0.02,0.02 -0.02,0.03 -0.01,0.02 -0.03,0.05 -0.04,0.08 -0.02,0.05 -0.04,0.12 -0.04,0.19l-0 0c0,-0.01 -0,-0.02 -0.01,-0.03 -0.03,-0.12 -0.06,-0.3 -0.07,-0.42 -0,-0.01 -0.01,-0.07 -0.01,-0.07 0.04,0 0.16,-0.04 0.2,-0.06l0.04 -0.02c0.02,-0.01 0.04,-0.02 0.06,-0.04l0.04 -0.03c0.05,-0.04 0.1,-0.1 0.12,-0.16 0.01,-0.02 0.01,-0.03 0.02,-0.05 0.01,-0.02 0.01,-0.03 0.01,-0.05 0.01,-0.04 0.01,-0.07 0.01,-0.12 -0.02,0 -0.03,0 -0.05,0.01 -0.03,0.01 -0.06,0.01 -0.1,0.02 -0.03,0.01 -0.06,0.02 -0.08,0.04 -0.03,0.02 -0.06,0.03 -0.09,0.06 -0.08,0.07 -0.15,0.16 -0.18,0.27 -0,0.01 -0.01,0.04 -0.01,0.05l-0 0c0,-0.03 -0,-0.06 -0,-0.1 0,-0.01 -0,-0.02 -0,-0.03 0,-0.05 -0,-0.09 -0,-0.13l0.01 -0.26c0.16,0 0.3,-0.05 0.39,-0.12l0.03 -0.02c0,-0 0.01,-0 0.01,-0.01l0.07 -0.09c0.02,-0.03 0.04,-0.07 0.05,-0.11 0.01,-0.02 0.02,-0.07 0.03,-0.1 -0.08,0 -0.14,0.01 -0.21,0.03 -0.16,0.05 -0.28,0.15 -0.34,0.31 -0,0.01 -0,0.01 -0.01,0.02l-0.01 0.02c0,-0.03 0.01,-0.11 0.01,-0.14 0.01,-0.08 0.03,-0.19 0.04,-0.27l0.03 -0.13 0.06 0c0.05,0.01 0.13,-0 0.17,-0.01 0.13,-0.02 0.24,-0.08 0.31,-0.18 0.01,-0.01 0.02,-0.02 0.02,-0.04 0.02,-0.03 0.06,-0.11 0.06,-0.13 -0.02,0 -0.06,-0.01 -0.1,-0.01 -0.07,0 -0.13,0 -0.2,0.02 -0.09,0.03 -0.15,0.06 -0.22,0.13 -0.01,0.01 -0.01,0.01 -0.01,0.01l-0.07 0.09c0,-0.02 0.04,-0.16 0.05,-0.18 0.01,-0.02 0.01,-0.04 0.02,-0.06 0.01,-0.02 0.01,-0.04 0.02,-0.06 0,-0.01 0.01,-0.02 0.01,-0.03l0.03 -0.08c0,-0.01 0.01,-0.02 0.01,-0.03 0,-0.01 0.01,-0.02 0.01,-0.03 0.01,0 0.03,0.01 0.05,0.01 0.06,0.01 0.1,0.02 0.17,0.02 0.08,0 0.15,-0.02 0.21,-0.04 0.05,-0.02 0.1,-0.06 0.14,-0.1l0.03 -0.03c0.01,-0.02 0.03,-0.03 0.04,-0.05 0,-0.01 0.01,-0.01 0.01,-0.02l0.02 -0.04c-0.02,-0.01 -0.05,-0.01 -0.08,-0.02 -0.14,-0.03 -0.31,-0.01 -0.42,0.07l-0.04 0.03c-0.02,0.01 -0.04,0.04 -0.05,0.05 -0,0.01 -0.01,0.01 -0.01,0.01 0,-0.02 0.11,-0.24 0.12,-0.25l0.1 -0.19c0.01,0 0.01,0.01 0.02,0.01 0.06,0.03 0.09,0.04 0.16,0.06 0.14,0.03 0.28,0.02 0.4,-0.07 0.03,-0.02 0.04,-0.03 0.07,-0.06 0.02,-0.01 0.05,-0.05 0.06,-0.07 -0.01,-0 -0.01,-0 -0.02,-0.01 -0.01,-0 -0.01,-0.01 -0.02,-0.01 -0.01,-0.01 -0.02,-0.01 -0.04,-0.02 -0.09,-0.04 -0.16,-0.06 -0.26,-0.05 -0.01,0 -0.01,0 -0.02,0 -0.02,0 -0.05,0.01 -0.07,0.01 -0.05,0.01 -0.1,0.03 -0.15,0.06l-0.05 0.03c-0.01,0 -0.01,0.01 -0.02,0.01l0.07 -0.1c0.03,-0.05 0.07,-0.1 0.11,-0.15l0.04 -0.05c0.01,-0.02 0.02,-0.03 0.04,-0.05l0.03 -0.03c0,-0.01 0.01,-0.01 0.01,-0.01l0.04 0.02c0.07,0.04 0.14,0.08 0.22,0.1 0.03,0.01 0.08,0.02 0.11,0.02 0.06,0 0.11,-0.01 0.16,-0.03 0.07,-0.03 0.1,-0.05 0.16,-0.09 0.01,-0 0.03,-0.02 0.03,-0.03 -0.03,-0.02 -0.07,-0.05 -0.1,-0.07 -0.01,-0 -0.01,-0.01 -0.02,-0.01l-0.06 -0.03c-0.15,-0.06 -0.32,-0.05 -0.46,0.04 -0.01,0 -0.01,0.01 -0.02,0.01 -0.01,0 -0.01,0.01 -0.02,0.01 0.01,-0.02 0.06,-0.07 0.08,-0.09l0.15 -0.15c0.01,-0.01 0.01,-0.01 0.01,-0.01l0.07 -0.07c0,-0 0.01,-0.01 0.01,-0.01 0.01,-0.01 0.01,-0.01 0.01,-0.01 0.01,-0.01 0.02,-0.02 0.04,-0.03 0.01,0.01 0.02,0.02 0.03,0.03 0.04,0.03 0.05,0.04 0.09,0.07l0.02 0.01c0.01,0 0.01,0.01 0.02,0.01l0.06 0.03c0.14,0.06 0.28,0.05 0.41,-0.01 0.02,-0.01 0.07,-0.04 0.08,-0.05 -0.01,-0.01 -0.02,-0.02 -0.03,-0.03 -0.01,-0.01 -0.01,-0.01 -0.01,-0.01 -0.01,-0 -0.01,-0.01 -0.01,-0.01 -0.07,-0.06 -0.12,-0.09 -0.21,-0.12 -0.03,-0.01 -0.1,-0.03 -0.14,-0.03 -0.06,0 -0.09,-0 -0.15,0.01l-0.06 0.02c-0.01,0 -0.01,0.01 -0.02,0.01 0.01,-0.02 0.2,-0.15 0.23,-0.18 0.03,-0.02 0.08,-0.06 0.12,-0.08 0.02,-0.01 0.04,-0.02 0.05,-0.03 0,0.01 0,0 0.01,0.01 0.05,0.06 0.09,0.1 0.15,0.15 0.01,0.01 0.03,0.02 0.04,0.03 0.03,0.02 0.05,0.03 0.08,0.04 0.12,0.05 0.24,0.04 0.37,-0.01l0.04 -0.02c-0,-0.02 -0.05,-0.06 -0.06,-0.08l-0.04 -0.04c-0.01,-0.01 -0.02,-0.02 -0.03,-0.02 -0.01,-0.01 -0.02,-0.02 -0.03,-0.02 -0.07,-0.05 -0.16,-0.08 -0.24,-0.09 -0.08,-0.01 -0.13,-0 -0.2,0.01 0.01,-0.01 0.09,-0.05 0.11,-0.06 0.01,-0 0.01,-0.01 0.02,-0.01l0.06 -0.03c0.01,-0.01 0.02,-0.01 0.04,-0.02l0.2 -0.09c0.03,-0.01 0.01,-0.01 0.04,-0 0.21,0.05 0.37,0 0.53,-0.13 0.02,-0.02 0.04,-0.04 0.07,-0.06l0.04 -0.05c0.04,-0.05 0.07,-0.08 0.09,-0.13l-0.04 -0.01c-0.03,-0.01 -0.06,-0.02 -0.09,-0.02 -0.01,-0 -0.02,-0 -0.03,-0 -0.07,-0.01 -0.07,-0.01 -0.14,0 -0.07,0.01 -0.16,0.03 -0.22,0.07 -0.05,0.03 -0.1,0.06 -0.14,0.1 -0.01,0.01 -0.02,0.02 -0.03,0.03 -0.01,0.01 -0.01,0.01 -0.01,0.02l-0.1 0.13 -0.1 0.05c-0.01,0.01 -0.03,0.01 -0.04,0.02l-0.31 0.16 0.03 -0.03c0,-0 0,-0 0.01,-0.01 0.02,-0.03 0.03,-0.03 0.05,-0.07 0.03,-0.04 0.05,-0.08 0.07,-0.13 0.01,-0.03 0.02,-0.07 0.03,-0.11 0.01,-0.08 0.01,-0.17 -0.01,-0.25 -0.01,-0.06 -0.03,-0.12 -0.06,-0.18 -0,-0.01 -0.01,-0.01 -0.01,-0.02 -0.01,0 -0.04,0.02 -0.04,0.03l-0.03 0.02c-0.03,0.03 -0.06,0.05 -0.08,0.09 -0.04,0.06 -0.08,0.13 -0.1,0.2 -0.02,0.09 -0.02,0.18 -0.01,0.27 0.01,0.04 0.02,0.08 0.03,0.12 0.01,0.03 0.04,0.11 0.04,0.11l-0.11 0.07c-0.05,0.04 -0.11,0.08 -0.16,0.12l-0.08 0.06c-0.01,0.01 -0.07,0.06 -0.08,0.06z"/>
   </g>
   <g>
    <path class="fil0" d="M42.63 8.82l3.15 0c0.76,0 1.41,-0.18 1.96,-0.63 0.88,-0.73 0.98,-2.18 0.44,-3.15 -0.2,-0.36 -0.52,-0.62 -0.87,-0.81 0.02,-0.04 0.04,-0.05 0.07,-0.08 0.42,-0.48 0.64,-1.02 0.64,-1.68 0,-0.58 -0.19,-1.29 -0.57,-1.67 -0.29,-0.29 -0.38,-0.36 -0.75,-0.54 -0.36,-0.17 -0.9,-0.26 -1.35,-0.26l-2.72 0 0 8.82zm1.95 -6.84l0 1.44 0.71 0c0,0 0.52,0.04 0.67,-0.31 0.15,-0.35 0.07,-0.69 0,-0.81 -0.07,-0.12 -0.23,-0.31 -0.55,-0.31 -0.32,0 -0.83,-0.01 -0.83,-0.01zm0 3.43l0 1.44 0.71 0c0,0 0.04,0 0.1,-0l0 0 0.4 0c0,0 0.52,0.04 0.67,-0.31 0.15,-0.35 0.07,-0.69 0,-0.81 -0.07,-0.12 -0.23,-0.31 -0.55,-0.31 -0.16,0 -0.36,-0 -0.52,-0l-0 0c-0.32,-0 -0.81,-0.01 -0.81,-0.01z"/>
    <path class="fil0" d="M35.3 5.8c0,0.65 0.26,1.51 0.71,1.99 0.04,0.04 0.05,0.06 0.09,0.11 0.04,0.04 0.06,0.06 0.1,0.1 0.04,0.04 0.06,0.05 0.1,0.08 0.56,0.5 1.39,0.75 2.18,0.75 1.08,0 1.88,-0.35 2.41,-0.91l0.18 -0.22c0.19,-0.26 0.31,-0.52 0.42,-0.84 0.14,-0.42 0.18,-0.93 0.18,-1.49l0 -5.32c0,-0.03 -0.01,-0.04 -0.04,-0.04l-1.93 0 0 5.68c0,0.35 -0.08,0.6 -0.28,0.84 -0.15,0.19 -0.54,0.32 -0.81,0.32 -0.32,0 -0.61,-0 -0.89,-0.19 -0.3,-0.2 -0.45,-0.55 -0.45,-0.97l0 -5.68 -1.96 0 0 5.79z"/>
    <path class="fil0" d="M28.93 8.82l1.97 0 0 -3.43c0.68,0 1.26,0.05 1.88,-0.2 0.76,-0.31 1.29,-0.96 1.46,-1.76 0.14,-0.64 0.09,-1.37 -0.14,-1.96 -0.09,-0.22 -0.21,-0.42 -0.36,-0.61 -0.05,-0.07 -0.1,-0.11 -0.16,-0.17 -0.42,-0.42 -1.09,-0.68 -1.92,-0.68l-2.73 0 0 8.82zm1.96 -6.84l0 1.44 0.71 0c0,0 0.52,0.04 0.67,-0.31 0.15,-0.35 0.07,-0.69 0,-0.81 -0.07,-0.12 -0.23,-0.31 -0.55,-0.31 -0.32,0 -0.83,-0.01 -0.83,-0.01z"/>
    <path class="fil0" d="M23.06 8.82l4.9 0 0 -1.97 -2.94 0 0 -1.46 1.96 0 0 -1.96 -1.96 0 0 -1.46 2.9 0c0.03,0 0.04,-0.01 0.04,-0.04l0 -1.93 -4.9 0 0 8.82z"/>
    <path class="fil0" d="M17.2 8.82l4.9 0 0 -1.93c0,-0.03 -0.01,-0.04 -0.04,-0.04l-2.9 0 0 -1.46 1.96 0 0 -1.96 -1.96 0 0 -1.46 2.9 0c0.03,0 0.04,-0.01 0.04,-0.04l0 -1.93 -4.9 0 0 8.82z"/>
    <path class="fil0" d="M58.29 4.26c0,0.91 0.08,1.57 0.4,2.33 0.13,0.31 0.34,0.67 0.56,0.91 0.65,0.73 1.42,1.09 2.4,1.25 0.84,0.14 1.73,0.1 2.55,-0.11 0.06,-0.01 0.14,-0.05 0.2,-0.05l0 -1.99c-0.27,0.06 -0.37,0.12 -0.71,0.17 -0.65,0.11 -1.5,0.14 -2.12,-0.09 -0.54,-0.2 -0.95,-0.6 -1.15,-1.14 -0.17,-0.48 -0.18,-0.74 -0.18,-1.26 0,-0.59 0.22,-1.27 0.63,-1.68 0.34,-0.34 0.82,-0.52 1.3,-0.59 0.6,-0.09 1.53,0.01 2.06,0.17 0.05,0.01 0.12,0.04 0.17,0.04l0 -1.96 -0.37 -0.1c-1.12,-0.25 -2.38,-0.19 -3.42,0.23 -0.5,0.2 -0.89,0.51 -1.27,0.89 -0.29,0.3 -0.56,0.79 -0.72,1.17 -0.19,0.47 -0.34,1.16 -0.34,1.82z"/>
    <path class="fil0" d="M10.34 1.93c0,0.03 0.01,0.04 0.04,0.04l1.92 0 0 6.84 1.93 0c0.03,0 0.04,-0.01 0.04,-0.04l0 -6.8 1.95 0 0 -1.97 -5.88 0 0 1.93z"/>
    <polygon class="fil0" points="49.48,8.82 54.38,8.82 54.38,6.85 51.44,6.85 51.44,0 49.48,0 "/>
    <path class="fil0" d="M55.34 0.04l0 8.73c0,0.03 0.01,0.04 0.04,0.04l1.93 0 0 -8.82 -1.93 0c-0.03,0 -0.04,0.01 -0.04,0.04z"/>
   </g>
  </g>
 </g>
</svg>
