<?xml version="1.0" encoding="UTF-8"?>
<!DOCTYPE svg PUBLIC "-//W3C//DTD SVG 1.1//EN" "http://www.w3.org/Graphics/SVG/1.1/DTD/svg11.dtd">
<!-- Creator: CorelDRAW -->
<svg xmlns="http://www.w3.org/2000/svg" xml:space="preserve" width="11.9753mm" height="11.9552mm" version="1.1" style="shape-rendering:geometricPrecision; text-rendering:geometricPrecision; image-rendering:optimizeQuality; fill-rule:evenodd; clip-rule:evenodd"
viewBox="0 0 15.86 15.84"
 xmlns:xlink="http://www.w3.org/1999/xlink"
 xmlns:xodm="http://www.corel.com/coreldraw/odm/2003">
 <defs>
  <style type="text/css">
   <![CDATA[
    .fil0 {fill:black}
    .fil3 {fill:#0DB9C5}
    .fil2 {fill:#EB1654}
    .fil1 {fill:#FEFEFE}
   ]]>
  </style>
 </defs>
 <g id="PowerClip_x0020_Contents">
  <metadata id="CorelCorpID_0Corel-Layer"/>
  <g id="_1717039531376">
   <path class="fil0" d="M-0 4.24l0 7.44c0,1.58 0.13,2.67 1.4,3.59 0.19,0.14 0.43,0.26 0.67,0.34 0.52,0.18 1.11,0.23 1.8,0.23l8.11 0c1,0 2.07,-0.11 2.78,-0.79 0.28,-0.27 0.51,-0.5 0.69,-0.86 0.12,-0.25 0.22,-0.46 0.29,-0.75 0.12,-0.51 0.14,-1.29 0.14,-1.91l0 -7.28c0,-1.18 -0.04,-2.38 -0.87,-3.21 -0.18,-0.17 -0.33,-0.34 -0.54,-0.47 -0.78,-0.5 -1.46,-0.56 -2.5,-0.56l-8.05 0c-1.01,0 -2.04,0.11 -2.77,0.78 -1.07,0.99 -1.13,1.93 -1.13,3.46z"/>
   <path class="fil1" d="M5.72 11.02l-0.03 -0.03c-0.3,-0.11 -0.57,-0.44 -0.71,-0.74 -0.32,-0.72 -0.03,-1.54 0.67,-1.95 0.4,-0.23 0.73,-0.21 1.2,-0.13l0.01 -1.43c-3.26,0.23 -4.07,3.71 -2.52,5.48 0.08,0.09 0.09,0.07 0.14,0.17 0.07,0.04 0.05,0.06 0.15,0.11 0.44,0.18 0.53,0.33 1.18,0.44 0.48,0.09 0.95,0.07 1.42,-0.05 0.86,-0.21 1.5,-0.75 1.88,-1.27 0.55,-0.73 0.65,-1.41 0.65,-2.5 0,-1.05 0,-2.1 -0,-3.15 0.1,0.03 0.39,0.23 0.53,0.31 0.49,0.26 1.5,0.55 2,0.47l0 -1.41c-0.37,-0.08 -1.16,-0.45 -1.29,-0.72l-0.11 -0.09c-0.25,-0.12 -0.56,-0.46 -0.71,-0.69 -0.17,-0.26 -0.34,-0.6 -0.39,-0.97l-1.25 0.01c-0.05,0.01 -0.03,0.01 -0.06,0.02 -0.05,0.12 -0.02,5.37 -0.02,6 0,1.08 0.13,1.87 -0.6,2.42 -0.63,0.48 -1.56,0.42 -2.14,-0.28z"/>
   <path class="fil2" d="M4.63 12.49c0.06,0.12 0.34,0.31 0.46,0.39 0.99,0.65 2.26,0.73 3.35,0.19 0.37,-0.18 0.78,-0.5 0.98,-0.73 0.59,-0.71 0.87,-1.3 0.87,-2.53 0,-0.55 -0.03,-3.09 0.01,-3.41 0.08,0.03 0.15,0.09 0.24,0.15 0.57,0.36 1.66,0.73 2.27,0.63l0.01 -1.79 -0.53 -0.06 -0 1.41c-0.5,0.08 -1.51,-0.21 -2,-0.47 -0.14,-0.07 -0.43,-0.28 -0.53,-0.31 0,1.05 0,2.1 0,3.15 0,1.09 -0.1,1.76 -0.65,2.5 -0.38,0.51 -1.02,1.05 -1.88,1.27 -0.47,0.12 -0.94,0.14 -1.42,0.05 -0.64,-0.11 -0.74,-0.26 -1.18,-0.44z"/>
   <path class="fil3" d="M5.72 11.02c0.58,0.71 1.51,0.76 2.14,0.28 0.73,-0.56 0.6,-1.34 0.6,-2.42 0,-0.63 -0.03,-5.88 0.02,-6 0.03,-0.02 0.01,-0.01 0.06,-0.02l1.25 -0.01 -0.03 -0.44 -1.81 -0c-0.04,0.23 -0.01,6.25 -0.01,6.92 0,0.47 -0.02,0.8 -0.25,1.14 -0.17,0.26 -0.41,0.47 -0.78,0.61 -0.45,0.17 -0.77,0.06 -1.18,-0.07z"/>
   <path class="fil3" d="M4.48 12.38c-0.05,-0.1 -0.06,-0.08 -0.14,-0.17 -1.55,-1.76 -0.75,-5.25 2.52,-5.48l-0.01 -0.41c-2.4,-0.36 -4.48,2.01 -3.62,4.44 0.2,0.58 0.77,1.39 1.25,1.62z"/>
   <path class="fil2" d="M5.69 10.98c-0.15,-0.27 -0.29,-0.49 -0.29,-0.88 -0.01,-0.65 0.35,-1.17 0.93,-1.43 0.42,-0.19 0.63,-0.11 1.07,-0.06 -0,-0.29 0.04,-1.68 -0.02,-1.85l-0.51 -0.03 -0.01 1.43c-0.48,-0.08 -0.81,-0.1 -1.2,0.13 -0.7,0.4 -0.99,1.23 -0.67,1.95 0.13,0.3 0.41,0.64 0.71,0.74z"/>
   <path class="fil2" d="M10.89 4.51c-0.16,-0.24 -0.28,-0.38 -0.42,-0.71 -0.12,-0.29 -0.17,-0.59 -0.18,-0.94l-0.5 -0.01c0.05,0.38 0.22,0.71 0.39,0.97 0.15,0.23 0.46,0.57 0.71,0.69z"/>
   <path class="fil3" d="M12.29 5.33c-0,-0.12 0.02,-0.29 -0.02,-0.38 -0.19,-0.05 -0.45,-0.04 -0.69,-0.11 -0.24,-0.07 -0.38,-0.16 -0.58,-0.24 0.13,0.27 0.91,0.65 1.29,0.72z"/>
  </g>
 </g>
</svg>
