<?xml version="1.0" encoding="UTF-8"?>
<!DOCTYPE svg PUBLIC "-//W3C//DTD SVG 1.1//EN" "http://www.w3.org/Graphics/SVG/1.1/DTD/svg11.dtd">
<!-- Creator: CorelDRAW -->
<svg xmlns="http://www.w3.org/2000/svg" xml:space="preserve" width="81.0981mm" height="53.1955mm" version="1.1" style="shape-rendering:geometricPrecision; text-rendering:geometricPrecision; image-rendering:optimizeQuality; fill-rule:evenodd; clip-rule:evenodd"
viewBox="0 0 628.36 412.16"
 xmlns:xlink="http://www.w3.org/1999/xlink"
 xmlns:xodm="http://www.corel.com/coreldraw/odm/2003">
 <defs>
  <style type="text/css">
   <![CDATA[
    .fil6 {fill:black;fill-rule:nonzero}
    .fil3 {fill:#001211;fill-rule:nonzero}
    .fil4 {fill:#004140;fill-rule:nonzero}
    .fil18 {fill:#006800;fill-rule:nonzero}
    .fil5 {fill:#006D6B;fill-rule:nonzero}
    .fil8 {fill:#009E00;fill-rule:nonzero}
    .fil0 {fill:#00BEBA;fill-rule:nonzero}
    .fil9 {fill:#011D00;fill-rule:nonzero}
    .fil12 {fill:#150303;fill-rule:nonzero}
    .fil13 {fill:#6A0A0C;fill-rule:nonzero}
    .fil19 {fill:#7A6B00;fill-rule:nonzero}
    .fil17 {fill:#BBA400;fill-rule:nonzero}
    .fil10 {fill:#CCC893;fill-rule:nonzero}
    .fil16 {fill:#DDBF9E;fill-rule:nonzero}
    .fil7 {fill:#FDFADB;fill-rule:nonzero}
    .fil11 {fill:#FE191E;fill-rule:nonzero}
    .fil15 {fill:#FEDF00;fill-rule:nonzero}
    .fil14 {fill:white;fill-rule:nonzero}
    .fil1 {fill:url(#id0);fill-rule:nonzero}
    .fil2 {fill:url(#id1);fill-rule:nonzero}
   ]]>
  </style>
  <linearGradient id="id0" gradientUnits="userSpaceOnUse" x1="402.85" y1="402.99" x2="406.1" y2="383.53">
   <stop offset="0" style="stop-opacity:1; stop-color:black"/>
   <stop offset="1" style="stop-opacity:1; stop-color:#001918"/>
  </linearGradient>
  <linearGradient id="id1" gradientUnits="userSpaceOnUse" x1="349.83" y1="309.72" x2="357.11" y2="306.37">
   <stop offset="0" style="stop-opacity:1; stop-color:black"/>
   <stop offset="1" style="stop-opacity:1; stop-color:#001414"/>
  </linearGradient>
 </defs>
 <g id="Layer_x0020_1">
  <metadata id="CorelCorpID_0Corel-Layer"/>
  <g id="_1717069307968">
   <path class="fil0" d="M429.92 150.77c5.52,-3.15 13.24,-7.56 16.68,-14.61 0.78,-1.59 1.22,-3.43 0.91,-5.33 -1.9,-11.43 -31.63,-16.65 -39.6,-24.07 -1.32,-1.22 -2.42,-2.43 -2.7,-4.66 1.59,-10.12 32.12,-16.32 39.04,-17.79 62.05,-13.2 122.58,-8.16 184.11,7.22l0 320.64 -199.21 0 -3.25 0 -425.89 0 0 -125.88c28.93,-29.97 65.03,-48.89 98.87,-66.64 9.03,-4.74 19.6,-9.8 28.82,-13.64 3.46,-1.44 12.52,-2.72 16.63,-3.69 -1.13,1.02 -1.74,1.36 -2.36,2.92 -1.22,9.23 10.56,14.61 15.68,15.71 6.04,1.29 7.59,-1.26 13.05,-3.01 1.76,-0.5 8.72,8.07 10.31,9.89 5.02,5.76 10.24,11.43 15.16,17.34 -1.38,4.55 -4.33,17.58 -7.7,18.66 -8.5,2.74 -12.32,4.71 -8.93,17.77 0.42,1.62 0.99,3.01 1.7,4.58 -3.42,0.1 -17.8,0.35 -17.97,7.11 1.97,5.32 12.49,5.31 14.02,9.35 0.51,4.64 -3.95,9.85 0.54,14.25 3.84,3.76 11.54,4.42 16.09,4.69 -4.02,-2.17 -13.85,-3.57 -15.91,-8.77 -1.44,-3.62 3.54,-11.1 -2.49,-13.75 -2.63,-1.6 -8.12,-3.47 -9.63,-6.03 -0.04,-3.43 10.04,-4.73 12.2,-4.99 3.6,9.81 7.34,7.43 13.04,13.22 -1.63,0.12 -2.84,0.03 -4.34,0.87l-0.41 0.79c0.41,2.03 3.25,4.7 4.52,5.68 1.75,1.32 3.61,2.34 5.55,3.04 2.19,0.8 8.58,1.72 9.55,3.32 0.23,1.44 -0.35,2.52 -0.85,3.93 0.81,7.42 59.62,3.13 64.53,10.18 -0.93,4.01 -9.79,0.97 -12.16,0.57 -1.02,-0.18 -3.45,-2.66 -4.63,-3.02 -4.61,-2.24 -13.5,-1.04 -18.2,0.39 -1.59,1.07 -2.32,-0.29 -3.25,0.92l-0.03 0.17c5.61,1.75 13.03,-1.26 18.75,-0.68 2.88,0.39 5.54,2.5 8.25,3.73 11.95,5.44 24,-1.91 35.82,-2.54 10.5,-0.56 12.5,8.31 24.08,2.48 1.81,1.95 7.17,4.26 6.15,7.14 -2.06,2.06 -5.83,2.92 -8.42,3.51 -14.43,3.3 -29.42,4.37 -44.02,3.26 -8.11,-0.83 -11.44,-2.55 -20.06,-2.61 -8.45,-0.06 -21.84,10.12 -29.62,1.88 -1.18,-1.24 1.28,-6.52 -0.57,-8.22 -2.48,-2.28 -5.6,-3.41 -8.43,-3.2 0.18,0.07 0.37,0.11 0.55,0.2 1.65,0.82 3.74,1.46 5.25,2.58 3.42,2.56 -0.44,6.53 1.31,9.81 0.81,1.53 2.4,2.29 3.68,2.79 10.19,4.01 19.56,-4.81 29.68,-4.72 7.58,0.07 15.16,3.17 22.8,3.7 8.1,0.56 45.37,-0.94 50.31,-8.03 0.58,-0.84 0.57,-1.37 0.53,-2.46 -1.04,-2.61 -3.75,-4.14 -5.72,-5.58 3.33,-1.8 3.38,-3.05 6,-6.26 1.3,-1.59 3,-1.75 3.89,-4.36 -0.27,-6 -14.52,-7.25 -18.1,-7.77 7.42,-5.21 10.5,-1.77 17.62,-3.78 3.57,-1.01 1.96,-13.59 2.7,-15.72 1.6,-2.05 8.1,-0.38 11.06,-1.82 5.61,-2.72 8.34,-6.65 14.55,-5.74 5.05,1.3 11.18,-5.78 15.09,-6.55 4.84,-0.95 9.13,-1.71 14.03,-3.11 0.63,0.5 0.35,0.16 0.66,1.31 -0.48,5.17 -5.51,10.89 -8.26,14.04 -4.41,-0.66 -10,-1.75 -14.35,-0.9 -3.88,0.77 -5.41,2.97 -7.55,6.9 -2.04,1.25 -5.19,2.3 -7.38,3.1l1.06 0.72c6.49,-2.5 6.3,-1.51 10.86,-7.33 1.89,-2.41 12.95,-1.49 16.42,-1.48 -2.5,2.98 -8.23,11.05 -10.71,12.29l-0.75 -0.13c-0.67,-1.33 -0.56,-0.63 -0.48,-2.11 0.54,-1.26 1.15,-1.77 1.99,-2.68 -1.55,-0.39 -3.16,1.23 -3.83,3.06 0.07,6.68 8.83,5.66 11.76,6.79 13.29,5.12 26.75,5.97 40.24,2.01 0.56,-0.16 14.06,0.76 14.95,1.05l0.47 0.58c-2.53,6.83 -14.88,3.24 -18.77,4.08 -5.45,1.19 -9.21,4.09 -15.01,4.73 0.95,0.81 1.9,0.69 3.06,0.78 5.8,-0.55 8.05,-3.07 13.06,-4.13 4.76,-1 12.55,1.47 17.44,-2.25 1.26,-1.15 2.37,-2.68 3.53,-4.02 1.44,-1.66 4.28,-2.65 4.47,-5.5 -0.55,-2.58 -1.9,-3.45 -3.53,-4.68 5.67,-2.28 9.59,-5.7 3.87,-12.67 2.58,-7.53 1.94,-8.75 -2.76,-13.71 0.82,-2.72 2.55,-7.55 1.55,-9.98 -0.6,-1.47 -0.84,-3.48 -0.87,-5.2 0.25,-0.27 1.4,-1.52 1.42,-1.75 0.35,-5 1.22,-17.55 1.51,-21.76 7.58,-1.87 9.27,2.24 15.57,-1.21l0.08 -1.17c-5.42,3.16 -6.75,-1.07 -13.54,0.2 1.29,-1.34 3.42,-3.63 4.8,-4.37 6.46,-3.46 9.79,-1.45 14.39,-10.07 7.98,0 10.87,-0.92 17.71,-5.59l-0.21 -0.74c-4.67,1.9 -5.14,3.2 -10.51,4.16 1.38,-1.57 4.3,-6.53 5.39,-7.11 9.23,-4.94 10.41,-3.12 17.02,-13.86 0.78,-0.28 1.56,-0.59 2.33,-0.92 3.5,-1.57 4.75,-5.75 6.23,-9.84 -3.49,3.9 -3.53,6.74 -8.26,8.74 -1.37,-8.82 -3.79,-11.99 -9.89,-14.94 0.95,-0.68 3.79,-4.16 3.77,-4.16 5.13,-1.35 6.14,-0.69 10.36,-5.74 -2.79,1.01 -6.57,4.47 -8.84,4.27 -4.03,-0.35 -3.57,2.44 -6.57,4.49 -1.33,0.91 -5.21,1.16 -6.89,1.31 0.52,-3.01 3.18,-12.74 -1.88,-10.85 -5.65,2.11 -9.87,7.16 -12.94,13.81 -2.25,0.71 -4.52,1.68 -6.74,2.58 -3.73,-7.98 -9.23,-19.43 -13.36,-26.73l-8.5 -0.49c0.1,-4.03 -0.4,-5.14 -2.23,-8.16z"/>
   <path class="fil1" d="M425.89 412.16c-9.31,-8.12 -20.73,-9.95 -31.45,-11.75 -4.94,-0.83 -17.91,-1.55 -19.28,-9.69 -0.99,-5.9 8.93,-13.96 12.72,-13.82 -3.95,2.53 -17.05,11.32 -6.12,17.81 3.74,2.22 9.91,1.92 13.97,3 8.79,1.2 27.71,5.05 33.41,14.45l-3.25 0z"/>
   <path class="fil2" d="M358.77 314.74c-2.69,-4.73 -12.79,-4.09 -11.45,-11.06 0.98,-1.72 2.88,-2.62 4.37,-3.22l1.06 0.72c-1.77,1.1 -3.49,1.75 -2.79,4.77 3.11,4.51 6.75,2.85 9.07,8.02l-0.26 0.77z"/>
   <path class="fil3" d="M484.99 213.32c5.91,0.18 6.45,-1.81 11.32,-5.7 -2.94,4.32 -4.88,7.11 -9.56,6.57l-1.76 -0.87z"/>
   <path class="fil4" d="M458.29 234.79c3.78,-3.61 3.72,-2.91 8.37,-3.55 0.15,-0.02 2.71,-1.01 3.19,-1.17l0.06 0.29c-2.54,2.01 -5.05,1.66 -7.77,2.56 -0.71,0.23 -3.2,2.42 -3.94,3.05l0.08 -1.17z"/>
   <path class="fil3" d="M223.78 325.18c4.02,1 6.8,1.58 10.88,1.82 -1.59,1.07 -2.32,-0.29 -3.25,0.92l-0.03 0.17c-2.16,-0.16 -5.47,-1.88 -7.61,-2.91z"/>
   <path class="fil4" d="M399.43 321.98l0.45 0.06c0.95,0.81 1.9,0.69 3.06,0.78 -2.78,0.59 -4.87,0.37 -7.62,-0.1 1.39,-0.3 2.58,-0.35 4.12,-0.74z"/>
   <path class="fil5" d="M359.03 313.97c1.73,1.85 2.99,2.11 4.7,3.55 -1.46,0.06 -3.99,-1.34 -4.97,-2.78l0.26 -0.77z"/>
   <path class="fil4" d="M481.43 214.22c1.61,-0.77 1.85,-0.87 3.56,-0.9l1.76 0.87c-2.1,-0.07 -3.04,-0.16 -5.11,0.77l-0.21 -0.74z"/>
   <path class="fil5" d="M395.32 322.72c-0.77,0.14 -1.44,0.01 -2.16,-0.41 0.85,-0.44 5.21,-0.35 6.27,-0.33 -1.53,0.39 -2.72,0.44 -4.12,0.74z"/>
   <path class="fil6" d="M495.66 88.41c1.16,-0.08 5.02,-0.55 5.64,0.83 -1,0.74 -1.91,0.69 -3.05,0.83 0.38,4.72 -0.28,6.69 -0.41,11.25 -0.1,3.73 0.1,8.32 0.21,12.1 6.38,2.91 10.49,5 15.29,11.52 -3.4,-1.66 -7.32,-4.69 -10.83,-6.59 -6.38,-3.46 -11.96,-5.35 -18.59,-7.23 -5.05,-1.42 -29.93,-5.37 -30.74,-11.46 1.71,-8.73 36.56,-10.84 42.48,-11.24zm-245.03 286.72c7.16,-0.41 3.47,9.29 12.83,10.4 16.74,1.99 33.5,3.12 50.26,4.73 2.08,0.2 3.23,0.6 3.47,3.64 -2.28,8.51 -22.66,0.64 -28.15,5.13 -2.24,2.31 -5.34,5.18 -7.98,1.9 -0.83,-2.99 0.48,-4.31 2.23,-5.78 -11.52,-1.04 -23.02,-2.3 -34.52,-3.77 -3.11,-0.39 -15.43,-1.19 -16.91,-3.17 -0.57,-0.77 -0.89,-1.81 -0.89,-2.9 -0.02,-7.07 17.26,-1.57 20.79,-1.13 -1.27,-2.02 -3.02,-4.15 -2.9,-6.7 0.46,-1.43 0.79,-1.55 1.77,-2.36z"/>
   <path class="fil7" d="M250.61 377.13c4.75,0.26 3.13,7.19 10.46,9.92 8.95,3.33 48.75,1.83 54.07,5.68l0.1 0.7c-3.63,4.34 -21.1,-2.26 -26.51,2.81 -0.44,0.56 -0.89,1.09 -1.36,1.61 -1.25,1.42 -3.56,3.13 -4.67,0.58 1.14,-2.24 3.89,-2.12 3.57,-4.58 -1.24,-1.48 -34.66,-4.72 -38.87,-5.86 -2.25,-0.61 -13.72,-0.2 -14.88,-2.75 3.36,-4.61 18.48,2.4 20.61,-1.01 -0.16,-3.22 -2.31,-3.84 -2.53,-7.12z"/>
   <path class="fil6" d="M486.89 259.75c4.25,-0.13 8.7,-0.45 12.93,-0.05 1.89,0.18 3.77,1.01 3.13,3.96 0.88,0.94 2.56,-0.1 4,1.15l-0.02 0.57c-3.4,2.15 -18.5,2.1 -22.84,2.26 -2.59,0.18 -22.86,3.38 -20.77,-4.91 3.57,-4.01 18.43,-2.93 23.58,-2.97z"/>
   <path class="fil7" d="M494.6 261.03c0.54,-0.06 1.08,-0.11 1.62,-0.15 1.64,-0.12 4.91,0 6.2,1.56l-0.31 0.54c-3.82,1.78 -24.53,1.91 -30,2.02 -1.83,0.08 -5.72,0.6 -7.17,-0.73l0.09 -0.8c2.14,-2.24 25.33,-2.16 29.57,-2.44z"/>
   <path class="fil6" d="M176.14 325.91c0.24,0.85 0.3,2.95 0.68,3.3 3.67,3.34 12.38,2.12 16.8,4.45 8.89,4.69 2.39,9.21 4.36,15.61 0.87,2.84 8.97,4.15 11.47,5.8 3.89,2.58 4.18,7.38 8.33,9.3 12.99,6 22.82,0.51 35.1,-3.57 5.48,-1.82 21.89,-2.08 27.51,-0.28l0.14 0.33 -1.01 -0.05c-7.75,-0.54 -18.47,-0.04 -26.03,2.22 -5.93,1.78 -11.67,4.95 -18.05,5.78 -6.09,0.78 -16.89,0.8 -22.04,-4.58 -1.53,-1.6 -2.69,-5.85 -5.35,-7.59 -3.64,-2.38 -7.2,-2.11 -10.56,-5.52 -3.15,-2.89 0.35,-8.43 -0.27,-11.04 -2.06,-8.72 -20.36,-3.04 -21.98,-10.83 0.1,-1.69 0.23,-1.83 0.9,-3.34zm243.64 4.55l0.27 0.7 -0.37 0.19c-2.6,1.34 -8.06,4.44 -8.85,7.99 -1.27,8.33 6.88,14.01 -2.09,20.21 -9,6.22 -16.44,-0.82 -25.3,-2.48 -10.29,-1.93 -27.02,-0.05 -36.85,5.32 -7.15,3.91 -7.47,7.67 -16.19,9.3l-1.16 -0.97c8.66,-1.13 8.95,-6.68 15.53,-10.53 11.98,-6.2 24.72,-7.65 37.64,-5.17 7.33,1.41 21.5,12.25 27.88,-0.55 1.71,-3.42 -3.68,-10.46 -1.73,-14.95 2.24,-5.16 7.42,-7.22 11.23,-9.05zm46.15 -3.15c-0.24,0.95 -0.35,1.5 -0.68,2.4 -0.78,1.04 -1.94,2.58 -2.14,4.1 -0.09,0.66 -0.03,1.38 0.24,1.95 3.78,8.09 38.33,4.69 45.67,4.65 3.72,-0.02 7.4,0.14 11.07,0.97 -8.79,3.59 -32.92,2.96 -42.73,2.17 -4.59,-0.73 -12.19,-1.21 -15.48,-6.19 -2.45,-3.7 1.95,-8.06 4.06,-10.05zm-296.72 -24.23c-0.6,0.54 -1.19,1.09 -1.78,1.64 -4.94,4.67 -0.98,7.95 -1.46,11.65 -2.51,4.07 -15.25,2.77 -19.46,6.74 -7.52,7.06 1.26,11.51 6.1,12.86l-0.54 1.43c-4.11,-0.8 -8.58,-1.79 -10.38,-7.58 -0.32,-1.03 -0.49,-2.93 0.03,-3.84 4.74,-8.42 14.78,-6.13 21.44,-9.34 1.93,-0.94 -1.11,-4.79 0.18,-8.26 1.25,-3.37 3.41,-4.08 5.88,-5.31zm-32.8 -78.54c0.01,0.7 -0.25,2.09 -0.36,2.85 1,5.38 14.55,4.39 17.02,8.59 1.01,1.72 -0.11,4.5 0.04,6.95 2.64,5.34 16.74,1.24 21.38,4.35l-0.47 0.19c-4.67,-0.35 -19.28,2.49 -23.08,-3.15 -0.78,-1.16 0.41,-4.88 0.5,-6.98 -1.54,-3.43 -14.87,-3.09 -16.22,-9.54 0.11,-1.61 0.47,-1.98 1.21,-3.25zm30.17 150.19c16.41,-1.06 3.13,18.4 13.76,21.81 2.35,0.75 5.87,1.04 8.53,1.96l0.15 0.45c-2.39,0.67 -8,0.47 -10.39,-0.43 -12.54,-4.73 2.65,-19.86 -12.04,-23.8zm287.04 -251.71c1.19,0.2 5.94,2.98 6.7,3.97 4.52,4.73 -2.55,11.07 -2.11,13.63 1.23,7.09 6.92,8.41 -0.29,15.94 -0.7,0.54 -0.85,0.59 -1.61,0.99l-0.15 -0.24c7.16,-9.8 1.78,-8.09 0.99,-15.86 -0.98,-9.71 9.58,-6.79 -3.53,-18.42zm32.83 -3.69c7.41,2.08 15.5,9.64 17.14,20.15 -1.52,-1.13 -4.15,-7.93 -6.29,-10.48 -3.62,-4.34 -6.74,-6.41 -10.86,-9.67zm-56.46 -27.75l0.9 0.14c-2.65,1.47 -7.56,4.24 -9.32,7.25 -1.98,3.38 5.19,6.83 6.44,7.96l0.34 0.32c-2.32,-0.61 -8.01,-2.05 -8.27,-6.19 -0.4,-6.11 6.53,-8.33 9.92,-9.48zm88.6 119.03c-6.85,7.14 -14.74,13.52 -22.98,17.11l0.08 -0.96c8.64,-4.7 14.86,-11.26 22.89,-16.15z"/>
   <path class="fil6" d="M152.6 335.98c0.89,0.18 4.18,0.84 4.78,1.26 5.55,3.85 5.81,8.92 13.09,9.16 1.9,0.2 3.22,0.42 5.1,0.86 -2.55,0.39 -5.03,0.79 -7.58,0.12 -7.94,-1.62 -4.96,-5.35 -11.05,-9.17 -0.58,-0.36 -3.98,-0.69 -4.88,-0.78l0.54 -1.43z"/>
   <path class="fil4" d="M170.48 346.4c1.9,0.2 3.22,0.42 5.1,0.86 -2.55,0.39 -5.03,0.79 -7.58,0.12 1.28,-0.08 2.6,0.15 3.83,-0.27l-1.35 -0.7zm295.45 -19.08c1.89,-1.9 5.1,-4.26 7.48,-4.34 -3.64,3.01 -3.66,1.94 -8.16,6.74 0.34,-0.9 0.44,-1.45 0.68,-2.4zm-145.92 44.6c3.07,-0.5 6.15,-0.9 9.23,-1.2l1.16 0.97c-2.35,0.61 -7.96,0.57 -10.39,0.23zm170.86 -142.52c1.61,-0.9 3.22,-1.78 4.85,-2.62l-0.08 0.96c-1.14,0.79 -3.46,1.53 -4.76,1.66zm-71.08 101.06c1.08,-0.55 1.64,-0.98 2.8,-0.9 -0.78,1.06 -1.38,1.08 -2.53,1.59l-0.27 -0.7z"/>
   <path class="fil6" d="M196.37 88.67c-4.38,-2.37 -6.82,-4.69 -10.84,-7.72 -3.93,-2.97 -9.6,-2.33 -13.95,-3.6l-0.55 -0.17c-1.87,-0.54 -2.96,-2.6 -4.8,-3.19 -15.72,-5.03 -57.37,-17.46 -66.93,-32.71 -1.59,-2.54 -2.54,-5.64 -2.27,-9 0.37,-4.62 2.7,-8.5 5.34,-11.25 2.65,-2.77 6.18,-4.66 9.56,-4.52 2.84,0.11 5.66,1.04 8.34,2.27 5.47,2.51 10.75,6.18 15.98,9.46 9.34,5.97 18.73,11.78 28.18,17.44 7.27,4.25 8.44,5.66 16.23,5.26 2.84,-0.15 10.98,3.68 13.43,5.96 0.61,0.57 1.61,2.68 2.14,3.57 1.79,1.81 8.6,4.36 10.7,4.7l0.23 -0.86c-0.75,-11.51 -20.67,-51.47 -26.06,-63.66l0.32 -0.64c3,-0.07 34.82,63.79 44.89,59.73 3.19,-4.13 -3.77,-12.7 -3.16,-15.8 2.43,-0.18 9.49,9.53 13.59,10.1 7.27,1.01 3.73,-15.2 6.61,-17.67 3.31,5.51 6.57,13.63 11.6,17.13 6.25,4.35 12.22,0.29 16.61,-6.03 0.93,-1.34 3.6,-6.18 5.05,-5.05 0.26,3.5 -3.51,11.97 0.11,13.94 3.71,2.02 14.17,-3.22 18.03,-4.71 8.9,-3.42 17.47,-7.51 26.28,-10.67 2.17,-1.6 17.94,-7.53 21.09,-8.51 4.6,-2.31 15.51,-6.75 20.12,-7.21 -5.93,3.82 -14.84,8.28 -21.11,11 -2.21,1.14 -5.97,3.25 -8.14,4.01 -15.87,8.73 -32.48,15.15 -47.73,25.96 -1.84,1.3 -3.13,2.21 -4.13,4.77 0.14,7.29 28.96,4.99 30.52,8.23 -0.15,0.21 -0.3,0.41 -0.45,0.62 -8.13,1.3 -16.83,3.12 -24.33,7.71 -5.4,3.31 -2.89,7.65 -0.4,12.12 3.22,1.6 13.9,7.12 16.94,7.82 1.54,-1.58 0.75,-6.1 3.11,-7.15 1.68,0.6 3.14,3.16 4.63,4.31 11.65,8.89 17.11,-3.41 23.51,-13.8 4.6,-7.47 15.56,-18.09 23.07,-16.28 5.58,1.34 2.55,15.26 1.23,19.58l-0.16 0.55c4.23,1.26 9.78,3.32 13.82,4.32 4.6,-8.46 17.85,-22.38 25.07,-15.01 6.68,6.82 -8.97,33.5 -1.6,42.23 2.69,3.19 5.96,3.22 9.27,2.95 3.73,0.17 11.78,-4.55 13.74,-3.61 3.65,5.44 -1.28,14.9 -3.77,19.43 5.81,0.11 8.2,0.99 13.45,3.99 46.19,-29.03 -18.97,-27.05 -25.26,-44 -5.87,-15.82 42.08,-23.69 48.6,-24.85 58.67,-10.3 118.19,-7.74 176.27,7.6l0 3.77c-61.52,-15.38 -122.06,-20.42 -184.11,-7.22 -6.92,1.47 -37.45,7.67 -39.04,17.79 0.28,2.23 1.39,3.43 2.7,4.66 7.97,7.42 37.69,12.64 39.6,24.07 0.32,1.91 -0.13,3.75 -0.91,5.33 -3.45,7.05 -11.16,11.46 -16.68,14.61 1.82,3.02 2.33,4.13 2.23,8.16l8.5 0.49c4.13,7.3 9.63,18.75 13.36,26.73 2.22,-0.9 4.49,-1.86 6.74,-2.58 3.07,-6.65 7.29,-11.7 12.94,-13.81 5.06,-1.89 2.39,7.84 1.88,10.85 1.68,-0.14 5.56,-0.4 6.89,-1.31 3,-2.05 2.54,-4.83 6.57,-4.49 2.27,0.2 6.05,-3.27 8.84,-4.27 -4.22,5.06 -5.23,4.39 -10.36,5.74 0.01,-0 -2.82,3.48 -3.77,4.16 6.1,2.96 8.52,6.12 9.89,14.94 4.73,-2 4.77,-4.84 8.26,-8.74 -1.48,4.1 -2.73,8.27 -6.23,9.84 -0.77,0.33 -1.54,0.64 -2.33,0.92 -6.6,10.74 -7.78,8.93 -17.02,13.86 -1.09,0.58 -4.01,5.53 -5.39,7.11 5.37,-0.96 5.84,-2.26 10.51,-4.16l0.21 0.74c-6.84,4.67 -9.73,5.59 -17.71,5.59 -4.6,8.62 -7.93,6.61 -14.39,10.07 -1.38,0.74 -3.51,3.03 -4.8,4.37 6.79,-1.27 8.12,2.97 13.54,-0.2l-0.08 1.17c-6.3,3.45 -7.99,-0.66 -15.57,1.21 -0.29,4.2 -1.16,16.76 -1.51,21.76 -0.02,0.23 -1.17,1.49 -1.42,1.75 0.02,1.72 0.26,3.72 0.87,5.2 1,2.44 -0.73,7.26 -1.55,9.98 4.7,4.96 5.34,6.18 2.76,13.71 5.71,6.97 1.8,10.39 -3.87,12.67 1.64,1.23 2.98,2.1 3.53,4.68 -0.19,2.85 -3.04,3.85 -4.47,5.5 -1.16,1.34 -2.27,2.87 -3.53,4.02 -4.89,3.72 -12.68,1.24 -17.44,2.25 -5.01,1.06 -7.26,3.58 -13.06,4.13 -1.15,-0.09 -2.1,0.03 -3.06,-0.78 5.8,-0.64 9.57,-3.54 15.01,-4.73 3.89,-0.85 16.24,2.75 18.77,-4.08l-0.47 -0.58c-0.89,-0.29 -14.39,-1.22 -14.95,-1.05 -13.49,3.96 -26.95,3.11 -40.24,-2.01 -2.93,-1.13 -11.69,-0.12 -11.76,-6.79 0.68,-1.83 2.28,-3.45 3.83,-3.06 -0.83,0.9 -1.45,1.42 -1.99,2.68 -0.08,1.48 -0.2,0.79 0.48,2.11l0.75 0.13c2.47,-1.24 8.2,-9.31 10.71,-12.29 -3.47,-0.01 -14.53,-0.92 -16.42,1.48 -4.56,5.81 -4.37,4.82 -10.86,7.33l-1.06 -0.72c2.18,-0.79 5.34,-1.85 7.38,-3.1 2.14,-3.92 3.67,-6.13 7.55,-6.9 4.35,-0.86 9.94,0.24 14.35,0.9 2.75,-3.15 7.78,-8.87 8.26,-14.04 -0.31,-1.16 -0.03,-0.82 -0.66,-1.31 -4.9,1.39 -9.19,2.15 -14.03,3.11 -3.91,0.77 -10.04,7.86 -15.09,6.55 -6.21,-0.92 -8.94,3.02 -14.55,5.74 -2.96,1.43 -9.46,-0.23 -11.06,1.82 -0.73,2.13 0.87,14.71 -2.7,15.72 -7.12,2.01 -10.21,-1.43 -17.62,3.78 3.58,0.52 17.83,1.77 18.1,7.77 -0.89,2.61 -2.59,2.77 -3.89,4.36 -2.62,3.21 -2.67,4.46 -6,6.26 1.97,1.44 4.69,2.97 5.72,5.58 0.04,1.09 0.05,1.62 -0.53,2.46 -4.94,7.1 -42.21,8.6 -50.31,8.03 -7.64,-0.53 -15.22,-3.63 -22.8,-3.7 -10.12,-0.09 -19.49,8.73 -29.68,4.72 -1.27,-0.5 -2.86,-1.26 -3.68,-2.79 -1.74,-3.28 2.12,-7.25 -1.31,-9.81 -1.51,-1.12 -3.6,-1.76 -5.25,-2.58 -0.18,-0.09 -0.37,-0.13 -0.55,-0.2 2.83,-0.22 5.95,0.92 8.43,3.2 1.85,1.71 -0.61,6.98 0.57,8.22 7.78,8.24 21.17,-1.95 29.62,-1.88 8.62,0.06 11.94,1.78 20.06,2.61 14.6,1.11 29.59,0.04 44.02,-3.26 2.59,-0.59 6.36,-1.45 8.42,-3.51 1.02,-2.88 -4.34,-5.19 -6.15,-7.14 -11.58,5.83 -13.57,-3.05 -24.08,-2.48 -11.82,0.64 -23.87,7.98 -35.82,2.54 -2.72,-1.23 -5.37,-3.35 -8.25,-3.73 -5.73,-0.58 -13.15,2.43 -18.75,0.68l0.03 -0.17c0.93,-1.2 1.66,0.15 3.25,-0.92 4.7,-1.42 13.59,-2.62 18.2,-0.39 1.19,0.36 3.61,2.84 4.63,3.02 2.37,0.41 11.23,3.45 12.16,-0.57 -4.9,-7.04 -63.72,-2.76 -64.53,-10.18 0.5,-1.41 1.08,-2.49 0.85,-3.93 -0.97,-1.6 -7.36,-2.52 -9.55,-3.32 -1.94,-0.69 -3.8,-1.71 -5.55,-3.04 -1.28,-0.99 -4.11,-3.66 -4.52,-5.68l0.41 -0.79c1.5,-0.84 2.71,-0.76 4.34,-0.87 -5.7,-5.79 -9.45,-3.41 -13.04,-13.22 -2.16,0.26 -12.24,1.56 -12.2,4.99 1.51,2.56 7,4.43 9.63,6.03 6.03,2.66 1.05,10.13 2.49,13.75 2.07,5.2 11.89,6.59 15.91,8.77 -4.55,-0.27 -12.26,-0.93 -16.09,-4.69 -4.49,-4.4 -0.03,-9.61 -0.54,-14.25 -1.53,-4.05 -12.06,-4.03 -14.02,-9.35 0.17,-6.76 14.55,-7.01 17.97,-7.11 -0.71,-1.57 -1.28,-2.96 -1.7,-4.58 -3.4,-13.07 0.43,-15.04 8.93,-17.77 3.37,-1.09 6.32,-14.12 7.7,-18.66 -4.91,-5.91 -10.14,-11.57 -15.16,-17.34 -1.58,-1.82 -8.55,-10.39 -10.31,-9.89 -5.46,1.75 -7.02,4.3 -13.05,3.01 -5.12,-1.1 -16.89,-6.47 -15.68,-15.71 0.61,-1.56 1.23,-1.9 2.36,-2.92 -4.1,0.97 -13.17,2.25 -16.63,3.69 -9.22,3.84 -19.79,8.9 -28.82,13.64 -33.84,17.76 -69.94,36.67 -98.87,66.64l0 -23.47c7.6,-5.73 12.55,-10.15 20.96,-15.33 36.52,-22.52 76.69,-38.67 116.44,-46.24 5.95,-1.13 12.73,-2.88 18.61,-3.62 -2.61,-3.61 -8.07,-10.2 -8.92,-14.79 -0.82,-6.23 5.86,-8 8.86,-5.05 4.96,4.87 10.22,11.03 14.68,16.73 10.77,-2.31 23.2,-4.12 33.67,-6.74 -2.34,-2.83 -18.75,-22.4 -9.13,-24.38 4.72,-0.97 12.25,10.31 16.01,14.74 1.54,-2.54 8.26,-13.04 9.8,-13.69 6.16,-2.6 16.98,-4.52 23.23,-5.88l42.43 -9.2c7.58,-1.63 16.19,-3.23 23.62,-5.22 -1.39,-2.1 -2.96,-5.06 -4,-7.5 -10.17,-5.88 -20.9,-10.99 -31.21,-16.47 -1.86,-0.99 -3.54,-1.52 -5.2,0.09 -2.23,5.53 6.38,14.47 6.61,18.56 -2.11,0.06 -5.79,-5.21 -7.81,-7.06 -5.17,-4.73 -9.71,-8.65 -16.19,-7.45 -6.91,1.28 -7.59,10.88 -10.62,16.58 -1.7,-0.49 -2.44,-15.41 -7.67,-18.23 -8.03,-4.34 -8.82,19.49 -11.24,20.81 -1.89,-1.71 -0.72,-9.09 -2.17,-12.03 -3.14,-6.36 -8.74,-6.64 -13.67,-5.13 -14.52,4.44 -28.32,14.3 -41.07,24.48 -4.98,3.98 -9.32,9.12 -14.46,12.93 8.78,-13.69 29.42,-28.57 35.99,-46.04 0.51,-1.36 0.64,-4.13 -0,-5.48 -3.78,-7.98 -16.82,-3.7 -21.35,-5.55l-0.18 -0.64c1.72,-2.26 12.41,-6.07 15.54,-7.79 5.58,-3.07 9.66,-4.4 14.8,-9.55z"/>
   <path class="fil8" d="M215.68 283.71c-5.39,-4.34 -12.51,-8.57 -18.47,-11.51 -1.63,-0.81 -2.74,-0.29 -4.14,0.93 -0.64,-2.6 2.15,-19.21 2.91,-22.5 5.15,-22.39 24.5,-11.38 36.23,-14.22 11.98,-2.91 13.28,-13.71 27.37,-6.75 -4.26,2.1 -3.43,3.37 -6.12,5.76 -0.76,-2.04 -0.83,-3.3 -2.57,-3.03 -1.9,1.69 -3.97,5.92 -3.5,9.06l0.39 0.13c0.86,-1.86 2.39,-5.74 3.45,-6.96 1.28,0.51 0.08,1.24 1.82,1.94 2.32,-0.88 4.75,-5.1 6.81,-4.44 0.49,0.69 0.65,0.89 1.2,1.48 2.31,0.29 3.79,-2.32 5.9,-0.72 0.31,1.31 -0.47,3.6 -0.67,5.22 0.56,1.67 0.66,1.99 0.95,3.77 -0.65,2.98 -4.07,0.71 -6.96,3.68 -3.21,3.29 -3.36,12.55 -7.23,12.36 -3.13,-2.18 -3.47,-6.47 -4.97,-9.86l-0.28 0.61c-0.33,9.18 4.09,10.15 4.35,11.52 -2.06,0.99 -5.19,-1.68 -5.68,-1.26 -2.04,1.73 -2.99,3.05 -5.73,4.47 1.54,-3.6 3.32,-13.48 -0.69,-14.75 -0.69,2.19 1.12,8.16 -1.09,12.21 -3.11,2.17 -11.39,-7.29 -17.02,-7.8 -7.18,-0.64 -9.59,0.4 -16.43,3.95 -1.44,0.75 -7.25,-0.87 -8.47,0.37l0.08 0.74c6.17,9 20.53,12.89 29.14,14.15 1.56,0.23 6.05,0.23 6.94,0.83l-0.21 0.76c-6.24,5.5 -22.63,-2.65 -28.72,-6.68l0.46 0.55c7.38,8.63 17.14,10.03 26.47,9.19 -1.3,4.77 -1,6.94 -0.08,11.71l1.29 0.15c-2.65,-17.03 5.6,-15.69 14.35,-13.56 -1.82,-1.37 -3.34,-1.94 -5.15,-3.39l0.69 -0.62 -0.04 -0.32c-0.79,0.04 -1.57,0.1 -2.36,0.15 -0.74,-0.95 -0.51,-0.39 -0.69,-1.78 1.68,-6.05 13.68,-9.65 16.64,-3.19 -0.02,1.18 -0.17,0.69 0.28,1.59 6.63,-3.87 11,-5.54 18.22,-3.79 -4.04,1.07 -9.12,2.29 -11.08,7.63 -2.39,6.5 -4.95,6.18 -10.09,4.85 8.4,8.46 14.75,13.75 25.57,13.03 -4.23,-1.3 -10.4,-3.27 -12.57,-8.46 -4.25,-10.21 6.11,-16.16 12.12,-12.75 4.94,2.81 5.99,6.11 8.42,11.54 -1.92,-9.2 -4.36,-13.3 -11.62,-15.14 9.5,-7.8 20.45,-12.17 31.74,-9.04 5.77,1.6 7.25,5.41 10.84,10.22 -1.66,-4.63 -2.49,-6.55 -5.67,-9.81 3.3,-3.42 6.74,-6.75 11.09,-6.11 6.79,1 3.32,9.72 1.04,14.34 -0.94,1.89 -1.74,3.67 -2.24,5.81 0.31,1.43 0.88,3.37 0.66,4.74 -2.55,3.57 -10.01,3.75 -13.64,5.35 -10.16,4.45 -18.92,15.94 -30.11,16.46 -7.13,0.32 -14.69,-6.11 -20.35,-11.08 -4.07,-3.57 -23.05,-16.82 -21.88,-1.82 1.11,14.26 20.28,30.55 29.32,35 4.83,2.38 10.19,4.68 15.31,4.16 7.97,-1.01 10.79,-13.07 16.71,-17.85 7.14,-5.76 23.19,-14.6 31.57,-10.86 1.84,0.82 2.87,10.05 1.31,12.51 -1.17,2.29 -4.85,0.72 -6.73,0.17 -3.9,-1.15 -12.02,2.02 -14.62,6.25 -6.2,10.08 -7.44,4.58 -13.99,6.77 -6.56,2.2 -14.76,11.98 -23.04,10.52 -0.33,-0.02 -0.68,-0.2 -0.98,-0.35 -0.3,-1.11 -0.15,-1.23 -0,-2.5 -1.27,-4.03 -9.4,-4.18 -12.5,-4.59 -17.82,-2.39 -33.98,0.66 -51.03,-8.58 1.74,-0.67 6.32,-2.1 7.26,-3.79 -0.13,-0.66 -0.15,-1.2 -0.77,-1.42 -8.33,-2.88 -16.4,-4.87 -23.45,-12.26 1.97,-0.95 4.26,-1.97 6.15,-3.08 -7.75,-2.33 -13.54,-5.47 -16.01,-16.49 -0.58,-2.61 -1.34,-7.68 1.33,-9.32 1.67,-0.71 6.45,-1.63 8.13,-1.21l0.39 0.48c-1.08,4.88 -12.08,-1.81 -3.77,15.92 3.54,7.55 14.49,8.49 15.87,11.63 -1.44,1.69 -4.26,0.79 -5,3.32 2.18,5.75 19.54,6.92 21.94,12.03 -0.03,2.07 -3.1,4.52 -2.02,5.22 5.34,3.45 16.07,3.63 21.94,3.39 1.73,-0.34 3.81,0.05 5.83,-0.23l0.26 -0.58c-8,-2.5 -16.22,-5.5 -22.52,-13.23 -0.75,-0.91 -1.11,-1.33 -1.14,-2.45 1.69,-0.08 6.98,1.31 9.1,1.67 -2.15,-1.15 -11.06,-6.36 -12.16,-2.3 0.23,1.08 0.28,1.3 0.69,2.24l0.31 0.71 -0.42 0.48c-1.02,0.1 -1.58,0.02 -2.6,-0.14 -3.19,-0.51 -11.67,-8.87 -11,-13.46 1.67,-0.39 8.3,0.35 10.76,0.3 -2.08,-1.47 -9.52,-2.93 -12.02,-2.48 -0.95,0.67 -1.02,1.22 -1.49,2.54l-0.16 0.46c-3.31,0.01 -12.43,-12.59 -8.39,-17.9 2.69,-1.17 16.36,7.65 20.35,9.31l0.36 0.15z"/>
   <path class="fil9" d="M255.86 266.05c-0.02,1.18 -0.17,0.69 0.28,1.59 -3.52,2.58 -4.26,4.26 -6.9,8.27 1.96,-5.4 3.1,-6.68 6.62,-9.86zm-24.72 22.55l1.29 0.15c1.12,3.95 1.59,5.28 3.13,8.99 -1.95,-3.22 -3.17,-5.26 -4.42,-9.14zm14.87 29.23c2.06,0.38 3.25,0.69 5.27,1.37 -2.86,0.08 -8.58,-0.06 -11.36,-0.56 1.73,-0.34 3.81,0.05 5.83,-0.23l0.26 -0.58z"/>
   <path class="fil6" d="M270.81 274.15c3.45,-0.27 11,3.85 10.15,9.22 -0.67,1.1 -1.05,1.11 -2.07,1.5 -3.8,-0.11 -14.93,-4.9 -8.09,-10.72zm-61.65 -32.18c1.42,-0.19 1.56,0.12 2.46,-0.88 0.17,-1.03 0.17,-2.57 1.01,-2.91 4.08,-1.66 7.98,2.67 11.89,3.14 1.32,0.16 1.5,-4.54 4.4,-2.12 1.62,1.16 4.22,5.21 5.4,7.22 -1.55,-1.43 -4.66,-4.58 -6.24,-5.34 -0.89,0.61 -1.63,2.33 -2.55,2.12 -4.05,-0.88 -6.78,-3.78 -11.06,-3.73l-0.31 0.38 0.21 2.21c-0.14,0.24 -0.36,0.66 -0.53,0.84l-0.07 -0.26c-1.92,-0.37 -2.64,-0.51 -4.62,-0.66zm113.52 55.6c1.11,-0.16 2.71,0.02 3.86,0.09 -7.64,2.12 -12.84,3.84 -19.99,8.37 -0.83,0.66 -2.29,1.48 -3.21,2.05 5.61,-7.83 11.51,-9.5 19.34,-10.51z"/>
   <path class="fil9" d="M213.85 242.9c-1.38,0.87 -5.19,-0.12 -7.18,0.73 -2.22,0.95 -4.34,4.29 -6.43,4.83 1.8,-3.32 5.86,-6.25 8.92,-6.49 1.99,0.15 2.7,0.3 4.62,0.66l0.07 0.26z"/>
   <path class="fil6" d="M249.06 265.48c1.52,-0.11 2.36,-0.17 3.74,0.65 -1.21,0.77 -4.54,1.18 -6.07,1.45l-4.04 1.2c2.61,-2.36 3.33,-2.68 6.36,-3.3z"/>
   <path class="fil10" d="M326.75 200.82c0.94,1.46 1.9,3.55 2.8,5.16 8.66,15.35 17.16,31.28 26.35,46.04 3.34,-0.71 8.66,-3.02 12,-4.42l16.86 -7.19 57.42 -24.88c-0.78,9.1 -1.08,18.67 -1.66,27.81 -0.3,4.73 -0.38,9.86 -1,14.51 -0.19,0.31 -0.78,1.13 -1.11,0.85 -4.41,-3.78 -9.7,-5.92 -14.88,-4.19 -1.61,0.54 -3.48,2.13 -5.19,2.38 -3.49,0.5 -7.13,0.2 -10.55,1.35 -0.82,0.28 -0.96,0.44 -1.82,0.35 0.49,-2.14 0.63,-2.98 0.87,-5.2 3.94,-3.44 6.66,-6.88 2.83,-12.48 1.32,-1.31 3.76,-3.54 4.53,-5.31l-0.22 -0.84c-3.72,-2.79 -14.08,2.03 -17.04,6.19 -2.88,3.42 -5.74,8.18 -5.42,13.77 0.41,7.34 -2.38,12.35 -2.78,19.85 -4.66,1.03 -11.3,1.23 -15.22,2.65 -2.46,0.89 -5.8,5.22 -9.84,6.24 -4.47,1.14 -6.24,-0.4 -9.94,-0.01 -1.83,0.19 -6.23,4.62 -9.72,5.93 -4.63,1.73 -6.67,0.46 -10.89,1.91 -1.61,0.55 -2.05,0.43 -3.78,-0.27 -2.02,-0.82 -3.01,-0.67 -5.06,-0.59 -1.8,-2.06 -3.27,-3.59 -5.18,-5.47 0.39,-1.99 0.75,-4.35 1.1,-6.38 4.93,-2.29 5.57,-3.21 4.1,-9.68 2.22,-7.65 11.36,-17.96 -0.36,-21.76 1.13,-15.42 2.06,-30.86 2.82,-46.32zm-104.87 -34.83c26.57,9.02 53.43,17.01 80.05,25.88 7.36,2.45 15.01,4.92 22.45,6.84 -6.69,8.29 -13.41,17.52 -19.87,26.17l-10.73 14.41c-11.5,-4.74 -23.54,-11.46 -35.06,-16.59 -5.02,-2.24 -13.12,-6.12 -17.89,-8.95 -1.31,-0.78 -8.82,-10.11 -10.32,-11.92l-18.07 -21.75c3.15,-4.55 6.53,-9.3 9.44,-14.09z"/>
   <path class="fil10" d="M439.54 161.49l0.22 0.03c0.75,0.64 14.15,28.44 15.52,31.1l-58.1 22.91c-12.64,4.98 -27.23,10.24 -39.57,15.87 -5.61,-6.38 -11.47,-12.73 -17.15,-19.02 -4.34,-4.81 -8.75,-9.52 -13.22,-14.11 17.02,-5.36 34.01,-10.88 50.97,-16.56 -2.57,15.39 1.06,21.24 12.5,20.15 1.56,-0.15 2.84,-1.38 4.44,-0.78 4.16,1.59 4.57,-5.99 4.85,-9.72 1.41,-18.57 12.05,-20.96 23.08,-24.55l16.45 -5.33z"/>
   <path class="fil11" d="M330.11 102.15c6.39,-11.12 14.11,-23.12 25.02,-25.54 6.07,-1.35 3.1,13.76 2.54,18.24l-3.95 -0.91c0.69,-3.03 2.8,-11.05 -0.76,-11.82 -4.38,-0.95 -8.96,6.67 -10.73,11.1 10.89,1.07 23.38,5.51 33.98,9.28 3.52,1.25 7.26,3.3 10.68,4.53 2.08,-3.11 6.67,-10.57 4.42,-14.69 -4.34,-3.08 -11.03,5.23 -13.59,9.55l-4.38 -2.04c4.95,-6.72 11.99,-15.01 19.36,-15.87 3.13,-0.2 4.65,2.96 4.41,6.8 -0.6,9.78 -8.89,26.84 -3.83,35.89 4.78,8.53 18.12,3.98 24.15,1.16 2.28,1.46 -0.88,10.04 -1.89,12.09 -5.35,10.85 -11.89,14.5 -20.79,17.75 -3.61,1.31 -8.24,5.89 -12.35,6.25 -21.12,5.26 -43.93,4.37 -62.33,-12.41 -13.42,-12.24 -16.85,-27.38 -13.44,-48.21 5.91,7.82 13.78,7.65 20.71,2.53 -4.23,10.49 -0.03,12.8 -0.94,15.7 -2.2,-0.61 -2.55,-5.48 -2.84,-8.08 -2.67,1.35 -4.38,2.15 -7.38,1.8 -2.34,-0.28 -4.84,-3.34 -6.8,-2.01 -0.58,1.99 -0.12,3.82 0.24,5.81 1.64,9.11 5.87,13.28 11.98,16.42 4.13,13.28 17.22,16.14 26.65,14.37 -0.21,-0.63 -0.17,-0.27 -0.01,-1.09l0.9 -0.4c2.77,-1.56 6.22,-5.77 5.46,-10.11 -2.08,-11.93 -15.01,-0.32 -20.18,0.53 -4.8,0.8 -7.36,0.7 -11.24,-2.87 -3.05,-13.1 3.29,-4.26 8.65,-9.87l0.36 0.1 0.6 0.15c5.07,1.31 6.15,-0.14 11.13,-0.43 2.52,-0.15 4.98,1.9 7.3,2.59 2.89,0.82 5.87,0.59 8.6,2.32 4.35,2.74 3.31,7.81 1.41,12.45 10,16.73 37.17,11.07 45.61,-5.2 -6.09,1.82 -23.63,3.72 -22.92,-9.63l-0.49 -0.95c1.49,-5.81 1.2,-10.08 -2.1,-14.55 0.07,-0.46 0.27,-0.63 0.54,-1.06 -8.65,-9.03 -23.25,-5.85 -26.99,9.45 -0.44,1.79 0.33,5.73 -0.49,6.57 -0.49,-0.29 -0.61,-0.15 -0.76,-0.9 -1.5,-7.28 2.68,-13.78 6.66,-17.66 -1.72,-2.36 -1.57,-2.81 -2.1,-5.99 -2.29,-0.07 -3.88,4.15 -6.53,3.21 -1.34,-0.48 -2.36,-2.89 -3.41,-4.08 -4.35,-6.16 -10.92,-5.18 -16.2,-1.67 -0.66,0.43 -1.3,0.9 -1.92,1.41z"/>
   <path class="fil12" d="M381.85 111.82c3.37,4.84 4.66,10.49 2.05,16.56l-0.49 -0.95c1.49,-5.81 1.2,-10.08 -2.1,-14.55 0.07,-0.46 0.27,-0.63 0.54,-1.06z"/>
   <path class="fil13" d="M349.13 148.36c1.62,0.06 4.81,-1.66 5.37,-1.44 -2.37,1.88 -3.59,2.32 -6.26,2.93 -0.21,-0.63 -0.17,-0.27 -0.01,-1.09l0.9 -0.4z"/>
   <path class="fil14" d="M362.9 101.57c2.08,-0.16 3.61,-0.37 5.38,1.18l0.1 0.79c-0.63,1.21 -1.45,1.3 -2.55,1.73 -1.98,1.2 -2.98,1.84 -4.98,0.45 -0.53,-1.17 -0.46,-0.56 -0.25,-1.88 0.8,-1.41 1.07,-1.46 2.3,-2.27zm-14.71 -4.58c3.08,-0.32 7.4,0.96 5.95,6.48 -0.42,0.15 -0.84,0.25 -1.26,0.38 -1.93,0.58 -4.51,-4.78 -4.69,-6.85z"/>
   <path class="fil15" d="M198.3 89.01l3.24 1c0.39,1.54 0.96,3.54 1.16,5.09 -2.8,-0.49 -5.92,-0.43 -7.56,3.33 -0.58,5.44 8.13,6.43 10.86,7.25 5.01,1.51 10.24,3.03 15.34,3.74 1.03,0.15 3.41,-1.01 4.34,-1.69 2.16,-1.55 3.76,-4.25 4.4,-7.44 0.91,-4.43 0.14,-7.65 -1.36,-11.45 5.93,2.52 11.04,4.75 17.24,5.92 -0.01,14.1 11.3,15.97 19.08,18.78 0.91,0.33 4.76,3.17 5.87,3.88 -7.24,2.41 -2.55,9.61 0.14,14.47 -10.88,-10.92 -22.97,-17.52 -29.34,4.55 -0.55,-3 -0.97,-4.74 -1.76,-7.65 -1.95,-4.99 -5.26,-10.99 -10.11,-7.52 -3.79,2.71 -5.4,9.25 -6.61,14.49 -2.22,-9.68 -6.33,-13.08 -13.91,-11.71 -13.5,2.44 -26.66,11.92 -38.55,20.54 3.06,-3.6 6.33,-7.05 9.34,-10.84 3.47,-4.37 13.89,-16.9 8.5,-23.92 -4.13,-5.38 -12.52,-4.82 -17.95,-4.74 7.18,-3.2 22.77,-8.9 27.63,-16.09zm10.81 -22.55c0.23,-11.56 -17.84,-46.84 -17.54,-47.61 7.31,10.24 23.57,42.57 33.81,42.97 0.94,0.04 2.12,-0.1 2.79,-1.11 0.88,-1.31 0.69,-3.62 0.49,-5.21 -0.32,-2.48 -1.03,-4.63 -1.9,-6.84 9.76,8.72 17.02,11.53 16.73,-8.76 8.19,17.84 17.86,24.07 30.34,7.68 -1.74,11.17 1.16,12.64 9.08,10.43 9.47,-2.64 18.8,-7.73 28.12,-11.19 2.36,-0.95 6.05,-2.25 8.25,-3.5l9.04 -3.61 0.36 0.8 -1.37 0.6c-8.16,3.95 -45.83,21.01 -48.18,29.28 -0.26,0.92 -0.34,1.81 0.03,2.7 1.14,2.65 4.99,3.6 7.09,4.06 6.91,1.51 13.94,1.19 20.89,1.99 -4.83,1.47 -9.79,1.94 -14.61,3.66 -6.8,2.42 -13.99,4.78 -8.54,15.96l-7.38 -4.04c3.23,-10.36 -4.83,-15.3 -11.43,-13.14 -1.66,-10.8 -9.08,-21.35 -17.34,-14.17 -2.11,1.83 -5.58,-2.98 -7.74,5.72 -1.85,2.33 -2.67,0.68 -4.77,4.33 -8.77,-3.92 -17.27,-7.89 -26.23,-10.98z"/>
   <path class="fil8" d="M400.88 241.32c12.02,-1.19 10.69,5.18 2.59,13.06l0.06 0.45 1.28 -0.13c0.31,2.49 -0.75,6.17 -0.49,8.38 0.28,2.38 3.06,4.65 4.52,6.01 -2.31,0.03 -4.72,-0.57 -5.84,2.65 0.6,4.73 5.87,5.08 8.63,4.95 1.09,1.07 2.11,1.84 3.27,2.75 -1.44,1.5 -2.3,3.23 -3.4,4.54 -1.36,1.62 -4.96,-0.73 -6.18,2.7 0.59,3.51 6.52,5.23 9.05,7.52l0.08 0.71c-1.69,2.4 -5.62,0.34 -7.31,2.48 -0.08,3.77 3.67,5.06 5.79,5.64 -2.56,2.44 -3.04,4.13 -5.23,6.62 -2.58,0.4 -5.57,-0.16 -8.2,0.03 -4.17,0.31 -7.79,1.25 -11.97,0.55 -2.86,-0.48 -5.07,-1.54 -7.8,-2.26 -2.18,-0.58 -5.7,0.1 -7.69,-1.64 -0.08,-1.68 1.79,-2.27 2.41,-3.39 3.95,-7.17 11.54,-12.98 15.18,-19.73l0.28 -0.52c0.47,1.37 1.36,4.73 2.5,4.83 0.2,-5.38 -2.94,-13.03 -1.26,-19.55 1.82,-7.05 2.43,-14.52 4.05,-21.48 0.68,-2.89 3.82,-4.49 5.7,-5.21z"/>
   <path class="fil6" d="M401.79 296.52c0.99,-0.09 0.63,-0.2 1.51,0.26 -0.56,1.01 -3.88,4.92 -5.16,6.82l-0.65 0.58 -0.29 -0.47c0.4,-3.13 2.67,-5.67 4.58,-7.19zm-4.94 -2.98c1.97,2.88 -2.27,8.42 -3.72,10.08l-0.12 -0.11c0.04,-0.94 3.19,-8.14 3.84,-9.97z"/>
   <path class="fil7" d="M194.04 63.39c0.21,-0.05 0.41,-0.13 0.62,-0.14 1.53,-0.07 6.85,2.51 8.58,3.17 7.23,2.77 41.5,15.28 45.26,20.7 0.65,0.93 0.65,1.8 0.61,3.01 -2.77,5.82 -19.79,-2.89 -24.1,-4.58 5.09,10.78 3.76,22.78 -7.33,21.31l0.24 -0.27c4.67,-5.31 5.12,-10.38 2.72,-17.73l-0.84 -1.22c-0.57,0.3 -0.39,0.31 -0.31,1.36 0.38,5.32 0.47,15.7 -4.51,16.97 -1.2,0.31 -3.61,-0.07 -4.63,-0.98 0.38,-0.47 0.75,-0.96 1.12,-1.46 3.27,-4.49 5.21,-11.37 1.26,-16.23l-0.24 0.36c0.56,6.68 0.11,16.47 -6.57,15.75 -2.26,-0.24 -8.75,-1.19 -8.55,-5.26 1.59,-2.57 5.39,-1.37 7.48,-0.93 -0.32,-3.81 0,-9.92 -0.33,-11.77l-0.46 -0.35c-1.02,0.64 -1.39,1.82 -2.02,3.14 -4.56,-1.56 -30.67,-13.21 -14.58,-23.62 1.3,-0.84 4.42,-0.23 6.58,-1.24z"/>
   <path class="fil11" d="M251.47 67.02c6.04,-0.11 11.94,7.74 12.23,15.69 -0.15,0.35 -0.29,0.7 -0.43,1.05 -1.92,4.86 2.95,7.77 5.53,9.47 -1.8,-2.89 -7.42,-8.82 -1.57,-10.29 3.3,-0.83 8.49,2.07 8.85,7.21 0.26,3.74 -1.65,6.59 -3.32,9.27 1.55,-1.5 2.02,-2.09 3.34,-3.86 1.32,1.12 4.77,2.94 5.18,4.66 1.62,6.76 -5.88,13.44 -9.46,15.56l-3.14 -1.89c-6.47,-4.17 -17.34,-4.12 -20.76,-15.1 -1.56,-5.01 3.11,-5.4 3.52,-8.14 0.81,-5.45 -6.62,-11.5 -8.57,-15.75 -2.24,-4.77 2.85,-6.52 4.7,-5.63 0.6,6.13 4.71,6.43 6.16,11.76 0.4,1.49 0.49,3.04 1.25,3.77 2.22,-5.88 -5.52,-10.74 -5.25,-15.64 0.44,-1.31 0.8,-1.43 1.73,-2.14z"/>
   <path class="fil7" d="M151.29 178.44c1.06,-0.07 2.36,-0.08 3.26,0.84 15.38,15.9 29.24,34.75 43.93,51.83 2.41,2.09 0.63,7.28 -1.62,7.85 -4.73,1.2 -12.85,-10.45 -16.22,-14.37 -7.08,-7.96 -8.25,-11.27 -17.08,-5.82 -4.44,2.74 -20.96,-4 -19.95,-13.07 1.51,-2.94 3.62,-1.21 5.55,0.13 3.68,2.54 7.97,7.54 12.4,5.11 7.02,-3.91 -2.25,-12.09 -4.68,-15.65 -2.37,-3.47 -5.86,-7.28 -7.43,-11.57 -0.99,-2.69 0.25,-4 1.83,-5.28z"/>
   <path class="fil10" d="M325.32 201.64c0.16,1.38 -0.86,11.87 -1.04,14.23 -0.79,10.43 -1.53,20.87 -2.23,31.31 -4.9,0.93 -7.88,3.3 -11.51,7.72 -11.6,-6.86 -25.73,-1.29 -35.98,7.28 0.44,-5.05 0.27,-9.51 -3.99,-10.77 -0.66,-1.02 -0.43,-0.42 -0.54,-1.97 0.69,-3.06 1.06,-5.71 1.53,-8.85 -0.69,1.43 -0.92,2.06 -1.82,3.21l-0.32 -0.26c-0.11,-1.63 -0.25,-3.26 -0.4,-4.89l30.26 11.65c1.83,-2.34 7.4,-13.51 9.16,-16.87l16.87 -31.8z"/>
   <path class="fil7" d="M195.19 165.94c1.08,0.08 3.25,0.3 4.09,1.25 3.82,4.64 11.45,12.96 14.65,17.43 3.1,4.32 29.97,34.89 30.48,37.41 -0.4,2.76 -3.05,4.97 -4.96,5.08 -4.62,0.26 -10.04,-8.11 -13.35,-12.19 -6.94,-8.11 -8.92,-11.29 -19.32,-7.07 -5.27,2.14 -18.81,-4.25 -16.14,-11.15 2.24,-2.23 11.16,4.85 16.58,3.79 1.35,-0.26 2.77,-0.95 3.53,-2.6 2.74,-6.01 -15.87,-22.22 -16.34,-29.32 -0.09,-1.39 0.17,-1.6 0.79,-2.63z"/>
   <path class="fil0" d="M202.52 190.24l0.6 -0.04c-0.06,1.24 -3.43,5.12 -4.32,6.23 -1.6,-0.93 -4.22,-2.62 -5.88,-2.67 -7.71,-0.23 -4.25,8.96 -0.26,12.32 7.74,6.54 16.32,3.71 24.51,1.3 -0.94,7.58 -1.28,18.28 -1.53,25.98 -3.18,-0.08 -5.56,0.16 -8.66,0.9 -0.87,0.29 -1.32,0.38 -2.19,0.54 -0.96,-0.66 -9.06,-10.51 -10.47,-12.2l-22.13 -26.02c9.61,-1.53 20.72,-4.25 30.34,-6.35z"/>
   <path class="fil8" d="M475.97 181.95c8.83,-0.69 14.16,1.39 16.19,14.31 -5.28,10.36 -9.65,7.97 -16.37,13.55 -6.22,5.17 -3.48,7.93 -12.84,9.06 -4.39,9.76 -8.52,6.39 -15.1,10.6 -1.27,0.82 -4.23,4.71 -4.88,4.79 0.78,-8.61 8.73,-7.26 13.02,-9.98 1.87,-1.18 4.01,-5.2 6.02,-7.14 8.91,-0.37 6.66,-4.62 12.53,-9.35 3,-2.42 8.74,-3.3 12.8,-6.19 1.22,-1.23 2.64,-2.37 2.8,-4.56 0.14,-2.11 0.73,-5.97 -1.4,-6.25 -0.91,1.52 -2.78,5.54 -3.69,6.52 -4.11,4.39 -10.34,4.91 -15.1,6.96 -1.35,0.58 -4.59,4.91 -5.8,5.62 -1.81,1.07 -4.95,1.96 -6.93,2.89 -1.95,1.09 -4.24,1.96 -6.11,3.25 -1.91,1.31 -4.74,1 -6.05,-1.45 -1.32,-2.47 -0.48,-9.38 -0.35,-12.68 3.23,-0.44 12.72,-1.47 14.58,-4.54 -0.24,-2.49 -2.92,-1.51 -3.81,-2.8 1.21,-1.02 0.9,-0.34 1.26,-1.85 -0.17,-1.85 -1.08,-3.24 -1.88,-4.84 1.38,-0.58 3.1,-1.61 4.44,-1.34 0.92,1.91 -0.8,2.38 0.58,5.04 3.06,2.12 20.76,-0.52 23.25,-3.61 0.42,-3.44 -6.37,-2.94 -7.56,-5.36l0.4 -0.68z"/>
   <path class="fil11" d="M391.07 161.94c5.08,-0.59 11.69,1.77 12.96,9.29 0.49,2.89 -6.25,12.26 -6.05,17.54 0.12,3.26 0.09,10.16 -2.71,10.7 -2.3,-1.36 -2.28,-8.03 -3.53,-9.6 -2.21,2.39 0.67,7.21 0.12,9.69 -2.2,1.87 -4.51,-0.13 -5.88,-2.56 -0.56,-2.58 -0.84,-6.41 -1.07,-9.15 -0.27,1.92 -0.44,3.13 -0.48,5.09 -0.03,1.71 0.58,5.3 0.16,6.4 -6.94,0.92 -5.41,-15.26 -4.9,-20.68l-0.28 -0.19c-1.06,1.81 -4.85,2.57 -6.79,3.21 3.66,-9.67 11.27,-15.74 18.46,-19.75z"/>
   <path class="fil14" d="M335.78 164.03c12.05,5.94 23.95,10.65 36.77,12.53 -0.49,1.42 -0.67,2.27 -1.54,3.3 -2.51,0.8 -3.14,-2.2 -5.7,0.24 0.37,2.17 0.55,2.16 -0.11,3.65 -0.8,0.58 -1.02,0.91 -1.9,0.82 -0.02,-0.46 -0.03,-0.85 0.09,-1.3 1.05,-4.03 -1.89,-6.38 -4.49,-5.38l-0.21 0.55c0.56,0.99 1.23,0.86 2.42,1.3 0.62,1.22 0.46,0.56 0.47,2.07l-0.44 0.31c-2.26,-0.96 -3.01,-0.97 -4.53,1.65l-0.55 0.04 -1.07 -1.39 -0.29 -0.39c1.04,-1.48 1.4,-1.97 1.53,-3.8 -0.78,-2.34 -5.2,-4.73 -6.63,-2.19 1.18,1.62 4.32,-0.03 4.75,3.26 -0.39,1.02 -0.37,0.94 -1.1,1.52 -1.63,-0.79 -0.73,-1.8 -1.88,-2.26 -0.49,2.25 -1.41,5.68 -0.99,7.79l0.37 0.16c1.04,-1.59 1.51,-3 3.11,-2.64 0.94,1.13 1.46,1.47 0.95,3.15 -1.29,1.25 -13.58,5.01 -16.2,5.89 -0.84,-9.66 -1.78,-19.29 -2.82,-28.91z"/>
   <path class="fil6" d="M343.29 173.88c1.36,-0.15 2.82,-0.23 4.03,0.78 1.16,0.98 1.31,3.9 0.48,5.23 -0.56,-0.37 -1.8,-3.19 -2.21,-4.03 -3.77,-2.46 -5.27,9 -1.61,9.95 1.39,0.36 3.45,0.05 3.7,-2.21l-0.45 -0.8c-1.05,-0.02 -1.17,0.08 -2.14,-0.55l-0.01 -0.58c1.8,-1.5 4.08,-0.63 4.71,2.26 -0.4,3.25 -3.75,5.09 -5.89,4.45 -1.14,-0.35 -2.13,-1.3 -2.74,-2.66 -1.79,-3.98 -1.15,-9.58 2.13,-11.85z"/>
   <path class="fil8" d="M423.18 260.97c-3.32,2.31 -6.72,1.25 -10.07,3.32 -1.54,0.95 -1.65,3.37 -3.38,3.23 -1.55,-1.59 -3.47,-3.19 -4.05,-5.68 1.29,-4.2 10.58,-2.49 13.12,-3.41 7.42,-2.68 16.19,-6.89 19.56,6.87 -2.05,8.14 -5.23,8.81 -10.94,10.59 -4.74,1.48 -8.33,2.14 -13.09,0.36 1.98,-1.25 5.74,-3.35 4.31,-7.01 -1.41,-1.43 -2.68,-1.89 -4.43,-1.56 -0.95,0.19 -1.9,0.4 -2.84,0.63 3.42,-2.24 5.61,-3.12 9.45,-3.63 1.2,-0.16 3.73,-0.31 4.7,-0.81 -0.71,-0.93 -1.08,-0.84 -2.13,-1.23 -0.24,-0.95 -0.18,-0.64 -0.2,-1.68z"/>
   <path class="fil6" d="M423.18 260.97c2.26,-0.76 3.43,-0.97 5.76,-1.32 -1.92,1.17 -3.86,1.97 -5.56,3 -0.24,-0.95 -0.18,-0.64 -0.2,-1.68zm6.16 3.44c2.44,1.94 2.13,5.42 0.54,8.07l-0.46 -0.32c0.05,-4.25 0.49,-3.18 -0.08,-7.75z"/>
   <path class="fil8" d="M437.97 272.39c0.19,1.29 -0.32,3.62 0.02,4.64 0.66,2.04 2.92,3.76 3.15,5.98 0.64,6.08 -6.23,7.05 -9.25,7.9 -2.86,0.8 -5.59,1.5 -8.39,2.14 -1.97,0.46 -6.78,0.78 -8.27,-0.74 0.55,-0.85 1.12,-0.77 2.13,-1.11 1.51,-0.75 4.17,-2.24 3.96,-5.04 -0.38,-4.96 -4.43,-2.62 -6.48,-2.45l-0.1 -0.45c4.25,-6.55 17.14,-3.7 23.23,-10.87z"/>
   <path class="fil6" d="M431.33 280.56c2.74,1.06 3.14,5.37 1.19,8.31 -0.43,0.11 -0.15,0.08 -0.84,-0.09 -0.08,-1.31 0.37,-2.12 0.81,-3.46l-1.16 -4.77z"/>
   <path class="fil7" d="M165.88 49.16c1.81,0.97 3.95,2.15 5.74,3.08 3.8,1.97 1.11,1.62 3.15,5.49 -0.73,1.84 -3.99,5.3 -5.02,7.08 -1.02,1.76 -1.6,4.89 -2.65,6.88l-1.03 -0.18c-2.8,-0.84 -5.71,-1.64 -8.43,-2.72 -2.71,-1.24 -2.11,-5.45 -1.17,-8.08 2.15,-6.06 4.84,-9.23 9.41,-11.55z"/>
   <path class="fil14" d="M381.31 112.88c3.29,4.48 3.58,8.75 2.1,14.55 -3.01,7.99 -11.17,12.6 -17.57,10.84 -2.13,-0.58 -1.82,-4.41 -2.95,-7.16 6.81,0.16 10.11,-0.77 15.7,-6.04 -0.12,-0.02 -0.23,-0.04 -0.35,-0.06l-0.56 -0.11c-8.29,-1.63 -2.48,-12.81 3.49,-7.41l0.42 -0.16c0.18,-1.45 -0.1,-2.97 -0.28,-4.45z"/>
   <path class="fil11" d="M295.15 106.84c2.79,1.4 5.59,2.77 8.39,4.11 -0.7,6.35 -0.39,10.4 0.38,16.67 -0.99,1.87 -1.31,2.3 -2.57,3.85l-4.12 -2.24 -11.04 -5.73c4.93,-2.98 10.02,-8.59 8.97,-16.67z"/>
   <path class="fil15" d="M225.78 260.03l0.35 -0.04c0.77,-1.47 0.88,-1.75 1.41,-3.41 2.32,1.76 8.69,6.76 9.65,10.55 0.1,0.4 0.19,3.37 0.21,3.97 -8.26,0.44 -25.14,-3.05 -32.4,-8.49l-0.29 -0.73 0.38 -0.66c1.24,-0.16 0.86,-0.2 1.96,0.91 3.71,3.74 10.52,3.82 14.69,1.46 -1.35,-1.14 -1.71,-1.27 -1.76,-3.49 1.65,-3.03 3.88,-2.04 5.79,-0.08z"/>
   <path class="fil14" d="M221.74 263.6c-1.35,-1.14 -1.71,-1.27 -1.76,-3.49 1.65,-3.03 3.88,-2.04 5.79,-0.08 -0.28,1.72 -0.25,1.91 -1.15,3.06 -1.23,0.7 -1.51,0.57 -2.89,0.51z"/>
   <path class="fil7" d="M474.69 171.44l0.52 0.37c0.2,0.53 -0.85,13.98 -0.91,16.3 -3.74,1.77 -8.55,2.78 -12.53,2.84 -0.54,-0.31 -0.44,-0.31 -0.9,-0.87 -0.39,-2.44 0.7,-4.87 1.72,-6.8 3.06,-5.78 6.86,-10.36 12.1,-11.84z"/>
   <path class="fil8" d="M440.4 290c4.45,7.45 1.38,9.01 -4.81,10.61 -3.9,1.01 -11.41,2.82 -15.2,1.35 -0.11,-0.77 0.87,-1.79 0.9,-3.63 -0.47,-1.3 -0.87,-1.5 -1.75,-2.29l2.46 -0.72c3.94,-0.58 6.41,-2.02 10.11,-3.05 3.58,-1 4.66,-0.39 8.3,-2.26z"/>
   <path class="fil6" d="M433.7 293.84l0.4 0.36c1.13,3.03 0.11,3.93 -1.65,5.8l-0.38 -0.17c-0.26,-0.85 1.25,-3.2 1.62,-6z"/>
   <path class="fil10" d="M308.05 282.78c0.62,0.44 3.39,4.18 4.2,5.19 -0.14,1.99 -0.23,4.18 -0.34,6.19 -2.57,1.13 -5.27,2.48 -7.83,3.7 -2.34,-1.64 -6.03,-5.94 -8.52,-4.54 -0.92,1.17 -0.93,2.02 -1.25,3.76 -0.31,1.83 -0.73,5.14 -1.58,6.52 -0.36,0.59 -0.44,0.35 -1.23,0.34 -1.23,-1.55 -0.09,-5.7 -0.3,-9.63l-0.04 -0.67c7.31,-3.81 9.93,-5.71 16.89,-10.85z"/>
   <path class="fil11" d="M412.83 152.33c2.38,-0.49 5.59,0.01 7.7,1.48 2.36,1.65 7.11,5.56 5.45,9.88 -1.29,0.96 -5.09,1.99 -6.72,2.5l-4.41 1.33c-1.23,-8.45 -3.85,-10.89 -9.7,-12.72 2.55,-0.93 5.11,-1.69 7.68,-2.48z"/>
   <path class="fil10" d="M217.82 222c5.38,1.89 10.79,3.65 16.23,5.26 1.13,1.52 3.3,3 3.25,5.13l-1.18 0.97c-5.75,2.79 -12.64,0.8 -18.91,0.06 0.3,-3.6 0.43,-7.77 0.61,-11.42z"/>
   <path class="fil14" d="M348.01 103.83c1.32,1.49 2.49,5.06 2.4,7.33 -0.37,9.83 -8.47,16.09 -15.17,14.77 -3.22,-0.63 -5.19,-1.92 -7.31,-5.04 1.88,-0.51 6.08,1.96 8.96,0.47 2.02,-1.05 7.65,-3.4 8.1,-6.6 -1.64,-0.71 -3.26,-1.18 -4.42,-2.83 -0.13,-0.91 -0.28,-1.05 -0,-1.67 2.61,-5.81 5.27,-1.61 7.2,-2.39 0.53,-1.2 0.31,-2.57 0.25,-4.04z"/>
   <path class="fil8" d="M176.46 58.8c3.3,1.64 5.49,2.85 8.94,4.23 -0.49,0.4 -0.97,0.82 -1.45,1.24 -3.57,3.22 -5.04,6.56 -5.86,12.08 -13.84,-0.64 -9,-9.02 -1.63,-17.55z"/>
   <path class="fil11" d="M271.88 297.65c2.34,0.78 5.03,5.05 6.78,7.44 -3.27,4.97 -0.96,12.1 -2.52,14.52l-1.29 -0.3c-4.76,-1.26 -3.61,-6.99 -5.15,-11.94 -0.61,-1.96 -0.61,-1.53 -1.99,-2.31l-0.13 -0.58c1.66,-2.26 2.75,-3.65 4.05,-6.31l0.25 -0.52zm-15.48 -0.66l0.67 -0.75c3.79,2.94 6.29,8.32 9.36,8.51l0.22 0.57 -0.35 0.41c-1.91,2.29 -3.41,4.84 -5.05,7.48 -1.39,-1.02 -3.84,-2.69 -5.09,-3.82 0.05,-2.52 0.36,-10.51 0.23,-12.39z"/>
   <path class="fil0" d="M156.8 199.82c4.93,-1.22 9.65,16.23 -2.66,7.76 -3.45,-2.72 -5.1,-4.38 -9.06,-5.44l11.72 -2.33z"/>
   <path class="fil14" d="M344.71 135.16c0.05,0.01 0.09,0 0.13,0.02 0.95,0.54 4.47,9.51 5.26,11.22 -1.93,1.14 -2.56,1.4 -4.6,2.06 -1.62,0.27 -3,0.29 -4.63,0.34 -0.06,-3.29 -0.44,-7.7 -0.65,-11.06l4.49 -2.58z"/>
   <path class="fil15" d="M263.8 248.03l-0.88 -1.39c0.16,-0.73 0.21,-1.06 0.82,-1.3 4.83,-1.87 5.33,3.86 3.73,8.2 -2.25,6.09 -5.81,9.26 -10.12,11.61l-0.42 -0.3c-0.37,-6.05 8.79,-5 7.5,-12.58 -1.26,-0.34 -1.89,-0.27 -2.32,-2.02 0.57,-1.52 0.5,-1.13 1.69,-2.22z"/>
   <path class="fil14" d="M263.8 248.03c0.87,0.46 1.32,0.54 1.78,1.63 -0.19,1.69 -0.12,1.14 -1.15,2.62 -1.26,-0.34 -1.89,-0.27 -2.32,-2.02 0.57,-1.52 0.5,-1.13 1.69,-2.22z"/>
   <path class="fil15" d="M176.26 52.52c3.58,-0.33 17.37,3 17.82,8.03 -3.66,0.66 -16.5,-2.78 -17.82,-8.03z"/>
   <path class="fil14" d="M279.58 307.58c1.92,1.52 5.34,6.16 5.9,9.13 -0.39,1.67 -0.29,1.17 -1.35,2.52 -1.72,1.18 -2.95,1.95 -4.55,0.32 -1.25,-3.27 -0.53,-8.34 -0,-11.96zm59.09 -168.97c0.71,1.33 0.61,7.96 0.66,10.02 -1.71,-0.41 -3.41,-0.94 -5.1,-1.45l-0.95 -0.52c-0.7,-1.42 -0.65,-4.34 -0.75,-6.21 2.57,-0.36 3.72,-0.81 6.15,-1.84z"/>
   <path class="fil7" d="M414.68 269.18c1.28,-0.21 1.84,-0.47 2.71,0.94 -0.42,4.95 -6.07,4.93 -8.78,4.74 -1.17,-0.33 -3.53,-0.92 -3.6,-2.77 1.38,-1.43 7.04,-2 9.67,-2.91z"/>
   <path class="fil14" d="M347.02 134.14c5.64,-0.82 8.18,3.03 5.13,10.04l-0.69 0.51c-1.16,-0.75 -4.27,-8.07 -4.8,-9.88l0.35 -0.66z"/>
   <path class="fil16" d="M205.81 189.96c1.37,1.63 2.57,2.92 3.09,5.28 -0.32,3.35 -1.87,3.15 -4.04,3.37 -1.32,-0.17 -3.01,-0.75 -4.34,-1.14 2,-2.63 3.45,-4.68 5.29,-7.51z"/>
   <path class="fil8" d="M276.56 298.65c4.22,-0.26 5.96,4.34 9.87,6.11 1.51,0.68 4.12,0.53 5.9,1.29l0.12 1.24c-6.24,2.49 -11.79,-3.08 -15.9,-8.64z"/>
   <path class="fil7" d="M416.9 284.99c1.15,-0.29 1.85,-0.52 2.74,0.63 -0.14,4.51 -6.08,4.41 -8.44,4.19 -1.3,-0.66 -1.87,-0.81 -2.88,-2.02l0.01 -0.65c1.7,-1.04 5.34,-0.9 8.13,-1.98l0.43 -0.18z"/>
   <path class="fil14" d="M413.26 147.3c4.22,0.07 6.8,0.42 10.86,1.78 -2.41,0.14 -3.88,0.28 -6.24,0.8 -3.94,1.42 -4.88,1.65 -8.99,2.51 1.49,-1.62 2.93,-3.38 4.37,-5.08zm-98.07 133.15c3.99,-0.11 1.92,6.19 0.51,7.26l-0.78 -0.53c-1.39,-1.29 -4.09,-3.02 -3.14,-5.44 1.06,-0.95 2.13,-1.01 3.41,-1.29z"/>
   <path class="fil7" d="M417.35 297.54c1.12,-0.02 1.89,0.09 2.66,1.19 -0.83,3.09 -5.79,2.7 -7.78,2.49 -0.97,-0.42 -2.15,-0.92 -2.68,-2.11 0.65,-1.11 5.76,-1.09 7.8,-1.57z"/>
   <path class="fil11" d="M247.74 300.86l-0.26 -0.33c-1.47,-1.87 -1.99,-1.95 -1.64,-4.67 1.75,-3.08 4.33,-1.91 6.18,0.15l0.52 0.85c-1.3,0.9 -3.49,2.87 -4.81,3.99z"/>
   <path class="fil14" d="M288.16 295.3c0.31,0.04 0.53,0.23 0.84,0.42 0.57,2.23 0.2,4.78 -1.15,6.34 -1.32,0.24 -1.06,0.05 -2.48,-0.74 -1.19,-0.85 -2.21,-1.18 -2.12,-3.14 0.93,-1.3 3.48,-2.2 4.91,-2.88zm-20.81 12.36c0.85,1.61 2.19,6.58 1.54,8.59 -1.01,0.63 -0.7,0.43 -2.04,0.03 -1.64,-0.79 -2.62,-0.79 -2.75,-3.31 0.56,-1.9 2.14,-3.77 3.25,-5.32zm-14.74 -24.31c1.92,1.12 3.41,2.4 5.19,3.85l-2.18 2.94 -3.06 3.27c-0.13,-3.21 -0,-6.81 0.05,-10.06zm43.94 11.21c1.3,0.61 4.12,2.28 4.8,3.94 -0.31,1.22 -0.23,0.84 -1.39,1.64 -1.47,1.01 -2.88,1.81 -4.39,2.69 0.27,-2.88 0.59,-5.41 0.98,-8.27z"/>
   <path class="fil11" d="M239.64 75.16l0.71 0.12c1.23,1.71 6.52,6.36 6.66,7.74l-0.74 -0.21c-2.14,-1.22 -7.7,-3.01 -8.52,-5.34 0.61,-1.54 0.64,-1.22 1.89,-2.32z"/>
   <path class="fil14" d="M253.94 298.58l0.37 0.51c0.25,2.34 0.76,5.14 -0.62,6.9 -0.94,0.23 -1.38,-0.3 -2.24,-0.94 -0.9,-1.07 -1.33,-1.45 -1.29,-3.04 0.73,-1.44 2.58,-2.54 3.79,-3.44zm70.37 -159.78c3.08,1 3.89,1.36 7.15,1.89 0.15,1.64 0.17,3.6 0.21,5.27 -3.3,-1.86 -5.11,-3.42 -7.37,-7.16z"/>
   <path class="fil8" d="M269.88 253.59c0.71,-0.09 1.04,-0.07 1.76,-0.04 1.62,1.71 1.23,4.94 0.91,7.38 -3.96,-0.76 -3.58,-3.09 -2.67,-7.34z"/>
   <path class="fil14" d="M318.67 287.16c0.86,0.59 2.36,2.61 3.14,3.58l-6.03 1.87c-0.95,0.3 -0.91,0.39 -1.79,-0.07 -0.33,-1.61 -0.34,-0.85 -0.07,-2.36 1.24,-0.46 1.8,0.12 3.07,0.12 1.02,-1 1.1,-1.53 1.68,-3.13z"/>
   <path class="fil11" d="M175.46 54.98c3.82,3.92 11.24,6.62 15.95,7.15 0.65,0.08 0.39,-0.12 0.8,0.51 -3.12,0.65 -16.92,-2.87 -16.76,-7.66z"/>
   <path class="fil14" d="M265.66 294.32c1.67,1.13 3.23,2.02 4.95,3l-2.13 2.7 -2.07 2.46c-0.39,-3.03 -0.56,-5.09 -0.75,-8.16z"/>
   <path class="fil7" d="M409.76 236.41c0.63,-0.1 0.49,-0.06 1.14,0.07 -0.28,1.41 -1.27,2.4 -2.11,3.56 -2.07,-0.55 -3,-0.74 -5.11,-0.9 -0.72,0.12 -1.15,0.13 -1.87,0.15l0.14 -0.42c2.84,-1.52 4.82,-2.02 7.82,-2.46z"/>
   <path class="fil11" d="M261.77 293.66l0.98 0.04c0.96,1.57 1.44,5.52 1.05,7.48l-0.61 -0.72c-1.17,-1.86 -3.32,-3.71 -3.7,-5.26 0.66,-1.2 0.96,-0.97 2.28,-1.54z"/>
   <path class="fil14" d="M244.01 288.58c0.34,0.03 0.11,-0.02 0.66,0.36 0.06,1.79 -0.02,4.03 -1.07,5.24 -1.04,-1.25 -1.53,-1.9 -1.71,-3.61 0.72,-1.49 0.68,-1.11 2.12,-1.99z"/>
   <path class="fil17" d="M336.84 36.02l0.35 0.59c-2.54,1.17 -5.99,2.91 -8.5,3.9l-0.36 -0.8c0.79,-0.63 7.25,-3.18 8.51,-3.69z"/>
   <path class="fil14" d="M359.15 182.56c1.28,0.47 1.14,0.13 1.83,1.26 -0.07,1.27 -0.29,1.44 -0.84,2.48 -1.17,-0.13 -1.41,-0.2 -2.08,-1.39 0.22,-1.56 0.12,-1.04 1.09,-2.35z"/>
   <path class="fil11" d="M252.03 296.02c2.16,-1.18 3,-1.81 5.04,0.23l-0.67 0.75c-1.65,-1.34 -2.09,-1.02 -3.84,-0.13l-0.52 -0.85z"/>
   <path class="fil7" d="M448.14 197.2l0.39 -0.01 0.11 0.39c-1.07,1.18 -2.05,1.62 -3.32,2.35 -0.48,-0.02 -0.24,0.08 -0.7,-0.41l0.16 -0.53c1.31,-1.14 1.81,-1.21 3.35,-1.79z"/>
   <path class="fil18" d="M419.53 296.04c-1.07,-0.08 -1.53,-0.02 -2.52,-0.62 1.7,-0.41 3.26,-0.2 4.98,-0.1l-2.46 0.72z"/>
   <path class="fil19" d="M336.84 36.02c1.19,-0.55 2.74,-1.45 3.94,-1.37 -0.81,0.94 -2.51,1.49 -3.59,1.96l-0.35 -0.59z"/>
  </g>
 </g>
</svg>
