<?xml version="1.0" encoding="utf-8"?>
<!-- Generator: Adobe Illustrator 16.0.0, SVG Export Plug-In . SVG Version: 6.00 Build 0)  -->
<!DOCTYPE svg PUBLIC "-//W3C//DTD SVG 1.1//EN" "http://www.w3.org/Graphics/SVG/1.1/DTD/svg11.dtd">
<svg version="1.1" id="Layer_1" xmlns="http://www.w3.org/2000/svg" xmlns:xlink="http://www.w3.org/1999/xlink" x="0px" y="0px"
	 width="601.621px" height="560px" viewBox="0 0 601.621 560" enable-background="new 0 0 601.621 560" xml:space="preserve">
<g>
	<path fill-rule="evenodd" clip-rule="evenodd" fill="#FFFFFF" d="M152.294,184.402c0.021,1.45,1.916,6.1,2.504,7.553l4.854,11.42
		c1.426,3.282,3.019,6.435,4.363,9.648c0.479,1.187,1.005,2.325,1.521,3.463c1.114,2.636,2.42,6.664,3.774,8.917
		c1.029,1.569,2.602,1.368,5.515,2.024c1.388,0.339,2.766,0.563,4.205,0.913c1.416,0.273,2.841,0.684,4.374,0.684
		c0.564,0,0.636,0.105,1.138,0.105c4.234,0.119,8.644,0,12.874,0c0.454,0,6.783,0.349,6.869,1.344l0.191,2.622
		c0,0.434,0.082,0.434,0.082,0.889c0.048,1.631,0.253,3.163,0.325,4.684c0.024,0.338-0.047,0.685,0.024,1.02
		c0.035,0.611,0.024,1.187,0.082,1.87c0.171,2.817-0.106,8.869-0.106,11.734c0,0.803-0.095,1.258-0.095,1.87
		c-0.024,0.685,0,1.412,0,2.096s-0.106,1.066-0.106,1.799l-1.75,20.291c-0.028,1.187-0.278,2.527-0.349,3.714
		c-0.048,2.54-0.564,4.975-0.612,7.457l-0.407,5.501c-0.049,1.39-0.226,2.47-0.226,3.834c0.035,1.224-0.17,2.399-0.194,3.74
		c0,0.526-0.083,0.526-0.083,0.957c-0.024,0.338,0,0.721-0.024,1.056l-0.096,1.799c-0.024,2.086-0.431,5.535-0.431,7.574
		c0,0.841-0.062,1.367-0.086,2.037c-0.047,0.574,0.058,1.247-0.047,1.917c-0.134,1.006-0.154,4.627-0.154,5.875l-0.194,3.856
		c-0.106,0.627,0,1.225-0.011,1.919c-0.022,0.554-0.12,1.128-0.12,1.846l-0.205,3.859c-0.071,1.293-0.071,2.541-0.095,3.834
		l-0.202,3.836c-0.061,2.637-0.229,5.128-0.229,7.863v20.207c0,2.708,0.6,9.085,1.164,11.649c0.132,0.646,0.407,0.55,1.185,0.646
		c2.542,0.43,10.692,1.15,13.448,1.391c0.995,0,2.253,0.215,3.297,0.264l13.59,1.128c1.176,0.049,2.244,0.049,3.478,0.287
		c1.091,0.098,2.229,0.098,3.344,0.217l6.784,0.646c1.138,0.046,2.311,0.142,3.342,0.261l6.712,0.694
		c4.58,0.435,8.81,1.009,13.354,1.344l5.032,0.432c1.439,0.239,2.889,0.192,4.229,0.358c0.326,0,0.589,0,0.938,0
		c0.408,0.077,1.243,0.124,1.724,0.124c1.439,0.214,6.667,0.431,8.715,0.572c1.209,0,2.459-0.142,3.594,0
		c2.53,0.386,17.751-0.478,20.593-0.572l8.305-0.531c0.504,0,0.526-0.046,0.936-0.095c1.008-0.07,2.145-0.07,3.139-0.19l6.283-0.336
		c0.526,0,0.573-0.097,0.933-0.097s0.793,0,1.137,0c0.485,0,0.456-0.094,0.963-0.094c0.357,0,0.765,0,1.134,0
		c1.68-0.121,3.501-0.121,5.301-0.241c0.454,0,0.478-0.072,1.018-0.095c4.029,0,8.105,0.144,12.152,0.022
		c0.506-0.022,0.506-0.12,1.031-0.167c1.452,0,2.867,0.145,4.207-0.095c0.539-0.119,1.415-0.119,1.869-0.291
		c0.36-0.164,0.406-0.288,0.455-0.743c0.182-1.075,0.219-2.42,0.063-3.543c-0.111-0.867,0.023-1.752-0.086-2.614
		c-0.272-2.065-0.145-4.22-0.371-6.256c-0.083-0.746-0.083-2.612-0.202-3.86l-0.23-9.133c-0.021-0.574-0.106-0.622-0.106-1.177
		l-0.095-7.979c0-0.458,0-0.938,0-1.367l-0.134-3.956c0.038-0.982-0.071-1.557-0.071-2.589c0-5.295-0.325-10.448-0.325-15.699
		c0-1.799,0-3.617,0-5.368c0-0.842-0.106-1.535-0.106-2.495c0-0.911,0-1.772,0-2.686c0-1.869-0.12-3.401-0.12-5.272
		c0-1.008-0.081-1.678-0.081-2.587c0-0.914,0.068-1.919,0-2.708l-0.229-7.793c0.048-1.005-0.072-1.582-0.072-2.611v-4.052
		c-0.229-3.837-0.335-7.803-0.311-11.711l-0.119-3.822c0-0.636-0.096-0.636-0.109-1.259c0-1.856-0.048-3.428-0.097-5.247
		l-0.12-2.602c0-2.59-0.288-5.298-0.288-7.803c0-1.751-0.156-3.393-0.203-5.071c-0.022-0.574-0.12-0.684-0.12-1.258l-0.225-3.822
		c-0.253-2.387-0.565-7.348-0.708-9.936l-0.492-7.515c0-1.197-0.201-2.947-0.23-3.846c0-0.407,0.038-0.9,0.181-1.176
		c0.685-1.139,5.215-1.714,6.556-1.714c1.095,0,3.908,0.575,5.095,0.732c5.778,0.982,10.537,1.32,16.384,1.32
		c1.066,0,2.746-0.109,3.297-0.636c0.206-0.158,0.611-0.841,0.813-1.187c2.194-3.549,4.148-7.228,6.2-10.897l1.772-3.32
		c0.251-0.455,0.455-0.803,0.706-1.258c3.956-7.621,4.937-9.659,8.281-17.964c0.711-1.798,1.75-4.051,2.159-5.874
		c-0.756-1.187-6.618-3.741-8.461-4.626c-1.019-0.516-1.979-0.909-3.01-1.473c-0.516-0.229-0.971-0.456-1.474-0.684
		c-0.525-0.202-0.982-0.43-1.497-0.66l-11.7-5.894c-0.958-0.435-1.941-0.89-2.886-1.451l-10.427-4.916
		c-5.957-2.779-12.539-3.666-17.931-6.219c-1.977-0.948-4.458-1.631-6.593-2.205c-1.139-0.335-2.229-0.684-3.391-0.958
		c-6.176-1.583-11.136-2.77-17.213-4.688c-5.224-1.75-7.572-1.703-13.017-2.482c-1.583-0.226-3.199-2.038-4.563-2.038
		c-0.303,0-1.87,1.474-2.207,1.703c-3.846,3.047-7.694,6.257-12.655,7.013c-5.321,0.885-13.473,0.885-18.7,0
		c-3.843-0.756-6.674-2.171-9.468-4.531c-1.29-1.066-1.938-1.979-3.066-3.056c-2.324-2.243-1.211-2.315-5.969-1.129
		c-3.681,0.9-7.344,1.474-11.325,1.812c-3.285,0.345-8.811,0.729-11.651,1.46c-1.259,0.302-2.373,0.637-3.508,0.913
		c-3.344,0.958-6.667,2.253-10.06,3.043c-2.838,0.684-5.238,1.918-7.822,3.162c-0.564,0.23-0.962,0.506-1.526,0.804
		c-0.599,0.229-0.933,0.458-1.521,0.684l-4.674,1.907c-1.042,0.455-2.181,0.68-3.271,1.139c-1.546,0.551-3.114,1.115-4.613,1.795
		c-0.323,0.181-0.458,0.229-0.778,0.338l-2.257,1.029c-4.072,2.024-8.185,3.727-12.511,5.07c-2.731,0.804-5.487,1.87-8.175,2.828
		c-2.229,0.79-4.253,1.521-6.506,2.253c-2.182,0.742-4.315,1.545-6.363,2.493C156.572,181.923,153.277,183.373,152.294,184.402z"/>
	<path fill-rule="evenodd" clip-rule="evenodd" fill="#FFFFFF" d="M144.106,104.987c0.072-0.335,1.248-1.818,1.521-2.153
		c0.277-0.349,0.431-0.626,0.708-1.009c1.248-1.87,2.301-3.956,3.167-6.123c0.66-1.75,1.187-3.477,1.594-5.634
		c1.521-7.444-0.048-14.983-2.961-21.465c-1.139-2.588-2.506-4.794-4.028-7.119c-1.21,0.803-3.091,2.937-4.024,4.076
		c-0.611,0.79-1.162,1.521-1.75,2.359c-0.277,0.396-0.479,0.804-0.756,1.186c-0.253,0.407-0.502,0.841-0.779,1.296
		c-5.046,9.061-4.516,18.48-0.971,28.033l1.162,2.828c0.23,0.563,0.456,0.947,0.685,1.45c0.154,0.458,0.407,0.804,0.66,1.258
		l1.473,2.711c0.23,0.335,0.633,0.9,0.756,1.292l-3.765,3.392c-0.407,0.455-0.817,0.722-1.22,1.176l-2.435,2.253
		c-0.229,0.226-0.373,0.455-0.602,0.636c-2.455,2.253-4.89,4.698-7.095,7.167c-0.178,0.226-0.407,0.454-0.612,0.684l-2.838,3.056
		c-0.191,0.273-0.325,0.455-0.649,0.608c0.302-1.065,2.506-4,3.573-10.558c1.665-9.983-1.809-19.428-7.573-27.124
		c-0.493-0.66-1.02-1.292-1.546-1.904c-0.564-0.731-1.189-1.258-1.703-1.976c-0.708,0.442-2.961,3.953-3.344,4.685
		c-1.258,2.157-1.75,3.166-2.649,5.477c-4.134,11.136-0.612,21.982,5.692,31.473c1.32,1.979,2.842,3.621,3.525,4.616l-6.998,8.807
		c-2.124,2.842-4.785,6.438-6.716,9.399l-3.138,4.841c-0.253,0.394-0.828,1.484-1.077,1.641l0.574-1.295
		c1.317-2.828,2.685-7.693,2.756-10.855c0.062-2.937,0.181-4.458-0.276-7.323c-0.623-4.305-2.097-7.745-3.977-11.424
		c-0.229-0.455-0.455-0.803-0.708-1.187c-1.164-1.976-2.579-3.884-4.171-5.596c-0.226-0.23-0.226-0.336-0.407-0.565
		c-0.182-0.167-0.325-0.321-0.53-0.43l-1.905-1.943c-0.154-0.225-0.274-0.335-0.455-0.502l-2.147-1.809
		c-0.308-0.277-0.202-0.229-0.584-0.396c-2.34,3.512-3.751,7.587-4.569,11.854c-0.981,4.879-0.321,10.52,1.153,14.476
		c0.527,1.343,1.138,2.865,1.819,4.281c1.955,3.846,4.663,7.874,7.744,10.917l2.588,2.587c0.229,0.24,0.324,0.278,0.575,0.503
		c0.229,0.181,0.313,0.229,0.539,0.458c0.253,0.226,0.325,0.345,0.613,0.455l-3.861,6.784c-1.004,1.678-1.866,3.439-2.803,5.19
		l-3.549,7.119c-1.21,2.434-2.25,4.841-3.344,7.348c-0.154,0.321-0.249,0.549-0.407,0.885l-0.249,0.684
		c-0.124,0.229-0.096,0.12-0.181,0.229c0.058-0.792,0.478-2.133,0.66-3.165c0.512-3.378,0.56-5.751,0.252-9.143
		c-0.482-5.646-2.831-11.304-5.97-15.475c-1.138-1.474-2.314-2.937-3.645-4.253c-0.67-0.732-1.271-1.297-1.999-1.957l-2.087-1.699
		c-0.732-0.625-1.511-1.128-2.325-1.692c-0.817-0.561-1.521-0.981-2.386-1.474c-0.827-0.502-1.748-0.909-2.527-1.46
		c-1.679,3.498-2.507,10.152-2.1,14.224c0.602,5.86,2.1,10.213,5.597,14.901l2.301,2.957c1.272,1.452,2.636,2.937,4.124,4.16
		l1.655,1.484c0.829,0.564,1.512,1.115,2.373,1.799c0.742,0.517,4.1,2.888,5.119,3.118c-0.024,0.455-2.254,6.027-2.482,6.592
		c-2.075,5.764-3.917,11.539-5.501,17.46c-0.144,0.516-0.349,1.248-0.479,1.75c-0.181,0.565-0.206,1.365-0.554,1.929
		c0-0.684,0.099-1.019,0.099-1.822c0-1.22,0.024-2.478-0.119-3.727c-0.254-2.588-0.708-5.416-1.703-7.897
		c-1.522-3.847-2.891-6.555-5.55-9.827c-3.512-4.304-8.042-7.467-13.017-9.983c-1.08-0.526-4.506-2.171-5.511-2.219l-0.54,3.512
		c-0.458,3.702-0.096,7.777,0.656,11.279c0.816,3.966,2.937,7.812,5.419,10.978c0.612,0.766,1.173,1.402,1.833,2.134
		c0.732,0.91,2.229,2.253,3.118,3.042c0.441,0.277,0.756,0.575,1.163,0.91c1.521,1.237,3.114,2.373,4.804,3.391
		c1.703,1.009,6.988,3.897,8.415,4.051c0,0.756-0.456,2.172-0.633,3.071c-1.142,5.311-2.075,10.606-2.845,16.022
		c-0.203,1.703-0.752,5.143-0.752,6.787h-0.109c0-1.463-0.958-4.4-1.484-5.768c-1.573-4.181-3.344-6.889-6.103-10.28
		c-0.263-0.335-0.612-0.612-0.919-0.948l-3.874-3.512c-2.096-1.641-4.373-3.093-6.831-4.113c-4.085-1.87-6.773-2.55-11.194-3.56
		c0,1.306-0.154,2.531-0.023,3.898l0.372,3.617c0.766,5.299,2.889,10.056,6.075,14.179l1.953,2.206
		c2.758,2.708,6.027,5.022,9.494,6.784c2.914,1.569,5.429,2.482,8.569,3.549c0.598,0.226,2.598,0.838,3.344,0.838
		c0,3.344-0.43,6.554-0.43,9.946c0,1.247-0.086,2.133-0.086,3.392v5.18c-0.024,0.756,0.086,0.981,0.086,1.713
		c0,2.362,0.225,4.507,0.225,6.82l-2.085-5.19c-0.393-0.789-0.827-1.521-1.306-2.314c-0.239-0.453-0.455-0.731-0.694-1.139
		c-0.659-1.114-1.535-2.181-2.349-3.162c-0.937-1.187-2.072-2.302-3.187-3.271c-1.596-1.344-3.046-2.373-4.759-3.488
		c-2.157-1.473-5.156-2.659-7.55-3.5c-3.453-1.14-7.097-1.714-10.763-2.049c-0.708-0.12-1.114,0-1.75-0.12
		c0,4.757,2.502,11.424,5.046,15.271c0.574,0.884,1.077,1.569,1.737,2.373c0.177,0.224,0.253,0.335,0.407,0.563
		c1.066,1.293,2.339,2.527,3.679,3.545c0.779,0.623,1.535,1.139,2.349,1.713c0.865,0.541,1.641,0.995,2.53,1.526
		c4.841,2.932,11.553,4.577,17.197,5.295c0.43,0.049,1.392,0.229,1.894,0.229c0.206,0.801,0.637,5.99,0.766,7.167
		c0.684,4.793,1.211,9.442,2.148,14.068c0.225,1.125,0.43,2.158,0.684,3.382c0.203,1.029,0.656,2.373,0.656,3.354
		c-0.115-0.192-0.047-0.071-0.167-0.288l-1.09-2.037c-0.814-1.486-1.881-2.947-2.934-4.291l-2.564-2.828
		c-1.826-1.798-3.979-3.285-6.175-4.649c-0.742-0.434-1.521-0.889-2.358-1.224c-1.32-0.574-2.458-1.125-3.802-1.604
		c-3.03-1.009-7.334-1.918-10.654-1.918c-0.708,0-1.32,0-1.822,0c-0.923-0.096-3.977,0.191-5.043,0.239
		c-0.554,0.047-1.163,0.238-1.668,0.238c0.047,1.341,1.487,4.723,2.1,5.852c1.703,3.521,3.87,6.688,6.602,9.396l1.607,1.388
		c0.885,0.863,1.894,1.534,2.96,2.156c5.98,3.574,10.08,4.268,16.743,5.205c1.713,0.264,4.076,0.167,5.765,0.167
		c0.656,0,1.339,0,1.952-0.047c0.482-0.073,1.44-0.191,1.918-0.191c1.343,5.799,3.043,11.313,4.89,16.921
		c0.205,0.598,0.383,1.056,0.587,1.63l2.913,8.008c-0.086-0.048-0.109-0.097-0.205-0.242c-0.105-0.097-0.048-0.097-0.153-0.217
		c-0.78-1.124-1.823-2.588-2.78-3.545l-3.668-3.501c-1.354-1.077-2.665-1.99-4.233-2.899c-3.272-1.869-6.712-3.215-10.568-3.885
		c-1.594-0.286-4.927-0.621-6.606-0.621c-1.292,0-5.416,0.383-6.579,0.573l-4.482,0.887c-0.455,0.122-1.019,0.361-1.473,0.41
		c0,0.622,0.837,2.205,1.162,2.756l1.522,2.468c0.479,0.91,2.325,3.357,2.957,4.028c0.253,0.286,0.291,0.286,0.516,0.573
		c0.397,0.503,1.415,1.535,1.966,1.967l4.568,3.402c2.886,1.582,5.416,2.639,8.688,3.334c1.918,0.383,3.163,0.597,5.083,0.837
		l1.952,0.119c4.35,0,7.143,0,11.123-0.79c0.828-0.118,2.732-0.479,3.283-0.741c0.132,0.623,2.386,5.582,2.659,6.157
		c0.277,0.53,0.434,0.914,0.685,1.463c0.3,0.575,0.457,1.032,0.708,1.607l2.205,4.388c0.301,0.55,0.551,1.028,0.793,1.459
		c1.317,2.735,2.503,4.749,3.871,7.242c0.226,0.431,0.705,1.125,0.814,1.532c-0.612-0.407-1.148-1.197-1.75-1.628
		c-2.311-1.871-3.224-2.783-6.1-4.315l-2.291-1.128c-8.076-3.809-17.82-3.426-26.125-0.693l-3.778,1.439
		c-0.335,0.144-0.934,0.43-1.268,0.502c0.071,0.551,1.199,2.038,1.521,2.469c0.91,1.248,1.75,2.108,2.66,3.234
		c0.301,0.358,0.636,0.626,0.985,0.961c1.066,1.124,3.224,2.827,4.411,3.617c2.482,1.631,5.143,3.047,8.17,3.837
		c6.716,1.727,14.193,1.438,21.11-0.575c1.102-0.334,1.987-0.552,3.03-0.909l2.937-1.105c0.157,0.623,4.458,6.999,5.094,7.957
		c0.384,0.553,0.685,0.96,1.043,1.513l2.216,3.117c0.721,1.075,1.477,1.991,2.205,2.995l2.291,2.994
		c0.779,0.938,1.556,1.896,2.348,2.998l1.776,2.159c0.225,0.238,0.478,0.383,0.574,0.765l-5.334-4.17
		c-0.407-0.239-0.708-0.457-1.152-0.671c-0.872-0.479-1.594-0.913-2.503-1.345c-2.804-1.387-7.263-2.636-10.429-2.851
		c-4.588-0.312-7.525-0.168-11.926,0.885l-2.947,0.913c-0.957,0.36-1.822,0.621-2.708,1.053c-2.803,1.201-4.96,2.254-7.49,3.98
		c0.071,0.478,1.391,1.775,1.798,2.205c2.229,2.207,4.158,3.741,6.889,5.32c1.741,1.058,3.621,1.918,5.622,2.588l3.189,0.917
		c0.958,0.136,2.527,0.449,3.621,0.498c0.79,0,1.245,0.075,1.867,0.075c1.177,0.04,4.64-0.247,5.684-0.438
		c3.644-0.478,7.778-1.723,11.146-3.21l4.1-1.963c0.502-0.267,0.86-0.457,1.339-0.721c0.483-0.287,0.866-0.575,1.272-0.814
		c0.144,0.169,0.455,0.573,0.646,0.742l3.296,3.812c0.253,0.192,0.479,0.385,0.708,0.65c0.947,1.121,2.841,2.947,3.429,3.618
		c0.25,0.336,0.321,0.457,0.623,0.785c1.675,1.56,3.272,3.337,5.019,4.869l5.142,4.842c0.636,0.698,3.488,2.953,3.765,3.405
		l-2.422-1.408c-9.002-4.802-18.671-5.711-28.415-1.874c-3.823,1.559-9.013,4.72-12.06,7.598l-1.042,0.867
		c-0.345,0.328-0.704,0.69-0.958,1.026c0.206,0.165,0.312,0.26,0.503,0.452c3.224,2.447,6.315,4.073,10.189,5.373
		c9.348,3.092,18.025,0.89,26.391-3.69c0.479-0.219,0.828-0.432,1.317-0.719l1.282-0.841c0.862-0.575,1.641-1.081,2.459-1.696
		l4.506-3.748c0.202,0.288,0.407,0.342,0.685,0.575c3.449,3.05,8.892,7.125,12.534,9.779c0.541,0.389,1.02,0.676,1.549,1.059
		c1.7,1.252,5.895,4.076,7.824,5.203c0.324,0.213,0.481,0.328,0.792,0.548c0.349,0.247,0.599,0.288,0.803,0.574l-2.807-1.005
		c-8.1-2.728-16.213-2.593-24.063,0.91l-3.802,2.016c-1.593,0.911-3.115,1.964-4.526,3.166c-0.374,0.287-0.637,0.575-1.009,0.788
		c-0.205,0.198-0.287,0.307-0.479,0.457c-0.229,0.239-0.338,0.288-0.564,0.506c-1.225,1.073-1.87,1.867-2.804,2.899
		c-0.206,0.212-0.315,0.26-0.469,0.425c-0.479,0.582-1.966,2.352-2.218,2.83c2.687,1.415,2.146,1.299,5.562,2.591
		c5.707,2.211,11.902,2.688,17.834,1.15c5.285-1.292,10.691-4.533,14.79-7.912c2.096-1.675,5.188-4.745,6.711-6.783
		c0.202-0.213,0.274-0.26,0.551-0.452l10.08,5.771c0.311,0.124,0.478,0.22,0.766,0.344c2.147,1.176,6.401,3.377,8.332,4.238L194,464
		c-0.514-0.069-0.995-0.191-1.546-0.233c-10.126-1.251-18.9,1.579-26.511,8.246c-1.34,1.246-3.799,3.831-4.841,5.172
		c-0.526,0.766-1.043,1.423-1.521,2.16c-1.187,1.818-1.727,2.488-2.828,4.505l3.006,1.035c1.09,0.354,2.051,0.574,3.261,0.791
		c1.953,0.479,5.248,0.862,7.454,0.575c2.684-0.247,3.87,0,7.06-1.107c3.187-1.053,5.502-2.105,8.258-3.98
		c0.765-0.478,1.593-1.081,2.362-1.675c2.025-1.653,2.503-2.057,4.325-3.865c2.143-2.131,4.688-5.29,6.329-8.026
		c0.272-0.425,0.526-0.767,0.79-1.244l3.19,1.244c3.977,1.586,10.763,4.074,14.906,5.204l8.764,2.612c-1.259,0-2.481,0-3.739,0
		c-4.709,0-10.668,1.674-14.673,4.075c-1.593,0.938-3.056,1.894-4.525,3.016c-1.368,1.135-2.713,2.381-3.875,3.651
		c-0.154,0.211-0.154,0.329-0.382,0.521c-2.326,2.447-4.256,5.441-5.776,8.437c-0.396,0.862-0.827,1.634-1.189,2.545l-1.114,2.681
		c1.32,0.696,7.444,1.271,9.073,1.059c1.283-0.239,2.647-0.144,3.824-0.362c0.622-0.115,1.21-0.211,1.764-0.328
		c2.154-0.466,4.363-1.177,6.182-2.037c3.19-1.464,7.755-4.803,9.948-7.576l1.476-1.561c1.391-1.703,2.707-3.529,3.87-5.442
		l2.612-4.603c0.252-0.526,1.139-2.441,1.185-2.947c0.889,0.027,1.861,0.431,2.71,0.546c9.232,1.971,23.983,5.54,32.468,8.249
		l2.638,0.819c0.814,0.211,4.58,1.56,5.26,1.56v0.213c-1.103,0.238-2.277,0.86-3.258,1.243c-1.069,0.431-2.183,0.909-3.225,1.348
		l-6.197,2.822c-5.873,2.948-11.78,6-16.899,10.142c-1.053,0.835-2.145,1.629-3.128,2.518l-3.929,3.836
		c-0.229,0.362-0.301,0.479-0.551,0.691c-0.242,0.218-0.267,0.342-0.539,0.574c-0.661,0.89-2.555,3.049-2.735,4.056
		c-0.227,1.345,0.803,2.495,2.027,2.439c1.438-0.04,1.798-1.189,2.431-2.036c0.959-1.313,1.942-2.559,3.056-3.665l2.315-2.271
		c0.228-0.22,0.346-0.274,0.598-0.562c1.498-1.477,4.063-3.303,5.732-4.404c0.908-0.63,1.748-1.243,2.682-1.818l2.891-1.683
		c1.893-1.147,3.869-2.16,5.845-3.166l9.291-4.165l6.543-2.618c0.6-0.212,1.057-0.382,1.666-0.595
		c0.382-0.192,1.319-0.575,1.702-0.575c0.909-0.075,11.037,4.116,12.979,5.033l6.161,2.845c3.417,1.709,6.87,3.575,10.056,5.729
		c0.278,0.219,0.432,0.219,0.708,0.439c2.072,1.243,3.956,2.822,5.827,4.362c1.999,1.75,3.976,3.543,5.621,5.702
		c1.086,1.341,1.903,3.257,3.343,3.446c1.293,0.173,2.297-0.957,2.181-2.297c-0.086-1.005-2.362-3.855-3.18-4.649l-1.642-1.819
		c-0.778-1.014-1.94-1.846-2.884-2.708l-1.848-1.559c-3.801-3.023-7.898-5.895-12.228-8.151l-1.424-0.745
		c-0.525-0.268-0.933-0.501-1.497-0.786c-2.483-1.3-5.033-2.594-7.648-3.673c-1.868-0.747-6.374-2.898-8.102-3.281v-0.213
		c0.612,0,1.93-0.575,2.541-0.794c8.559-2.83,17.869-5.031,26.654-7.22c4.112-1.094,8.307-1.866,12.42-2.826
		c0.452-0.116,0.979-0.334,1.41-0.334c0.136,1.34,3.097,6.543,4.114,8.122c1.101,1.703,2.248,3.167,3.487,4.746
		c0.154,0.192,0.273,0.345,0.479,0.555c0.933,1.073,1.904,2.278,3.043,3.167c0.228,0.115,0.349,0.287,0.526,0.451
		c1.141,1.148,2.687,2.296,4.052,3.165l3.295,1.923c2.866,1.341,6.411,2.25,9.745,2.537c1.091,0.096,2.864,0.285,3.956,0.19
		c1.233-0.095,2.588-0.144,3.774-0.362c0.861-0.115,2.864-0.328,3.486-0.696c-0.622-1.19-1.091-2.586-1.666-3.926
		c-1.52-3.406-3.596-6.236-5.873-9.164c-1.042-1.34-2.383-2.586-3.702-3.733c-2.396-2.134-5.057-3.814-7.945-5.224
		c-0.813-0.411-1.823-0.822-2.756-1.107c-2.89-0.959-6.259-1.771-9.482-1.771c-1.296,0-2.576,0-3.845,0l3.473-1.053
		c6.474-1.772,14.025-4.269,20.101-6.764c0.584-0.232,1.068-0.329,1.632-0.548c0.551-0.219,1.163-0.554,1.665-0.696
		c0.527,1.012,1.699,2.735,2.382,3.645c1.646,2.345,4.927,6.094,7.291,8.048c1.893,1.588,4.458,3.558,6.639,4.705
		c3.163,1.579,5.104,2.545,8.941,3.159c0.621,0.095,1.162,0.246,1.822,0.246c0.598,0.096,1.307,0.096,1.961,0.096
		c2.498,0.233,5.206-0.055,7.436-0.534c1.689-0.381,3.281-0.709,4.828-1.292c0.563-0.239,0.994-0.458,1.523-0.575
		c-0.41-0.766-0.84-1.511-1.32-2.247c-0.229-0.439-0.43-0.673-0.684-1.136c-0.251-0.385-0.478-0.645-0.778-1.075
		c-0.24-0.381-0.465-0.668-0.718-1.059l-4.171-4.841c-0.383-0.426-0.639-0.521-0.972-0.904c-1.32-1.299-3.562-2.953-5.081-3.98
		c-0.385-0.265-0.718-0.437-1.139-0.668l-3.621-1.875c-4.745-2.01-8.361-2.583-13.687-2.639c-2.049,0-3.559,0.459-5.057,0.574
		l9.266-4.404c3.68-1.941,6.841-3.664,10.377-5.661l1.427-0.862c0.552-0.259,2.576-1.531,3.007-1.628
		c0.158,0.574,3.319,3.83,3.799,4.363c0.36,0.383,0.685,0.622,1.066,0.957c0.206,0.24,0.338,0.335,0.551,0.575l2.818,2.352
		c0.793,0.575,1.545,1.026,2.353,1.628c2.659,2.011,7.933,4.486,11.227,5.272c2.686,0.676,4.626,0.889,7.396,0.889
		c3.059,0,7.587-0.889,10.379-2.039c3.644-1.346,2.71-1.128,5.647-2.591l-1.239-1.58c-0.718-0.772-1.472-1.798-2.286-2.591
		c-0.599-0.622-1.282-1.34-1.918-1.915c-3.75-3.165-6.184-5.32-11.695-7.521c-6.258-2.504-13.126-2.983-19.767-1.3
		c-1.413,0.335-3.077,0.861-4.445,1.34c-0.43,0.247-1.019,0.479-1.401,0.574c0.227-0.327,5.476-3.598,6.304-4.171
		c0.992-0.807,2.038-1.34,3.043-2.154c2.437-1.826,4.986-3.5,7.524-5.465c0.457-0.34,6.917-5.414,7.286-5.948
		c0.795,0.575,1.415,1.246,2.16,1.923c2.203,1.702,3.644,2.823,6.03,4.287c0.455,0.219,0.862,0.533,1.306,0.794
		c3.573,1.941,7.348,3.622,11.936,4.527c5.239,1.079,10.021,0.696,14.479-0.788c1.139-0.389,1.977-0.676,3.021-1.156
		c2.756-1.217,4.232-2.153,6.578-3.809c0.435-0.308,0.758-0.649,1.161-0.909c-0.43-0.698-1.759-1.702-2.454-2.257l-1.642-1.407
		c-4.782-3.569-9.601-6.279-15.88-7.53c-6.69-1.348-13.748-0.621-19.801,2.209l-3.871,2.105c-0.288,0.096-0.97,0.547-1.271,0.671
		c0.229-0.334,0.362-0.452,0.684-0.671l5.946-5.375c0.287-0.287,0.469-0.403,0.79-0.69c0.478-0.498,0.888-0.881,1.365-1.415
		l9.829-9.97l4.025-4.603l2.529,1.488c0.48,0.215,0.815,0.43,1.296,0.669c4.386,2.206,9.059,3.786,13.927,4.511
		c1.246,0.23,4.384,0.478,5.69,0.478c1.702,0,3.86-0.247,5.524-0.573l3.276-0.917c4.889-1.677,6.757-3.162,10.376-5.989
		c0.768-0.574,2.482-2.255,3.094-2.972c0.344-0.411,0.656-0.626,0.957-1.152l-4.84-2.779c-0.902-0.383-1.621-0.77-2.555-1.106
		c-1.499-0.668-2.685-1.004-4.182-1.533c-0.507-0.165-0.938-0.288-1.465-0.43c-5.437-1.389-11.416-1.606-16.861-0.192
		c-4.635,1.249-8.989,3.405-12.644,6.424c-0.372,0.311-0.685,0.575-1.033,0.866c-0.382,0.286-0.632,0.669-1.039,0.956
		c0.096-0.287,0.91-1.247,1.137-1.464c3.141-3.856,4.988-6.448,7.981-10.4c1.918-2.515,4.101-5.873,5.874-8.583
		c0.226-0.261,0.323-0.454,0.55-0.791l1.521-2.375c0.206-0.334,0.383-0.501,0.48-0.885l2.841,1.105
		c7.778,2.685,16.289,3.521,24.162,1.484c3.594-0.909,8.811-3.714,11.496-6.449c0.227-0.215,0.271-0.215,0.502-0.407l2-2.014
		c0.207-0.287,0.313-0.336,0.502-0.526l1.752-2.253c0.314-0.336,0.541-0.671,0.816-1.128c0.227-0.313,0.709-0.887,0.756-1.341
		l-2.434-1.032c-10.813-4.267-23.263-4.458-33.117,2.156c-2.563,1.68-2.105,1.584-3.929,2.999c-0.684,0.503-1.139,1.245-1.822,1.7
		c0.095-0.407,1.929-3.45,2.325-4.268l7.395-14.907l2-4.674c1.044,0.503,5.32,1.076,6.736,1.268
		c1.545,0.217,6.711,0.479,8.547,0.217l2.73-0.313c5.49-0.766,11.365-2.684,15.568-6.424c0.23-0.168,0.277-0.239,0.506-0.383
		c2.385-1.99,4.334-4.458,6.078-6.999c0.564-0.861,2.66-4.361,2.684-5.319l-2.854-0.745c-1.477-0.264-4.662-0.887-6.184-0.887
		l-3.416-0.238l-3.32,0.238c-6.15,0.335-13.771,3.211-18.479,7.431c-0.23,0.191-0.316,0.238-0.52,0.335
		c-0.395,0.335-0.529,0.577-0.932,0.912c-0.732,0.574-1.283,1.244-1.777,1.822c-0.143,0.216-0.25,0.287-0.43,0.431l-2.756,3.594
		c0.047-0.646,2.051-5.679,2.323-6.325c1.32-3.74,2.541-7.673,3.656-11.484l2.328-8.602c0.934,0,2.154,0.238,3.699,0.238
		c0.686,0,1.059,0.24,1.873,0.048c1.135-0.168,2.66-0.048,3.824-0.168c3.951-0.458,7.727-1.224,11.467-2.588
		c2.434-0.841,4.545-2.037,6.641-3.382c1.184-0.813,2.348-1.702,3.32-2.731c2.889-2.927,4.781-5.635,6.676-9.348
		c0.686-1.392,2.086-4.554,2.111-5.994c-1.68-0.119-3.143-0.478-4.893-0.478c-1.643,0-0.863-0.096-2.48,0
		c-0.275,0.048-0.637,0-0.932,0c-0.734,0-1.178,0.143-1.752,0.143c-4.027,0.216-8.008,1.342-11.623,2.805
		c-0.82,0.358-1.729,0.741-2.459,1.124c-2.809,1.775-3.01,1.584-5.875,4.076c-3.273,2.734-6.029,6.209-7.922,10.045
		c-0.037,0.191-0.082,0.215-0.131,0.358l-0.205,0.288c0.074-0.814,0.814-4.147,1.02-5.033c1.416-6.999,2.434-14.192,3.031-21.297
		c0.074-1.187-0.145-1.521,0.506-1.702l3.523-0.397c0.885-0.106,1.65-0.263,2.541-0.454c5.381-1.067,10.699-3.163,15.244-6.139
		c1.281-0.861,4.053-2.885,5.008-4.144c0.863-1.114,1.523-1.572,2.734-3.391c0.203-0.34,0.43-0.612,0.588-0.89
		c1.027-1.703,1.869-3.272,2.623-5.143c1.141-2.817,2.275-6.616,2.275-9.898c-0.703,0.12-2.441,0.12-3.328,0.227
		c-1.199,0.194-2.135,0.301-3.203,0.458c-2.119,0.345-4.025,0.91-5.893,1.484c-2.258,0.769-4.305,1.679-6.402,2.745
		c-1.953,1.032-3.752,2.396-5.451,3.739c-0.35,0.287-0.551,0.504-0.938,0.839c-1.414,1.138-3.322,3.501-4.324,4.864
		c-1.02,1.463-1.979,2.984-2.77,4.626l-2.123,5.252c0-2.253,0.227-4.339,0.203-6.712c0-0.73,0.119-0.96,0.119-1.592l-0.096-10.371
		c-0.023-0.574-0.105-0.909-0.105-1.641c0-2.324-0.324-4.482-0.324-6.735c1.906,0,7.035-2.145,9.146-3.043
		c1.389-0.503,2.684-1.234,4.004-1.99l2.502-1.521c0.383-0.335,0.805-0.564,1.258-0.841c1.521-1.187,3.072-2.373,4.457-3.774
		c0.361-0.349,0.564-0.635,0.938-1.029c4.002-3.956,6.916-11.279,7.371-16.948l0.182-3.932c0-0.804-0.074-1.258-0.074-1.99
		c-2.41,0.506-4.891,1.009-7.141,1.871l-3.98,1.641c-1.641,0.66-3.236,1.631-4.664,2.587l-2.168,1.526
		c-1.25,0.886-2.564,1.99-3.646,3.163c-1.041,1.187-1.77,1.918-2.721,3.167c-2.479,3.319-4.443,7.057-5.463,11.169
		c-0.178,0.8-0.613,2.277-0.613,3.057h-0.117c0-0.553-0.049-1.115-0.129-1.692c-0.096-0.564-0.125-1.066-0.207-1.703
		c-0.73-5.415-1.521-10.831-2.6-16.274l-0.971-4.612c-0.123-0.565-0.299-1.143-0.35-1.598c0.551-0.105,2.373-0.884,2.887-1.186
		c1.008-0.383,1.873-0.837,2.807-1.292c1.752-0.913,3.545-2.028,5.094-3.167l3.465-2.636c1.092-0.91,2.158-1.87,3.162-3.008
		c0.205-0.227,0.23-0.336,0.457-0.564c0.205-0.154,0.332-0.273,0.514-0.503c2.207-2.766,4.23-5.478,5.393-8.917
		c0.35-0.981,0.732-1.976,0.984-3.163c0.887-4.137,1.164-8.869,0.453-13.17c-0.117-0.458-0.324-1.19-0.324-1.692
		c-1.039,0.047-4.41,1.692-5.438,2.147c-1.809,0.909-3.367,1.748-4.914,2.813c-0.814,0.507-1.475,1.034-2.23,1.598
		c-6.986,5.186-11.65,12.764-12.992,21.571c-0.287,1.798-0.357,3.621-0.357,5.418c0,0.791,0.104,1.245,0.104,1.929
		c0-0.072-0.033-0.105-0.033-0.105l-0.023-0.075c-0.023-0.048-0.072-0.154-0.072-0.227c-1.018-3.438-1.797-6.892-2.889-10.331
		l-4.687-13.602c-0.249-0.636-0.431-1.066-0.656-1.641c-0.229-0.563-0.505-1.189-0.637-1.75c0.886-0.181,1.81-0.961,2.565-1.415
		c1.711-1.02,3.233-2.206,4.807-3.454c0.383-0.273,0.719-0.622,1.148-0.957l1.105-0.91c0.678-0.73,1.291-1.343,1.998-2.027
		c3.406-3.439,6.568-7.897,8.104-12.534c1.953-5.946,1.93-12.035,0.432-18.063c-0.324-1.139-0.732-2.099-0.986-3.163
		c-0.779,0.034-1.904,0.885-2.572,1.292c-0.867,0.503-1.607,0.96-2.41,1.521c-3.502,2.301-6.557,5.19-9.219,8.415
		c-3.475,4.353-6.507,11.016-6.842,16.552l-0.229,3.727c0,0.779,0.095,1.295,0.108,1.907c0.05,1.307,0.168,2.326,0.369,3.512
		c0.111,0.68,0.206,1.067,0.317,1.675c0.117,0.578,0.296,1.138,0.366,1.596c-0.407-0.382-0.62-1.248-0.826-1.678l-2.059-4.76
		c-1.343-3.21-4.506-9.036-6.247-12.428c-1.019-2.023-2.183-4.062-3.366-5.98c-0.358-0.683-1.798-2.817-1.93-3.391
		c0.358-0.109,0.274-0.181,0.551-0.455c2.612-2.027,5.622-5.478,7.526-8.032c1.295-1.678,2.554-3.703,3.596-5.692
		c0.862-1.583,1.641-3.345,2.207-5.023c2.348-7.009,2.122-14.021-0.613-20.838c-0.813-1.98-1.703-3.898-2.804-5.492
		c-0.337,0.119-0.239,0.119-0.538,0.349l-2.05,1.798c-0.206,0.106-0.323,0.226-0.525,0.456l-2.818,2.937
		c-0.611,0.68-1.234,1.363-1.801,2.154c-0.572,0.779-1.063,1.463-1.616,2.181c-1.653,2.435-2.864,5.037-3.956,7.803
		c-1.41,3.562-1.94,7.624-1.94,11.518c0,1.751,0.19,3.573,0.578,5.262c1.039,5.201,2.683,8.032,2.839,8.869l-12.01-17.222
		c-1.688-2.324-3.643-4.53-5.346-6.711c-0.299-0.41-0.349-0.3-0.575-0.755c0.684-0.995,2.205-2.636,3.512-4.616
		c1.703-2.55,2.337-3.617,3.652-6.328c1.753-3.499,2.842-7.01,3.517-10.856c1.147-6.773-0.675-14.011-3.994-19.656
		c-0.431-0.731-2.79-4.506-3.474-4.735c-0.527,0.384-2.937,3.44-3.213,3.822c-5.729,7.649-9.238,17.069-7.599,27.014
		c0.505,3.167,1.546,6.593,2.962,9.376c0.201,0.383,0.479,0.909,0.588,1.292l-5.78-6.146c-0.453-0.446-0.682-0.79-1.137-1.244
		l-12.238-11.582l2.866-5.19l1.773-4.229c2.529-6.329,3.979-15.27,1.571-22.436c-1.144-3.319-2.099-5.295-3.956-8.199l-4.019-4.793
		c-0.405-0.383-1.401-1.416-1.81-1.641c-0.874,1.368-1.987,3.056-2.755,4.53c-0.863,1.569-1.617,3.271-2.323,5.022
		c-1.116,2.757-1.775,5.693-2.23,8.75c-0.182,1.091-0.251,2.383-0.251,3.498c0.022,8.257,2.146,14.36,6.881,20.686
		c0.403,0.563,0.704,0.792,0.79,1.114l-14.201-10.832l-9.003-5.982c0,0,1.678-4.073,2.155-5.766
		c0.302-1.018,0.637-2.048,0.891-3.163c0.249-1.201,0.5-2.157,0.682-3.381c1.188-7.129,0.776-14.128-2.41-20.457
		c-0.89-1.798-1.917-3.511-3.138-4.961c-2.305-2.889-4.099-4.76-7.107-6.893l-1.248-0.804l-1.675,3.741
		c-0.173,0.455-0.351,0.886-0.531,1.34c-2.096,5.323-3.064,13.327-1.976,18.973c1.295,6.783,3.546,11.193,7.597,16.036l1.848,1.941
		c0.333,0.335,0.692,0.564,0.946,0.913c-0.383-0.12-3.476-1.98-3.979-2.277c-1.413-0.732-2.659-1.521-4.077-2.253
		c-0.405-0.229-0.584-0.349-0.991-0.574l-3.143-1.573c-2.62-1.354-7.802-3.952-10.629-5.095c-0.181-0.047-0.278-0.105-0.479-0.225
		c-0.793-0.335-0.707-0.11-1.342-1.115c-0.432-0.684-0.789-1.248-1.249-1.856c-4.71-6.856-11.898-12.429-19.978-14.754
		c-2.819-0.913-8.232-1.702-11.242-1.248l-2.816,0.297c-1.316,0.157-3.895,0.721-5.19,1.115l-2.431,0.793
		c1.173,2.205,4.635,6.94,6.457,8.808l1.497,1.631c1.521,1.487,3.298,2.937,4.989,4.195c4.384,3.392,9.649,5.751,15.4,6.329
		c3.919,0.383,8.126-0.119,11.242-0.851c1.701-0.407,0.861-0.517,2.205,0.047l16.612,8.076c0.657,0.411,1.316,0.732,2.024,1.067
		c0.32,0.229,3.726,2.1,3.919,2.4c-4.027-0.985-6.219-1.368-10.702-0.875c-1.632,0.191-3.43,0.646-4.841,1.101
		c-2.004,0.66-2.364,0.765-4.234,1.75c-3.066,1.522-3.846,2.301-6.208,4.11l-3.056,2.985c-0.405,0.526-1.412,1.521-2.107,2.505
		c-0.325,0.432-1.114,1.221-1.238,1.727l2.282,1.09c10.257,4.459,20.038,2.144,28.307-4.567c0.817-0.684,3.657-3.282,4.314-4.075
		c0.457-0.575,2.205-2.431,2.323-2.889l5.622,3.573c0.507,0.312,0.89,0.66,1.39,0.958l4.112,2.865
		c0.938,0.746,1.822,1.319,2.76,1.979c0.883,0.756,1.746,1.293,2.636,1.976l3.895,3.115c0.383,0.277,1.042,0.732,1.271,1.08
		c-0.768-0.07-3.802-2.051-10.896-2.252c-0.958,0-3.032,0.201-4.004,0.311c-5.536,0.804-9.946,3.067-14.253,6.353
		c-0.971,0.732-4.108,3.368-4.635,4.158c0.707,1.032,4.759,3.057,6.483,3.74c4.409,1.751,9.6,2.482,14.465,1.293
		c4.04-0.958,7.181-2.325,10.706-4.579l6.706-5.187c1.021,0.656,3.023,2.708,3.961,3.512l1.977,1.794
		c0.253,0.23,0.396,0.339,0.622,0.565l1.296,1.234c1.362,1.367,5.296,5.095,6.28,6.281l5.392,5.931
		c0.337,0.35,0.359,0.277,0.613,0.66c-0.301,0-0.613-0.311-0.89-0.54c-6.736-4.373-15.399-5.895-23.272-3.345
		c-3.751,1.176-7.062,2.77-10.225,5.023l-1.837,1.295c0.46,0.623,1.861,1.822,2.593,2.445c1.02,0.79,2.935,2.134,4.123,2.694
		l2.287,1.081c7.312,2.937,13.928,2.386,21.188-0.503c2.611-1.066,5.396-2.602,7.756-4.185c0.396-0.226,0.625-0.455,1.055-0.681
		c0.768,0.455,7.732,9.669,8.1,10.162l4.726,6.677c0.321,0.442,0.6,0.838,0.91,1.354c0.636,0.958,1.319,1.796,1.822,2.829
		c-0.254-0.072-1.297-0.91-1.63-1.139c-3.788-2.602-7.468-4.172-12.178-4.841c-4.578-0.579-8.76,0-12.714,1.172
		c-1.668,0.506-5.334,1.918-7.037,2.865c-0.299,0.229-0.611,0.421-0.957,0.455c0.115,0.649,1.029,1.488,1.388,1.942
		c1.091,1.45,3.704,3.655,5.239,4.736c6.256,4.41,13.986,5.367,21.451,3.617c3.094-0.681,6.988-1.915,9.877-3.512
		c0.096,0.349,0.563,1.032,0.766,1.367l3.285,5.694c0.132,0.286,0.227,0.516,0.36,0.741c1.845,3.286,3.258,6.223,4.961,9.614
		c0.527,0.995,0.935,2.013,1.415,3.043c0.287,0.685,1.317,2.589,1.34,3.091l-4.324-4c-2.842-2.134-5.708-3.549-9.372-4.579
		c-3.946-1.066-8.33-1.296-12.721-0.611c-1.817,0.273-2.875,0.574-4.621,1.005c-0.745,0.181-1.453,0.455-2.16,0.636
		c1.046,1.976,0.983,2.085,2.385,4.109l1.439,1.918c0.505,0.636,0.972,1.248,1.547,1.751c3.704,3.692,7.574,5.945,12.834,7.012
		c5.373,1.066,11.172,0.837,16.423-0.503c0.368-0.109,0.933-0.3,1.365-0.3l1.184,3.008c1.094,3.091,2.16,5.871,3.274,9.143
		c0.874,2.603,2.65,8.356,3.345,11.194c0.117,0.432,0.395,1.115,0.418,1.69c-0.418-0.345-0.887-1.258-1.162-1.69
		c-1.367-2.048-1.715-2.048-2.601-3.224c-0.231-0.274-0.407-0.502-0.684-0.729c-1.173-1.19-2.661-2.325-4.026-3.275
		c-3.905-2.599-7.8-3.967-12.8-4.527c-2.481-0.277-5.645-0.277-8.31,0c-0.774,0.105-1.793,0.334-2.597,0.334
		c0.022,1.593,2.071,5.259,3.057,6.89c0.79,1.415,1.75,2.711,2.864,3.846l0.742,0.889c3.942,3.846,9.132,6.281,14.609,7.189
		c3.311,0.503,7.372,0.852,10.811,0.397c0.551-0.047,1.139-0.12,1.643-0.12l1.471,6.938c0.455,2.325,0.889,4.711,1.234,7.193
		c0.158,1.115,0.338,2.326,0.541,3.617c0.254,1.68,1.285,9.529,1.293,11.291c-0.227-0.346-0.67-1.918-0.813-2.373
		c-3.043-8.186-10.151-14.515-18.589-16.839c-3.979-1.02-7.167-1.34-11.491-1.34c0.143,1.689,0.731,3.942,1.315,5.535
		c1.114,2.698,1.918,4.267,3.56,6.773c0.41,0.657,0.972,1.235,1.479,1.915c0.908,1.019,2.5,2.482,3.663,3.272
		c0.972,0.684,2.024,1.417,3.118,1.917c4.049,2.053,7.008,3.07,11.602,3.837c2.072,0.349,3.977,0.526,6.48,0.526
		c0,2.373,0.326,4.579,0.301,6.941c0,0.731,0.107,1.028,0.107,1.688l0.123,5.478c0,2.555-0.123,4.688-0.123,7.166l-0.408,7.013
		c0-0.683-0.332-1.869-0.551-2.529c-0.469-1.977-1.27-4.024-2.227-5.702c-0.232-0.407-0.361-0.732-0.59-1.139
		c-0.227-0.351-0.383-0.574-0.588-0.914c-2.047-3.439-5.512-6.603-8.917-8.626c-2.828-1.702-5.789-2.889-9.012-3.801
		c-1.845-0.456-3.735-0.657-5.391-0.995c0,2.252,0.179,4.05,0.611,6.208c0.359,1.798,0.98,3.728,1.688,5.19
		c2.339,5.19,5.826,8.688,10.645,11.625c0.357,0.229,0.754,0.454,1.139,0.635c2.323,1.187,4.777,2.326,7.295,3.091
		c1.645,0.422,3.992,1.259,5.695,1.259c-0.123,0.23-0.363,3.167-0.383,3.621c-0.529,4.913-1.162,9.539-1.979,14.333l-1.307,6.763
		c-0.152,0.574-0.229,1.197-0.383,1.724c-0.109,0.506-0.301,1.224-0.301,1.799h-0.107c0-6.113-2.457-12.874-6.351-17.235
		c-3.439-3.881-7.099-6.545-11.926-8.75l-3.378-1.234c-0.374-0.106-0.684-0.335-1.128-0.335c-0.357,0-0.469,4.052-0.519,4.615
		c-0.095,0.526,0.086,1.029,0.05,1.631c0,2.78,0.74,6.11,1.748,8.531c0.184,0.481,0.313,0.745,0.519,1.151l1.185,2.253
		c1.044,1.799,2.375,3.403,3.849,4.866c2.301,2.253,4.841,4.386,7.753,5.922c0.369,0.191,0.646,0.406,1.082,0.623
		c1.88,0.908,4,2.156,6.076,2.587l-1.789,6.568c-1.497,5.225-3.202,10.596-5.163,15.7c-0.268,0.55-0.817,2.517-1.247,3.043
		c0-1.053,0.119-1.819,0.119-2.923c0-0.575-0.119-0.767-0.119-1.392c-0.025-4.168-1.801-9.013-4.006-12.511
		c-1.185-1.822-2.5-3.502-4.051-5.081l-5.799-4.748c-0.938-0.574-4.207-2.59-5.009-2.733c-0.086,0.746-0.507,1.919-0.708,2.686
		c-1.15,4.7-0.947,10.259,0.708,14.742c1.087,2.947,3.546,6.976,5.919,9.372l3.548,3.262c0.338,0.335,0.585,0.574,0.958,0.789
		l4.028,2.805c0.335,0.238,1.927,1.152,2.228,1.224l-3.57,7.96c-0.687,1.556-1.508,3.042-2.303,4.626
		c-0.478,1.005-0.98,2.129-1.521,3.043c-0.609,1.029-1.053,2.038-1.642,3.043l-3.271,5.754c-0.143,0.19-0.023,0-0.143,0.119
		l0.733-3.717c0.704-4.89-0.136-9.874-1.981-14.332l-0.958-2.109c-1.521-2.493-3.043-4.913-5.095-6.999
		c-0.55-0.506-1.005-0.961-1.521-1.535l-4.209-3.403c-0.297-0.143-0.598-0.434-0.98-0.528c-1.547,2.974-2.828,7.17-2.984,10.596
		c-0.36,7.238,1.75,12.657,5.754,17.977c0.731,0.962,1.439,1.919,2.325,2.756l1.64,1.752c0.359,0.406,0.518,0.526,0.962,0.861
		l1.771,1.63c0.589,0.436,1.298,1.129,1.956,1.489c-0.301,0.429-0.555,0.813-0.84,1.34l-2.574,3.932
		c-1.164,1.726-2.328,3.476-3.551,5.155l-3.668,5.033c-0.682,0.909-3.199,4.53-3.881,4.96l1.066-4.507
		c0.106-0.668,0.274-1.868,0.274-2.587c0.061-4.769-0.168-7.285-1.918-11.862c-1.628-4.412-3.774-7.024-6.53-10.287
		c-0.36-0.454-2.457-2.539-2.842-2.827c-0.584,0.432-2.121,3.401-2.529,4.171c-5.226,10.496-2.255,21.236,4.651,29.987
		c0.455,0.646,2.518,3.188,3.154,3.571l-4.114,4.746c-0.202,0.167-0.345,0.334-0.503,0.526l-3.271,3.403
		c-2.278,2.609-4.889,4.936-7.262,7.288c-0.435,0.43-2.102,1.99-2.389,2.106c0.136-0.507,0.636-1.246,0.867-1.792
		c2.228-4.993,2.887-10.456,1.904-15.99c-0.494-2.879-1.497-5.804-2.636-8.105c-0.478-0.955-3.19-6.015-4.053-6.661
		c-1.726,1.15-4.735,5.442-5.706,7.476c-0.752,1.487-1.413,2.832-1.914,4.749c-0.481,1.677-0.914,3.547-0.914,5.704
		c0.024,2.759,0.12,3.5,0.532,6.141c0.654,3.98,2.61,8.533,4.585,11.979c0.398,0.671,0.852,1.369,1.214,2.108
		c-0.279,0.025-4.59,3.719-4.892,3.883c-1.642,1.348-3.285,2.592-4.963,3.912c-2.816,2.085-6.029,4.458-8.919,6.352
		c-0.383,0.24-1.087,0.814-1.41,0.908l2.18-3.328c0.685-1.177,1.257-2.307,1.775-3.673c1.234-3.036,1.818-5.75,1.913-9.204
		c0.027-0.506,0.159-0.711,0.111-1.196c-0.179-1.1-0.063-2.135-0.335-3.837c-0.48-3.542-1.644-7.427-3.235-10.594
		c-0.229-0.48-0.771-1.415-0.888-1.941c-0.494,0.169-2.387,1.751-2.842,2.154c-0.297,0.362-0.433,0.555-0.84,0.794
		c-0.479,0.383-2.731,3.118-3.08,3.598c-4.659,6.906-5.597,12.322-4.109,21.185c0.383,2.447,1.341,5.497,2.253,7.699
		c0.201,0.506,0.936,2.037,0.936,2.373c-0.374,0.048-3.786,2.208-4.446,2.537l-12.31,6.666c-0.792,0.336-7.395,3.503-8.14,3.673
		l1.63-1.422c0.302-0.234,0.455-0.451,0.757-0.671c1.043-0.813,2.816-2.968,3.549-4.075c5.598-7.904,6.21-17.04,3.545-26.408
		c-0.177-0.767-0.489-1.826-0.74-2.401c-0.731,0.403-1.488,0.671-2.147,1.156c-2.312,1.456-3.704,2.586-5.622,4.499
		c-0.559,0.555-1.039,1.13-1.568,1.778l-2.05,2.844c-1.592,2.669-2.538,5.594-3.043,8.713c-0.684,4.115-0.482,8.356,0.179,12.431
		c0.157,0.985,0.349,1.874,0.598,2.763l0.771,2.654l-15.547,5.634c-1.09,0.341-2.11,0.671-3.199,1.04
		c-0.623,0.164-6.054,1.792-6.675,1.792c0.12-0.049-0.014,0.066,0.167-0.124c0.154-0.115,0.154-0.115,0.273-0.164l2.951-2.086
		c2.432-1.895,5.138-5.299,6.578-8.076c0.357-0.67,0.612-1.298,0.962-2.085c2.085-4.384,2.43-8.8,2.454-13.566
		c0-1.176-0.505-5.922-0.837-6.544c-1.872,0.096-6.808,3.062-8.68,4.602c-0.587,0.479-2.18,1.772-2.61,2.304
		c-3.957,4.5-5.742,8.124-6.856,14.812c-0.457,2.736-0.382,4.938-0.382,7.886l0.226,3.043c0.024,0.451,0.156,0.956,0.156,1.489
		c-6.186,1.436-12.466,2.682-18.625,4.287c-6.403,1.561-11.795,3.043-18.146,4.892l-10.09,3.241
		c-0.351,0.095-1.186,0.498-1.487,0.498l-8.667-2.756c-0.98-0.342-1.891-0.67-2.91-0.983c-4.147-1.122-7.623-2.183-11.995-3.331
		l-21.755-5.137c-1.018-0.287-2.05-0.498-3.094-0.711c0-0.533,0.133-1.038,0.182-1.489c0.32-2.709,0.407-6.662,0.048-9.368
		c-0.455-3.557-1.019-5.997-2.339-9.186c-0.876-1.989-2.455-4.82-3.895-6.229c-0.526-0.574-0.98-1.204-1.593-1.71l-1.822-1.505
		c-1.426-1.147-3.392-2.393-5.048-3.213c-0.75-0.431-3.028-1.388-3.691-1.436c-0.274,0.574-0.682,4.117-0.706,5.08
		c-0.046,0.575-0.107,0.745-0.107,1.348c0,2.556,0,4.403,0.431,6.898c0.505,2.92,1.572,6.326,2.938,8.823
		c0.815,1.456,1.198,2.03,2.29,3.493l2.024,2.421c1.99,1.996,2.854,2.666,5.214,4.245l0.479,0.337
		c-1.388-0.124-11.266-3.256-13.013-3.831c-2.209-0.772-4.162-1.462-6.285-2.256l-4.564-1.817c-0.456-0.173-1.029-0.438-1.559-0.562
		c0.167-0.355,0.276-0.902,0.396-1.265c0.134-0.432,0.25-0.766,0.36-1.348c1.186-4.624,1.621-10.354,0.813-15.045
		c-0.286-2.112-0.741-3.651-1.374-5.402c-1.342-3.665-3.418-6.207-6.103-8.917c-1.066-1.119-3.415-2.899-4.708-3.664
		c-0.383-0.219-0.683-0.411-1.066-0.622c-0.431-0.238-0.779-0.336-1.162-0.575c-0.841,1.826-2.124,7.646-2.209,9.828l-0.096,2.926
		c0,1.024,0,1.941,0.157,2.899c0.623,5.081,1.765,8.083,4.253,12.151c0.938,1.538,2.196,3.042,3.393,4.218
		c0.938,0.959,0.913,0.959,1.921,1.874l1.27,1.081l-9.625-4.459l-9.286-4.991c-0.923-0.506-5.6-3.378-5.983-3.426
		c0.048-0.336,0.755-1.867,0.961-2.373c0.933-2.324,0.957-2.66,1.651-4.984c1.306-4.384,1.535-10.334,0.66-14.793
		c-0.694-3.623-2.23-6.209-4.182-9.106c-0.311-0.432-2.588-3.215-3.043-3.598c-0.684-0.573-2.984-2.73-3.716-2.948l-1.75,3.865
		c-1.22,2.804-2.612,8.144-2.612,11.119v2.584c0,4.458,1.618,9.327,3.68,12.828c0.396,0.621,0.731,1.122,1.114,1.697l1.115,1.68
		c-0.479-0.163-4.818-3.254-5.272-3.54l-3.778-2.763c-0.478-0.356-0.861-0.698-1.292-0.957c-3.536-2.661-5.994-4.774-9.218-7.317
		c-0.3-0.262-0.3-0.385-0.646-0.478c0.372-0.69,0.755-1.314,1.186-2.013c0.636-1.1,1.163-2.201,1.689-3.254l1.498-3.501
		c1.932-5.375,2.687-11.508,1.066-17.165c-0.957-3.262-2.478-6.112-4.458-8.772c-0.684-0.938-2.326-2.879-3.187-3.452
		c-0.841,0.646-3.597,5.706-4.076,6.661c-3.319,6.665-4.037,15.199-1.401,22.27c0.66,1.826,0.813,2.154,1.655,3.713
		c-0.612-0.136-9.051-8.67-9.099-8.747l-8.004-8.796c-0.181-0.239-0.372-0.334-0.529-0.622c0.348-0.238,0.588-0.457,0.865-0.794
		l0.779-0.908c1.45-1.511,3.043-3.957,4.206-5.682c0.226-0.336,0.407-0.695,0.612-1.08l1.665-3.285
		c1.067-2.49,1.881-5.2,2.206-7.908c0.564-4.218-0.325-8.82-1.953-12.656c-0.182-0.455-0.349-0.719-0.506-1.148
		c-0.321-0.771-1.292-2.473-1.771-3.19c-0.253-0.406-0.53-0.694-0.684-1.077c-1.258,0.671-4.639,4.746-5.419,5.799
		c-3.234,4.243-6.028,10.597-5.979,16.396c0,0.958-0.049,1.872-0.049,2.781c0.049,0.789,0.206,1.772,0.302,2.54l0.765,3.356
		c0.096,0.337,0.277,0.768,0.301,1.197c-0.554-0.383-1.498-1.822-1.979-2.42c-0.321-0.455-0.623-0.837-0.934-1.171l-4.602-6.33
		c-2.482-3.405-4.664-6.999-7-10.499c1.378-0.814,2.493-2.11,3.727-3.068c2.384-1.799,6.101-6.664,7.55-9.495
		c1.692-3.21,3.142-6.807,3.118-10.619c0-0.694,0.144-0.886,0.12-1.556c-0.095-2.396-0.506-5.105-1.186-7.409
		c-0.483-1.748-1.114-3.33-1.933-4.913c-0.37,0.095-0.608,0.312-0.885,0.528c-0.349,0.24-0.575,0.432-0.913,0.672
		c-2.298,1.727-4.479,3.645-6.277,5.846l-1.32,1.632c-2.852,3.859-4.674,8.246-5.344,12.992c-0.325,2.492-0.3,5.897,0.202,8.438
		c0.134,0.838,0.469,1.68,0.541,2.517c-0.335-0.311-0.588-0.885-0.886-1.344c-0.276-0.55-0.53-0.933-0.817-1.459l-2.455-4.507
		c-0.732-1.2-1.716-3.285-2.4-4.602c-0.718-1.511-1.545-2.975-2.229-4.554l-2.264-4.87c-0.479-1.077-0.852-2.133-1.417-3.21
		c1.417-0.312,6.281-4.028,7.577-5.034c1.139-0.912,2.072-1.941,3.043-2.95c0.851-0.765,1.641-1.821,2.373-2.826
		c2.66-3.475,4.436-7.431,4.985-12.008c0.387-3.574,0-7.119-0.886-10.62c-0.12-0.526-0.373-0.957-0.393-1.44
		c-1.295,0.36-4.543,2.445-5.801,3.311c-1.775,1.125-3.368,2.588-4.89,4.075c-1.09,1.053-1.908,2.015-2.841,3.259
		c-2.708,3.598-4.602,8.247-5.19,12.992c-0.369,2.923-0.144,3.402-0.144,5.751c-0.287-0.455-0.43-0.958-0.588-1.484
		c-0.202-0.479-0.407-0.96-0.561-1.438c-0.396-1.078-0.807-2.062-1.143-3.067c-1.941-5.945-3.282-9.661-4.984-15.987
		c-0.273-0.937-0.526-2.469-0.909-3.334c1.187-0.287,2.587-0.909,3.665-1.391c1.152-0.647,2.291-1.102,3.405-1.771
		c2.756-1.632,3.717-2.421,6.052-4.243l3.44-3.478c0.3-0.335,0.505-0.622,0.755-0.981c1.856-2.469,3.115-4.961,4.003-8.127
		c0.958-3.401,1.32-8.567,0.456-12.26c-0.66,0.3-3.234,1.065-4.531,1.641c-1.521,0.722-2.817,1.367-4.157,2.157
		c-1.99,1.224-3.789,2.52-5.372,4.051c-0.321,0.335-0.574,0.455-0.872,0.794l-2.181,2.564c-0.458,0.599-0.888,1.173-1.295,1.866
		c-0.791,1.297-1.57,2.592-2.206,4.028c-1.187,2.831-2.205,6.567-2.205,10.524h-0.12c0-0.575-0.205-1.226-0.311-1.704
		c-1.559-6.664-2.961-16.154-3.644-22.805c-0.024-0.458-0.278-3.5-0.384-3.73c2.229,0,8.486-2.095,10.569-3.163l2.304-1.139
		c1.088-0.501,2.144-1.186,3.163-1.904l2-1.486c2.938-2.362,5.262-5.419,6.715-8.845c0.369-0.876,0.656-1.594,0.981-2.444
		c0.277-0.914,0.502-1.81,0.732-2.698c0.469-2.048,0.612-3.847,0.612-6.328c-0.842,0.157-1.774,0.229-2.688,0.453
		c-1.737,0.315-3.464,0.723-5.105,1.226c-1.521,0.573-3.019,1.258-4.482,1.941c-1.703,0.886-3.367,1.833-4.865,3.043
		c-4.506,3.706-8.161,8.69-9.6,14.456c-0.182,0.683-0.551,1.856-0.551,2.587h-0.11c0-1.798-0.153-3.391-0.177-5.189
		c0-0.563-0.124-0.957-0.124-1.703c0-2.478-0.105-4.731-0.105-7.286l0.611-14.106c8.76,0,16.022-2.612,21.116-6.281l1.392-1.138
		c0.23-0.154,0.263-0.154,0.49-0.384l3.944-4.578c1.188-1.857,2-3.775,2.818-5.823c0.502-1.296,1.257-3.932,1.363-5.573
		c-4.099,0-7.621,0.321-11.396,1.34c-8.486,2.482-15.221,8.256-18.542,16.541c-0.167,0.417-0.253,0.753-0.43,1.139l-0.436,1.187
		c0-1.449,0.518-5.802,0.746-7.552c0.551-4.421,1.388-9.946,2.253-14.251l1.46-6.89l3.07,0.226c2.482,0.348,7.008-0.106,9.324-0.503
		c7.083-1.172,12.763-4.339,16.911-9.897c0.479-0.54,0.913-1.224,1.32-1.908c1.005-1.474,3.054-5.716,3.114-7.009
		c-1.176,0-3.295-0.564-5.224-0.506c-3.919,0-6.736,0-10.524,1.082c-4.77,1.402-8.257,3.5-11.912,6.817
		c-0.348,0.301-0.431,0.458-0.685,0.756l-3.846,4.961c0.024-0.91,2.431-8.579,2.766-9.717c0.277-1.139,0.674-2.099,1.009-3.167
		c0.358-1.066,0.684-2.023,1.043-3.043c0.204-0.574,0.348-1.033,0.549-1.592l1.68-4.507c0.191-0.563,0.369-0.96,0.598-1.477
		c0.181-0.432,0.455-1.115,0.564-1.532c0.657,0,1.87,0.417,2.636,0.574c3.285,0.613,5.44,0.841,9.084,0.841
		c4.206,0,8.08-0.889,11.084-2.133c2.903-1.19,5.574-3.286,7.755-5.42l1.596-1.75c0.766-0.957,1.402-1.76,2.072-2.889
		c0.205-0.345,0.434-0.68,0.66-1.005l1.09-2.205c-1.162-0.301-2.577-0.804-4.325-1.187c-7.734-1.822-16.432-0.684-22.846,3.549
		l-2.384,1.747c-0.852,0.731-2.229,1.918-2.902,2.711c-0.227,0.297-0.441,0.574-0.718,0.728c0.083-1.063,6.076-12.644,6.482-13.495
		l5.669-10.055c0.386,0.229,0.697,0.349,1.114,0.53c3.2,1.412,4.952,2.071,8.643,2.981c7.646,1.703,15.065,0.913,21.5-3.56
		c1.439-0.947,2.362-1.809,3.572-2.996c0.866-0.837,2.914-2.828,3.115-3.74c-0.355-0.034-0.584-0.225-0.909-0.383
		c-0.335-0.154-0.608-0.335-0.948-0.502c-0.623-0.335-1.364-0.685-1.99-0.911c-4.684-1.931-8.53-2.998-14.189-2.926
		c-0.574,0-0.684,0.109-1.258,0.109c-1.042,0-2.77,0.345-3.774,0.575c-2.985,0.66-5.646,1.785-8.151,3.272l-2.588,1.798
		c-0.277,0.154-0.455,0.456-0.841,0.565l3.645-5.42c1.679-2.493,3.98-5.658,5.778-8.031l2.072-2.661
		c0.697-0.837,1.296-1.627,2.024-2.527l1.525-1.859c0.263-0.298,0.311-0.408,0.636-0.633l1.976,1.365
		c3.692,2.314,7.621,4.004,11.95,5.069c1.544,0.456,4.362,0.863,5.98,0.911c2.984,0.109,6.124-0.455,8.711-1.46
		c3.802-1.368,5.553-2.616,8.653-5.023c0.339-0.301,1.406-1.258,1.727-1.713c-1.727-1.176-3.569-2.636-5.525-3.548
		c-0.444-0.229-0.66-0.455-1.032-0.564l-3.163-1.413c-8.257-3.237-17.15-2.554-24.569,1.977c-0.373,0.229-0.599,0.349-0.958,0.575
		c-0.311,0.229-0.708,0.54-0.96,0.54c0.732-1.067,3.237-3.477,4.123-4.506l8.055-8.258c0.274-0.311,0.359-0.311,0.637-0.611
		l3.895-3.668c0.296-0.226,0.43-0.288,0.68-0.561c0.315-0.277,0.363-0.349,0.684-0.578c0.506-0.455,1.272-1.221,2.027-1.795
		c0.685,0.455,1.162,1.005,1.822,1.569c1.929,1.593,2.684,2.216,4.842,3.617l1.114,0.684c0.383,0.229,0.656,0.348,1.066,0.578
		l3.417,1.675c7.286,3.166,14.992,2.831,21.933-0.684c0.861-0.455,3.798-2.134,4.191-2.708c-0.272-0.383-0.981-1.019-1.411-1.45
		c-0.277-0.226-0.455-0.455-0.756-0.683c-0.311-0.226-0.43-0.456-0.741-0.685c-3.536-2.934-6.702-4.851-11.065-6.482
		c-1.641-0.637-5.368-1.417-7.262-1.417c-3.416,0-4.756-0.105-8.08,0.732l-3.344,1.067c-0.288,0.119-0.742,0.348-1.162,0.348
		c0.66-0.957,10.537-8.041,12.5-9.49c1.835-1.296,4.411-2.938,6.318-4.233c0.981-0.636,1.966-1.187,2.899-1.822
		c0.061,0.338,0.061,0.229,0.287,0.516c2.554,3.166,4.964,5.467,8.223,7.85c0.685,0.503,1.378,0.96,2.063,1.354
		c1.51,0.841,2.912,1.63,4.553,2.315c6.555,2.602,13.147,2.252,19.776-0.455l2.312-1.139c-0.226-0.769-2.66-3.368-3.22-4.113
		l-2.257-2.325c-0.551-0.431-1.02-0.886-1.57-1.34c-0.584-0.41-1.09-0.804-1.699-1.248c-3.596-2.602-8.378-4.578-12.838-5.152
		c-4.277-0.493-6.833-0.11-10.788,0.875c0.315-0.457,5.118-2.937,5.802-3.391c0.359-0.229,0.637-0.349,1.043-0.53l2.961-1.641
		c0.73-0.335,1.339-0.612,2.095-0.995l10.486-4.913c1.415-0.636,0.793-0.526,2.278-0.181c11.519,2.664,19.86,0.229,28.764-7.009
		c1.345-1.008,2.387-2.075,3.599-3.286l2.229-2.468c1.88-2.479,3.571-4.397,5.095-7.286l-2.351-0.732
		c-1.822-0.564-3.199-0.861-5.093-1.138c-0.526-0.106-0.842-0.155-1.393-0.229c-3.678-0.335-3.87-0.265-7.597,0
		c-3.907,0.348-8.463,1.941-11.878,3.849c-2.458,1.364-5.419,3.282-7.372,5.259c-0.564,0.563-1.09,0.96-1.641,1.525
		c-0.31,0.335-0.43,0.56-0.77,0.837l-5.438,7.061l-5.416,2.503c-0.743,0.382-1.417,0.66-2.183,0.995l-16.408,8.834l1.799-1.822
		c0.226-0.23,0.226-0.23,0.407-0.455c1.115-1.344,1.569-1.569,2.851-3.512c1.546-2.363,2.794-4.458,3.751-7.204
		c0.66-1.823,1.225-3.621,1.593-5.789c0.66-4.158,0.541-9.373-0.345-13.304c-0.79-3.286-1.703-6.438-3.2-9.563
		c-0.215-0.492-0.421-0.721-0.526-1.296c-0.434,0.12-2.004,1.258-2.373,1.569l-1.679,1.367c-1.665,1.594-2.985,2.829-4.387,4.685
		c-2.324,3.01-4.506,6.941-5.333,10.787c-1.019,4.807-1.115,9.495-0.288,14.586c0.383,2.41,0.947,4.386,1.545,6.558
		c0.431,1.411,2.229,5.871,2.229,5.871l-6.028,3.955c-2.879,1.846-5.947,4.161-8.711,6.209l-4.248,3.286
		C147.679,102.149,144.383,104.882,144.106,104.987z"/>
</g>
</svg>
