<?xml version="1.0" encoding="UTF-8"?>
<!DOCTYPE svg PUBLIC "-//W3C//DTD SVG 1.1//EN" "http://www.w3.org/Graphics/SVG/1.1/DTD/svg11.dtd">
<!-- Creator: CorelDRAW -->
<svg xmlns="http://www.w3.org/2000/svg" xml:space="preserve" width="45.7792mm" height="26.28mm" version="1.1" style="shape-rendering:geometricPrecision; text-rendering:geometricPrecision; image-rendering:optimizeQuality; fill-rule:evenodd; clip-rule:evenodd"
viewBox="0 0 229.37 131.67"
 xmlns:xlink="http://www.w3.org/1999/xlink"
 xmlns:xodm="http://www.corel.com/coreldraw/odm/2003">
 <defs>
  <style type="text/css">
   <![CDATA[
    .fil51 {fill:black}
    .fil0 {fill:#010101}
    .fil7 {fill:#020202}
    .fil12 {fill:#030303}
    .fil8 {fill:#040404}
    .fil17 {fill:#050505}
    .fil67 {fill:#060606}
    .fil36 {fill:#070707}
    .fil68 {fill:#080808}
    .fil70 {fill:#0C0C0C}
    .fil83 {fill:#3D3D3D}
    .fil76 {fill:#3F3F3F}
    .fil101 {fill:#414141}
    .fil97 {fill:#444444}
    .fil91 {fill:#4F4F4F}
    .fil77 {fill:#505050}
    .fil80 {fill:#515151}
    .fil6 {fill:#525252}
    .fil18 {fill:#535353}
    .fil9 {fill:#545454}
    .fil94 {fill:#565656}
    .fil103 {fill:#575757}
    .fil38 {fill:#585858}
    .fil92 {fill:#5D5D5D}
    .fil82 {fill:#5E5E5E}
    .fil95 {fill:#606060}
    .fil93 {fill:#616161}
    .fil98 {fill:#626262}
    .fil47 {fill:#646464}
    .fil79 {fill:#686868}
    .fil25 {fill:dimgray}
    .fil55 {fill:#6B6B6B}
    .fil84 {fill:#6C6C6C}
    .fil30 {fill:#747474}
    .fil81 {fill:#757575}
    .fil44 {fill:#787878}
    .fil19 {fill:#797979}
    .fil56 {fill:#7A7A7A}
    .fil99 {fill:#7C7C7C}
    .fil65 {fill:#7F7F7F}
    .fil22 {fill:gray}
    .fil23 {fill:#878787}
    .fil75 {fill:#888888}
    .fil26 {fill:#8A8A8A}
    .fil88 {fill:#8B8B8B}
    .fil90 {fill:#8C8C8C}
    .fil21 {fill:#8D8D8D}
    .fil2 {fill:#8E8E8E}
    .fil16 {fill:#8F8F8F}
    .fil20 {fill:#909090}
    .fil3 {fill:#919191}
    .fil53 {fill:#929292}
    .fil50 {fill:#939393}
    .fil43 {fill:#949494}
    .fil49 {fill:#959595}
    .fil102 {fill:#969696}
    .fil4 {fill:#979797}
    .fil13 {fill:#989898}
    .fil86 {fill:#999999}
    .fil32 {fill:#9A9A9A}
    .fil39 {fill:#9B9B9B}
    .fil29 {fill:#9C9C9C}
    .fil64 {fill:#9D9D9D}
    .fil31 {fill:#9E9E9E}
    .fil28 {fill:#A0A0A0}
    .fil59 {fill:#A1A1A1}
    .fil52 {fill:#A2A2A2}
    .fil48 {fill:#A3A3A3}
    .fil40 {fill:#A5A5A5}
    .fil58 {fill:#A6A6A6}
    .fil37 {fill:#A7A7A7}
    .fil46 {fill:#A8A8A8}
    .fil11 {fill:darkgray}
    .fil72 {fill:#AAAAAA}
    .fil15 {fill:#ABABAB}
    .fil71 {fill:#ADADAD}
    .fil10 {fill:#AFAFAF}
    .fil41 {fill:#B0B0B0}
    .fil45 {fill:#B1B1B1}
    .fil34 {fill:#B2B2B2}
    .fil54 {fill:#B3B3B3}
    .fil33 {fill:#B4B4B4}
    .fil5 {fill:#B5B5B5}
    .fil35 {fill:#B6B6B6}
    .fil14 {fill:#B7B7B7}
    .fil87 {fill:#B9B9B9}
    .fil74 {fill:#BDBDBD}
    .fil85 {fill:#BEBEBE}
    .fil73 {fill:#BFBFBF}
    .fil42 {fill:#C4C4C4}
    .fil57 {fill:#C5C5C5}
    .fil69 {fill:#C7C7C7}
    .fil100 {fill:#C9C9C9}
    .fil24 {fill:#ECECEC}
    .fil96 {fill:#EDEDED}
    .fil89 {fill:#F1F1F1}
    .fil78 {fill:#F2F2F2}
    .fil61 {fill:#F3F3F3}
    .fil27 {fill:#F4F4F4}
    .fil62 {fill:whitesmoke}
    .fil60 {fill:#F6F6F6}
    .fil66 {fill:#F7F7F7}
    .fil1 {fill:#F8F8F8}
    .fil63 {fill:#F9F9F9}
   ]]>
  </style>
 </defs>
 <g id="Layer_x0020_1">
  <metadata id="CorelCorpID_0Corel-Layer"/>
  <g id="_1718324093520">
   <g>
    <path class="fil0" d="M196.07 0c4.77,-0.02 9.54,0.1 14.3,0.36 2.53,0.14 5.04,0.4 7.54,0.8 8.02,1.29 11.17,5.91 9.44,13.86 -0.8,2.86 -2.61,4.73 -5.43,5.63 -1.18,0.37 -2.39,0.65 -3.62,0.82 -1.06,0.15 -2.13,0.29 -3.19,0.43 -0.13,0.12 -0.24,0.25 -0.31,0.41 -1.32,2.51 -2.72,4.98 -4.2,7.39 -0.17,0.23 -0.35,0.45 -0.56,0.65 -0.33,0.17 -0.66,0.16 -0.97,-0.05 -0.17,-0.19 -0.32,-0.39 -0.46,-0.6 -0.89,-1.79 -1.76,-3.6 -2.61,-5.41 -0.31,-0.58 -0.66,-1.13 -1.06,-1.64 -0.37,-0.37 -0.82,-0.62 -1.33,-0.75 -1.53,-0.41 -3.08,-0.6 -4.66,-0.56 -3.57,0.13 -7.13,0.23 -10.7,0.29 -2,0.02 -4,-0.08 -5.99,-0.31 -1.56,-0.19 -3.02,-0.66 -4.4,-1.4 -1.85,-1.16 -2.95,-2.83 -3.31,-5 -0.47,-3.3 0.01,-6.46 1.45,-9.47 1.23,-2.12 3.05,-3.5 5.43,-4.13 2.27,-0.56 4.57,-0.9 6.91,-1.01 2.58,-0.16 5.16,-0.27 7.73,-0.31z"/>
   </g>
   <g>
    <path class="fil1" d="M215.44 2.18c0.18,0.05 0.38,0.08 0.58,0.1 1.68,0.2 3.32,0.56 4.93,1.09 1.42,0.49 2.63,1.28 3.65,2.39 1.01,1.3 1.57,2.79 1.69,4.44 0.12,1.66 -0.05,3.29 -0.53,4.88 -0.41,1.19 -1.1,2.2 -2.05,3.02 -1.02,0.68 -2.13,1.16 -3.33,1.45 -1.72,0.39 -3.46,0.66 -5.22,0.82 -0.73,0.1 -1.25,0.48 -1.57,1.14 -1.21,2.39 -2.37,4.8 -3.48,7.25 -0.16,0.24 -0.33,0.46 -0.51,0.68 -0.29,-0.56 -0.56,-1.12 -0.8,-1.69 -0.59,-1.64 -1.27,-3.25 -2.03,-4.83 -0.35,-0.69 -0.82,-1.28 -1.43,-1.76 -0.86,-0.47 -1.78,-0.79 -2.75,-0.94 -0.27,-0.1 -0.56,-0.15 -0.87,-0.15 -0.21,0 -0.42,-0.01 -0.63,-0.05 -0.44,-0.08 -0.89,-0.12 -1.35,-0.12 -0.99,-0.04 -1.97,-0.03 -2.95,0.02 -3.91,0.22 -7.82,0.29 -11.74,0.22 -0.67,-0.03 -1.33,-0.09 -1.98,-0.17 -0.23,-0.07 -0.47,-0.1 -0.72,-0.1 -0.2,-0.08 -0.41,-0.11 -0.63,-0.1 -3.71,-0.55 -5.69,-2.69 -5.92,-6.42 -0.05,-0.86 -0.02,-1.71 0.07,-2.56 0.07,-0.2 0.11,-0.41 0.1,-0.63 0.48,-4.6 3.01,-7.23 7.58,-7.87 0.35,-0.01 0.69,-0.08 1.01,-0.19 0.02,0 0.03,0 0.05,0 0.25,0 0.49,-0.03 0.72,-0.1 0.62,-0.11 1.25,-0.18 1.88,-0.19 0.27,0.01 0.53,-0.03 0.77,-0.1 0.53,-0.02 1.06,-0.05 1.59,-0.1 0.6,0 1.2,-0.03 1.79,-0.1 6.83,-0.27 13.66,-0.16 20.48,0.31 1.19,0.13 2.38,0.25 3.57,0.36z"/>
   </g>
   <g>
    <path class="fil2" d="M191.38 1.5c-0.59,0.07 -1.18,0.1 -1.79,0.1 0.59,-0.07 1.18,-0.1 1.79,-0.1z"/>
   </g>
   <g>
    <path class="fil3" d="M188 1.69c-0.25,0.07 -0.5,0.1 -0.77,0.1 0.25,-0.06 0.5,-0.1 0.77,-0.1z"/>
   </g>
   <g>
    <path class="fil4" d="M185.34 1.98c-0.23,0.07 -0.47,0.1 -0.72,0.1 0.23,-0.07 0.47,-0.1 0.72,-0.1z"/>
   </g>
   <g>
    <path class="fil5" d="M184.57 2.08c-0.32,0.12 -0.66,0.18 -1.01,0.19 0.33,-0.1 0.66,-0.16 1.01,-0.19z"/>
   </g>
   <g>
    <path class="fil6" d="M215.44 2.18c0.21,-0.02 0.4,0.01 0.58,0.1 -0.2,-0.02 -0.4,-0.05 -0.58,-0.1z"/>
   </g>
   <g>
    <path class="fil7" d="M204.09 6.04c-0.84,-0.01 -1.67,0 -2.51,0.02 -0.39,0.03 -0.78,0.07 -1.16,0.12 -0.08,0 -0.16,0 -0.24,0 0,0.39 0,0.77 0,1.16 -0.05,0.36 -0.08,0.73 -0.1,1.11 -0.04,0.24 -0.06,0.48 -0.05,0.72 -0.07,0.3 -0.1,0.6 -0.1,0.92 -0.06,0.25 -0.1,0.5 -0.1,0.77 -0.06,0.79 -0.14,1.58 -0.24,2.37 -0.07,0.23 -0.1,0.47 -0.1,0.72 0.01,0.2 -0.01,0.39 -0.05,0.58 -0.08,0.47 -0.15,0.96 -0.22,1.45 -0.06,0.11 -0.1,0.22 -0.12,0.34 -0.08,0.07 -0.14,0.15 -0.19,0.24 -0.28,0.18 -0.59,0.23 -0.92,0.14 -0.18,-0.09 -0.32,-0.22 -0.43,-0.39 -0.03,-0.14 -0.08,-0.27 -0.15,-0.39 0,-0.35 0,-0.71 0,-1.06 0.07,-0.39 0.1,-0.79 0.1,-1.21 0.08,-0.29 0.11,-0.6 0.1,-0.92 0.05,-0.2 0.08,-0.41 0.1,-0.63 -0.02,-0.14 0,-0.27 0.05,-0.39 0.05,-0.18 0.09,-0.38 0.1,-0.58 0,-0.05 0,-0.1 0,-0.14 0.12,-0.49 0.2,-0.99 0.24,-1.5 0.09,-0.38 0.15,-0.77 0.19,-1.16 0.07,-0.1 0.1,-0.21 0.1,-0.34 0.05,-0.47 0.14,-0.94 0.24,-1.4 0.05,-0.08 0.06,-0.18 0.05,-0.29 -0.28,-0 -0.56,0.03 -0.82,0.1 -0.05,0 -0.1,0 -0.14,0 -0.62,0.03 -1.23,0.08 -1.84,0.14 -0.02,0 -0.03,0 -0.05,0 -0.43,0.03 -0.87,0.05 -1.3,0.05 -0.45,-0.04 -0.64,-0.28 -0.56,-0.72 0.08,-0.1 0.19,-0.17 0.31,-0.22 1.67,-0.41 3.36,-0.71 5.07,-0.89 0.2,-0.01 0.4,-0.04 0.58,-0.1 1.44,-0.22 2.89,-0.29 4.35,-0.22 0.74,0.28 0.87,0.73 0.39,1.35 -0.19,0.1 -0.38,0.17 -0.58,0.22z"/>
   </g>
   <g>
    <path class="fil8" d="M183.9 6.43c-0.2,-0.2 -0.29,-0.44 -0.24,-0.72 0.17,-0.45 0.42,-0.85 0.77,-1.18 0.27,-0.08 0.49,-0 0.65,0.22 0.06,0.52 -0.02,1.02 -0.24,1.5 -0.27,0.3 -0.59,0.36 -0.94,0.19z"/>
   </g>
   <g>
    <path class="fil9" d="M199.93 4.69c-0.18,0.05 -0.38,0.09 -0.58,0.1 0.18,-0.08 0.37,-0.11 0.58,-0.1z"/>
   </g>
   <g>
    <path class="fil8" d="M219.83 7.39c-0.05,0.41 -0.08,0.83 -0.1,1.26 -0.03,0.24 -0.05,0.48 -0.05,0.72 -0.07,0.23 -0.1,0.47 -0.1,0.72 -0.07,0.23 -0.1,0.47 -0.1,0.72 0,0.02 0,0.03 0,0.05 -0.07,0.25 -0.1,0.5 -0.1,0.77 -0.07,0.28 -0.1,0.57 -0.1,0.87 0,0.02 0,0.03 0,0.05 -0.08,0.32 -0.1,0.64 -0.05,0.97 0.35,0.41 0.3,0.78 -0.14,1.11 0.01,0.36 -0.11,0.67 -0.34,0.94 -0.51,0.25 -0.84,0.1 -0.99,-0.46 -0.02,-0.14 -0.03,-0.29 -0.02,-0.43 -1.25,0.07 -2.25,-0.39 -3.02,-1.35 -0.65,-1.03 -0.6,-2.03 0.14,-2.99 0.35,-0.46 0.81,-0.75 1.38,-0.87 0.6,0.14 1.07,0.46 1.42,0.97 0.19,0.27 0.35,0.56 0.48,0.87 0.12,-0.81 0.29,-1.62 0.48,-2.41 0.13,-1.29 0.34,-2.56 0.63,-3.82 0.03,-0.15 0.09,-0.29 0.17,-0.41 0.2,-0.06 0.34,0.02 0.41,0.22 0.03,0.84 0.02,1.67 -0.02,2.51z"/>
   </g>
   <g>
    <path class="fil10" d="M183.65 5.7c-0.04,0.29 0.04,0.53 0.24,0.72 -0.13,-0.04 -0.21,-0.12 -0.27,-0.24 -0.04,-0.17 -0.03,-0.33 0.02,-0.48z"/>
   </g>
   <g>
    <path class="fil11" d="M204.09 6.04c-1.22,0.04 -2.44,0.09 -3.67,0.15 0.38,-0.05 0.76,-0.09 1.16,-0.12 0.84,-0.02 1.67,-0.03 2.51,-0.02z"/>
   </g>
   <g>
    <path class="fil12" d="M182.54 6.77c0,0.42 -0.03,0.84 -0.1,1.26 -0.06,0.2 -0.09,0.41 -0.1,0.63 -0.07,0.16 -0.1,0.34 -0.1,0.53 -0.09,0.31 -0.16,0.63 -0.19,0.97 -0.06,0.2 -0.1,0.41 -0.14,0.63 -0.25,0.88 -0.46,1.76 -0.63,2.66 -0.1,0.26 -0.15,0.53 -0.14,0.82 -0.02,0.16 -0.07,0.3 -0.14,0.43 -0.1,0.06 -0.18,0.14 -0.24,0.24 -0.31,0.19 -0.61,0.19 -0.92,0 -0.06,-0.1 -0.14,-0.18 -0.24,-0.24 -0.06,-0.12 -0.09,-0.25 -0.1,-0.39 -0.01,-0.31 0.02,-0.62 0.1,-0.92 0.11,-0.49 0.23,-0.97 0.36,-1.45 0.54,-1.75 1.09,-3.51 1.64,-5.26 0.18,-0.35 0.43,-0.42 0.75,-0.22 0.11,0.08 0.17,0.18 0.19,0.31z"/>
   </g>
   <g>
    <path class="fil13" d="M198.63 6.62c0,-0.08 0,-0.16 0,-0.24 -0.26,0.03 -0.51,0.05 -0.77,0.05 0.26,-0.07 0.54,-0.1 0.82,-0.1 0.01,0.11 -0,0.2 -0.05,0.29z"/>
   </g>
   <g>
    <path class="fil14" d="M197.71 6.43c-0.04,0.04 -0.09,0.06 -0.14,0.07 -0.56,0.04 -1.13,0.06 -1.69,0.07 0.6,-0.06 1.22,-0.11 1.84,-0.14z"/>
   </g>
   <g>
    <path class="fil15" d="M195.83 6.57c-0.25,0.07 -0.5,0.11 -0.77,0.1 -0.19,0 -0.36,-0.02 -0.53,-0.05 0.44,0 0.87,-0.01 1.3,-0.05z"/>
   </g>
   <g>
    <path class="fil16" d="M182.54 6.77c0.07,0.43 0.04,0.84 -0.1,1.26 0.07,-0.42 0.1,-0.83 0.1,-1.26z"/>
   </g>
   <g>
    <path class="fil12" d="M191.29 9.18c0.01,1.59 0,3.19 -0.02,4.78 -0.03,0.1 -0.06,0.19 -0.1,0.29 -0.08,0.07 -0.15,0.15 -0.22,0.24 -0.02,0 -0.03,0 -0.05,0 -0.19,0.06 -0.39,0.06 -0.58,0 -0.13,-0.09 -0.23,-0.2 -0.31,-0.34 -0.12,-0.29 -0.18,-0.6 -0.19,-0.92 -0.03,-0.6 -0.03,-1.19 0,-1.79 0.09,-0.98 0.14,-1.96 0.14,-2.95 -0.47,-0.01 -0.84,0.18 -1.11,0.58 -0.19,0.49 -0.26,1 -0.22,1.52 0.02,0.81 0.05,1.63 0.1,2.44 0.04,0.64 -0.25,0.95 -0.87,0.94 -0.22,-0.1 -0.38,-0.27 -0.46,-0.51 -0.07,-0.29 -0.12,-0.58 -0.14,-0.87 -0.05,-0.69 -0.09,-1.38 -0.12,-2.08 0.01,-0.59 -0.04,-1.17 -0.14,-1.74 0,-0.02 0,-0.03 0,-0.05 0.01,-0.08 -0.01,-0.17 -0.05,-0.24 -0.04,-0.06 -0.07,-0.06 -0.1,0 -0.43,0.36 -0.76,0.79 -0.99,1.3 -0.08,1.46 -0.12,2.93 -0.14,4.4 -0.04,0.22 -0.14,0.4 -0.31,0.53 -0.19,0.07 -0.38,0.1 -0.58,0.1 -0.51,-0.25 -0.72,-0.66 -0.63,-1.23 0.26,-2.01 0.56,-4.02 0.89,-6.01 0.05,-0.15 0.12,-0.29 0.22,-0.41 0.45,-0.15 0.67,0.02 0.65,0.51 0.35,-0.45 0.81,-0.65 1.38,-0.6 0.47,0.15 0.79,0.47 0.94,0.94 0.64,-0.66 1.41,-0.86 2.29,-0.6 0.4,0.28 0.63,0.65 0.7,1.14 0.02,0.21 0.03,0.42 0.02,0.63z"/>
   </g>
   <g>
    <path class="fil17" d="M202.25 8.21c-0.03,-0.19 -0.05,-0.39 -0.05,-0.58 0.01,-0.08 0.04,-0.14 0.1,-0.19 0.11,-0.08 0.21,-0.18 0.29,-0.29 0.39,-0.17 0.74,-0.11 1.06,0.17 0.38,0.53 0.3,0.96 -0.24,1.3 -0.26,0.09 -0.52,0.09 -0.77,0 -0.14,-0.13 -0.27,-0.27 -0.39,-0.41z"/>
   </g>
   <g>
    <path class="fil18" d="M202.59 7.15c-0.08,0.11 -0.18,0.21 -0.29,0.29 0.05,-0.14 0.14,-0.24 0.29,-0.29z"/>
   </g>
   <g>
    <path class="fil19" d="M202.2 7.64c0,0.19 0.02,0.39 0.05,0.58 -0.07,-0.11 -0.1,-0.23 -0.1,-0.36 0,-0.08 0.02,-0.16 0.05,-0.22z"/>
   </g>
   <g>
    <path class="fil20" d="M200.17 7.35c0.01,0.32 0,0.64 -0.02,0.97 -0.01,0.06 -0.04,0.11 -0.07,0.14 0.01,-0.38 0.04,-0.75 0.1,-1.11z"/>
   </g>
   <g>
    <path class="fil21" d="M219.83 7.39c0.02,0.43 -0.01,0.85 -0.1,1.26 0.02,-0.43 0.05,-0.85 0.1,-1.26z"/>
   </g>
   <g>
    <path class="fil22" d="M198.39 8.02c0,0.13 -0.03,0.24 -0.1,0.34 -0,-0.13 0.03,-0.24 0.1,-0.34z"/>
   </g>
   <g>
    <path class="fil12" d="M206.65 15.85c-0.18,0.01 -0.36,-0.01 -0.53,-0.05 -0.03,-0.02 -0.06,-0.03 -0.1,-0.05 -0.06,-0.1 -0.14,-0.18 -0.24,-0.24 -0.15,-0.39 -0.23,-0.79 -0.24,-1.21 -0.02,-0.49 -0.05,-0.97 -0.1,-1.45 -0.02,-1.09 -0.07,-2.17 -0.14,-3.26 -0.03,-0.35 0.02,-0.68 0.17,-0.99 0.34,-0.22 0.6,-0.14 0.77,0.24 0.09,0.31 0.18,0.62 0.29,0.92 0.42,-0.5 0.95,-0.84 1.57,-1.04 0.34,-0.12 0.66,-0.09 0.97,0.1 0.13,0.13 0.17,0.28 0.12,0.46 -0.2,0.38 -0.51,0.59 -0.94,0.65 -0.57,0.28 -1.01,0.69 -1.33,1.23 -0.05,0.12 -0.07,0.24 -0.07,0.36 0.12,0.89 0.22,1.79 0.31,2.68 0.03,0.37 0.03,0.74 0,1.11 -0.08,0.27 -0.25,0.44 -0.51,0.53z"/>
   </g>
   <g>
    <path class="fil23" d="M186.84 8.5c0.03,-0.06 0.06,-0.06 0.1,0 0.04,0.08 0.06,0.16 0.05,0.24 -0.04,-0.08 -0.09,-0.17 -0.14,-0.24z"/>
   </g>
   <g>
    <path class="fil12" d="M212.15 11.74c-0.27,0.04 -0.55,0.05 -0.82,0.05 -0.3,-0.03 -0.58,-0.11 -0.85,-0.24 -0.04,0.01 -0.07,0.02 -0.1,0.05 -0.29,0.68 -0.2,1.3 0.27,1.86 0.13,0.11 0.28,0.2 0.43,0.27 0.15,0.12 0.33,0.18 0.53,0.19 0.07,0.04 0.15,0.06 0.24,0.07 0.43,0.02 0.87,0.03 1.3,0.02 0.22,0.06 0.42,0.18 0.58,0.34 0.08,0.18 0.11,0.38 0.1,0.58 -0.05,0.19 -0.14,0.35 -0.29,0.48 -0.23,0.12 -0.47,0.19 -0.72,0.22 -0.45,0.03 -0.9,0.02 -1.35,-0.02 -0.15,-0.01 -0.3,-0.04 -0.43,-0.1 -0.17,-0.08 -0.34,-0.15 -0.53,-0.19 -0.87,-0.39 -1.45,-1.03 -1.74,-1.93 -0.1,-0.46 -0.12,-0.93 -0.05,-1.4 0.29,-1.2 0.91,-2.17 1.88,-2.92 0.99,-0.51 1.89,-0.38 2.68,0.41 0.37,0.61 0.34,1.21 -0.1,1.79 -0.29,0.27 -0.64,0.43 -1.04,0.48z"/>
   </g>
   <g>
    <path class="fil5" d="M182.35 8.65c0.01,0.16 0,0.32 -0.02,0.48 -0.02,0.03 -0.04,0.04 -0.07,0.05 -0,-0.19 0.03,-0.37 0.1,-0.53z"/>
   </g>
   <g>
    <path class="fil8" d="M203.46 10.05c0.01,0.84 -0.01,1.68 -0.05,2.51 -0,0.42 -0.03,0.84 -0.1,1.26 -0.06,0.49 -0.13,0.99 -0.19,1.5 -0.06,0.1 -0.11,0.22 -0.15,0.34 -0.11,0.1 -0.23,0.19 -0.34,0.29 -0.31,0.13 -0.61,0.13 -0.92,0 -0.26,-0.25 -0.4,-0.54 -0.43,-0.89 0.05,-0.56 0.13,-1.12 0.24,-1.67 0.07,-0.1 0.1,-0.21 0.1,-0.34 0.2,-1.01 0.39,-2.03 0.56,-3.04 0.46,-0.78 0.89,-0.77 1.28,0.05z"/>
   </g>
   <g>
    <path class="fil2" d="M219.69 9.37c0,0.25 -0.03,0.49 -0.1,0.72 -0,-0.25 0.03,-0.49 0.1,-0.72z"/>
   </g>
   <g>
    <path class="fil15" d="M186.99 8.79c0.11,0.57 0.15,1.15 0.14,1.74 -0.11,-0.57 -0.16,-1.15 -0.14,-1.74z"/>
   </g>
   <g>
    <path class="fil5" d="M200.03 9.18c0.02,0.43 -0.01,0.85 -0.1,1.26 0,-0.11 0,-0.23 0,-0.34 -0.01,-0.32 0.02,-0.62 0.1,-0.92z"/>
   </g>
   <g>
    <path class="fil24" d="M211.62 10c0.27,-0.02 0.5,0.06 0.7,0.24 0.03,0.08 0.03,0.16 0,0.24 -0.16,0.13 -0.35,0.22 -0.56,0.27 -0.3,0.06 -0.61,0.09 -0.92,0.07 0.16,-0.37 0.41,-0.64 0.77,-0.82z"/>
   </g>
   <g>
    <path class="fil25" d="M203.46 10.05c0.03,0.35 0.05,0.7 0.05,1.06 0.01,0.49 -0.02,0.98 -0.1,1.45 0.04,-0.84 0.06,-1.67 0.05,-2.51z"/>
   </g>
   <g>
    <path class="fil26" d="M219.59 10.1c0,0.25 -0.03,0.49 -0.1,0.72 -0,-0.25 0.03,-0.49 0.1,-0.72z"/>
   </g>
   <g>
    <path class="fil5" d="M182.06 10.15c0.03,0.24 -0.02,0.45 -0.14,0.63 0.04,-0.22 0.09,-0.43 0.14,-0.63z"/>
   </g>
   <g>
    <path class="fil27" d="M217.76 13c0,0.1 0,0.19 0,0.29 -0.14,0 -0.29,0 -0.43,0 -0.12,0 -0.23,-0.01 -0.34,-0.05 -0.1,-0.07 -0.21,-0.1 -0.34,-0.1 -1.12,-0.54 -1.32,-1.33 -0.6,-2.37 0.17,-0.25 0.37,-0.29 0.6,-0.12 0.41,0.38 0.69,0.84 0.85,1.38 0.12,0.31 0.21,0.64 0.27,0.97z"/>
   </g>
   <g>
    <path class="fil28" d="M175.97 10.15c0.01,0.22 -0.02,0.43 -0.1,0.63 -0.01,-0.22 0.02,-0.43 0.1,-0.63z"/>
   </g>
   <g>
    <path class="fil29" d="M198.1 9.52c-0.05,0.51 -0.13,1.01 -0.24,1.5 0.04,-0.35 0.08,-0.71 0.12,-1.06 0.01,-0.16 0.05,-0.3 0.12,-0.43z"/>
   </g>
   <g>
    <path class="fil30" d="M199.93 10.1c0,0.11 0,0.23 0,0.34 -0.02,0.15 -0.05,0.3 -0.1,0.43 0,-0.27 0.03,-0.53 0.1,-0.77z"/>
   </g>
   <g>
    <path class="fil31" d="M219.5 10.87c-0,0.27 -0.03,0.53 -0.1,0.77 -0.01,-0.27 0.03,-0.53 0.1,-0.77z"/>
   </g>
   <g>
    <path class="fil32" d="M197.86 11.16c-0.01,0.2 -0.04,0.4 -0.1,0.58 -0.01,-0.18 0,-0.36 0.02,-0.53 0.02,-0.03 0.04,-0.04 0.07,-0.05z"/>
   </g>
   <g>
    <path class="fil33" d="M212.15 11.74c-0.15,0.07 -0.31,0.11 -0.48,0.1 -0.12,0 -0.23,-0.02 -0.34,-0.05 0.28,0.01 0.55,-0.01 0.82,-0.05z"/>
   </g>
   <g>
    <path class="fil13" d="M219.4 11.64c-0,0.3 -0.03,0.59 -0.1,0.87 -0.01,-0.3 0.03,-0.59 0.1,-0.87z"/>
   </g>
   <g>
    <path class="fil34" d="M197.71 12.13c-0.01,0.22 -0.05,0.43 -0.1,0.63 -0.01,-0.18 0,-0.35 0.02,-0.53 0.01,-0.04 0.04,-0.08 0.07,-0.1z"/>
   </g>
   <g>
    <path class="fil35" d="M208.72 11.98c-0.07,0.47 -0.05,0.94 0.05,1.4 -0.04,-0.02 -0.06,-0.05 -0.07,-0.1 -0.04,-0.25 -0.07,-0.5 -0.07,-0.75 -0.01,-0.2 0.02,-0.39 0.1,-0.56z"/>
   </g>
   <g>
    <path class="fil36" d="M222.35 13.05c0.04,0.32 -0.06,0.6 -0.29,0.82 -0.8,0.29 -1.16,-0 -1.09,-0.87 0.3,-0.6 0.72,-0.69 1.26,-0.29 0.07,0.1 0.11,0.22 0.12,0.34z"/>
   </g>
   <g>
    <path class="fil20" d="M216.65 13.14c0.13,-0 0.24,0.03 0.34,0.1 -0.13,0 -0.24,-0.03 -0.34,-0.1z"/>
   </g>
   <g>
    <path class="fil37" d="M217.76 13c0.05,0.1 0.06,0.21 0.05,0.34 -0.17,0.02 -0.33,-0 -0.48,-0.05 0.14,0 0.29,0 0.43,0 0,-0.1 0,-0.19 0,-0.29z"/>
   </g>
   <g>
    <path class="fil38" d="M201.62 13.05c0,0.13 -0.03,0.24 -0.1,0.34 -0,-0.13 0.03,-0.24 0.1,-0.34z"/>
   </g>
   <g>
    <path class="fil39" d="M219.3 12.56c-0.01,0.32 -0.03,0.64 -0.05,0.97 -0.05,-0.32 -0.03,-0.65 0.05,-0.97z"/>
   </g>
   <g>
    <path class="fil40" d="M197.61 12.76c0.01,0.32 -0.02,0.62 -0.1,0.92 0.01,-0.32 0.04,-0.62 0.1,-0.92z"/>
   </g>
   <g>
    <path class="fil41" d="M191.29 9.18c0.06,1.6 0.06,3.21 0.02,4.83 -0.02,0.24 -0.14,0.4 -0.36,0.48 0.06,-0.09 0.13,-0.17 0.22,-0.24 0.03,-0.1 0.06,-0.19 0.1,-0.29 0.02,-1.59 0.03,-3.19 0.02,-4.78z"/>
   </g>
   <g>
    <path class="fil42" d="M222.35 13.05c0.09,0.13 0.12,0.27 0.07,0.43 -0.05,0.07 -0.09,0.15 -0.1,0.24 -0.08,0.06 -0.17,0.11 -0.27,0.14 0.23,-0.22 0.33,-0.5 0.29,-0.82z"/>
   </g>
   <g>
    <path class="fil43" d="M205.44 12.85c0.05,0.47 0.08,0.96 0.1,1.45 -0.08,-0.47 -0.12,-0.96 -0.1,-1.45z"/>
   </g>
   <g>
    <path class="fil32" d="M211.09 13.72c0.19,0.03 0.37,0.09 0.53,0.19 -0.2,-0.01 -0.38,-0.07 -0.53,-0.19z"/>
   </g>
   <g>
    <path class="fil44" d="M199.59 13.24c0.01,0.25 -0.02,0.5 -0.1,0.72 -0,-0.25 0.03,-0.49 0.1,-0.72z"/>
   </g>
   <g>
    <path class="fil45" d="M211.62 13.91c0.52,0.02 1.04,0.05 1.55,0.1 -0.44,0.01 -0.87,0 -1.3,-0.02 -0.09,-0.01 -0.17,-0.03 -0.24,-0.07z"/>
   </g>
   <g>
    <path class="fil46" d="M181.29 13.43c0.02,0.29 -0.02,0.57 -0.14,0.82 -0,-0.29 0.04,-0.56 0.14,-0.82z"/>
   </g>
   <g>
    <path class="fil35" d="M197.52 13.67c0.01,0.41 -0.03,0.82 -0.1,1.21 0,-0.41 0.04,-0.81 0.1,-1.21z"/>
   </g>
   <g>
    <path class="fil47" d="M179.6 13.38c-0.07,0.3 -0.1,0.61 -0.1,0.92 -0.08,-0.32 -0.05,-0.62 0.1,-0.92z"/>
   </g>
   <g>
    <path class="fil48" d="M213.75 14.35c0.03,0.01 0.06,0.03 0.1,0.05 0.06,0.18 0.06,0.36 0,0.53 0.01,-0.2 -0.02,-0.4 -0.1,-0.58z"/>
   </g>
   <g>
    <path class="fil49" d="M190.32 14.49c0.19,0.06 0.39,0.06 0.58,0 -0.01,0.03 -0.02,0.05 -0.05,0.07 -0.16,0.03 -0.32,0.03 -0.48,0 -0.03,-0.02 -0.04,-0.04 -0.05,-0.07z"/>
   </g>
   <g>
    <path class="fil50" d="M179.6 14.69c0.1,0.06 0.18,0.14 0.24,0.24 -0.13,-0.03 -0.21,-0.11 -0.24,-0.24z"/>
   </g>
   <g>
    <path class="fil49" d="M181 14.69c-0.03,0.13 -0.11,0.21 -0.24,0.24 0.06,-0.1 0.14,-0.18 0.24,-0.24z"/>
   </g>
   <g>
    <path class="fil50" d="M185.39 14.74c-0.04,0.07 -0.11,0.11 -0.19,0.12 -0.14,0.04 -0.27,0.03 -0.39,-0.02 0.2,0.01 0.39,-0.02 0.58,-0.1z"/>
   </g>
   <g>
    <path class="fil51" d="M150.66 14.88c3.64,-0.14 6.94,0.83 9.9,2.92 1.2,0.89 2.17,1.98 2.92,3.26 1.05,2 1.12,4.03 0.19,6.09 -0.57,1.19 -1.29,2.27 -2.17,3.24 -0.9,0.96 -1.86,1.86 -2.87,2.68 -1.84,1.44 -3.69,2.85 -5.55,4.25 -2.07,1.6 -3.9,3.45 -5.48,5.53 -1.35,1.88 -2.21,3.98 -2.56,6.28 -0.35,2.36 0.06,4.58 1.21,6.67 0.18,0.28 0.4,0.53 0.65,0.75 1.84,0.32 3.69,0.52 5.55,0.63 4.64,0.2 9.27,0.38 13.91,0.53 1.26,0.07 2.51,0.17 3.77,0.29 0.56,0.06 1.12,0.15 1.67,0.27 1.29,-3.23 2.79,-6.35 4.49,-9.37 4.66,-7.95 11.59,-12.55 20.79,-13.79 1.44,-0.18 2.87,-0.2 4.3,-0.05 0.43,0.06 0.84,0.19 1.21,0.41 -0.04,0.08 -0.06,0.16 -0.05,0.24 -0.16,0.02 -0.27,0.11 -0.34,0.27 -2.56,1.39 -3.47,3.5 -2.73,6.35 0.4,1.3 1.05,2.46 1.93,3.48 1.55,1.68 3.32,3.09 5.29,4.23 0.66,0.33 1.34,0.64 2.03,0.92 2.26,0.79 4.52,1.59 6.76,2.42 1.73,0.67 3.34,1.54 4.83,2.61 0.64,0.53 1.2,1.13 1.67,1.81 0.93,1.7 0.65,3.18 -0.85,4.42 -0.9,0.68 -1.88,1.23 -2.95,1.64 -2.35,0.88 -4.78,1.37 -7.29,1.47 0.19,3.78 -0.37,7.44 -1.69,10.99 2.43,0.6 4.89,0.98 7.39,1.16 1.71,0.11 3.42,0.23 5.12,0.39 1.41,0.18 2.81,0.43 4.2,0.72 0.79,0.18 1.53,0.49 2.22,0.92 1.04,0.84 1.42,1.91 1.14,3.21 -0.21,0.4 -0.49,0.75 -0.85,1.04 -1.21,0.96 -2.4,1.95 -3.57,2.95 -8.48,7.48 -16.96,14.96 -25.43,22.44 -0.73,1.12 -0.92,2.33 -0.58,3.62 0.29,1.06 0.58,2.13 0.87,3.19 0.22,0.82 0.3,1.66 0.24,2.51 -0.09,0.49 -0.23,0.96 -0.43,1.4 0.14,-0.15 0.28,-0.3 0.41,-0.46 0.05,-0.02 0.09,-0.03 0.14,-0.02 -0.24,1.42 -0.83,2.68 -1.76,3.77 -0.78,0.88 -1.67,1.61 -2.68,2.2 -2.33,1.32 -4.79,2.3 -7.39,2.95 -4.57,1.18 -9.21,1.99 -13.91,2.42 -6.18,0.59 -12.38,0.92 -18.6,0.97 -15.55,0.13 -31.06,-0.64 -46.52,-2.32 -5.93,-0.67 -11.84,-1.51 -17.73,-2.51 -2.23,-0.38 -4.44,-0.82 -6.64,-1.33 -7.4,2.17 -14.94,3.54 -22.63,4.13 -5.42,0.49 -10.85,0.59 -16.28,0.29 -3.59,-0.21 -7.12,-0.81 -10.58,-1.79 -2.44,-0.73 -4.68,-1.84 -6.71,-3.33 -1.08,-0.83 -1.92,-1.86 -2.54,-3.07 -0.65,-1.66 -0.33,-3.11 0.94,-4.35 0.23,-0.23 0.48,-0.44 0.72,-0.65 3.72,-2.65 7.65,-4.99 11.79,-7 0.06,-0.13 0.14,-0.24 0.24,-0.34 2.33,-1.1 4.65,-2.23 6.96,-3.38 11.28,-5.66 22.59,-11.32 33.91,-17 2.28,-1.11 4.57,-2.22 6.86,-3.33 0.8,-0.39 1.63,-0.75 2.46,-1.06 -0.46,-0.56 -0.86,-1.16 -1.18,-1.81 -0.18,-0.35 -0.16,-0.69 0.05,-1.01 1.28,-1.24 2.65,-2.34 4.13,-3.31 1.99,-1.26 4.03,-2.44 6.13,-3.53 1.72,-0.87 3.44,-1.72 5.17,-2.56 0.57,-0.28 1.16,-0.47 1.79,-0.58 0.66,-0.08 1.27,0.05 1.84,0.39 0.87,0.51 1.68,1.1 2.44,1.76 0.04,-0.44 0.11,-0.87 0.19,-1.3 0.14,-0.48 0.42,-0.84 0.85,-1.09 0.39,-0.2 0.79,-0.36 1.21,-0.48 1.32,-0.36 2.66,-0.66 4.01,-0.92 4.82,-0.85 9.64,-1.72 14.44,-2.63 0.61,-1.64 1.47,-3.13 2.56,-4.47 -0.35,-0.09 -0.64,-0.26 -0.89,-0.51 -0.95,-1.17 -1.74,-2.44 -2.37,-3.82 -3.74,-8.5 -4,-17.1 -0.77,-25.79 1.85,-5.1 4.81,-9.44 8.86,-13.02 2.64,-2.23 5.65,-3.76 9.03,-4.59 1.06,-0.23 2.12,-0.39 3.19,-0.46z"/>
   </g>
   <g>
    <path class="fil23" d="M199.45 14.54c-0.03,0.5 -0.09,1 -0.17,1.5 -0.02,0.12 -0.08,0.22 -0.17,0.29 0.03,-0.12 0.07,-0.23 0.12,-0.34 0.07,-0.49 0.14,-0.97 0.22,-1.45z"/>
   </g>
   <g>
    <path class="fil52" d="M203.31 13.82c0.01,0.4 -0.02,0.81 -0.07,1.21 -0,0.12 -0.04,0.22 -0.12,0.29 0.06,-0.51 0.13,-1 0.19,-1.5z"/>
   </g>
   <g>
    <path class="fil53" d="M210.51 15.32c0.19,0.05 0.37,0.11 0.53,0.19 -0.2,-0.01 -0.38,-0.07 -0.53,-0.19z"/>
   </g>
   <g>
    <path class="fil39" d="M205.78 15.51c0.1,0.06 0.18,0.14 0.24,0.24 -0.13,-0.03 -0.21,-0.11 -0.24,-0.24z"/>
   </g>
   <g>
    <path class="fil54" d="M213.55 15.41c-0.02,0.08 -0.07,0.13 -0.14,0.17 -0.56,0.12 -1.12,0.15 -1.69,0.1 -0.09,-0.01 -0.17,-0.03 -0.24,-0.07 0.45,0.04 0.9,0.05 1.35,0.02 0.26,-0.03 0.5,-0.1 0.72,-0.22z"/>
   </g>
   <g>
    <path class="fil3" d="M202.98 15.65c-0.05,0.17 -0.17,0.26 -0.34,0.29 0.11,-0.09 0.22,-0.19 0.34,-0.29z"/>
   </g>
   <g>
    <path class="fil55" d="M206.12 15.8c0.17,0.04 0.35,0.06 0.53,0.05 -0.15,0.06 -0.31,0.06 -0.48,0.02 -0.03,-0.02 -0.04,-0.04 -0.05,-0.07z"/>
   </g>
   <g>
    <path class="fil56" d="M197.42 15.94c0.07,0.12 0.11,0.25 0.15,0.39 -0.1,-0.1 -0.15,-0.23 -0.15,-0.39z"/>
   </g>
   <g>
    <path class="fil42" d="M201.72 15.94c0.31,0.13 0.61,0.13 0.92,0 -0.01,0.03 -0.03,0.06 -0.05,0.1 -0.22,0.08 -0.45,0.1 -0.68,0.07 -0.09,-0.03 -0.15,-0.09 -0.19,-0.17z"/>
   </g>
   <g>
    <path class="fil1" d="M146.02 17.05c0.23,-0.03 0.43,-0.09 0.63,-0.19 0.46,-0.17 0.95,-0.29 1.45,-0.34 0.51,-0.06 1.01,-0.14 1.5,-0.24 3.34,-0.33 6.45,0.36 9.32,2.05 1.29,0.81 2.36,1.85 3.21,3.12 0.83,1.33 1.04,2.74 0.63,4.25 -0.49,1.45 -1.26,2.72 -2.32,3.82 -1.22,1.23 -2.5,2.38 -3.86,3.43 -0.11,-2.44 -0.88,-4.65 -2.32,-6.62 -2.61,-3.46 -6.07,-5.6 -10.36,-6.4 -1.29,-0.24 -2.54,-0.13 -3.77,0.31 -0.02,-0.02 -0.03,-0.03 -0.05,-0.05 1.79,-1.39 3.77,-2.43 5.94,-3.14z"/>
   </g>
   <g>
    <path class="fil45" d="M149.6 16.28c-0.49,0.11 -0.99,0.19 -1.5,0.24 0.48,-0.14 0.98,-0.22 1.5,-0.24z"/>
   </g>
   <g>
    <path class="fil57" d="M198.92 16.57c-0.23,0.27 -0.52,0.36 -0.87,0.24 -0.02,-0.03 -0.03,-0.07 -0.05,-0.1 0.33,0.08 0.63,0.03 0.92,-0.14z"/>
   </g>
   <g>
    <path class="fil5" d="M146.65 16.86c-0.19,0.1 -0.4,0.17 -0.63,0.19 0.19,-0.1 0.4,-0.17 0.63,-0.19z"/>
   </g>
   <g>
    <path class="fil37" d="M181.72 19.76c0.22,-0.01 0.43,0.02 0.63,0.1 -0.22,0.01 -0.43,-0.02 -0.63,-0.1z"/>
   </g>
   <g>
    <path class="fil58" d="M182.35 19.86c0.25,-0 0.49,0.03 0.72,0.1 -0.25,0 -0.49,-0.03 -0.72,-0.1z"/>
   </g>
   <g>
    <path class="fil59" d="M196.79 19.9c0.97,-0.06 1.96,-0.06 2.95,-0.02 0.46,0.01 0.91,0.05 1.35,0.12 -1.43,-0.08 -2.86,-0.11 -4.3,-0.1z"/>
   </g>
   <g>
    <path class="fil20" d="M201.72 20.05c0.31,-0 0.6,0.04 0.87,0.15 -0.3,-0.03 -0.59,-0.08 -0.87,-0.15z"/>
   </g>
   <g>
    <path class="fil51" d="M-0 112.36c0,-3.61 0,-7.21 0,-10.82 14.38,-5.59 28.77,-11.15 43.18,-16.67 -0.09,-0.61 0.03,-1.19 0.36,-1.74 0.51,-0.42 1.09,-0.75 1.71,-0.99 2.31,-0.99 4.66,-1.88 7.05,-2.66 0.03,-0.08 0.05,-0.17 0.05,-0.27 -0.03,-0.47 -0.07,-0.92 -0.12,-1.35 -2.08,0.37 -4.18,0.66 -6.28,0.87 -1,-0.01 -2.01,-0.03 -3.02,-0.07 -0.35,-0.1 -0.66,-0.27 -0.92,-0.53 -0.27,-0.34 -0.51,-0.7 -0.72,-1.09 -0.37,0.27 -0.69,0.59 -0.94,0.97 -0.76,1.31 -1.53,2.62 -2.32,3.91 -0.75,1.21 -1.64,2.32 -2.68,3.31 -1.23,0.94 -2.58,1.64 -4.06,2.13 -2.26,0.75 -4.58,1.25 -6.96,1.5 -2.87,0.28 -5.72,0.51 -8.57,0.7 -3.78,0.38 -7.55,0.81 -11.33,1.28 -1.48,0.17 -2.96,0.31 -4.44,0.41 0,-0.27 0,-0.55 0,-0.82 8,-0.84 16,-1.64 24.01,-2.39 2.59,-0.28 5.1,-0.86 7.54,-1.74 1.41,-0.5 2.62,-1.28 3.65,-2.34 1.04,-1.17 1.95,-2.43 2.75,-3.77 0.48,-0.85 0.98,-1.69 1.5,-2.51 0.43,-0.62 0.95,-1.14 1.57,-1.57 -0.25,-0.64 -0.47,-1.3 -0.68,-1.96 -0.35,0.17 -0.67,0.38 -0.97,0.65 -0.75,0.67 -1.37,1.43 -1.86,2.29 -0.71,1.41 -1.48,2.78 -2.32,4.11 -1.05,1.43 -2.41,2.45 -4.08,3.07 -1.48,0.51 -2.99,0.87 -4.54,1.09 -0.4,0.04 -0.78,0.11 -1.16,0.19 -2.48,0.27 -4.96,0.52 -7.44,0.77 -0.51,0.02 -1.01,0.07 -1.5,0.14 -0.03,0 -0.06,0 -0.1,0 -0.35,0.01 -0.69,0.04 -1.01,0.1 -4.09,0.34 -8.18,0.71 -12.27,1.11 -0.36,0.01 -0.72,0.05 -1.06,0.1 -0.03,0 -0.06,0 -0.1,0 -0.64,0.04 -1.29,0.06 -1.93,0.05 0,-0.27 0,-0.55 0,-0.82 0.64,-0.13 1.28,-0.21 1.93,-0.27 7.62,-0.64 15.24,-1.34 22.85,-2.13 2.04,-0.2 4.04,-0.62 5.99,-1.26 1.79,-0.66 3.17,-1.81 4.13,-3.45 0.58,-1.07 1.14,-2.15 1.69,-3.24 0.78,-1.46 1.89,-2.6 3.33,-3.43 -0.07,-0.35 -0.13,-0.7 -0.17,-1.06 -0.78,-0.21 -1.53,-0.5 -2.25,-0.87 -1.15,0.64 -2.38,1.02 -3.7,1.14 -0.84,0.05 -1.67,0.08 -2.51,0.1 -0.29,0.03 -0.58,0.08 -0.87,0.14 -0.32,0.17 -0.66,0.3 -1.01,0.39 -0.51,0.04 -0.99,-0.06 -1.45,-0.29 -0.43,0 -0.82,-0.13 -1.16,-0.39 -1,-1.02 -1.5,-2.25 -1.5,-3.7 0.05,-0.82 0.14,-1.62 0.27,-2.42 0.05,-0.44 0.02,-0.88 -0.1,-1.3 -1.07,-1.79 -1.5,-3.72 -1.3,-5.8 0.07,-0.89 0.2,-1.78 0.39,-2.66 0.46,-2.01 0.91,-4.02 1.35,-6.04 0.2,-1.09 0.3,-2.18 0.29,-3.28 -0.68,-0.74 -1.35,-1.48 -2.03,-2.22 -0.45,-0.63 -0.79,-1.33 -1.01,-2.08 -0.48,-0.38 -0.82,-0.86 -1.01,-1.45 -0.35,-0.94 -0.47,-1.9 -0.39,-2.9 0.11,-0.64 0.45,-1.1 1.04,-1.38 0.33,-0.14 0.67,-0.24 1.01,-0.31 0.38,-0.82 1.03,-1.25 1.93,-1.3 0.37,-1.32 1.24,-1.84 2.61,-1.57 0.3,0.05 0.55,0.18 0.75,0.41 0.19,-0.3 0.45,-0.5 0.8,-0.6 0.75,-0.29 1.52,-0.39 2.32,-0.29 0.39,0.16 0.64,0.44 0.75,0.85 0.15,0.93 0.15,1.87 0.02,2.8 1.2,-0.02 2.1,0.5 2.68,1.55 0.49,0.92 0.84,1.88 1.06,2.9 0.22,1.1 -0.1,2.01 -0.94,2.73 -0.64,0.45 -1.29,0.9 -1.93,1.35 -0.5,0.43 -0.82,0.96 -0.97,1.59 0.19,0.71 0.43,1.41 0.7,2.1 0.64,1.45 1.21,2.93 1.69,4.44 0.58,2.26 0.71,4.55 0.39,6.86 -0.05,0.29 -0.13,0.57 -0.22,0.85 0.47,-0.03 0.93,-0.03 1.4,0.02 0.01,-0.11 0.05,-0.21 0.12,-0.29 0.31,-0.39 0.61,-0.77 0.92,-1.16 2.11,-2.29 4.28,-4.54 6.5,-6.74 0.58,-0.52 1.16,-1.03 1.74,-1.55 0.7,-0.47 1.45,-0.83 2.27,-1.06 2.76,-0.62 5.55,-1.12 8.36,-1.5 3.98,-0.58 7.97,-1.02 11.98,-1.33 0.43,-0 0.85,0.07 1.26,0.22 0.25,0.15 0.49,0.31 0.72,0.48 0.52,0.57 0.92,1.22 1.18,1.96 0.58,1.63 1.06,3.29 1.45,4.98 0.66,-0.45 1.4,-0.68 2.2,-0.7 -0.16,-0.62 -0.27,-1.26 -0.31,-1.91 -0.08,-1.51 -0,-3 0.24,-4.49 0.27,-1.33 0.49,-2.67 0.68,-4.01 0.08,-0.9 0.01,-1.78 -0.19,-2.66 -0.29,-0.58 -0.75,-0.94 -1.38,-1.09 -0.55,-0.02 -1.09,-0.03 -1.64,-0.05 -1.39,-0.2 -2.22,-1 -2.49,-2.39 -0.06,-0.61 -0.1,-1.22 -0.14,-1.84 -0.16,-0.57 -0.34,-1.13 -0.53,-1.69 -0.04,-0.64 0.2,-1.17 0.7,-1.57 0.33,-0.27 0.7,-0.48 1.11,-0.63 -0.26,-0.47 -0.36,-0.98 -0.31,-1.52 0.18,-0.51 0.53,-0.85 1.04,-1.04 0.77,-0.33 1.58,-0.51 2.41,-0.53 0.18,0.05 0.33,0.13 0.46,0.27 0.51,-0.64 1.18,-0.91 2,-0.8 0.16,0.05 0.32,0.13 0.46,0.22 0.2,-0.38 0.51,-0.56 0.94,-0.56 0.72,-0.08 1.35,0.11 1.91,0.56 0.35,-0.35 0.78,-0.49 1.28,-0.41 0.49,0.09 0.82,0.37 0.99,0.85 0.18,0.61 0.27,1.24 0.29,1.88 0.86,1.54 1.16,3.18 0.92,4.93 -0.28,0.91 -0.84,1.61 -1.67,2.1 -0.3,0.25 -0.54,0.54 -0.72,0.87 0.35,0.93 0.72,1.85 1.09,2.78 0.96,1.98 1.89,3.98 2.8,5.99 0.73,1.68 1.2,3.44 1.4,5.27 0.03,0.6 0.03,1.19 0,1.79 -0.14,0.98 -0.26,1.96 -0.36,2.95 0.08,0.87 0.18,1.74 0.31,2.61 0.1,0.62 0.08,1.23 -0.05,1.84 -0.19,0.38 -0.47,0.66 -0.85,0.85 -0.93,0.29 -1.88,0.35 -2.85,0.17 -0.16,0.02 -0.32,0.04 -0.48,0.07 -0.76,0.51 -1.5,1.04 -2.22,1.59 -1.37,0.88 -2.86,1.32 -4.49,1.33 0.32,1.09 0.52,2.2 0.63,3.33 -0.04,0.85 -0.43,1.5 -1.16,1.96 -1,0.56 -2.05,1.03 -3.14,1.4 -1.22,0.45 -2.44,0.88 -3.67,1.28 0.19,0.46 0.31,0.95 0.36,1.45 0.11,1.11 0.13,2.2 0.07,3.28 2.65,-0.04 5.29,0.08 7.92,0.36 0.62,0.05 1.18,0.25 1.69,0.58 0.32,0.4 0.5,0.86 0.56,1.38 0.07,0.47 0.12,0.93 0.17,1.4 -0.08,0.37 -0.28,0.64 -0.63,0.8 -0.33,0.12 -0.67,0.22 -1.01,0.29 -3.36,1.71 -6.74,3.37 -10.14,4.98 -14.8,7 -29.58,14.02 -44.34,21.09 -0.06,0.08 -0.12,0.15 -0.19,0.22 -3.32,1.76 -6.81,3.07 -10.48,3.91 -2.69,0.62 -5.39,0.71 -8.12,0.29 -1.72,-0.25 -3.18,-0.98 -4.4,-2.2z"/>
   </g>
   <g>
    <path class="fil60" d="M78.69 29.32c1.07,-0.06 1.74,0.42 2,1.45 0.27,1.23 0.43,2.47 0.48,3.72 -0.05,0.17 -0.16,0.29 -0.31,0.36 -0.21,0.08 -0.42,0.16 -0.63,0.24 -0.31,0.09 -0.58,0.01 -0.8,-0.22 -0.14,-0.25 -0.25,-0.5 -0.34,-0.77 -0.22,-1.27 -0.46,-2.52 -0.72,-3.77 -0.03,-0.26 -0.03,-0.52 0,-0.77 0.08,-0.12 0.18,-0.2 0.31,-0.24z"/>
   </g>
   <g>
    <path class="fil61" d="M80.72 29.42c0.84,-0.12 1.36,0.24 1.57,1.06 0.26,1.02 0.32,2.05 0.19,3.09 -0.04,0.21 -0.13,0.39 -0.27,0.56 -0.21,0.1 -0.42,0.21 -0.63,0.31 -0.09,-1.21 -0.19,-2.42 -0.31,-3.62 -0.1,-0.51 -0.28,-0.97 -0.56,-1.4z"/>
   </g>
   <g>
    <path class="fil62" d="M78.01 31.16c-0.01,0.25 0.02,0.5 0.1,0.72 0.15,1.07 0.2,2.15 0.17,3.24 -0.07,0.46 -0.33,0.7 -0.8,0.72 -0.42,-0.02 -0.79,-0.17 -1.11,-0.43 0.91,-1.01 1.07,-2.12 0.46,-3.33 -0.27,-0.4 -0.65,-0.56 -1.13,-0.48 -0.03,-0.29 -0.06,-0.58 -0.1,-0.87 0.02,-0.59 0.33,-0.94 0.92,-1.04 0.45,-0.07 0.82,0.09 1.09,0.46 0.24,0.29 0.38,0.63 0.41,1.01z"/>
   </g>
   <g>
    <path class="fil62" d="M74.15 30.15c0.17,-0.01 0.34,0 0.51,0.05 0.18,0.52 0.29,1.05 0.31,1.59 -0.93,0.22 -1.86,0.42 -2.8,0.58 -0.01,-0.37 0,-0.74 0.02,-1.11 0.19,-0.22 0.4,-0.4 0.65,-0.56 0.42,-0.23 0.86,-0.41 1.3,-0.56z"/>
   </g>
   <g>
    <path class="fil63" d="M142.74 42.95c-0.15,-0.08 -0.31,-0.11 -0.48,-0.1 -2.73,-0.26 -5.37,0.1 -7.92,1.09 -2.34,0.91 -4.17,2.44 -5.48,4.56 -0.08,-0.48 -0.12,-0.96 -0.12,-1.45 -0.06,-1.47 -0.06,-2.93 0,-4.4 0.15,-2.09 0.5,-4.15 1.04,-6.18 0.13,-0.51 0.29,-1.01 0.48,-1.5 1.67,-1.89 3.77,-2.97 6.3,-3.21 3.54,-0.31 6.76,0.55 9.66,2.56 1.3,0.98 2.33,2.2 3.07,3.65 0.11,0.2 0.17,0.41 0.19,0.63 -1.62,1.52 -2.97,3.24 -4.06,5.17 -0.85,-0.41 -1.74,-0.69 -2.68,-0.82z"/>
   </g>
   <g>
    <path class="fil64" d="M78.01 31.16c0.07,0.23 0.1,0.47 0.1,0.72 -0.07,-0.23 -0.11,-0.47 -0.1,-0.72z"/>
   </g>
   <g>
    <path class="fil1" d="M83.04 33.82c0.03,-0.02 0.06,-0.03 0.1,-0.05 0.09,0.69 0.12,1.38 0.07,2.08 -0.09,0.44 -0.26,0.85 -0.53,1.21 -0.45,0.49 -0.9,0.97 -1.35,1.45 -0.23,0.4 -0.27,0.82 -0.12,1.26 0.05,-0.02 0.09,-0.05 0.12,-0.1 0.39,1.89 0.94,3.72 1.64,5.51 0.83,1.78 1.57,3.6 2.22,5.46 0.1,0.28 0.17,0.57 0.22,0.87 -0,0.13 0.03,0.24 0.1,0.34 0.23,0.87 0.34,1.76 0.34,2.66 -0.05,1.16 -0.13,2.32 -0.24,3.48 0.08,0.88 0.12,1.77 0.14,2.66 0.01,0.44 -0.02,0.87 -0.07,1.3 -0.02,0.11 -0.07,0.2 -0.17,0.27 -0.54,0.3 -1.12,0.5 -1.74,0.58 -0.37,0.06 -0.74,0.09 -1.11,0.1 0.08,-0.18 0.13,-0.36 0.14,-0.56 -0.39,0.31 -0.76,0.66 -1.11,1.04 -1.58,1.26 -3.38,1.97 -5.41,2.1 -0.23,0 -0.45,0 -0.68,0 0.02,-0.11 -0.01,-0.19 -0.1,-0.24 -0.66,-2.83 -1.32,-5.67 -1.98,-8.5 0.65,-0.59 1.41,-0.99 2.27,-1.21 0.34,1.27 0.92,2.42 1.74,3.45 0.05,0.02 0.09,-0 0.1,-0.07 -0.04,-0.19 -0.08,-0.39 -0.12,-0.58 -0.41,-1.16 -0.78,-2.34 -1.11,-3.53 -0.32,-1.63 -0.4,-3.27 -0.24,-4.93 0.22,-1.69 0.45,-3.38 0.68,-5.07 0.04,-0.55 0.02,-1.1 -0.05,-1.64 -0.24,-1.26 -0.72,-2.41 -1.42,-3.48 -0.02,-0.05 -0.06,-0.06 -0.1,-0.02 0.13,0.22 0.21,0.43 0.24,0.65 -0.57,-0.37 -1.2,-0.58 -1.88,-0.63 -0.25,-0.06 -0.5,-0.1 -0.77,-0.1 -0.66,-0.11 -1.14,-0.46 -1.42,-1.06 -0.09,-0.25 -0.15,-0.51 -0.19,-0.77 -0.02,-0.45 -0.03,-0.9 -0.05,-1.35 -0.04,-0.22 -0.11,-0.43 -0.19,-0.63 -0.18,-0.29 -0.33,-0.59 -0.43,-0.92 -0.06,-0.28 0,-0.52 0.19,-0.72 0.95,-0.99 2.12,-1.49 3.5,-1.52 0.54,-0.09 1.07,-0.2 1.59,-0.34 0.37,-0.08 0.59,0.07 0.65,0.46 0.15,1.39 -0.44,2.3 -1.76,2.73 -0.66,0.02 -1.32,0 -1.98,-0.05 0.7,0.48 1.48,0.68 2.32,0.63 0.31,-0.08 0.61,-0.2 0.89,-0.36 0.21,0.63 0.64,0.92 1.3,0.87 0.47,0.01 0.89,-0.14 1.26,-0.43 0.77,0.11 1.54,0.26 2.29,0.43 0.02,-0.02 0.03,-0.03 0.05,-0.05 -0.18,-0.25 -0.41,-0.46 -0.68,-0.63 0.54,-0.16 0.95,-0.48 1.26,-0.94 0.87,0.12 1.4,-0.25 1.59,-1.09z"/>
   </g>
   <g>
    <path class="fil65" d="M83.13 33.77c-0.03,0.02 -0.06,0.03 -0.1,0.05 0.03,-0.27 0.06,-0.29 0.1,-0.05z"/>
   </g>
   <g>
    <path class="fil60" d="M32.27 35.17c-0.01,0.22 0.02,0.43 0.1,0.63 0.06,0.46 0.11,0.93 0.14,1.4 -0.91,0.11 -1.75,0.4 -2.54,0.87 -0.26,-1.02 -0.44,-2.05 -0.53,-3.09 0.15,-0.28 0.38,-0.45 0.7,-0.51 0.58,-0.21 1.18,-0.26 1.79,-0.15 0.23,0.23 0.34,0.51 0.34,0.85z"/>
   </g>
   <g>
    <path class="fil66" d="M27.44 34.64c0.42,-0.03 0.82,0.05 1.21,0.22 0.23,0.23 0.37,0.52 0.41,0.85 0.05,0.76 0.1,1.51 0.14,2.27 0.04,0.17 0.12,0.31 0.27,0.41 -0.87,0.53 -1.08,1.25 -0.6,2.15 0.12,0.17 0.26,0.32 0.41,0.46 -0.41,0.2 -0.85,0.29 -1.3,0.24 -0.15,-0.1 -0.29,-0.22 -0.41,-0.36 -0.61,-1.28 -1.07,-2.62 -1.35,-4.01 -0.07,-0.51 -0.02,-1.01 0.14,-1.5 0.25,-0.4 0.62,-0.65 1.09,-0.72z"/>
   </g>
   <g>
    <path class="fil3" d="M32.27 35.17c0.06,0.2 0.09,0.41 0.1,0.63 -0.08,-0.2 -0.11,-0.41 -0.1,-0.63z"/>
   </g>
   <g>
    <path class="fil1" d="M189.31 76.76c0.24,0.01 0.46,-0.03 0.68,-0.1 2.42,-0.2 4.61,0.41 6.57,1.84 -1.38,1.52 -2.68,3.1 -3.91,4.73 -0.27,-0.76 -0.7,-1.4 -1.3,-1.93 -0,-0.03 -0.02,-0.04 -0.05,-0.05 -0.05,0.14 -0.06,0.29 -0.05,0.43 -0.07,0.14 -0.12,0.28 -0.14,0.43 -0.2,0.21 -0.42,0.39 -0.68,0.53 -0.32,0.04 -0.64,0.06 -0.97,0.05 -0.05,0.01 -0.08,-0.01 -0.1,-0.05 -0.12,-0.07 -0.25,-0.14 -0.39,-0.19 -0.13,-0.1 -0.24,-0.21 -0.34,-0.34 -0.17,-0.33 -0.23,-0.68 -0.19,-1.06 -0.01,-0.05 0.01,-0.08 0.05,-0.1 0.07,-0.12 0.11,-0.25 0.15,-0.39 0.18,-0.14 0.34,-0.31 0.48,-0.48 0.02,-0.04 0.05,-0.06 0.1,-0.07 -0.87,-0.35 -1.77,-0.57 -2.71,-0.65 -0.09,0.82 -0.12,1.64 -0.07,2.46 0.03,0.46 0.12,0.91 0.27,1.35 -0.04,0.06 -0.08,0.06 -0.12,0 -0.4,-0.74 -0.64,-1.53 -0.72,-2.37 -0.27,-1.59 0.04,-3.05 0.92,-4.4 0.72,-0.96 1.46,-1.91 2.22,-2.85 0.26,-0.32 0.46,-0.67 0.6,-1.06 3.43,1.84 6.85,1.79 10.24,-0.12 2.94,-1.92 4.63,-4.64 5.1,-8.14 0.38,-3.82 -0.82,-7.05 -3.6,-9.68 -0.96,-0.83 -2.04,-1.47 -3.24,-1.91 -0.2,-0.14 -0.42,-0.22 -0.68,-0.24 -0.19,-0.12 -0.36,-0.26 -0.51,-0.43 -0.91,-1.05 -1.68,-2.19 -2.32,-3.43 -1.15,-2.49 -1.19,-5.01 -0.12,-7.54 -0.12,-0.39 -0.38,-0.51 -0.77,-0.36 -3.74,1.96 -6.47,4.86 -8.19,8.72 -1.14,2.73 -1.38,5.53 -0.7,8.4 -0.01,0.16 0.04,0.28 0.15,0.39 0.08,0.14 0.14,0.28 0.19,0.43 -0.9,2.19 -1.09,4.43 -0.58,6.74 -0.1,0.01 -0.18,0.05 -0.24,0.12 0.14,0.1 0.28,0.19 0.43,0.27 2.34,0.58 3.73,2.05 4.15,4.42 -0,0.25 0.03,0.49 0.1,0.72 -0.02,1.14 -0.4,2.14 -1.14,3 -0.6,0.58 -1.15,1.21 -1.64,1.88 -0.49,0.86 -0.81,1.77 -0.94,2.75 -0.07,0.23 -0.1,0.47 -0.1,0.72 -0.04,0.93 -0.06,1.87 -0.05,2.8 -0.86,-0.24 -1.54,-0 -2.05,0.72 -0.14,0.3 -0.27,0.6 -0.36,0.92 -1.97,-1.02 -3.12,-2.63 -3.43,-4.83 -0,-0.44 0.01,-0.87 0.05,-1.3 0.07,-0.1 0.1,-0.21 0.1,-0.34 0.1,-0.38 0.25,-0.73 0.46,-1.06 0.44,-0.65 0.96,-1.22 1.57,-1.72 0.69,-0.55 1.37,-1.11 2.03,-1.69 0.88,-0.77 1.48,-1.71 1.81,-2.83 0.21,-1.8 -0.54,-2.98 -2.25,-3.55 -1.07,-0.14 -2.02,0.14 -2.85,0.82 -1.12,1.04 -1.84,2.3 -2.17,3.79 -0.07,0.1 -0.1,0.21 -0.1,0.34 -0.29,1.23 -0.39,2.49 -0.31,3.77 0.02,1.3 0.19,2.57 0.53,3.82 0.29,0.81 0.58,1.61 0.87,2.42 0.42,0.83 0.98,1.57 1.67,2.2 1.16,0.89 2.38,1.67 3.67,2.37 -1.65,-0.42 -3.14,-1.15 -4.47,-2.2 -0.21,0.09 -0.41,0.19 -0.6,0.31 -0.08,0.09 -0.13,0.19 -0.15,0.31 -1.53,-0.02 -3.06,-0.06 -4.59,-0.12 -0.88,-0.2 -1.65,-0.6 -2.32,-1.21 -0.61,-0.63 -1.17,-1.29 -1.67,-2 -0.8,-1.23 -1.54,-2.5 -2.22,-3.82 -0.04,-0.9 -0.03,-1.8 0.02,-2.71 0.1,-0.42 0.16,-0.86 0.19,-1.3 0.03,-0.36 0.1,-0.72 0.19,-1.06 0.07,-0.1 0.1,-0.21 0.1,-0.34 0.42,-1.99 0.94,-3.96 1.57,-5.89 1.33,-4.13 2.9,-8.17 4.69,-12.12 1.31,-2.91 2.94,-5.62 4.88,-8.12 2.99,-3.65 6.71,-6.32 11.13,-7.99 2.43,-0.94 4.95,-1.54 7.54,-1.81 0.27,-0 0.53,-0.03 0.77,-0.1 0.47,-0.03 0.93,-0.04 1.4,-0.02 -1.25,0.46 -2.1,1.32 -2.54,2.58 -0.41,1.33 -0.41,2.67 0,4.01 0.53,1.66 1.39,3.12 2.56,4.4 1.53,1.63 3.23,3.04 5.1,4.23 1.44,0.8 2.94,1.47 4.49,2.03 1.86,0.63 3.69,1.34 5.51,2.13 1.37,0.57 2.62,1.31 3.77,2.22 0.56,0.48 0.98,1.05 1.28,1.72 0.17,0.58 0.07,1.11 -0.29,1.59 -0.52,0.6 -1.14,1.07 -1.86,1.42 -0.88,0.42 -1.79,0.79 -2.71,1.11 -1.8,0.52 -3.61,1.05 -5.41,1.57 -0.01,-0.37 -0.05,-0.74 -0.1,-1.11 0.34,0.01 0.68,-0.01 1.01,-0.07 1.5,-0.32 2.97,-0.75 4.4,-1.3 0.49,-0.16 0.92,-0.43 1.28,-0.8 0.07,-0.17 0.08,-0.35 0.05,-0.53 -0.14,-0.17 -0.31,-0.31 -0.51,-0.41 -0.43,-0.16 -0.86,-0.29 -1.3,-0.39 -1.96,-0.41 -3.94,-0.67 -5.94,-0.8 0.01,-0.1 -0.03,-0.18 -0.1,-0.24 -0.02,0.03 -0.03,0.06 -0.05,0.1 0.48,2.59 0.62,5.2 0.41,7.83 -0.3,3.46 -1.09,6.79 -2.37,10 -1.19,2.79 -2.53,5.51 -4.01,8.16 -0.55,0.81 -1.09,1.61 -1.64,2.42 -0.33,0.55 -0.18,0.85 0.46,0.89 2.25,0.14 4.51,0.15 6.76,0.05 0.36,-0.04 0.71,-0.11 1.06,-0.19 0.49,-0.13 0.61,-0.41 0.36,-0.85 -0.29,-0.23 -0.6,-0.41 -0.94,-0.56 -1.26,-0.43 -2.49,-0.9 -3.72,-1.4 -0.48,-0.17 -0.96,-0.32 -1.45,-0.46 0.83,-1.15 1.6,-2.34 2.32,-3.57 1.59,1.44 3.2,2.84 4.83,4.23 0.52,0.47 1.03,0.96 1.52,1.47 0.19,0.23 0.37,0.47 0.53,0.72 0.14,0.34 0.04,0.57 -0.31,0.7 -0.14,0.05 -0.29,0.1 -0.43,0.14 -0.79,0.12 -1.57,0.2 -2.37,0.24 -6.58,0.24 -13.17,0.39 -19.76,0.43 -0.42,0.05 -0.84,0.09 -1.26,0.12 -0.06,-0.33 -0.18,-0.63 -0.39,-0.89 0.58,-0.22 1.18,-0.39 1.79,-0.51 2.1,0.42 4.11,0.18 6.04,-0.75 2.49,-1.41 3.35,-3.49 2.58,-6.26 -0.37,-0.71 -0.74,-1.42 -1.11,-2.13 -0.34,-0.89 -0.07,-1.53 0.8,-1.91 0.67,-0.22 1.37,-0.33 2.08,-0.34 0.17,-0.14 0.19,-0.3 0.05,-0.48 -0.71,-0.37 -1.38,-0.79 -2.03,-1.26 -0.31,-0.26 -0.57,-0.57 -0.77,-0.92 -0.78,0.2 -1.57,0.38 -2.37,0.53 -2.16,0.24 -4.22,-0.11 -6.18,-1.04 -0.76,1.13 -1.59,2.21 -2.49,3.24 -0.12,0.21 -0.24,0.42 -0.36,0.63 0.02,0.02 0.03,0.03 0.05,0.05 0.66,-0.38 1.37,-0.62 2.13,-0.72z"/>
   </g>
   <g>
    <path class="fil54" d="M199.45 35.7c-0.25,0.06 -0.51,0.1 -0.77,0.1 0.25,-0.07 0.5,-0.1 0.77,-0.1z"/>
   </g>
   <g>
    <path class="fil62" d="M25.65 35.99c0,1.73 0.39,3.39 1.16,4.98 -0.52,0.11 -1.03,0.12 -1.55,0.02 -0.57,-0.58 -0.88,-1.28 -0.94,-2.1 -0.27,-1.31 0.18,-2.27 1.33,-2.9z"/>
   </g>
   <g>
    <path class="fil61" d="M23.57 37.63c0.08,0.61 0.14,1.24 0.17,1.88 0.1,0.56 0.28,1.09 0.53,1.59 0.13,0.21 0.28,0.41 0.46,0.58 -0.25,0.16 -0.53,0.27 -0.82,0.34 -0.33,-0.06 -0.55,-0.26 -0.65,-0.58 -0.43,-0.96 -0.59,-1.96 -0.48,-3 0.18,-0.36 0.44,-0.64 0.8,-0.82z"/>
   </g>
   <g>
    <path class="fil63" d="M34.44 54.2c-0,0.13 0.03,0.24 0.1,0.34 0,0.1 0.02,0.2 0.05,0.29 -0,0.13 0.03,0.24 0.1,0.34 -0,0.12 0.01,0.23 0.05,0.34 -0,0.25 0.03,0.49 0.1,0.72 0.05,0.9 0.06,1.8 0.02,2.71 -0.07,0.98 -0.17,1.97 -0.29,2.95 -0.3,0.21 -0.58,0.45 -0.82,0.72 -0.1,0.13 -0.16,0.27 -0.17,0.43 0.34,-0.03 0.67,-0.14 0.97,-0.31 0.2,-0.08 0.41,-0.14 0.63,-0.17 0.24,0.01 0.46,-0.03 0.68,-0.1 1.1,-0.11 2.16,0.05 3.19,0.46 0.31,0.16 0.62,0.31 0.94,0.46 0.02,-0.02 0.05,-0.03 0.07,-0.05 -0.27,-0.52 -0.67,-0.9 -1.21,-1.13 -0.06,-0.03 -0.06,-0.06 0,-0.1 2.36,-1.57 4.66,-1.49 6.91,0.24 1.2,1.22 1.64,2.68 1.33,4.37 -0.42,2.46 -1.83,4.01 -4.23,4.66 -0.95,0.26 -1.92,0.33 -2.9,0.19 -0.75,-0.15 -1.49,-0.32 -2.22,-0.53 0.45,-0.34 0.82,-0.75 1.11,-1.23 -0.02,-0.02 -0.03,-0.03 -0.05,-0.05 -1.32,0.93 -2.78,1.5 -4.4,1.71 -1.15,0.17 -2.31,0.3 -3.48,0.39 -0.68,0.13 -1.36,0.24 -2.05,0.31 -0.46,-0.02 -0.9,-0.13 -1.33,-0.31 -0.17,-0.17 -0.32,-0.36 -0.46,-0.56 -0.63,-1.19 -0.92,-2.47 -0.87,-3.82 0.21,-1.3 0.39,-2.61 0.56,-3.91 -0.12,-0.01 -0.2,0.04 -0.27,0.14 -0.14,0.25 -0.25,0.5 -0.34,0.77 -0.79,-1.73 -1.12,-3.55 -1.01,-5.46 0.01,-0.2 0.04,-0.39 0.07,-0.58 0.07,-0.21 0.1,-0.44 0.1,-0.68 0.05,-0.58 0.14,-1.16 0.27,-1.74 0.37,-1.7 0.72,-3.41 1.06,-5.12 0.21,-1.22 0.29,-2.44 0.24,-3.67 -0.06,-0.4 -0.16,-0.78 -0.29,-1.16 -0.15,-0.14 -0.25,-0.11 -0.29,0.1 -0.8,-1.06 -1.58,-2.13 -2.34,-3.21 0.7,-0.1 1.23,-0.46 1.59,-1.06 0.56,-0.03 1.04,-0.23 1.45,-0.6 0.25,0.33 0.57,0.54 0.97,0.65 -0.44,0.35 -0.76,0.79 -0.97,1.3 0.02,0.04 0.03,0.08 0.05,0.12 0.87,-0.82 1.85,-1.47 2.95,-1.96 0.88,0.18 1.7,0.03 2.46,-0.43 0.18,0.01 0.36,0.01 0.53,-0.02 -0.06,-0.08 -0.14,-0.14 -0.24,-0.17 0.33,-0.21 0.6,-0.47 0.82,-0.8 -0.02,-0.02 -0.05,-0.03 -0.07,-0.05 -0.51,0.19 -1.02,0.4 -1.52,0.6 -0.83,0.2 -1.61,0.07 -2.32,-0.39 -0.47,-0.34 -0.5,-0.71 -0.1,-1.11 0.95,-0.43 1.93,-0.77 2.95,-1.01 1.14,-0.23 1.97,0.16 2.49,1.18 0.45,0.83 0.8,1.7 1.06,2.61 0.08,0.52 -0.04,0.98 -0.34,1.4 -0.2,0.17 -0.4,0.34 -0.6,0.51 -0.53,0.33 -1.05,0.68 -1.55,1.06 -0.44,0.38 -0.77,0.84 -0.99,1.38 -0.11,-0.34 -0.18,-0.68 -0.22,-1.04 -0.02,-0.02 -0.03,-0.05 -0.05,-0.07 -0.04,0.06 -0.06,0.12 -0.07,0.19 -0.01,1.52 0.21,3 0.68,4.44 0.57,1.48 1.08,2.97 1.52,4.49z"/>
   </g>
   <g>
    <path class="fil34" d="M72.84 39.56c0.27,0 0.53,0.03 0.77,0.1 -0.27,0.01 -0.53,-0.03 -0.77,-0.1z"/>
   </g>
   <g>
    <path class="fil67" d="M79.36 39.95c0.23,0.73 0.39,1.49 0.48,2.27 -0.02,0.06 -0.03,0.13 -0.05,0.19 -0.11,-0.07 -0.2,-0.17 -0.27,-0.29 -0.29,-0.55 -0.4,-1.13 -0.34,-1.74 0.01,-0.17 0.06,-0.31 0.17,-0.43z"/>
   </g>
   <g>
    <path class="fil68" d="M77.77 40.29c0.18,0.03 0.33,0.11 0.46,0.24 0.58,0.66 0.77,1.42 0.58,2.27 -0.08,-0.11 -0.16,-0.23 -0.24,-0.34 -0.28,-0.72 -0.55,-1.44 -0.8,-2.17z"/>
   </g>
   <g>
    <path class="fil49" d="M142.26 42.85c0.18,-0.02 0.34,0.02 0.48,0.1 -0.17,-0.01 -0.33,-0.04 -0.48,-0.1z"/>
   </g>
   <g>
    <path class="fil69" d="M128.73 42.66c-0.06,1.47 -0.06,2.93 0,4.4 -0.08,-0.73 -0.11,-1.47 -0.1,-2.22 0.01,-0.55 0.02,-1.09 0.02,-1.64 0.01,-0.19 0.03,-0.36 0.07,-0.53z"/>
   </g>
   <g>
    <path class="fil70" d="M29.95 46.91c0.05,0 0.1,0 0.14,0 -0.01,0.42 0,0.84 0.02,1.26 0.08,0.49 0.14,0.98 0.17,1.47 0.01,0.16 -0.02,0.32 -0.07,0.46 -0.41,-0.72 -0.6,-1.49 -0.58,-2.32 0.03,-0.32 0.14,-0.61 0.31,-0.87z"/>
   </g>
   <g>
    <path class="fil17" d="M28.4 47c0.07,-0.01 0.13,0 0.19,0.02 0.24,0.42 0.37,0.87 0.39,1.35 -0.03,0.43 -0.11,0.86 -0.22,1.28 -0.06,0.17 -0.14,0.34 -0.24,0.48 -0.04,-0.11 -0.07,-0.22 -0.1,-0.34 -0.01,-0.79 -0.04,-1.58 -0.07,-2.37 0,-0.15 0.02,-0.29 0.05,-0.43z"/>
   </g>
   <g>
    <path class="fil1" d="M75.21 68.6c-0.01,0.22 0.02,0.43 0.1,0.63 0,0.39 0,0.77 0,1.16 -0.18,0.21 -0.41,0.36 -0.68,0.46 -1.5,0.53 -3.03,0.94 -4.59,1.26 -5.4,1.08 -10.82,1.98 -16.28,2.71 -0.16,-0.08 -0.32,-0.16 -0.48,-0.24 -0.21,-0.25 -0.38,-0.54 -0.51,-0.85 -0.67,-1.64 -1.23,-3.31 -1.69,-5.02 -0.92,-3.71 -1.81,-7.43 -2.66,-11.16 -0.21,-0.96 -0.4,-1.93 -0.58,-2.9 -0.07,-0.56 -0.09,-1.13 -0.05,-1.69 0.09,-0.6 0.44,-0.95 1.04,-1.04 0.38,-0.11 0.77,-0.2 1.16,-0.27 0.44,-0.02 0.85,-0.1 1.26,-0.24 0.47,-0.03 0.92,-0.11 1.35,-0.24 0.02,0 0.03,0 0.05,0 0.33,-0.01 0.66,-0.06 0.97,-0.14 0.64,-0.07 1.27,-0.17 1.88,-0.29 0.58,-0.03 1.14,-0.12 1.69,-0.24 0.37,-0.01 0.72,-0.06 1.06,-0.14 0.02,0 0.03,0 0.05,0 0.24,0.01 0.46,-0.03 0.68,-0.1 0.14,-0.04 0.28,-0.06 0.43,-0.05 0.24,0.01 0.46,-0.03 0.68,-0.1 0.14,-0.04 0.28,-0.06 0.43,-0.05 0.27,0.01 0.53,-0.03 0.77,-0.1 0.12,-0.05 0.25,-0.06 0.39,-0.05 0.25,0.01 0.5,-0.02 0.72,-0.1 0.03,0 0.06,0 0.1,0 0.38,-0 0.75,-0.05 1.11,-0.14 0.33,-0.07 0.67,-0.1 1.01,-0.1 0.38,-0.02 0.75,-0.07 1.11,-0.15 1.24,-0.2 2.5,-0.27 3.77,-0.22 0.47,0.19 0.83,0.51 1.09,0.94 0.55,1.49 1.01,3 1.38,4.54 1.15,4.62 2.23,9.26 3.24,13.91z"/>
   </g>
   <g>
    <path class="fil64" d="M65.74 49.42c-0.36,0.08 -0.73,0.13 -1.11,0.15 0.36,-0.09 0.73,-0.14 1.11,-0.15z"/>
   </g>
   <g>
    <path class="fil58" d="M63.62 49.66c-0.36,0.09 -0.73,0.14 -1.11,0.14 0.36,-0.08 0.73,-0.13 1.11,-0.14z"/>
   </g>
   <g>
    <path class="fil48" d="M62.41 49.81c-0.23,0.08 -0.47,0.11 -0.72,0.1 0.23,-0.07 0.47,-0.1 0.72,-0.1z"/>
   </g>
   <g>
    <path class="fil71" d="M61.3 49.95c-0.25,0.07 -0.5,0.1 -0.77,0.1 0.25,-0.06 0.5,-0.1 0.77,-0.1z"/>
   </g>
   <g>
    <path class="fil40" d="M60.09 50.09c-0.21,0.07 -0.44,0.1 -0.68,0.1 0.21,-0.07 0.44,-0.1 0.68,-0.1z"/>
   </g>
   <g>
    <path class="fil40" d="M58.98 50.24c-0.21,0.07 -0.44,0.1 -0.68,0.1 0.21,-0.07 0.44,-0.1 0.68,-0.1z"/>
   </g>
   <g>
    <path class="fil64" d="M58.26 50.34c-0.34,0.08 -0.7,0.13 -1.06,0.14 0.34,-0.08 0.7,-0.13 1.06,-0.14z"/>
   </g>
   <g>
    <path class="fil33" d="M57.19 50.48c-0.55,0.13 -1.11,0.21 -1.69,0.24 0.55,-0.11 1.12,-0.19 1.69,-0.24z"/>
   </g>
   <g>
    <path class="fil48" d="M55.5 50.72c-0.62,0.12 -1.25,0.22 -1.88,0.29 0.61,-0.14 1.24,-0.24 1.88,-0.29z"/>
   </g>
   <g>
    <path class="fil72" d="M53.62 51.01c-0.31,0.09 -0.63,0.14 -0.97,0.14 0.31,-0.09 0.63,-0.14 0.97,-0.14z"/>
   </g>
   <g>
    <path class="fil11" d="M52.6 51.16c-0.44,0.13 -0.89,0.21 -1.35,0.24 0.44,-0.11 0.89,-0.19 1.35,-0.24z"/>
   </g>
   <g>
    <path class="fil73" d="M51.25 51.4c-0.4,0.14 -0.82,0.22 -1.26,0.24 0.41,-0.12 0.82,-0.2 1.26,-0.24z"/>
   </g>
   <g>
    <path class="fil4" d="M85.4 51.5c0.07,0.1 0.1,0.21 0.1,0.34 -0.07,-0.1 -0.1,-0.21 -0.1,-0.34z"/>
   </g>
   <g>
    <path class="fil17" d="M65.07 51.83c0.53,-0.01 1.06,0 1.59,0.02 0.5,0.08 0.86,0.35 1.09,0.8 0.51,0.92 0.91,1.89 1.21,2.9 0.89,2.86 1.65,5.76 2.27,8.69 0.17,0.8 0.29,1.6 0.36,2.42 0.01,0.45 -0.08,0.89 -0.27,1.3 -0.32,0.33 -0.72,0.54 -1.18,0.6 -1.83,0.43 -3.67,0.84 -5.51,1.21 -2.67,0.44 -5.35,0.89 -8.02,1.35 -0.51,0.08 -1,-0 -1.45,-0.24 -0.31,-0.31 -0.55,-0.67 -0.7,-1.09 -0.66,-1.83 -1.24,-3.68 -1.74,-5.55 -0.45,-1.69 -0.89,-3.38 -1.3,-5.07 -0.18,-0.77 -0.32,-1.54 -0.43,-2.32 -0.3,-1.42 0.2,-2.41 1.52,-2.97 0.74,-0.27 1.5,-0.48 2.27,-0.63 2.06,-0.35 4.12,-0.67 6.18,-0.97 1.38,-0.13 2.75,-0.28 4.11,-0.46z"/>
   </g>
   <g>
    <path class="fil13" d="M197.42 52.41c0.25,0.02 0.48,0.11 0.68,0.24 -0.24,-0.06 -0.46,-0.14 -0.68,-0.24z"/>
   </g>
   <g>
    <path class="fil1" d="M144.09 53.38c0.02,0.25 0.11,0.48 0.24,0.68 0.34,1.02 0.89,1.9 1.64,2.66 -0.51,0.61 -1.01,1.23 -1.5,1.86 -0.25,-0.06 -0.51,-0.1 -0.77,-0.12 -0.56,-0.06 -1.12,-0.06 -1.69,-0.02 -0.24,0.02 -0.46,0.06 -0.68,0.12 -2.01,0.32 -3.81,1.1 -5.41,2.34 -0.6,0.46 -1.15,0.96 -1.67,1.52 -0.38,-0.48 -0.76,-0.94 -1.16,-1.4 -0.24,-0.36 -0.46,-0.73 -0.68,-1.11 0.1,-0.73 0.32,-1.42 0.68,-2.08 1.59,-2.62 3.87,-4.32 6.84,-5.1 1.11,-0.23 2.23,-0.22 3.33,0.05 0.25,0.09 0.49,0.18 0.72,0.29 0.07,0.09 0.11,0.2 0.1,0.31z"/>
   </g>
   <g>
    <path class="fil1" d="M58.88 64.59c-0.25,-0.07 -0.5,-0.1 -0.77,-0.1 -2.05,-0.22 -3.8,-1.06 -5.24,-2.51 -0.47,-1.57 -0.86,-3.16 -1.16,-4.78 -0.42,-1.19 -0.05,-2.02 1.09,-2.49 1,-0.32 2.01,-0.56 3.04,-0.72 2.81,-0.45 5.62,-0.83 8.45,-1.11 0.53,-0.03 1.06,-0.03 1.59,0 0.23,0.06 0.44,0.15 0.63,0.29 0.2,0.25 0.37,0.51 0.51,0.8 0.65,1.65 1.16,3.34 1.52,5.07 -0.19,0.91 -0.58,1.71 -1.18,2.41 -1.52,1.62 -3.38,2.61 -5.58,2.97 -0.96,0.15 -1.93,0.21 -2.9,0.17z"/>
   </g>
   <g>
    <path class="fil74" d="M195.44 52.99c-0.78,-0.02 -1.55,0.01 -2.32,0.1 0.2,-0.05 0.41,-0.09 0.63,-0.12 0.57,-0.04 1.14,-0.03 1.69,0.02z"/>
   </g>
   <g>
    <path class="fil63" d="M195.44 52.99c0.34,0.02 0.68,0.05 1.01,0.1 -0.07,2.05 -0.05,4.09 0.05,6.13 0.05,1.38 0.13,2.75 0.24,4.11 0,0.03 0,0.06 0,0.1 -0.01,0.51 0.03,1.01 0.1,1.5 0.02,0.26 0.03,0.52 0.05,0.77 0.02,0.14 -0,0.27 -0.05,0.39 -0.66,-0.74 -1.44,-1.33 -2.32,-1.79 -0.04,0.04 -0.06,0.09 -0.05,0.14 0,0.31 -0.01,0.61 -0.05,0.92 -0.06,0.11 -0.11,0.22 -0.14,0.34 -0.14,0.16 -0.29,0.32 -0.43,0.48 -0.25,0.16 -0.5,0.28 -0.77,0.39 -0.26,0.04 -0.51,0.05 -0.77,0.05 -0.05,0.01 -0.08,-0.01 -0.1,-0.05 -0.12,-0.07 -0.25,-0.11 -0.39,-0.14 -0.34,-0.23 -0.61,-0.52 -0.82,-0.87 -0.01,-0.12 -0.06,-0.22 -0.14,-0.29 0,-0.13 -0.03,-0.24 -0.1,-0.34 0,-0.03 0,-0.06 0,-0.1 -0.02,-0.34 0.02,-0.68 0.1,-1.01 0.03,-0.1 0.06,-0.19 0.1,-0.29 0.12,-0.07 0.2,-0.16 0.24,-0.29 -0.01,-0.06 -0.05,-0.09 -0.12,-0.1 -1.66,-0.29 -3.28,-0.13 -4.85,0.46 -0.38,0.15 -0.73,0.33 -1.06,0.56 -0.06,-0.75 -0.06,-1.49 0,-2.22 0.07,-0.21 0.1,-0.44 0.1,-0.68 0.59,-3.11 2.23,-5.48 4.93,-7.13 0.92,-0.52 1.9,-0.87 2.95,-1.04 0.77,-0.08 1.54,-0.11 2.32,-0.1z"/>
   </g>
   <g>
    <path class="fil1" d="M197.18 53.28c3.67,1.18 5.95,3.67 6.84,7.44 0.65,3.79 -0.35,7.05 -3.02,9.78 -0.5,0.44 -1.04,0.84 -1.59,1.21 -0.34,0.21 -0.69,0.38 -1.06,0.51 -0.46,-6.31 -0.85,-12.62 -1.16,-18.94z"/>
   </g>
   <g>
    <path class="fil49" d="M144.09 53.38c0.1,0.21 0.18,0.44 0.24,0.68 -0.14,-0.2 -0.22,-0.43 -0.24,-0.68z"/>
   </g>
   <g>
    <path class="fil75" d="M34.44 54.2c0.07,0.1 0.1,0.21 0.1,0.34 -0.07,-0.1 -0.1,-0.21 -0.1,-0.34z"/>
   </g>
   <g>
    <path class="fil56" d="M34.59 54.83c0.07,0.1 0.1,0.21 0.1,0.34 -0.07,-0.1 -0.1,-0.21 -0.1,-0.34z"/>
   </g>
   <g>
    <path class="fil43" d="M34.73 55.51c0.07,0.23 0.1,0.47 0.1,0.72 -0.07,-0.23 -0.1,-0.47 -0.1,-0.72z"/>
   </g>
   <g>
    <path class="fil7" d="M66.08 56.33c0.09,-0.01 0.16,0.02 0.22,0.1 0.2,1.84 -0.56,3.05 -2.29,3.65 -0.38,0.06 -0.77,0.08 -1.16,0.05 -0.18,-0.03 -0.33,-0.1 -0.46,-0.22 -0.03,-0.11 -0.03,-0.23 0,-0.34 0.1,-0.1 0.21,-0.21 0.31,-0.31 1.14,-0.97 2.26,-1.94 3.38,-2.92z"/>
   </g>
   <g>
    <path class="fil63" d="M147.86 57.78c0.23,0.07 0.47,0.1 0.72,0.1 0.55,0.09 1.12,0.14 1.69,0.14 0.54,0.07 1.09,0.11 1.64,0.1 4.02,0.17 8.05,0.3 12.08,0.39 0.54,0.07 1.09,0.1 1.64,0.1 1.99,0.13 3.99,0.23 5.99,0.29 -0.1,0.41 -0.26,0.8 -0.46,1.16 -0.51,-0.27 -1.05,-0.46 -1.62,-0.56 -2.24,-0.28 -4.45,-0.11 -6.62,0.53 -4.32,1.24 -7.91,3.6 -10.75,7.08 -0.28,0.41 -0.56,0.83 -0.82,1.26 -0.5,0.88 -0.84,1.81 -1.01,2.8 -0.04,0.52 -0.02,1.03 0.05,1.55 0.12,0.32 0.22,0.64 0.31,0.97 -0.01,0.16 0.04,0.28 0.14,0.39 0.28,0.76 0.73,1.4 1.35,1.91 0.23,0.16 0.48,0.26 0.75,0.31 1.48,3.55 3.63,6.62 6.45,9.23 -4.84,0.08 -9.68,0.13 -14.54,0.14 -2.24,0.07 -4.48,0.06 -6.71,-0.02 -0.21,-0.7 -0.42,-1.4 -0.65,-2.1 -0.18,-0.84 -0.28,-1.7 -0.31,-2.56 0,-0.97 0.02,-1.93 0.05,-2.9 0.02,-0.52 0.07,-1.04 0.14,-1.55 0.07,-0.21 0.1,-0.44 0.1,-0.68 0.42,-3.1 1.3,-6.06 2.63,-8.89 1.58,-3.26 3.54,-6.25 5.89,-8.98 0.15,-0.16 0.31,-0.31 0.48,-0.43 0.45,0.13 0.91,0.21 1.38,0.24z"/>
   </g>
   <g>
    <path class="fil76" d="M147.86 57.78c0.25,-0 0.49,0.03 0.72,0.1 -0.25,0 -0.49,-0.03 -0.72,-0.1z"/>
   </g>
   <g>
    <path class="fil21" d="M184.81 57.78c0.07,0.12 0.11,0.25 0.15,0.39 -0.1,-0.1 -0.15,-0.23 -0.15,-0.39z"/>
   </g>
   <g>
    <path class="fil77" d="M150.28 58.02c0.56,0 1.1,0.04 1.64,0.1 -0.56,0.01 -1.1,-0.02 -1.64,-0.1z"/>
   </g>
   <g>
    <path class="fil0" d="M54.29 58.16c1.75,0.5 3.51,0.99 5.27,1.47 0.25,0.18 0.25,0.37 0,0.58 -1.21,0.72 -2.48,0.85 -3.82,0.39 -0.93,-0.42 -1.46,-1.15 -1.59,-2.17 0.01,-0.12 0.05,-0.2 0.14,-0.27z"/>
   </g>
   <g>
    <path class="fil34" d="M25.31 57.78c0.01,0.24 -0.03,0.46 -0.1,0.68 -0.01,-0.24 0.03,-0.46 0.1,-0.68z"/>
   </g>
   <g>
    <path class="fil44" d="M143.71 58.45c-0.79,-0.02 -1.58,0.02 -2.37,0.1 0.21,-0.06 0.44,-0.1 0.68,-0.12 0.57,-0.04 1.14,-0.03 1.69,0.02z"/>
   </g>
   <g>
    <path class="fil6" d="M163.99 58.5c0.56,-0.01 1.1,0.02 1.64,0.1 -0.56,0 -1.1,-0.03 -1.64,-0.1z"/>
   </g>
   <g>
    <path class="fil31" d="M143.37 59.56c-0.65,-0.01 -1.29,0.02 -1.93,0.1 0.2,-0.06 0.41,-0.1 0.63,-0.12 0.44,-0.04 0.88,-0.03 1.3,0.02z"/>
   </g>
   <g>
    <path class="fil63" d="M143.37 59.56c0.12,-0.01 0.23,0 0.34,0.05 -1.08,1.45 -2.08,2.95 -3.02,4.49 -3.59,4.79 -5.97,10.14 -7.15,16.04 -0.17,0.88 -0.3,1.77 -0.39,2.66 -0.05,0.74 -0.02,1.48 0.07,2.22 -0.11,0.03 -0.23,0.06 -0.34,0.1 -5.96,0.25 -11.92,0.6 -17.87,1.04 -1.14,0.09 -2.28,0.13 -3.43,0.12 -0.06,-0.95 -0.1,-1.9 -0.12,-2.85 -0.03,-3.38 -0.05,-6.76 -0.05,-10.14 0.03,-0.35 0.19,-0.63 0.46,-0.85 0.84,-0.36 1.71,-0.64 2.61,-0.82 3.68,-0.75 7.37,-1.47 11.06,-2.17 1.79,-0.38 3.56,-0.84 5.31,-1.38 0.03,0.02 0.06,0.03 0.1,0.05 -0.5,1.51 -0.66,3.06 -0.48,4.64 0.42,-5 2.72,-8.86 6.91,-11.57 1.25,-0.77 2.61,-1.28 4.06,-1.52 0.64,-0.08 1.29,-0.11 1.93,-0.1z"/>
   </g>
   <g>
    <path class="fil39" d="M196.5 59.22c0.12,1.36 0.2,2.73 0.24,4.11 -0.11,-1.36 -0.19,-2.73 -0.24,-4.11z"/>
   </g>
   <g>
    <path class="fil78" d="M68.79 60c0.22,0.74 0.41,1.5 0.56,2.27 0.15,0.67 0.27,1.35 0.34,2.03 -0.73,-0.76 -1.51,-1.45 -2.34,-2.08 0.62,-0.65 1.1,-1.39 1.45,-2.22z"/>
   </g>
   <g>
    <path class="fil39" d="M169.16 60.34c-0.79,-0 -1.58,0.02 -2.37,0.05 0.48,-0.07 0.97,-0.1 1.47,-0.1 0.31,0 0.6,0.02 0.89,0.05z"/>
   </g>
   <g>
    <path class="fil1" d="M169.16 60.34c0.61,0.02 1.2,0.12 1.79,0.29 -0.89,2.46 -1.71,4.96 -2.44,7.49 -0.3,1.15 -0.58,2.31 -0.82,3.48 -1.53,-2.22 -3.63,-3.54 -6.3,-3.96 -0.21,-0.07 -0.44,-0.1 -0.68,-0.1 -2.29,-0.15 -4.35,0.45 -6.18,1.81 -0.73,0.59 -1.31,1.31 -1.71,2.15 -0.37,0.93 -0.49,1.9 -0.36,2.9 0.01,0.11 -0,0.2 -0.05,0.29 -0.5,-0.6 -0.78,-1.29 -0.85,-2.08 -0.14,-0.94 -0.01,-1.84 0.39,-2.71 0.53,-1.1 1.21,-2.1 2.03,-2.99 3.18,-3.43 7.08,-5.55 11.71,-6.38 0.37,-0.01 0.72,-0.06 1.06,-0.15 0.02,0 0.03,0 0.05,0 0.79,-0.03 1.58,-0.05 2.37,-0.05z"/>
   </g>
   <g>
    <path class="fil40" d="M166.75 60.38c-0.34,0.08 -0.7,0.13 -1.06,0.15 0.34,-0.08 0.7,-0.13 1.06,-0.15z"/>
   </g>
   <g>
    <path class="fil10" d="M185.25 61.25c0.01,0.24 -0.03,0.46 -0.1,0.68 -0.01,-0.24 0.03,-0.46 0.1,-0.68z"/>
   </g>
   <g>
    <path class="fil10" d="M35.84 62.46c-0.21,0.07 -0.44,0.1 -0.68,0.1 0.21,-0.07 0.44,-0.1 0.68,-0.1z"/>
   </g>
   <g>
    <path class="fil60" d="M67 62.46c0.07,0.04 0.11,0.1 0.12,0.19 0.31,1.93 0.58,3.86 0.8,5.8 -0.09,0.01 -0.16,-0.02 -0.22,-0.1 -1.18,-1.35 -2.33,-2.72 -3.45,-4.11 0.8,-0.37 1.56,-0.81 2.27,-1.33 0.18,-0.13 0.35,-0.28 0.48,-0.46z"/>
   </g>
   <g>
    <path class="fil60" d="M67.34 62.65c0.82,0.86 1.66,1.7 2.54,2.51 0.15,0.9 0.35,1.78 0.6,2.66 -0.73,0.21 -1.47,0.38 -2.22,0.53 -0.17,-1.92 -0.48,-3.82 -0.92,-5.7z"/>
   </g>
   <g>
    <path class="fil60" d="M52.99 62.65c1.03,1.03 2.25,1.74 3.67,2.13 -0.66,1.34 -1.28,2.69 -1.86,4.06 -0.65,-2.05 -1.25,-4.11 -1.81,-6.18z"/>
   </g>
   <g>
    <path class="fil79" d="M191.19 63.23c-0.04,0.12 -0.12,0.22 -0.24,0.29 0.04,-0.13 0.13,-0.22 0.24,-0.29z"/>
   </g>
   <g>
    <path class="fil58" d="M196.74 63.43c0.07,0.49 0.1,0.99 0.1,1.5 -0.07,-0.49 -0.1,-0.99 -0.1,-1.5z"/>
   </g>
   <g>
    <path class="fil60" d="M63.33 68.74c-0.03,0.15 -0.06,0.29 -0.1,0.43 -0.88,-1.34 -1.74,-2.7 -2.56,-4.08 1.1,-0.11 2.17,-0.36 3.21,-0.75 0.02,0.02 0.05,0.03 0.07,0.05 -0.28,1.44 -0.49,2.89 -0.63,4.35z"/>
   </g>
   <g>
    <path class="fil56" d="M190.85 63.81c-0.08,0.33 -0.11,0.67 -0.1,1.01 -0.06,-0.25 -0.06,-0.51 -0.02,-0.77 0.04,-0.09 0.08,-0.17 0.12,-0.24z"/>
   </g>
   <g>
    <path class="fil28" d="M58.11 64.49c0.27,-0.01 0.53,0.03 0.77,0.1 -0.27,-0 -0.53,-0.03 -0.77,-0.1z"/>
   </g>
   <g>
    <path class="fil60" d="M64.15 64.54c0.97,1.41 2.05,2.75 3.24,4.01 -1.22,0.32 -2.46,0.56 -3.72,0.72 0.22,-1.57 0.38,-3.15 0.48,-4.73z"/>
   </g>
   <g>
    <path class="fil71" d="M194.47 64.44c0.06,0.3 0.06,0.6 0,0.92 -0.02,0 -0.03,0 -0.05,0 0.04,-0.3 0.05,-0.61 0.05,-0.92z"/>
   </g>
   <g>
    <path class="fil60" d="M57 64.83c1.08,0.25 2.17,0.36 3.28,0.31 -0.6,1.55 -1.09,3.13 -1.45,4.76 -0.39,-1.11 -0.77,-2.22 -1.14,-3.33 -0.22,-0.59 -0.45,-1.17 -0.7,-1.74z"/>
   </g>
   <g>
    <path class="fil18" d="M190.75 64.92c0.07,0.1 0.1,0.21 0.1,0.34 -0.07,-0.1 -0.1,-0.21 -0.1,-0.34z"/>
   </g>
   <g>
    <path class="fil60" d="M56.76 65.31c0.03,0.01 0.05,0.02 0.07,0.05 0.47,1.47 0.96,2.93 1.45,4.4 0.05,0.15 0.12,0.29 0.22,0.41 -0.54,0.13 -1.09,0.25 -1.64,0.34 -0.34,0.05 -0.68,0.07 -1.01,0.05 -0.15,-0.03 -0.27,-0.1 -0.36,-0.22 -0.2,-0.33 -0.37,-0.68 -0.51,-1.04 0.64,-1.31 1.24,-2.64 1.79,-3.99z"/>
   </g>
   <g>
    <path class="fil15" d="M75.5 65.21c0.09,0.05 0.12,0.13 0.1,0.24 0.23,0 0.45,0 0.68,0 -0.23,0.05 -0.47,0.06 -0.72,0.05 -0,-0.1 -0.02,-0.2 -0.05,-0.29z"/>
   </g>
   <g>
    <path class="fil60" d="M60.48 65.36c0.65,1.42 1.44,2.75 2.37,4.01 -0.03,0.03 -0.06,0.06 -0.1,0.07 -1.14,0.19 -2.27,0.39 -3.41,0.6 -0.04,-0.02 -0.08,-0.03 -0.12,-0.05 0.47,-1.53 0.89,-3.08 1.26,-4.64z"/>
   </g>
   <g>
    <path class="fil25" d="M190.85 65.26c0.08,0.07 0.13,0.17 0.14,0.29 -0.08,-0.07 -0.13,-0.17 -0.14,-0.29z"/>
   </g>
   <g>
    <path class="fil80" d="M194.43 65.36c0.02,0 0.03,0 0.05,0 -0.01,0.15 -0.08,0.26 -0.19,0.34 0.04,-0.12 0.08,-0.23 0.14,-0.34z"/>
   </g>
   <g>
    <path class="fil38" d="M194.28 65.7c-0.08,0.22 -0.22,0.38 -0.43,0.48 0.15,-0.16 0.29,-0.32 0.43,-0.48z"/>
   </g>
   <g>
    <path class="fil81" d="M196.89 65.7c0.06,0.15 0.06,0.31 0.02,0.48 -0.03,-0.03 -0.06,-0.06 -0.07,-0.1 0.05,-0.12 0.06,-0.25 0.05,-0.39z"/>
   </g>
   <g>
    <path class="fil82" d="M191.82 66.42c0.14,0.03 0.27,0.08 0.39,0.14 -0.16,0.01 -0.28,-0.04 -0.39,-0.14z"/>
   </g>
   <g>
    <path class="fil83" d="M193.07 66.57c-0.14,0.07 -0.29,0.1 -0.46,0.1 -0.11,0 -0.22,-0.02 -0.31,-0.05 0.26,0.01 0.52,-0.01 0.77,-0.05z"/>
   </g>
   <g>
    <path class="fil60" d="M181.96 67.29c0.98,-0.13 1.74,0.21 2.29,1.01 0.37,0.93 0.26,1.8 -0.34,2.61 -1.02,-1 -2.08,-1.95 -3.19,-2.85 0.12,-0.2 0.28,-0.35 0.51,-0.46 0.24,-0.12 0.48,-0.22 0.72,-0.31z"/>
   </g>
   <g>
    <path class="fil59" d="M160.71 67.53c0.24,-0.01 0.46,0.03 0.68,0.1 -0.24,0.01 -0.46,-0.03 -0.68,-0.1z"/>
   </g>
   <g>
    <path class="fil60" d="M180.22 68.5c1.12,0.95 2.25,1.9 3.38,2.83 -0.24,0.29 -0.5,0.56 -0.77,0.82 -0.34,0.27 -0.68,0.55 -1.01,0.82 -0.05,0.03 -0.1,0.03 -0.14,0 -0.83,-0.8 -1.69,-1.57 -2.58,-2.29 0.22,-0.8 0.6,-1.53 1.13,-2.17z"/>
   </g>
   <g>
    <path class="fil34" d="M75.21 68.6c0.07,0.2 0.11,0.41 0.1,0.63 -0.07,-0.2 -0.11,-0.41 -0.1,-0.63z"/>
   </g>
   <g>
    <path class="fil84" d="M63.33 68.74c0.01,0.18 0,0.36 -0.02,0.53 -0.04,-0.03 -0.06,-0.06 -0.07,-0.1 0.03,-0.14 0.06,-0.29 0.1,-0.43z"/>
   </g>
   <g>
    <path class="fil85" d="M75.31 69.22c0.06,0.21 0.1,0.44 0.1,0.68 0.01,0.18 -0.02,0.34 -0.1,0.48 0,-0.39 0,-0.77 0,-1.16z"/>
   </g>
   <g>
    <path class="fil50" d="M188.92 70.14c0.07,0.23 0.1,0.47 0.1,0.72 -0.07,-0.23 -0.1,-0.47 -0.1,-0.72z"/>
   </g>
   <g>
    <path class="fil18" d="M178.05 70.96c0,0.13 -0.03,0.24 -0.1,0.34 -0,-0.13 0.03,-0.24 0.1,-0.34z"/>
   </g>
   <g>
    <path class="fil60" d="M178.58 74.25c-0.01,-0.04 -0.04,-0.07 -0.07,-0.1 -0.02,-0.27 -0.03,-0.55 -0.02,-0.82 0.06,-0.65 0.18,-1.29 0.34,-1.93 0.82,0.7 1.69,1.33 2.61,1.88 -0.64,0.51 -1.24,1.07 -1.79,1.69 -0.33,-0.28 -0.68,-0.52 -1.06,-0.72z"/>
   </g>
   <g>
    <path class="fil2" d="M168.87 71.74c0,0.13 -0.03,0.24 -0.1,0.34 -0,-0.13 0.03,-0.24 0.1,-0.34z"/>
   </g>
   <g>
    <path class="fil1" d="M105.98 72.65c0.42,-0.04 0.82,0.02 1.21,0.17 0.51,0.26 0.99,0.56 1.45,0.89 -2.2,1.15 -4.38,2.35 -6.52,3.6 -3.79,2.25 -7.55,4.55 -11.28,6.88 -0.39,-0.49 -0.75,-1 -1.06,-1.55 -0.03,-0.11 -0.03,-0.23 0,-0.34 1.43,-1.38 2.98,-2.6 4.66,-3.65 3.17,-1.93 6.44,-3.7 9.81,-5.31 0.57,-0.28 1.15,-0.51 1.74,-0.7z"/>
   </g>
   <g>
    <path class="fil50" d="M168.58 73.14c-0.03,0.45 -0.09,0.88 -0.19,1.3 0.02,-0.45 0.08,-0.88 0.19,-1.3z"/>
   </g>
   <g>
    <path class="fil1" d="M160.61 73.47c1.92,-0.07 3.74,0.32 5.46,1.18 0.29,0.17 0.55,0.37 0.8,0.6 0.09,0.57 0.24,1.11 0.46,1.64 -3.47,-0.59 -6.4,0.43 -8.77,3.04 -0.42,0.56 -0.75,1.17 -0.97,1.84 -1.16,-1.55 -2.15,-3.21 -2.99,-4.98 -0.03,-0.05 -0.03,-0.1 0,-0.14 1.07,-1.45 2.47,-2.41 4.23,-2.87 0.6,-0.15 1.19,-0.25 1.79,-0.31z"/>
   </g>
   <g>
    <path class="fil86" d="M150.71 73.67c0.07,0.12 0.11,0.25 0.14,0.39 -0.1,-0.1 -0.15,-0.23 -0.14,-0.39z"/>
   </g>
   <g>
    <path class="fil45" d="M178.49 73.33c-0.01,0.27 0,0.55 0.02,0.82 0.03,0.03 0.06,0.06 0.07,0.1 -0.05,0 -0.09,-0.01 -0.12,-0.05 -0.04,-0.3 -0.03,-0.59 0.02,-0.87z"/>
   </g>
   <g>
    <path class="fil66" d="M-0 90.43c0,-0.85 0,-1.71 0,-2.56 0.55,0.01 1.09,0 1.64,-0.02 0.11,-0.01 0.2,-0.03 0.29,-0.07 0.03,0 0.06,0 0.1,0 0.37,0.02 0.72,-0.01 1.06,-0.1 4.09,-0.41 8.18,-0.78 12.27,-1.11 0.27,0.01 0.55,0 0.82,-0.02 0.08,-0.01 0.14,-0.03 0.19,-0.07 0.03,0 0.06,0 0.1,0 0.44,0 0.87,-0.02 1.3,-0.07 0.08,-0.01 0.14,-0.03 0.19,-0.07 2.48,-0.25 4.96,-0.51 7.44,-0.77 0.4,-0.01 0.79,-0.08 1.16,-0.19 1.55,-0.22 3.06,-0.58 4.54,-1.09 1.67,-0.62 3.03,-1.64 4.08,-3.07 0.83,-1.33 1.61,-2.7 2.32,-4.11 0.49,-0.86 1.11,-1.63 1.86,-2.29 0.29,-0.27 0.61,-0.49 0.97,-0.65 0.2,0.66 0.43,1.31 0.68,1.96 -0.62,0.43 -1.14,0.95 -1.57,1.57 -0.52,0.82 -1.02,1.66 -1.5,2.51 -0.8,1.34 -1.72,2.6 -2.75,3.77 -1.03,1.07 -2.24,1.85 -3.65,2.34 -2.44,0.88 -4.95,1.46 -7.54,1.74 -8.01,0.75 -16.01,1.55 -24.01,2.39z"/>
   </g>
   <g>
    <path class="fil1" d="M67.82 75.55c-0.01,0.24 0.03,0.46 0.1,0.68 0.13,1.17 0.17,2.34 0.12,3.53 -0.02,0.29 -0.16,0.51 -0.41,0.65 -1.04,0.52 -2.13,0.86 -3.28,1.01 -1.77,0.31 -3.56,0.44 -5.36,0.39 -0.24,-0.22 -0.45,-0.45 -0.65,-0.7 -0.36,-1.38 -0.45,-2.78 -0.29,-4.2 0.11,-0.75 0.46,-1.37 1.04,-1.86 0.42,-0.08 0.83,-0.14 1.26,-0.17 0.48,-0.03 0.95,-0.11 1.4,-0.24 0.27,-0.06 0.54,-0.09 0.82,-0.1 0.43,-0.03 0.85,-0.1 1.26,-0.19 1.06,-0.07 2.12,-0.05 3.19,0.07 0.54,0.18 0.81,0.56 0.82,1.14z"/>
   </g>
   <g>
    <path class="fil87" d="M63.81 74.34c-0.41,0.09 -0.83,0.16 -1.26,0.19 0.4,-0.11 0.82,-0.18 1.26,-0.19z"/>
   </g>
   <g>
    <path class="fil66" d="M107.28 80.19c-0.05,0 -0.1,0 -0.15,0 0.01,-0.11 -0,-0.2 -0.05,-0.29 -0.14,-0.95 -0.31,-1.9 -0.51,-2.85 -0.08,-0.39 -0.19,-0.76 -0.34,-1.11 1.03,-0.54 2.08,-1.06 3.14,-1.55 0.44,0.33 0.8,0.73 1.06,1.21 0.02,1.5 -0.19,2.96 -0.63,4.4 -0.84,0.1 -1.68,0.17 -2.54,0.19z"/>
   </g>
   <g>
    <path class="fil88" d="M152.45 74.39c0.06,0.15 0.08,0.31 0.07,0.48 -0.07,-0.05 -0.11,-0.11 -0.12,-0.19 0.05,-0.09 0.06,-0.18 0.05,-0.29z"/>
   </g>
   <g>
    <path class="fil11" d="M61.73 74.63c-0.45,0.13 -0.92,0.21 -1.4,0.24 0.46,-0.11 0.92,-0.19 1.4,-0.24z"/>
   </g>
   <g>
    <path class="fil89" d="M178.44 74.88c0.28,0.13 0.57,0.25 0.87,0.36 0.03,0.03 0.04,0.06 0.05,0.1 -0.32,0.49 -0.59,1.02 -0.8,1.57 -0.1,-0.67 -0.14,-1.35 -0.12,-2.03z"/>
   </g>
   <g>
    <path class="fil45" d="M67.82 75.55c0.07,0.21 0.1,0.44 0.1,0.68 -0.07,-0.21 -0.1,-0.44 -0.1,-0.68z"/>
   </g>
   <g>
    <path class="fil61" d="M105.55 76.28c0.05,0 0.1,0 0.14,0 0.18,1.34 0.5,2.64 0.97,3.91 -0.38,0.11 -0.76,0.16 -1.16,0.15 -0.11,-0.92 -0.25,-1.84 -0.41,-2.75 -0.06,-0.29 -0.14,-0.56 -0.27,-0.82 0.02,-0.03 0.03,-0.06 0.05,-0.1 0.24,-0.11 0.47,-0.23 0.68,-0.39z"/>
   </g>
   <g>
    <path class="fil32" d="M137.47 75.84c0.01,0.24 -0.03,0.46 -0.1,0.68 -0.01,-0.24 0.03,-0.46 0.1,-0.68z"/>
   </g>
   <g>
    <path class="fil71" d="M189.98 76.66c-0.21,0.07 -0.44,0.1 -0.68,0.1 0.21,-0.07 0.44,-0.1 0.68,-0.1z"/>
   </g>
   <g>
    <path class="fil61" d="M104.19 77c0.05,0 0.1,0 0.15,0 0.11,1.16 0.36,2.29 0.77,3.38 -0.41,0.08 -0.81,0.17 -1.21,0.29 -0.13,-1.04 -0.34,-2.06 -0.63,-3.07 0.01,-0.04 0.02,-0.07 0.05,-0.1 0.3,-0.16 0.59,-0.33 0.87,-0.51z"/>
   </g>
   <g>
    <path class="fil66" d="M220.56 80.53c-0.15,-0.07 -0.31,-0.11 -0.48,-0.12 -0.57,-0.04 -1.14,-0.03 -1.69,0.02 -0.34,0 -0.68,0.05 -1.01,0.14 0.03,0.03 0.06,0.06 0.1,0.07 0.81,0.07 1.62,0.19 2.42,0.34 0.73,0.14 1.35,0.47 1.86,0.99 0.26,0.31 0.37,0.66 0.34,1.06 -0.07,0.12 -0.16,0.22 -0.27,0.31 -0.62,0.25 -1.26,0.4 -1.93,0.43 -0.95,0.03 -1.9,0.01 -2.85,-0.07 -1.13,0.08 -2.25,0.15 -3.38,0.22 -0.86,0.05 -1.71,0.03 -2.56,-0.05 -1.27,-1.05 -2.6,-2.02 -3.99,-2.92 -0.03,-0.06 -0.03,-0.13 0,-0.19 0.61,-1.14 1.16,-2.32 1.64,-3.53 0.02,-0.07 0.06,-0.12 0.12,-0.14 2.53,0.6 5.09,1 7.68,1.18 2.32,0.05 4.64,0.2 6.96,0.43 1.33,0.21 2.58,0.63 3.77,1.26 0.8,0.54 1.17,1.29 1.13,2.25 -0.14,0.33 -0.37,0.56 -0.7,0.7 -0.22,0.1 -0.45,0.19 -0.68,0.27 -0.02,-0.02 -0.03,-0.03 -0.05,-0.05 0.32,-0.61 0.32,-1.23 -0.02,-1.84 -0.62,-1 -1.5,-1.67 -2.63,-2 -0.61,-0.14 -1.22,-0.26 -1.84,-0.34 -1.77,-0.22 -3.54,-0.35 -5.31,-0.41 0.13,0.09 0.28,0.15 0.43,0.17 1.81,0.3 3.61,0.63 5.41,1.01 0.77,0.18 1.48,0.48 2.13,0.92 0.38,0.32 0.7,0.7 0.94,1.14 0.14,0.3 0.15,0.6 0.05,0.92 -0.28,0.26 -0.61,0.42 -0.99,0.46 -0.72,0.07 -1.45,0.12 -2.17,0.17 0.07,-0.34 0.06,-0.68 -0.02,-1.01 -0.47,-1.02 -1.27,-1.62 -2.39,-1.79z"/>
   </g>
   <g>
    <path class="fil90" d="M179.45 77.19c0,0.13 -0.03,0.24 -0.1,0.34 -0,-0.13 0.03,-0.24 0.1,-0.34z"/>
   </g>
   <g>
    <path class="fil62" d="M102.65 77.87c0.2,0.98 0.46,1.96 0.77,2.92 -0.23,0.21 -0.49,0.41 -0.77,0.58 -0.25,0.22 -0.47,0.47 -0.65,0.75 -0.28,-1.12 -0.84,-2.07 -1.67,-2.85 0.77,-0.47 1.55,-0.94 2.32,-1.4z"/>
   </g>
   <g>
    <path class="fil21" d="M179.35 77.53c-0.03,0.43 -0.05,0.87 -0.05,1.3 -0.03,-0.16 -0.05,-0.33 -0.05,-0.51 -0.01,-0.28 0.03,-0.54 0.1,-0.8z"/>
   </g>
   <g>
    <path class="fil91" d="M185.3 78.5c0,0.25 -0.03,0.49 -0.1,0.72 -0,-0.25 0.03,-0.49 0.1,-0.72z"/>
   </g>
   <g>
    <path class="fil1" d="M192.06 87.48c-0.23,-0.07 -0.47,-0.1 -0.72,-0.1 -0.22,-0.01 -0.43,-0.06 -0.63,-0.15 2.19,-2.73 4.28,-5.54 6.28,-8.4 0.97,0.81 1.62,1.82 1.96,3.04 0.31,2.32 -0.6,3.97 -2.73,4.95 -1.33,0.57 -2.71,0.78 -4.15,0.65z"/>
   </g>
   <g>
    <path class="fil1" d="M96.71 86.13c-0.34,-0.08 -0.7,-0.13 -1.06,-0.14 -1.49,-0.24 -2.91,-0.7 -4.25,-1.38 2.74,-1.64 5.48,-3.29 8.21,-4.95 0.32,0.46 0.64,0.93 0.94,1.4 0.44,0.87 0.75,1.79 0.92,2.75 0.11,0.74 0.2,1.48 0.27,2.22 -1.67,0.11 -3.35,0.14 -5.02,0.1z"/>
   </g>
   <g>
    <path class="fil60" d="M69.94 80.14c0.21,0.07 0.44,0.1 0.68,0.1 1.62,0.15 3.25,0.25 4.88,0.31 0.39,0.05 0.78,0.11 1.16,0.19 -3.24,0.72 -6.48,1.46 -9.71,2.22 -1.75,0.38 -3.51,0.74 -5.26,1.09 -0.06,-0.04 -0.05,-0.07 0.02,-0.1 1.68,-0.73 3.31,-1.54 4.9,-2.44 0.76,-0.19 1.43,-0.56 2,-1.09 0.07,-0.14 0.14,-0.28 0.22,-0.41 0.37,0.04 0.74,0.08 1.11,0.12z"/>
   </g>
   <g>
    <path class="fil92" d="M69.94 80.14c0.24,-0.01 0.46,0.03 0.68,0.1 -0.24,0.01 -0.46,-0.03 -0.68,-0.1z"/>
   </g>
   <g>
    <path class="fil93" d="M107.09 79.9c0.05,0.09 0.06,0.18 0.05,0.29 0.05,0 0.1,0 0.15,0 -0.05,0.05 -0.12,0.06 -0.19,0.05 0,-0.11 0,-0.23 0,-0.34z"/>
   </g>
   <g>
    <path class="fil25" d="M137.23 78.06c-0.03,0.97 -0.05,1.93 -0.05,2.9 -0.03,-0.35 -0.05,-0.7 -0.05,-1.06 -0,-0.62 0.03,-1.23 0.1,-1.84z"/>
   </g>
   <g>
    <path class="fil4" d="M189.11 80.09c-0.14,0.18 -0.31,0.34 -0.48,0.48 0.11,-0.21 0.27,-0.37 0.48,-0.48z"/>
   </g>
   <g>
    <path class="fil4" d="M218.38 80.43c0.56,-0.06 1.12,-0.06 1.69,-0.02 0.18,0.01 0.34,0.05 0.48,0.12 -0.72,-0.09 -1.45,-0.12 -2.17,-0.1z"/>
   </g>
   <g>
    <path class="fil1" d="M176.07 84.92c0.66,-0.02 1.32,-0.04 1.98,-0.05 2.05,0.16 3.99,0.73 5.8,1.72 0.68,0.39 1.24,0.91 1.67,1.57 0.32,0.52 0.45,1.08 0.39,1.69 -0.07,0.21 -0.19,0.38 -0.36,0.51 -0.3,0.18 -0.62,0.27 -0.97,0.27 0.7,-0.93 0.71,-1.86 0.02,-2.8 -0.87,-0.89 -1.9,-1.51 -3.09,-1.88 -1.9,-0.58 -3.84,-0.75 -5.82,-0.51 -0.35,0.01 -0.64,0.13 -0.89,0.36 -0.02,0.07 -0,0.13 0.07,0.17 2.06,0 4.07,0.31 6.04,0.92 0.8,0.3 1.54,0.7 2.22,1.21 0.29,0.24 0.52,0.52 0.7,0.85 0.2,0.77 -0.08,1.26 -0.85,1.47 -0.56,0.11 -1.12,0.14 -1.69,0.1 -0.79,-0.08 -1.58,-0.19 -2.37,-0.34 -2.85,-0.61 -5.74,-1.04 -8.65,-1.28 -0.36,-0.08 -0.73,-0.11 -1.11,-0.1 -1.19,-0.02 -2.36,-0.14 -3.53,-0.36 -1.1,-0.41 -2.12,-0.96 -3.04,-1.67 0.83,-1.64 1.94,-3.07 3.33,-4.27 0.99,-0.87 2.14,-1.46 3.43,-1.76 0.56,0.75 1.13,1.49 1.72,2.22 0.82,0.95 1.85,1.59 3.07,1.91 0.64,0.07 1.29,0.09 1.93,0.07z"/>
   </g>
   <g>
    <path class="fil94" d="M107.77 80.86c0.11,-0.06 0.22,-0.06 0.34,0 -0.01,0.03 -0.02,0.05 -0.05,0.05 -0.09,-0.05 -0.18,-0.06 -0.29,-0.05z"/>
   </g>
   <g>
    <path class="fil95" d="M188.63 80.58c-0.03,0.14 -0.08,0.27 -0.15,0.39 -0.01,-0.16 0.04,-0.28 0.15,-0.39z"/>
   </g>
   <g>
    <path class="fil78" d="M107.77 80.86c0.11,-0.01 0.2,0 0.29,0.05 -0.01,0.25 0.01,0.49 0.07,0.72 0.21,0.61 0.43,1.23 0.65,1.84 -0.1,0.31 -0.23,0.6 -0.41,0.87 -0.22,-1.02 -0.62,-1.95 -1.21,-2.8 -0.18,-0.2 -0.38,-0.38 -0.6,-0.53 0.4,-0.07 0.8,-0.11 1.21,-0.14z"/>
   </g>
   <g>
    <path class="fil96" d="M108.88 80.96c0.24,-0.02 0.45,0.05 0.63,0.22 -0.12,0.42 -0.24,0.85 -0.34,1.28 -0.21,-0.48 -0.31,-0.98 -0.29,-1.5z"/>
   </g>
   <g>
    <path class="fil66" d="M77.82 81.11c0.07,0 0.13,0.03 0.17,0.1 0.21,0.53 0.29,1.08 0.24,1.64 -0.16,0.08 -0.33,0.15 -0.51,0.22 -4.75,1.24 -9.52,2.43 -14.3,3.57 -0.83,0.19 -1.66,0.26 -2.51,0.22 -0.02,-0.7 0,-1.4 0.05,-2.1 1.15,-0.16 2.3,-0.36 3.43,-0.63 4.49,-0.99 8.96,-2 13.43,-3.02z"/>
   </g>
   <g>
    <path class="fil97" d="M188.44 81.06c-0.04,0.38 0.02,0.73 0.19,1.06 -0.12,-0.1 -0.19,-0.22 -0.22,-0.39 -0.04,-0.23 -0.03,-0.46 0.02,-0.68z"/>
   </g>
   <g>
    <path class="fil6" d="M191.33 81.3c-0.03,0.13 -0.06,0.26 -0.1,0.39 -0.02,-0.15 0,-0.29 0.05,-0.43 0.03,0.01 0.05,0.02 0.05,0.05z"/>
   </g>
   <g>
    <path class="fil60" d="M103.71 85.84c-0.28,-0 -0.56,0.03 -0.82,0.1 -0.21,0 -0.42,0 -0.63,0 0.14,-0.8 0.18,-1.6 0.12,-2.41 0.07,-0.65 0.39,-1.16 0.94,-1.52 0.43,-0.32 0.91,-0.55 1.42,-0.7 0.02,0.02 0.05,0.03 0.07,0.05 -0.18,0.48 -0.19,0.96 -0.02,1.45 0.38,0.96 0.82,1.88 1.33,2.78 -0.81,0.05 -1.62,0.14 -2.42,0.27z"/>
   </g>
   <g>
    <path class="fil60" d="M107.19 85.5c-0.2,-0.01 -0.39,0 -0.58,0.05 -0.03,-0.12 -0.06,-0.23 -0.1,-0.34 -0.17,-0.55 -0.39,-1.08 -0.65,-1.59 -0.28,-0.6 -0.39,-1.23 -0.34,-1.88 0.08,-0.22 0.24,-0.29 0.46,-0.22 0.44,0.2 0.77,0.51 0.99,0.94 0.4,0.82 0.69,1.67 0.87,2.56 -0.15,0.13 -0.27,0.28 -0.36,0.46 -0.1,0.02 -0.19,0.03 -0.29,0.02z"/>
   </g>
   <g>
    <path class="fil98" d="M191.09 82.12c-0.14,0.29 -0.37,0.46 -0.68,0.53 0.25,-0.14 0.48,-0.32 0.68,-0.53z"/>
   </g>
   <g>
    <path class="fil22" d="M188.97 82.46c0.14,0.06 0.26,0.12 0.39,0.19 -0.17,0.01 -0.3,-0.05 -0.39,-0.19z"/>
   </g>
   <g>
    <path class="fil99" d="M190.42 82.65c-0.17,0.08 -0.36,0.11 -0.56,0.1 -0.15,0 -0.28,-0.02 -0.41,-0.05 0.32,0.01 0.65,-0.01 0.97,-0.05z"/>
   </g>
   <g>
    <path class="fil100" d="M178.05 84.87c-0.66,0.01 -1.32,0.03 -1.98,0.05 0.66,-0.1 1.32,-0.11 1.98,-0.05z"/>
   </g>
   <g>
    <path class="fil21" d="M133.22 85.02c0.03,0 0.04,0.02 0.05,0.05 -0.13,0.05 -0.25,0.06 -0.39,0.05 0.11,-0.03 0.23,-0.06 0.34,-0.1z"/>
   </g>
   <g>
    <path class="fil15" d="M26.57 85.36c-0.37,0.12 -0.76,0.18 -1.16,0.19 0.38,-0.09 0.76,-0.15 1.16,-0.19z"/>
   </g>
   <g>
    <path class="fil83" d="M106.51 85.21c0.03,0.11 0.06,0.22 0.1,0.34 0.19,-0.05 0.38,-0.06 0.58,-0.05 -0.22,0.04 -0.44,0.08 -0.68,0.1 0,-0.13 0,-0.26 0,-0.39z"/>
   </g>
   <g>
    <path class="fil85" d="M159.41 85.5c0.05,0.03 0.1,0.07 0.14,0.12 -4.89,0.02 -9.79,0.03 -14.68,0.02 4.86,-0.02 9.7,-0.06 14.54,-0.14z"/>
   </g>
   <g>
    <path class="fil101" d="M103.71 85.84c-0.26,0.07 -0.54,0.1 -0.82,0.1 0.26,-0.07 0.54,-0.1 0.82,-0.1z"/>
   </g>
   <g>
    <path class="fil102" d="M95.64 85.99c0.37,0.01 0.72,0.06 1.06,0.14 -0.37,-0.01 -0.72,-0.06 -1.06,-0.14z"/>
   </g>
   <g>
    <path class="fil57" d="M17.97 86.32c-0.05,0.04 -0.12,0.06 -0.19,0.07 -0.43,0.05 -0.87,0.07 -1.3,0.07 0.49,-0.07 0.99,-0.12 1.5,-0.14z"/>
   </g>
   <g>
    <path class="fil5" d="M16.37 86.47c-0.05,0.04 -0.12,0.06 -0.19,0.07 -0.27,0.02 -0.55,0.03 -0.82,0.02 0.33,-0.06 0.67,-0.09 1.01,-0.1z"/>
   </g>
   <g>
    <path class="fil102" d="M191.33 87.39c0.25,-0 0.49,0.03 0.72,0.1 -0.25,0 -0.49,-0.03 -0.72,-0.1z"/>
   </g>
   <g>
    <path class="fil27" d="M186.65 91.01c-0.12,0.01 -0.24,-0 -0.34,-0.05 0.48,-0.4 0.7,-0.91 0.68,-1.55 -0.06,-0.74 -0.3,-1.4 -0.75,-1.98 -0.03,-0.04 -0.03,-0.07 0.02,-0.1 0.58,0.37 1.14,0.77 1.69,1.18 0.33,0.28 0.56,0.63 0.7,1.04 0.08,0.42 -0.04,0.76 -0.36,1.04 -0.51,0.27 -1.06,0.41 -1.64,0.41z"/>
   </g>
   <g>
    <path class="fil10" d="M3.09 87.68c-0.34,0.08 -0.7,0.12 -1.06,0.1 0.35,-0.05 0.7,-0.08 1.06,-0.1z"/>
   </g>
   <g>
    <path class="fil71" d="M1.93 87.77c-0.09,0.04 -0.18,0.06 -0.29,0.07 -0.55,0.02 -1.09,0.03 -1.64,0.02 0,-0.02 0,-0.03 0,-0.05 0.64,0.01 1.29,-0.01 1.93,-0.05z"/>
   </g>
   <g>
    <path class="fil52" d="M169.16 88.79c0.38,-0.02 0.75,0.01 1.11,0.1 -0.38,-0.01 -0.75,-0.04 -1.11,-0.1z"/>
   </g>
   <g>
    <path class="fil103" d="M186.31 90.96c0.1,0.05 0.21,0.06 0.34,0.05 -0.12,0.06 -0.25,0.06 -0.39,0 0.01,-0.03 0.02,-0.05 0.05,-0.05z"/>
   </g>
  </g>
 </g>
</svg>
