<?xml version="1.0" encoding="UTF-8"?>
<!DOCTYPE svg PUBLIC "-//W3C//DTD SVG 1.1//EN" "http://www.w3.org/Graphics/SVG/1.1/DTD/svg11.dtd">
<!-- Creator: CorelDRAW -->
<svg xmlns="http://www.w3.org/2000/svg" xml:space="preserve" width="50.4121mm" height="51.1005mm" version="1.1" style="shape-rendering:geometricPrecision; text-rendering:geometricPrecision; image-rendering:optimizeQuality; fill-rule:evenodd; clip-rule:evenodd"
viewBox="0 0 275.37 279.13"
 xmlns:xlink="http://www.w3.org/1999/xlink"
 xmlns:xodm="http://www.corel.com/coreldraw/odm/2003">
 <defs>
  <style type="text/css">
   <![CDATA[
    .fil0 {fill:black;fill-rule:nonzero}
    .fil2 {fill:#150202;fill-rule:nonzero}
    .fil4 {fill:#198CE6;fill-rule:nonzero}
    .fil5 {fill:#84BBE5;fill-rule:nonzero}
    .fil1 {fill:#FE191E;fill-rule:nonzero}
    .fil3 {fill:white;fill-rule:nonzero}
   ]]>
  </style>
 </defs>
 <g id="Layer_x0020_1">
  <metadata id="CorelCorpID_0Corel-Layer"/>
  <g id="_1717398324656">
   <path class="fil0" d="M141.45 0.03c0.35,-0.02 0.7,-0.03 1.05,-0.03 12.01,-0 9.5,26.41 9.16,32.46 4.87,0.83 8.86,1.25 14,2.28 10.17,2.04 18.17,4.46 27.66,7.69 0.81,-1.13 2.97,-3.53 4.17,-4.6 7.86,-6.81 18.26,-16.81 30.65,-18.66 7.27,-1.08 10.77,4.68 10.64,9.24 -0.38,13.31 -6.66,26.25 -9.14,39.4 -0.73,3.87 -1.55,7.77 -1.06,11.66 0.73,9.46 10.52,12.18 21.86,11.03 9.54,-0.97 17.27,-4.32 23.2,-9.92 0.33,-0.31 0.48,-0.46 0.89,-0.74 0.31,0.15 0.54,0.17 0.57,0.46 1.01,12.53 -6.37,27.73 -14.2,38.39 -11.12,15.12 -26.75,24.72 -48.93,29.48 3.7,7.26 5.9,17.42 8.14,25.11 0.67,2.3 1.42,5.4 1.6,7.73 0.1,1.2 -0.94,2.02 -2.05,2.8 -1.15,0.18 -2.71,0.34 -3.68,0.76 -0.21,1.53 0.31,4.83 0.39,6.58 0.28,5.64 0.91,12.31 0.15,17.89 -0.75,4.99 -6.63,6.8 -12.59,7.26 -4.68,0.36 -3.81,0.87 -3.75,4.08 7.74,0.1 12.8,-2.3 16.8,-7.16 14.36,-17.48 2.56,-39.95 16.53,-57.46 2.94,-3.68 8.35,-7.2 14.12,-8.13 15.63,-2.25 23.37,11.04 25.76,20.14 5.35,20.3 -0.27,42.56 -15.63,59.91 -13.64,15.62 -40.8,30.24 -65.45,18.13l0 4.8c0.01,2.42 0.92,12.66 -1.56,13.85 -0.85,-0.15 -0.64,-0.17 -1.34,-0.8 -5.3,10.71 -15.08,14.4 -30.03,15.37 -11.85,0.77 -22.87,-2.56 -26.28,-11.56 -0.33,-0.86 -1.26,-4.63 -1.85,-5 -0.78,0.32 -0.48,0.31 -1.26,0.31 -2.35,-2.31 -0.29,-13.55 0.35,-16.71 -1.1,-0 -3.08,-0.01 -4.25,0.02 -0.18,0 -0.43,0.84 -0.48,1.04 -1.76,7.39 -4.8,18.1 -13.44,22.89 -9.58,5.3 -32.62,10.03 -41.4,1.48 -0.87,-0.84 -1.6,-2.6 -2.96,-2.69l-0.78 0.55 -0.3 -0.11c-2.01,-4.26 1.76,-17.45 2.95,-22.35 2.62,-11.12 5.71,-22.18 9.27,-33.16 -1.77,-0.49 -6.05,-1.42 -6.89,-2.5 -0.04,-2.31 2.94,-10.36 3.91,-13.07 2.64,-7.49 5.43,-14.95 8.38,-22.37 -9.55,5.37 -19.04,6.32 -30.42,6.58 -1.16,0.03 -4.24,1.86 -5.98,2.09 -0.92,0.12 -4.59,1.12 -5.63,1.52 -3.38,2.88 -6.48,6.11 -12.3,5.98 -2.89,-0.06 -4.65,-1.51 -6.51,-3.02 -2.52,0.49 -4.87,0.58 -6.63,-0.94 -1.66,-1.41 -3.21,-0.5 -5.16,-0.5 -1.64,0 -3.47,-1.43 -4.9,-1.9 -1.08,-0.33 -4.24,-0.3 -4.95,-1.39 -2.15,-3.62 -2.24,-8.32 -1.28,-12.03 4.38,-16.83 22.45,-13.2 39.83,-11.57 4.28,0.4 11.09,-0.13 15.46,-1.02 4.44,-0.91 8.52,-3.18 12.38,-5.11 -1.98,-1.58 -5.1,-4.3 -2.24,-6.25 10.84,-7.41 23.04,-14.47 31.71,-23.42 -8.17,-5.34 -15.11,-11.63 -20.52,-18.63 -12.2,-15.81 -20.81,-40.66 -14.14,-58.54 2.98,3.58 6.51,7.78 11.52,9.91 17.61,7.51 27.56,-10.13 32.52,-18.73 1.87,-3.28 3.77,-6.56 5.68,-9.82 2.97,-5 6.33,-9.88 10.06,-14.59 3.85,-4.8 11.03,-12.94 18.59,-14.36z"/>
   <path class="fil1" d="M64.2 53.65c3.19,3.74 8.19,7.66 14.27,8.51 19.2,2.7 27.61,-15.99 33.47,-25.93 6.46,-10.97 12.58,-22.12 24.2,-30.61 1.67,-1.21 4.44,-2.6 6.79,-2.31 2.59,0.3 3.75,3.22 4.21,4.85 2.26,7.95 1.41,16.22 2.31,24.29 -2.78,-0.28 -5.27,-0.53 -8.07,-0.67 0.36,-2.5 5.62,-26.3 -5.94,-18.21 -4.22,2.95 -10.15,13.74 -11.78,18.37 -0.71,0.13 -1.62,0.28 -2.3,0.44l0.49 0.05c6.57,0.7 12.85,0.63 20.01,1.45 17.59,1.93 34.73,5.66 50.91,11.09 8.19,2.76 16.6,6.17 24.57,9.32l0.51 -0.6c2.87,-3.59 9.55,-15.09 7.82,-18.28 -3.97,-7.33 -20.57,9.43 -22,11.46 -2.68,-1.15 -5.38,-2.27 -8.11,-3.34 6.97,-5.8 17.67,-15.4 26.65,-19.15 16.13,-6.73 13.2,5.65 12.14,12.93 -2.04,13.94 -17.41,40.93 -4.12,52.93 8.54,7.71 30.02,4.03 39.18,-2.55 1.06,-0.77 2.07,-1.58 3.02,-2.43 -2.97,18.03 -15.61,38.71 -35.31,50.04 -17.81,10.24 -41.08,13.28 -63.12,11.09 -31.66,-3.16 -66.58,-14.9 -86.44,-33.9 -17.09,-16.35 -24.37,-38.49 -23.35,-58.83z"/>
   <path class="fil2" d="M217.33 54.28l0.51 -0.6c0.94,0.61 1.94,1.23 2.86,1.84 -1.07,-0.39 -2.34,-0.83 -3.37,-1.24z"/>
   <path class="fil0" d="M122.96 40.37l0.34 -0.02c9.15,-0.61 16.69,2.9 21.81,8.35 0.77,0.7 2.86,3.89 3.82,4.15 4.69,1.28 14,-7.35 15.54,-8.99 0.27,4.77 0.45,9.51 5.31,13.06 21.59,-10.92 40.19,3.34 43.39,19.28 1.7,8.43 -1.83,13.07 5.54,20.76 8.23,8.59 20.69,10.84 32.57,4.66 -0.33,0.65 -0.69,1.28 -1.08,1.91 -9.45,14.97 -37.48,30.77 -60.2,22.56 -8.33,-3.01 -15.91,-8.7 -19.05,-15.15 1.42,-2.82 1.45,-5.91 0.1,-8.75 -1.52,-3.15 -5.1,-5.46 -9.43,-6.4 -1.54,-0.34 -3.24,-0.47 -4.64,-0.99 0.85,-0.82 0.49,-2.07 -0.09,-2.94 -1.13,-1.66 -0.97,-6.33 -1.71,-7.51 -0.59,0.12 -0.61,0.37 -1.05,0.87 -4.81,5.78 -11.89,6.86 -20.3,5.39 2.7,5.66 -5.4,8.96 -12.26,5.91 -0.04,3.18 -0.36,10.61 2.82,12.77 10.66,7.23 20.45,-7.12 30.22,-7.12 5.52,0 7.65,6.74 6.97,9.92 -1,4.64 -2.91,7.25 -7.79,10.17 6.11,-1.25 7.97,-2.35 12.3,-5.73 -8.38,11.86 -32.63,9 -40.91,-1.37 -1.14,-1.43 -2.02,-3.05 -3.23,-4.4 -10.6,1.2 -21.41,-3.52 -28.41,-8.99 -9.34,-7.3 -19.72,-21.04 -19.37,-31.3 8.31,4.21 16.9,4.35 23.94,-1.37 -0.34,-12.21 6.62,-26.36 24.87,-28.73z"/>
   <path class="fil3" d="M182.34 54.69c4.33,-0.24 8.74,0.33 12.49,1.94 18.82,8.09 21.83,29.49 11.82,42.63 -7.38,9.68 -19.96,14.24 -33.81,8.6 0.41,-2.49 0.26,-3.75 -0.49,-6.15 7.72,4.3 16.17,4.81 23.9,-0 6.9,-4.3 9.79,-10.77 10.52,-17.26 -2.3,1.8 -3.98,1.81 -7.07,1.35 -6.96,-2.39 -6.85,-10.83 -0.4,-13.61 1.58,-0.68 3.54,-0.19 5.13,0.29 -2.73,-4.82 -6.83,-9.32 -13.65,-11.34 -4.24,-1.25 -8.98,-1.19 -13.16,0.15 -13.39,4.21 -17.84,18.07 -14.85,27.62 0.74,2.35 1.6,4.13 2.91,6.33 -2.75,-0.91 -3.61,-1.02 -6.57,-1.07 -0.9,-2.01 -1.58,-4.07 -2.01,-6.17 -2.71,-13.21 4.86,-31.11 25.25,-33.31zm-58.4 -13.16c19.51,-0.28 28.54,16.45 26.93,28.69 -1.04,7.87 -4.55,14.32 -12.8,19.5 -4.52,-0.57 -6.99,-1.4 -11.1,-2.77 14.11,-2.4 18.11,-12.52 17.82,-22.03 -4.27,6.78 -11.78,3.82 -12.77,-2.36 -0.44,-2.73 0.11,-5.36 3.44,-7.05 1.85,-0.94 2.87,-0.59 4.63,-1.04 -0.26,-1.39 -4.99,-4.43 -6.71,-5.27 -12.3,-5.82 -23.98,2.64 -26.89,11.35 -3.33,9.95 0.73,23.46 15.98,26.26 -1.53,2.07 -1.69,3.44 -2.25,5.71 -2.69,-0.6 -5.21,-1.55 -7.44,-2.8 -20.79,-11.71 -16.41,-45.84 11.15,-48.18zm25.86 63c0.78,1.43 1.63,3.72 2.3,5.26 1.32,3 2.71,5.97 4.19,8.93 -2.37,1.99 -4.12,2.63 -7.49,3.32 -1.05,0.1 -1.05,0.24 -1.79,-0.06 -0.73,-1.39 -1.34,-3.49 -1.86,-4.98l-2.89 -8.29c2.53,-1.47 4.82,-2.89 7.54,-4.17zm-8.88 4.91c0.82,0.67 4.23,11.27 4.74,12.83 -2.12,-0.1 -3.14,-0.21 -5.23,-0.51 -1.45,-0.31 -2.68,-0.69 -4.07,-1.11 -0.47,-2.89 -1.02,-5.77 -1.66,-8.64 2.43,-0.73 4.05,-1.51 6.22,-2.57zm11.94 -5.8c9.42,-0.34 7.76,9.26 4.9,13.45l-0.27 0.24 -0.34 -0.08c-1.94,-4.18 -4.29,-8.82 -6.09,-12.92 0.62,-0.53 0.73,-0.42 1.8,-0.69zm-28.58 7.23c4.01,1.34 3.84,2.1 9.16,1.42 0.51,2.55 1.07,5.09 1.69,7.63l-0.43 0.01c-4.67,-1.65 -8.4,-5.63 -10.42,-9.05zm50.23 -66.18c3.74,-0.34 9.31,1.03 7.76,4.71 -0.71,1.68 -3.42,2.54 -5.48,3.19 -5.73,1.67 -9.55,-0.18 -7.34,-5.08 0.67,-1.48 3.12,-2.31 5.06,-2.82zm-28.78 -5.1c0.45,-0.01 0.91,0 1.36,0.02 6.17,0.28 10.96,6.48 5.38,9.71 -3.05,0.59 -5.12,-2.19 -6.56,-3.85 -1.57,-1.79 -3.57,-4.57 -0.17,-5.88zm-44.99 86.91c3.14,1.9 6.21,3.44 9.34,5.26 20.29,11.81 45.05,23.41 69.29,30.26 -0.94,3.78 -1.91,7.55 -2.93,11.32 -0.65,2.29 -2.67,7.8 -2,9.79 1.7,1.44 5.83,1.5 8.45,1.73 -0.31,1.86 -0.35,3.21 -0.35,5.09 -7.21,-0.53 -14.43,0.33 -21.14,0.26 -7.5,-0.07 -2.2,-12.32 -5.48,-14.96 -2.99,-2.41 -5.96,-1.07 -8.63,0.75 0.32,-1.13 0.94,-2.42 -0.1,-3.38l-0.65 -0.03c-1.07,1.15 -1.15,5.73 -2.27,8.06l-0.14 0.29 -0.2 -0.39c-0.85,-1.59 -2.44,-8.04 -4.37,-7.96 -1.88,1.26 -3.72,9.58 -2.06,11.02l0.45 -0.13c1.4,-1.66 1.62,-5.11 1.94,-7.19 1.06,2.36 2.13,4.74 3.54,7 -0.52,2.52 -0.57,5.08 -0.14,7.62 0.13,0.79 0.79,2.56 0.43,3l-0.82 0.11c-1.21,-0.34 -0.49,-1.54 -1.28,-2.14 -1.12,-0.85 -3.31,-1.34 -2.21,-3.02 0.48,0.01 1.04,0.44 1.53,0.72l0.68 -0.09c0.87,-0.81 0.58,-1.49 -0.36,-2.2 -3.6,-0.87 -4.63,3.16 -3.06,4.74 0.7,0.7 1.92,0.66 2.22,1.8 -0.44,0.46 -3.09,0.89 -4.04,1.09 0.28,-2.8 -0.31,-3.38 -4.04,-3.85 0.31,-0.9 0.76,-2.48 1.65,-3.04l0.31 0.24c0.65,0.5 1,0.76 1.86,0.76 0.7,-0.6 0.41,-1.47 0.14,-2.16 -3.41,-2.67 -6.11,2.7 -5.43,4.62 0.51,1.46 2.05,1.15 3.59,1.82 0.31,0.49 0.17,0.66 0.04,1.2 -1.57,1.51 -3.04,-0.26 -4.43,1.2 -0.07,0.78 -0.2,0.59 0.2,1.22 0.74,0.36 1.22,0.28 2.13,0.28l0.37 0c0.55,0.31 0.29,0.34 0.05,1.24 -0.53,1.97 -0.08,3.55 0.42,5.47 -0.55,0.29 -1.53,0.8 -1.79,1.23 -1.5,2.51 -0.82,12.52 -0.05,14.89 -19.34,-3.12 -36.36,-7.32 -55.13,-10.85 1.27,-4.68 3.89,-11.44 5.54,-16.25 4.03,-11.69 8.16,-23.36 12.38,-35.01 2.1,-5.77 5.19,-13.28 6.69,-18.96 -1.55,2.05 -3.17,5.7 -4.23,7.97 -2.52,5.48 -4.91,10.99 -7.17,16.53 -7.63,-4.42 -13.06,-7.81 -19.65,-13 9.54,-6.56 23.15,-16.57 30.93,-23.97z"/>
   <path class="fil0" d="M111.69 142.96c1.6,0.1 1.85,0.47 3.26,0.6l0.65 -0.51c1.37,-0.05 1.63,1.65 1.61,2.43 -0.1,3.44 0.84,10.25 -2.99,12.8 -5.47,3.65 -10.78,-0.34 -10.44,-4.98 0.85,-0.61 0.87,-0.64 1.82,-0.69 2.75,1 1.74,6.69 6.4,4.36 2.18,-1.09 2.44,-3.38 2.86,-5.16 -7.82,3.46 -11.56,-6.11 -3.17,-8.85z"/>
   <path class="fil3" d="M111.87 144.61c1.79,0.34 2.14,0.94 3.3,2.03 -0.16,0.55 -0.34,1.1 -0.53,1.65 -0.47,1.32 -0.93,1.86 -2.47,2.53 -4.45,-0.5 -4.05,-4.53 -0.3,-6.2z"/>
   <path class="fil0" d="M87.99 196.98c2.79,0.9 9.95,2.46 13.37,3.36 -0.26,1.41 -0.99,5.97 -1.83,6.96 -3.79,-0.66 -10.22,-2.08 -13.77,-3.12 0.46,-2.43 1.32,-4.83 2.23,-7.2zm45.87 -46.48c2.19,-0.01 4.23,0.72 4.66,2.4 0.92,3.55 -1.69,6.92 -4.01,9.79 1.85,0.59 2.01,0.6 2.78,1.96 -0.53,1.36 -2.8,0.24 -3.86,-0.07 -0.72,0.5 -1.42,1.17 -2.41,1.03 -0.33,-0.44 -0.26,-0.72 -0.26,-1.22 0.06,-0.1 0.43,-0.69 0.38,-0.78 -0.96,-1.78 -3.97,-4.56 -1.96,-6.48 2.21,-2.11 4.36,-1.59 6.94,-0.24 0.47,-1.19 1.48,-3.11 0.23,-4.13 -1.86,-0.27 -4.75,1.66 -5.09,-0.31 0.7,-1.2 0.99,-1.41 2.59,-1.96z"/>
   <path class="fil3" d="M132 157.47c1.3,-0.06 2.66,-0.24 3.1,0.8 -0.27,0.95 -1.37,2.01 -2.11,2.87 -0.28,0.33 -0.09,0.21 -0.59,0.34 -2.07,-0.99 -2.68,-2.83 -0.4,-4.01z"/>
   <path class="fil0" d="M119.52 146.59c0.25,-0.01 0.5,-0.01 0.75,-0.01 5.33,-0.02 10.56,5.07 5.9,8.24 1.36,2.34 1.41,3.62 0.83,6.11 -0.21,0.9 -0.26,1.5 -1.3,2.03l-0.38 -0.05c-1.51,-1.36 0.29,-5.05 -1.18,-7.23 -0.88,-0.35 -2.24,-0.27 -3.3,-0.29l-0.88 3.85c-0.2,1.06 -0.13,2.16 -1.52,2.71l-0.44 -0.12c-0.2,-0.31 -0.47,-0.96 -0.36,-1.32 0.79,-2.52 0.37,-5.38 1.77,-7.7 0.4,-0.67 -0.27,-1.95 0.33,-3.07 0.8,-0.56 0.37,-0.45 1.24,-0.58 1.01,0.95 0.54,2.85 0.38,4.1 1.81,1.88 6.64,-1.18 3.01,-3.37 -2.05,-1.24 -3.49,-0.83 -5.77,-1.52 -0.64,-0.54 -0.51,-0.24 -0.51,-0.9 0.6,-0.56 0.61,-0.54 1.41,-0.88zm-26.25 30.3c1,0.32 0.58,0.07 1.17,0.88 2.31,0.34 0.65,-0.07 1.73,-0.1 0.82,0.65 1.43,1.19 2.19,1.88 7.4,-2.44 3.3,10.28 2.02,11.3l-0.37 -0.01c-1.03,-2.22 1.97,-7.82 0.2,-10.15 -0.75,-0.24 -0.36,-0.21 -1.21,-0 -1.27,1.09 -1.38,4.48 -1.61,6.12 -0.12,1.09 0.05,2.83 -1.39,3.3l-0.32 -0.2c-1.14,-2.48 1.49,-8.7 -0.06,-10.03l-0.46 0c-2.79,1.12 -1.22,9.88 -3.76,10.23l-0.51 -0.35c-0.6,-1.71 1.66,-11.23 2.38,-12.86zm47.33 -20.36c9.3,-0.14 9.08,10.54 -0.74,7.92 -0.54,1.14 -1.04,2.28 -1.53,3.43 -0.31,0.96 -0.42,2.27 -1.67,2.7l-0.67 -0.23c-1.91,-1.92 3.49,-7.75 4,-10.05 0.29,-1.36 -1.14,-1.31 -0.94,-2.71 0.53,-0.64 0.67,-0.66 1.57,-1.07z"/>
   <path class="fil3" d="M141.72 159.5c3.17,0.02 4.93,1.61 2.19,3.37 -1.12,0.23 -1.97,0.4 -2.81,-0.27 -0.16,-0.62 -0.16,-0.66 0.04,-1.27l0.58 -1.83z"/>
   <path class="fil0" d="M99.23 159.86c11.42,-0.46 13.9,10.25 4.17,13.12 -1.52,0.45 -2.17,-0.15 -3.74,0.96l-0.44 -0.09c-0.71,-0.76 -1.01,-0.8 -2.2,-1.06 -2.06,-2.03 1.53,-1.73 1.97,-1.94 0.43,-1.09 0.71,-2.28 1,-3.4 0.2,-0.98 0.72,-4.68 1.94,-5.13 1.08,1.28 -0.56,7.64 -0.97,9.4 1.54,-0.23 2.34,-0.45 3.78,-0.84 2.76,-2.3 3.58,-5.31 0.66,-7.82 -2.3,-1.97 -5.02,-0.26 -6.51,-1.64 -0.15,-0.74 -0.02,-0.87 0.33,-1.56zm32.83 10.6c1.85,0.22 1.76,0.51 3.25,1.36 0.47,-0.4 0.24,-0.29 0.87,-0.5 2.22,1.86 -0.23,15.43 -8.31,10.55 -1.08,-0.65 -1.3,-1.34 -1.43,-2.28 0.58,-0.2 0.37,-0.17 0.99,-0.16 3.14,1.74 6.23,2.96 7.27,-1.01 0.12,-0.47 0.28,-0.64 -0.07,-1 -1.97,0.75 -3.27,1.3 -4.83,-0.36 -0.91,-0.96 -1.25,-2.16 -0.95,-3.31 0.43,-1.66 1.4,-2.4 3.21,-3.28z"/>
   <path class="fil3" d="M132.62 172.14c3.93,0.69 1.74,2.91 0.2,4.41 -3.39,-0.31 -2.13,-3.13 -0.2,-4.41z"/>
   <path class="fil0" d="M156.33 157.5c1.17,0.33 0.79,0.05 1.34,0.73 0.16,1.34 -3.1,11.15 -3.75,13.15 -0.14,0.43 -0.44,0.7 -0.99,0.91l-0.36 -0.19c-1.07,-1.79 0.14,-3.58 0.91,-5.53 -1.64,-0.42 -2.93,-0.82 -4.52,-1.33 -0.77,1.65 -1.92,4.49 -2.94,5.93 -0.93,-0.13 -0.54,0.02 -1.21,-0.44 -0.85,-1.92 3.35,-7.07 3.7,-9.24 0.17,-1.01 0.46,-3.35 2.21,-3.33 2.12,1.15 -0.42,3.98 -1.23,5.56l4.59 0.87c0.75,-2.01 1.34,-5.63 2.24,-7.1zm-39.13 23.18c2.19,0.07 3.54,0.59 4.98,1.84 2.16,1.87 2.58,5.68 -0.23,7.33 -1.18,0.69 -2.14,0.51 -3.53,0.37 -0.24,1.37 -0.94,6.85 -2.49,7.37l-0.49 -0.18c-0.67,-1.1 0.09,-3.3 0.39,-4.59 0.32,-1.58 1.4,-8.11 2.43,-9.01 1.55,0.57 0.13,3.34 1.31,4.7l0.51 0.05c3.08,-1.53 1.9,-4.09 -0.89,-5.43 -0.78,-0.37 -2.76,0.4 -4.18,-0.48 -0.21,-1.21 0.85,-1.65 2.18,-1.98z"/>
   <path class="fil0" d="M126.44 184.94c6.4,-0.4 3.49,5.53 2.48,8.05 -0.5,1.25 -1.71,4.87 -3.45,5.32l-0.56 -0.22c-0.43,-0.85 0.27,-1.22 0.09,-2.21l-0.61 -0.32c-2.48,-1.17 -3.81,-3.42 -1.83,-5.27 0.49,-0.47 1.24,-0.75 2.04,-0.77 1.56,-0.05 2.39,0.72 3.36,1.49 0.42,-1.33 0.94,-2.53 0.49,-3.87 -0.58,-0.49 -0.22,-0.35 -1.16,-0.41l-0.79 0.56c-0.87,0.05 -0.48,0.13 -1.2,-0.22 -0.28,-0.93 0.31,-1.5 1.15,-2.13z"/>
   <path class="fil3" d="M124.23 191.27c1.3,0.03 2.06,-0.03 2.83,0.79 0.18,0.71 -0.23,1.15 -0.63,1.84 -0.91,-0.23 -1.88,-0.58 -2.43,-1.16 -0.24,-0.84 -0.19,-0.55 0.23,-1.47z"/>
   <path class="fil0" d="M105.26 179.38c3.3,1.42 -1.86,5.16 2.12,5.78 1.66,-0.76 1.34,-3.51 2.97,-4.41 2.29,0.99 0.07,9.86 -1.46,11.54 -1.8,0.74 -3.9,0.97 -5.52,-0.18 -0.29,-0.52 -0.34,-0.49 -0.18,-1.03 1.57,-0.95 6.58,1.07 5.55,-4.12 -1.26,0.05 -2.26,0.23 -3.39,-0.29 -2.83,-1.29 -1.87,-5.6 -0.1,-7.29zm6.82 -10.91c0,0 1.76,-0.23 2.85,-0.37 1.08,-0.13 0.05,-1.08 -0.89,-1.42 -0.94,-0.34 -2.36,0.61 -1.96,1.79zm54.51 7.43c5.87,-0.21 4.97,4.5 2.98,4.5 -0.84,-0.66 -0.5,-1.59 -1.55,-2.55 -1.4,-0.1 -1.74,1.24 -1.8,2.04 -0.1,1.25 1.12,1.35 2.4,1.75 1.6,0.49 3.79,1.61 3.41,3.12 -0.28,1.12 -2,2.57 -3.23,3.2 -2.43,0.37 -7.14,0.04 -5.74,-2.62 1.73,-0.3 4.16,1.34 6.28,0.1 0.45,-0.57 0.38,-0.72 0.35,-1.36 -0.45,-0.49 -2.8,-1 -4.04,-1.77 -1.03,-0.63 -1.64,-1.56 -1.67,-2.54 -0.05,-1.37 1.35,-2.91 2.61,-3.86zm-53.96 -10.72c0.53,-0.02 2,-0.03 2.41,0.25 5.1,3.41 1.07,4.6 -3.4,4.68l-0.24 0.35c0.05,0.97 0.23,1.78 1.5,2.26 1.91,0.72 2.2,-0.65 4.06,-0.58 1.52,5.51 -9.7,2.24 -7.43,-2.78 0.84,-1.86 0.26,-2.72 3.09,-4.17zm51.29 -2.63c3.33,0.03 5.22,2.8 3.05,4.08 -0.79,-0.16 -1.43,-0.99 -2.07,-1.58 -0.38,-0.09 -0.62,-0.22 -0.89,-0.05 -1.56,0.99 -3.48,5.21 -0.63,5.84 1.16,0.26 2.34,-0.33 3.31,-0.71l0.43 0.03c1.09,0.61 0.95,1.68 0.01,2.14 -8.64,4.23 -9.52,-6.83 -3.22,-9.76z"/>
   <path class="fil0" d="M123.07 164.99c2.72,-0.04 3.92,2.27 2.43,3.34 -1.49,-0.16 -1.55,-1.72 -3.38,-1.42 -3.03,1.79 0.58,3.81 1.51,5.77 1.17,2.45 0.17,4.1 -3.18,4.94 -0.78,0.01 -1.34,0.02 -2.1,-0.16 -0.79,-0.19 -1.43,-0.62 -1.76,-1.18 -0.33,-0.58 -0.21,-0.68 0.03,-1.12 1.95,-0.68 2.59,1.12 4.83,0.69 2.79,-1.45 -0.29,-3.39 -1.33,-4.92 -1.81,-2.69 -0.72,-4.74 2.95,-5.94zm35.53 -2.96c0.99,0.27 0.6,0.05 1.24,0.63 0.48,1.57 -1.95,8.09 -2.92,9.63 -1.05,-0.17 -0.69,0.03 -1.23,-0.52 -0.29,-1.06 2.35,-8.97 2.91,-9.74zm-29.58 5.13c0.45,0.17 1.14,0.37 1.22,0.78 0.33,1.62 -2.73,8.22 -3.61,9.52 -1.03,-0.14 -1.18,-0.17 -1.52,-0.84 0.4,-1.38 1.57,-3.34 2.15,-4.84 0.58,-1.48 0.72,-3.63 1.75,-4.62zm32.85 8.48c0.68,0.16 0.63,0.16 1.07,0.58 0.51,1.67 -0.98,8.56 -1.99,10 -0.54,-0.11 -0.42,-0.1 -0.91,-0.32 -0.57,-1 1.01,-9.4 1.82,-10.25zm-1.85 -16.51c0.38,-0.24 0.92,-0.31 1.39,-0.18 0.47,0.13 0.8,0.45 0.87,0.82 0.06,0.37 -0.15,0.74 -0.56,0.95 -0.6,0.31 -1.42,0.23 -1.88,-0.2 -0.45,-0.43 -0.37,-1.04 0.18,-1.39z"/>
   <path class="fil4" d="M93.12 221.26c27.31,6.51 54.92,12.33 82.77,17.46 2.4,4.67 5.23,8.55 13.09,7.79 -0.03,4.32 0.08,8.52 0.16,12.85 -0.06,4.55 -3.21,8.77 -7.45,11.93 -6,4.47 -14.1,5.95 -22.32,6.47 -7.2,0.45 -15.25,-0.62 -20.38,-4.67 -7.68,-6.05 -6.1,-14.38 -5.94,-21.87 1.99,-0.86 4.2,-1.7 6.25,-2.52 3.79,-1.54 7.9,-3.06 10.81,-5.43 -9.46,0.52 -18.97,0.26 -28.35,-0.77 -5.28,-0.54 -12.08,-1.71 -17.18,-1.68 5.72,2.75 10.44,5.88 16.76,8.78 -0.49,2.12 -1.15,4.33 -1.69,6.46 -0.71,2.8 -0.78,5.78 -2.65,8.3 -3.54,4.77 -11.38,7.59 -18.14,9.09 -6.75,1.49 -16.43,2.47 -22.9,-0.2 -4.02,-1.65 -5.87,-4.02 -7.1,-7.13 1.3,-3.55 2.45,-9.73 3.33,-13.48 1.71,-7.22 3.5,-14.43 5.38,-21.62 7.9,-0.92 12.13,-4.76 15.56,-9.77z"/>
   <path class="fil1" d="M241.24 181.26c5.31,-0.27 10.59,0.8 14.96,3.04 6.25,3.21 9.93,8.58 11.21,14 0.29,1.21 1.1,4.35 0.79,5.41 -2.47,8.33 -8.42,16.74 -14.85,23.57 -0.19,-0.19 -0.49,-3.76 -0.58,-4.35 -1.45,-9.83 -10.63,-22.79 -26.57,-21.17 1.52,-5.6 1.87,-10.44 2.35,-16.12 4.01,-2.77 7.27,-3.82 12.69,-4.38zm-90.75 -4.56c5.28,-0.4 3.89,1.98 3.86,4.78 -0.04,3.53 -0.09,9.76 5.4,11.24 2.12,0.57 5.67,0.15 7.99,-0.02 6.5,5.72 7.88,15.21 3.45,21.92 -1.65,-0.11 -5.98,-0.47 -7.36,-0.2 -5.81,1.14 -9.1,2.7 -15.35,3.26 -0.92,0.08 -1.29,0.1 -1.7,0.68 0.7,1.16 4,1.08 3.44,2.65 -2.58,1.81 -8.04,0.92 -10.77,-0.33 -3.96,-4.91 -2.11,-9.58 -2.42,-15.01 -0.06,-1.11 -1.15,-6.4 -0.49,-7.03 1.67,-1.62 9.96,-2.27 11.46,-3.78 -0.16,-0.98 -0.16,-0.01 -1.29,-0.91 -0.31,-4.83 -2.9,-14.25 3.77,-17.25zm-144.67 -4.92c-0.97,3.56 -2.16,7.23 -0.74,10.81l-0.34 0.06c-1.77,-1.3 -2.29,-4.82 -2.24,-6.68 0.09,-3.99 2.01,-9.09 5.99,-11.93 4.14,-2.96 10.55,-2.8 15.94,-2.6 3,0.1 5.99,0.3 8.97,0.6 3.21,0.34 5.69,0.77 8.97,0.85 7.46,3.87 9.77,12.8 5.99,18.67 -2.04,0.53 -3.23,0.75 -5.36,1.09 0.32,-1.54 0.46,-2.38 0.52,-3.92 -2.27,3.79 -3.25,8.21 -9.09,10.06 -6.65,2.11 -10.71,-0.95 -8.09,-5.9 1.68,-3.17 9.33,-5.16 9.24,-8.84l-0.27 0.33c-2.02,2.4 -5.39,3.23 -8.48,5.04 0.35,-2.71 1.23,-5.75 1.48,-8.15 -2.67,4.14 -2.9,7.84 -4.44,12.16 -0.29,0.81 -0.48,3.53 -1.96,3.47 -8.75,-0.36 -6.67,-10.56 -5.67,-14.06l-0.88 -0.29c-2.17,4.81 -2.52,7.23 -1.39,12.07l-0.25 0.18c-8.82,0.89 -7.7,-9.18 -6.93,-13.01l-0.97 -0z"/>
   <path class="fil2" d="M8.26 166.8c-0.52,1.62 -1.12,3.35 -1.47,4.99l-0.97 -0c0.75,-2.03 1.05,-3.14 2.44,-4.99zm9.17 1.95l-1.19 4.09 -0.88 -0.29c0.69,-1.49 1.16,-2.38 2.07,-3.8z"/>
   <path class="fil3" d="M196.49 155.44c6.08,-0.33 11,0.4 15.83,3.23 2.37,7.08 4.13,14.53 5.78,21.72 -5.53,1.07 -12.69,1.43 -18.42,1.57 -7.35,0.12 -15.13,-0 -22.39,-0.81 1.94,-6.36 3.49,-12.78 4.64,-19.24 4.57,-3.84 7.72,-5.62 14.56,-6.47z"/>
   <path class="fil1" d="M214.11 219.76c1.99,-0.09 6.1,2.47 7.44,3.61 6.08,5.15 6.83,11.75 6.29,18.26 -4.14,0.54 -6.56,0.64 -10.7,0.19 -8.68,-1.45 -15.49,-6.33 -14.42,-13.46 0.86,-5.71 6.34,-5.64 11.39,-8.59zm-24.75 -31.33c0.62,-0.01 1.23,-0.02 1.85,-0.02 7.94,0.02 15.77,0.9 21.55,5.16 0.34,3.31 0.53,6.81 0.55,10.13 0.03,3.18 0.64,6.25 -3.74,7.82 -2.23,0.63 -2.15,0.39 -2.18,-1.23 -0.18,-8.34 -3.01,-17.27 -15.33,-19.78 -1.53,-0.31 -5.39,-0.48 -6.34,-1.25l0.16 -0.26c1.19,-0.52 2.09,-0.48 3.48,-0.57zm59.25 -37.31c13.7,-1.3 19.38,10.1 21.59,18.03 -3.1,-3.58 -5.14,-5.3 -9.83,-7.74 -5.65,-2.5 -11.39,-3.78 -18.05,-3.07 -4.27,0.45 -6.3,1.69 -9.09,3.91 0.69,-1.19 1.48,-2.35 2.35,-3.47 3.14,-3.97 6.98,-6.51 13.03,-7.66z"/>
   <path class="fil1" d="M180.41 192.14c2.67,0.02 5.51,0.24 8.18,0.41 3.22,2.01 4.14,3.55 5.91,6.29 1.42,2.19 3.13,14.14 -0.14,14.89 -3.25,0.3 -6.4,0.49 -9.66,0.69 3.96,-6.16 1.99,-17.16 -4.3,-22.28zm-117.7 -31.87l0.34 0.01c0.72,0.36 1.13,0.71 1.61,1.25 4.82,5.42 4.61,11.04 3.16,17.02 -2.41,0.47 -4.88,0.83 -7.32,1.21 -0.62,0.07 -0.92,0.06 -1.55,0.07 -0.24,-0.58 0.78,-3.76 0.84,-4.86 0.22,-4.81 -0.42,-8.82 -4.78,-12.52 3.36,-0.63 4.69,-0.95 7.71,-2.17z"/>
   <path class="fil5" d="M80.98 217.78c3.56,1.33 7.44,2.28 11.2,3.26 -1.95,2.44 -3.31,3.72 -6.2,5.54 -2.91,1.56 -4.44,2.02 -7.93,2.5 1.07,-3.68 1.98,-7.59 2.93,-11.3zm96.38 21.18c3.85,0.59 7.81,1.3 11.69,1.71l-0.06 4.24c-6.48,0.39 -9.04,-2.11 -11.63,-5.95z"/>
  </g>
 </g>
</svg>
