<?xml version="1.0" encoding="UTF-8"?>
<!DOCTYPE svg PUBLIC "-//W3C//DTD SVG 1.1//EN" "http://www.w3.org/Graphics/SVG/1.1/DTD/svg11.dtd">
<!-- Creator: CorelDRAW -->
<svg xmlns="http://www.w3.org/2000/svg" xml:space="preserve" width="61.7733mm" height="61.3852mm" version="1.1" style="shape-rendering:geometricPrecision; text-rendering:geometricPrecision; image-rendering:optimizeQuality; fill-rule:evenodd; clip-rule:evenodd"
viewBox="0 0 464.25 461.33"
 xmlns:xlink="http://www.w3.org/1999/xlink"
 xmlns:xodm="http://www.corel.com/coreldraw/odm/2003">
 <defs>
  <style type="text/css">
   <![CDATA[
    .str3 {stroke:black;stroke-width:1.5;stroke-miterlimit:22.9256}
    .str2 {stroke:black;stroke-width:7.52;stroke-miterlimit:10}
    .str0 {stroke:black;stroke-width:7.52;stroke-miterlimit:10}
    .str1 {stroke:black;stroke-width:7.52;stroke-miterlimit:10}
    .fil0 {fill:none;fill-rule:nonzero}
    .fil2 {fill:black}
    .fil50 {fill:#070707}
    .fil11 {fill:#0A0A0A}
    .fil10 {fill:#1D1D1D}
    .fil48 {fill:#232323}
    .fil6 {fill:#343434}
    .fil5 {fill:#363636}
    .fil8 {fill:#3B3B3B}
    .fil49 {fill:#3F3F3F}
    .fil12 {fill:#434343}
    .fil9 {fill:#4C4C4C}
    .fil3 {fill:#4F4F4F}
    .fil4 {fill:#555555}
    .fil23 {fill:#727272}
    .fil24 {fill:#737373}
    .fil47 {fill:#747474}
    .fil25 {fill:#757575}
    .fil7 {fill:#7A7A7A}
    .fil21 {fill:#939393}
    .fil40 {fill:#A1A1A1}
    .fil41 {fill:#A4A4A4}
    .fil39 {fill:#A7A7A7}
    .fil46 {fill:#ADADAD}
    .fil44 {fill:#AEAEAE}
    .fil45 {fill:#AFAFAF}
    .fil28 {fill:#B0B0B0}
    .fil36 {fill:#B1B1B1}
    .fil30 {fill:#B2B2B2}
    .fil27 {fill:#B3B3B3}
    .fil29 {fill:#B4B4B4}
    .fil26 {fill:#B5B5B5}
    .fil43 {fill:#B8B8B8}
    .fil32 {fill:#C6C6C6}
    .fil17 {fill:#C9C9C9}
    .fil22 {fill:#D6D6D6}
    .fil15 {fill:#DFDFDF}
    .fil13 {fill:#E1E1E1}
    .fil20 {fill:#E2E2E2}
    .fil18 {fill:#E3E3E3}
    .fil16 {fill:#E4E4E4}
    .fil14 {fill:#E6E6E6}
    .fil19 {fill:#E7E7E7}
    .fil35 {fill:#E8E8E8}
    .fil31 {fill:#E9E9E9}
    .fil34 {fill:#EBEBEB}
    .fil37 {fill:#EFEFEF}
    .fil38 {fill:#F3F3F3}
    .fil33 {fill:#F4F4F4}
    .fil42 {fill:whitesmoke}
    .fil1 {fill:white;fill-rule:nonzero}
   ]]>
  </style>
 </defs>
 <g id="PowerClip_x0020_Contents">
  <metadata id="CorelCorpID_0Corel-Layer"/>
  <g id="_1719468004416">
   <g>
    <g>
     <path class="fil0 str0" d="M200.87 25.97c0,7.33 -2.4,14.66 -7.2,20.78 -0.01,0 -0.01,0.01 -0.01,0.01 -7.48,9.53 -7.48,22.85 0,32.38 0,0 0,0 0,0l0 0c9.61,12.24 9.61,29.33 0.01,41.57 -0,0 -0.01,0.01 -0.01,0.01 -7.49,9.53 -7.49,22.85 0,32.38 0,0.01 0.01,0.02 0.02,0.02 4.79,6.12 7.19,13.45 7.19,20.77 0,7.34 -2.4,14.67 -7.21,20.79 -0,0 -0,0.01 -0.01,0.01 -7.47,9.53 -7.48,22.82 -0.01,32.35 0.01,0.01 0.01,0.01 0.02,0.02 4.81,6.12 7.21,13.46 7.21,20.79 0,7.34 -2.4,14.67 -7.21,20.79 -7.49,9.53 -7.49,22.85 0,32.38 0,0 0,0.01 0.01,0.01 4.8,6.12 7.2,13.45 7.2,20.78 0,7.34 -2.4,14.67 -7.21,20.79 -0,0.01 -0.01,0.01 -0.01,0.02 -7.47,9.53 -7.47,22.83 0.01,32.36 0,0.01 0.01,0.01 0.02,0.02 9.6,12.24 9.59,29.33 -0.02,41.56 -1.27,1.62 -3.61,1.9 -5.23,0.63 -1.62,-1.27 -1.9,-3.61 -0.63,-5.23 7.49,-9.53 7.49,-22.85 0,-32.38 -0,-0.01 -0.01,-0.01 -0.01,-0.02 -9.6,-12.24 -9.6,-29.33 0.01,-41.57 0,-0.01 0.01,-0.02 0.02,-0.02 7.47,-9.53 7.46,-22.83 -0.02,-32.35 -0,-0 -0.01,-0.01 -0.01,-0.01 -9.61,-12.24 -9.6,-29.33 0.01,-41.57 7.48,-9.53 7.49,-22.83 0.01,-32.36 -0.01,-0.01 -0.01,-0.01 -0.01,-0.02 -9.62,-12.24 -9.62,-29.34 0,-41.58 0,0 0,-0 0,-0 7.48,-9.53 7.48,-22.84 -0,-32.37 -0.01,-0.01 -0.02,-0.02 -0.02,-0.03 -9.59,-12.23 -9.59,-29.31 0.01,-41.54 0.01,-0.01 0.01,-0.01 0.02,-0.02 7.49,-9.53 7.49,-22.85 0,-32.38 -0,-0 -0.01,-0.01 -0.01,-0.02 -9.6,-12.24 -9.6,-29.32 -0,-41.55 0.01,-0.01 0.01,-0.01 0.02,-0.02 7.49,-9.53 7.49,-22.84 0,-32.37 -1.27,-1.62 -0.99,-3.96 0.63,-5.23 1.62,-1.27 3.96,-0.99 5.23,0.63 4.81,6.12 7.21,13.45 7.21,20.79z"/>
     <path id="_1" class="fil1" d="M200.87 25.97c0,7.33 -2.4,14.66 -7.2,20.78 -0.01,0 -0.01,0.01 -0.01,0.01 -7.48,9.53 -7.48,22.85 0,32.38 0,0 0,0 0,0l0 0c9.61,12.24 9.61,29.33 0.01,41.57 -0,0 -0.01,0.01 -0.01,0.01 -7.49,9.53 -7.49,22.85 0,32.38 0,0.01 0.01,0.02 0.02,0.02 4.79,6.12 7.19,13.45 7.19,20.77 0,7.34 -2.4,14.67 -7.21,20.79 -0,0 -0,0.01 -0.01,0.01 -7.47,9.53 -7.48,22.82 -0.01,32.35 0.01,0.01 0.01,0.01 0.02,0.02 4.81,6.12 7.21,13.46 7.21,20.79 0,7.34 -2.4,14.67 -7.21,20.79 -7.49,9.53 -7.49,22.85 0,32.38 0,0 0,0.01 0.01,0.01 4.8,6.12 7.2,13.45 7.2,20.78 0,7.34 -2.4,14.67 -7.21,20.79 -0,0.01 -0.01,0.01 -0.01,0.02 -7.47,9.53 -7.47,22.83 0.01,32.36 0,0.01 0.01,0.01 0.02,0.02 9.6,12.24 9.59,29.33 -0.02,41.56 -1.27,1.62 -3.61,1.9 -5.23,0.63 -1.62,-1.27 -1.9,-3.61 -0.63,-5.23 7.49,-9.53 7.49,-22.85 0,-32.38 -0,-0.01 -0.01,-0.01 -0.01,-0.02 -9.6,-12.24 -9.6,-29.33 0.01,-41.57 0,-0.01 0.01,-0.02 0.02,-0.02 7.47,-9.53 7.46,-22.83 -0.02,-32.35 -0,-0 -0.01,-0.01 -0.01,-0.01 -9.61,-12.24 -9.6,-29.33 0.01,-41.57 7.48,-9.53 7.49,-22.83 0.01,-32.36 -0.01,-0.01 -0.01,-0.01 -0.01,-0.02 -9.62,-12.24 -9.62,-29.34 0,-41.58 0,0 0,-0 0,-0 7.48,-9.53 7.48,-22.84 -0,-32.37 -0.01,-0.01 -0.02,-0.02 -0.02,-0.03 -9.59,-12.23 -9.59,-29.31 0.01,-41.54 0.01,-0.01 0.01,-0.01 0.02,-0.02 7.49,-9.53 7.49,-22.85 0,-32.38 -0,-0 -0.01,-0.01 -0.01,-0.02 -9.6,-12.24 -9.6,-29.32 -0,-41.55 0.01,-0.01 0.01,-0.01 0.02,-0.02 7.49,-9.53 7.49,-22.84 0,-32.37 -1.27,-1.62 -0.99,-3.96 0.63,-5.23 1.62,-1.27 3.96,-0.99 5.23,0.63 4.81,6.12 7.21,13.45 7.21,20.79z"/>
    </g>
    <g>
     <path class="fil0 str1" d="M159.15 25.97c0,7.33 -2.4,14.66 -7.2,20.78 -0.01,0 -0.01,0.01 -0.01,0.01 -7.48,9.53 -7.48,22.85 0,32.38 0,0 0,0 0,0l0 0c9.61,12.24 9.61,29.33 0.01,41.57 -0,0 -0.01,0.01 -0.01,0.01 -7.49,9.53 -7.49,22.85 0,32.38 0,0.01 0.01,0.02 0.02,0.02 4.79,6.12 7.19,13.45 7.19,20.77 0,7.34 -2.4,14.67 -7.21,20.79 -0,0 -0,0.01 -0.01,0.01 -7.47,9.53 -7.48,22.82 -0.01,32.35 0.01,0.01 0.01,0.01 0.02,0.02 4.81,6.12 7.21,13.46 7.21,20.79 0,7.34 -2.4,14.67 -7.21,20.79 -7.49,9.53 -7.49,22.85 0,32.38 0,0 0,0.01 0.01,0.01 4.8,6.12 7.2,13.45 7.2,20.78 0,7.34 -2.4,14.67 -7.21,20.79 -0,0.01 -0.01,0.01 -0.01,0.02 -7.47,9.53 -7.47,22.83 0.01,32.36 0,0.01 0.01,0.01 0.02,0.02 9.6,12.24 9.59,29.33 -0.02,41.56 -1.27,1.62 -3.61,1.9 -5.23,0.63 -1.62,-1.27 -1.9,-3.61 -0.63,-5.23 7.49,-9.53 7.49,-22.85 0,-32.38 -0,-0.01 -0.01,-0.01 -0.01,-0.02 -9.6,-12.24 -9.6,-29.33 0.01,-41.57 0,-0.01 0.01,-0.02 0.02,-0.02 7.47,-9.53 7.46,-22.83 -0.02,-32.35 -0,-0 -0.01,-0.01 -0.01,-0.01 -9.61,-12.24 -9.6,-29.33 0.01,-41.57 7.48,-9.53 7.49,-22.83 0.01,-32.36 -0.01,-0.01 -0.01,-0.01 -0.01,-0.02 -9.62,-12.24 -9.62,-29.34 0,-41.58 0,0 0,-0 0,-0 7.48,-9.53 7.48,-22.84 -0,-32.37 -0.01,-0.01 -0.02,-0.02 -0.02,-0.03 -9.59,-12.23 -9.59,-29.31 0.01,-41.54 0.01,-0.01 0.01,-0.01 0.02,-0.02 7.49,-9.53 7.49,-22.85 0,-32.38 -0,-0 -0.01,-0.01 -0.01,-0.02 -9.6,-12.24 -9.6,-29.32 -0,-41.55 0.01,-0.01 0.01,-0.01 0.02,-0.02 7.49,-9.53 7.49,-22.84 0,-32.37 -1.27,-1.62 -0.99,-3.96 0.63,-5.23 1.62,-1.27 3.96,-0.99 5.23,0.63 4.81,6.12 7.21,13.45 7.21,20.79z"/>
     <path id="_1_0" class="fil1" d="M159.15 25.97c0,7.33 -2.4,14.66 -7.2,20.78 -0.01,0 -0.01,0.01 -0.01,0.01 -7.48,9.53 -7.48,22.85 0,32.38 0,0 0,0 0,0l0 0c9.61,12.24 9.61,29.33 0.01,41.57 -0,0 -0.01,0.01 -0.01,0.01 -7.49,9.53 -7.49,22.85 0,32.38 0,0.01 0.01,0.02 0.02,0.02 4.79,6.12 7.19,13.45 7.19,20.77 0,7.34 -2.4,14.67 -7.21,20.79 -0,0 -0,0.01 -0.01,0.01 -7.47,9.53 -7.48,22.82 -0.01,32.35 0.01,0.01 0.01,0.01 0.02,0.02 4.81,6.12 7.21,13.46 7.21,20.79 0,7.34 -2.4,14.67 -7.21,20.79 -7.49,9.53 -7.49,22.85 0,32.38 0,0 0,0.01 0.01,0.01 4.8,6.12 7.2,13.45 7.2,20.78 0,7.34 -2.4,14.67 -7.21,20.79 -0,0.01 -0.01,0.01 -0.01,0.02 -7.47,9.53 -7.47,22.83 0.01,32.36 0,0.01 0.01,0.01 0.02,0.02 9.6,12.24 9.59,29.33 -0.02,41.56 -1.27,1.62 -3.61,1.9 -5.23,0.63 -1.62,-1.27 -1.9,-3.61 -0.63,-5.23 7.49,-9.53 7.49,-22.85 0,-32.38 -0,-0.01 -0.01,-0.01 -0.01,-0.02 -9.6,-12.24 -9.6,-29.33 0.01,-41.57 0,-0.01 0.01,-0.02 0.02,-0.02 7.47,-9.53 7.46,-22.83 -0.02,-32.35 -0,-0 -0.01,-0.01 -0.01,-0.01 -9.61,-12.24 -9.6,-29.33 0.01,-41.57 7.48,-9.53 7.49,-22.83 0.01,-32.36 -0.01,-0.01 -0.01,-0.01 -0.01,-0.02 -9.62,-12.24 -9.62,-29.34 0,-41.58 0,0 0,-0 0,-0 7.48,-9.53 7.48,-22.84 -0,-32.37 -0.01,-0.01 -0.02,-0.02 -0.02,-0.03 -9.59,-12.23 -9.59,-29.31 0.01,-41.54 0.01,-0.01 0.01,-0.01 0.02,-0.02 7.49,-9.53 7.49,-22.85 0,-32.38 -0,-0 -0.01,-0.01 -0.01,-0.02 -9.6,-12.24 -9.6,-29.32 -0,-41.55 0.01,-0.01 0.01,-0.01 0.02,-0.02 7.49,-9.53 7.49,-22.84 0,-32.37 -1.27,-1.62 -0.99,-3.96 0.63,-5.23 1.62,-1.27 3.96,-0.99 5.23,0.63 4.81,6.12 7.21,13.45 7.21,20.79z"/>
    </g>
    <g>
     <path class="fil0 str2" d="M117.43 25.97c0,7.33 -2.4,14.66 -7.2,20.78 -0.01,0 -0.01,0.01 -0.01,0.01 -7.48,9.53 -7.48,22.85 0,32.38 0,0 0,0 0,0l0 0c9.61,12.24 9.61,29.33 0.01,41.57 -0,0 -0.01,0.01 -0.01,0.01 -7.49,9.53 -7.49,22.85 0,32.38 0,0.01 0.01,0.02 0.02,0.02 4.79,6.12 7.19,13.45 7.19,20.77 0,7.34 -2.4,14.67 -7.21,20.79 -0,0 -0,0.01 -0.01,0.01 -7.47,9.53 -7.48,22.82 -0.01,32.35 0.01,0.01 0.01,0.01 0.02,0.02 4.81,6.12 7.21,13.46 7.21,20.79 0,7.34 -2.4,14.67 -7.21,20.79 -7.49,9.53 -7.49,22.85 0,32.38 0,0 0,0.01 0.01,0.01 4.8,6.12 7.2,13.45 7.2,20.78 0,7.34 -2.4,14.67 -7.21,20.79 -0,0.01 -0.01,0.01 -0.01,0.02 -7.47,9.53 -7.47,22.83 0.01,32.36 0,0.01 0.01,0.01 0.02,0.02 9.6,12.24 9.59,29.33 -0.02,41.56 -1.27,1.62 -3.61,1.9 -5.23,0.63 -1.62,-1.27 -1.9,-3.61 -0.63,-5.23 7.49,-9.53 7.49,-22.85 0,-32.38 -0,-0.01 -0.01,-0.01 -0.01,-0.02 -9.6,-12.24 -9.6,-29.33 0.01,-41.57 0,-0.01 0.01,-0.02 0.02,-0.02 7.47,-9.53 7.46,-22.83 -0.02,-32.35 -0,-0 -0.01,-0.01 -0.01,-0.01 -9.61,-12.24 -9.6,-29.33 0.01,-41.57 7.48,-9.53 7.49,-22.83 0.01,-32.36 -0.01,-0.01 -0.01,-0.01 -0.01,-0.02 -9.62,-12.24 -9.62,-29.34 0,-41.58 0,0 0,-0 0,-0 7.48,-9.53 7.48,-22.84 -0,-32.37 -0.01,-0.01 -0.02,-0.02 -0.02,-0.03 -9.59,-12.23 -9.59,-29.31 0.01,-41.54 0.01,-0.01 0.01,-0.01 0.02,-0.02 7.49,-9.53 7.49,-22.85 0,-32.38 -0,-0 -0.01,-0.01 -0.01,-0.02 -9.6,-12.24 -9.6,-29.32 -0,-41.55 0.01,-0.01 0.01,-0.01 0.02,-0.02 7.49,-9.53 7.49,-22.84 0,-32.37 -1.27,-1.62 -0.99,-3.96 0.63,-5.23 1.62,-1.27 3.96,-0.99 5.23,0.63 4.81,6.12 7.21,13.45 7.21,20.79z"/>
     <path id="_1_1" class="fil1" d="M117.43 25.97c0,7.33 -2.4,14.66 -7.2,20.78 -0.01,0 -0.01,0.01 -0.01,0.01 -7.48,9.53 -7.48,22.85 0,32.38 0,0 0,0 0,0l0 0c9.61,12.24 9.61,29.33 0.01,41.57 -0,0 -0.01,0.01 -0.01,0.01 -7.49,9.53 -7.49,22.85 0,32.38 0,0.01 0.01,0.02 0.02,0.02 4.79,6.12 7.19,13.45 7.19,20.77 0,7.34 -2.4,14.67 -7.21,20.79 -0,0 -0,0.01 -0.01,0.01 -7.47,9.53 -7.48,22.82 -0.01,32.35 0.01,0.01 0.01,0.01 0.02,0.02 4.81,6.12 7.21,13.46 7.21,20.79 0,7.34 -2.4,14.67 -7.21,20.79 -7.49,9.53 -7.49,22.85 0,32.38 0,0 0,0.01 0.01,0.01 4.8,6.12 7.2,13.45 7.2,20.78 0,7.34 -2.4,14.67 -7.21,20.79 -0,0.01 -0.01,0.01 -0.01,0.02 -7.47,9.53 -7.47,22.83 0.01,32.36 0,0.01 0.01,0.01 0.02,0.02 9.6,12.24 9.59,29.33 -0.02,41.56 -1.27,1.62 -3.61,1.9 -5.23,0.63 -1.62,-1.27 -1.9,-3.61 -0.63,-5.23 7.49,-9.53 7.49,-22.85 0,-32.38 -0,-0.01 -0.01,-0.01 -0.01,-0.02 -9.6,-12.24 -9.6,-29.33 0.01,-41.57 0,-0.01 0.01,-0.02 0.02,-0.02 7.47,-9.53 7.46,-22.83 -0.02,-32.35 -0,-0 -0.01,-0.01 -0.01,-0.01 -9.61,-12.24 -9.6,-29.33 0.01,-41.57 7.48,-9.53 7.49,-22.83 0.01,-32.36 -0.01,-0.01 -0.01,-0.01 -0.01,-0.02 -9.62,-12.24 -9.62,-29.34 0,-41.58 0,0 0,-0 0,-0 7.48,-9.53 7.48,-22.84 -0,-32.37 -0.01,-0.01 -0.02,-0.02 -0.02,-0.03 -9.59,-12.23 -9.59,-29.31 0.01,-41.54 0.01,-0.01 0.01,-0.01 0.02,-0.02 7.49,-9.53 7.49,-22.85 0,-32.38 -0,-0 -0.01,-0.01 -0.01,-0.02 -9.6,-12.24 -9.6,-29.32 -0,-41.55 0.01,-0.01 0.01,-0.01 0.02,-0.02 7.49,-9.53 7.49,-22.84 0,-32.37 -1.27,-1.62 -0.99,-3.96 0.63,-5.23 1.62,-1.27 3.96,-0.99 5.23,0.63 4.81,6.12 7.21,13.45 7.21,20.79z"/>
    </g>
   </g>
   <path class="fil2" d="M462.87 429.3c1.65,1.26 1.82,2.65 0.49,4.19 -3.94,0.25 -7.88,0.33 -11.83,0.25 -0.17,-0.41 -0.5,-0.58 -0.99,-0.49 -0.53,-0.46 -1.18,-0.63 -1.97,-0.49 0,2.3 0,4.6 0,6.9 -0.39,2.45 -1.04,4.84 -1.97,7.15 0.03,0.37 0.2,0.62 0.49,0.74 -3.35,5.32 -7.78,9.42 -13.31,12.32 -0.58,-0.11 -1.07,0.05 -1.48,0.49 0.23,0.39 0.55,0.56 0.99,0.49 0,0.16 0,0.33 0,0.49 -55.85,0 -111.71,0 -167.56,0 -12.18,-9.14 -24.17,-18.58 -35.98,-28.34 -15.44,-0.2 -30.89,-0.45 -46.33,-0.74 -4.11,0.16 -8.21,0.33 -12.32,0.49 3.89,9.43 7.51,18.96 10.84,28.58 -28.42,0 -56.84,0 -85.26,0 -2.97,-13.37 -6.18,-26.67 -9.61,-39.92 -1.46,-10.81 -2.53,-21.65 -3.2,-32.53 -6.03,-1.87 -11.94,-4.09 -17.74,-6.65 -15.07,-6.63 -30.18,-13.12 -45.34,-19.47 -5.15,-2.49 -10.41,-4.87 -15.77,-7.15 -0.9,-2.39 -0.08,-3.21 2.46,-2.46 5,2.09 9.93,4.31 14.79,6.65 0.16,-0.49 0.33,-0.99 0.49,-1.48 -0.85,-7.53 -1.42,-15.09 -1.72,-22.67 -0.39,-37.3 0.02,-74.59 1.23,-111.87 -4.33,-0.93 -8.44,-2.48 -12.32,-4.68 -3.86,-2.07 -4.36,-4.7 -1.48,-7.89 2.9,-1.78 6.02,-3.01 9.36,-3.7 0,-0.49 0,-0.99 0,-1.48 8.54,0.34 17.08,0.51 25.63,0.49 4.22,-21.94 15.39,-39.36 33.51,-52.24 0.3,-10.19 0.71,-20.38 1.23,-30.56 0.27,-1.49 0.59,-2.97 0.99,-4.44 8.51,-15.58 19.11,-29.63 31.79,-42.14 3.2,-2.59 6.82,-4.39 10.84,-5.42 6.04,-1.05 12.12,-1.87 18.23,-2.46 30.74,-2.45 61.46,-2.29 92.16,0.49 3.17,0.29 5.71,1.69 7.64,4.19 3.91,-16.67 10.32,-32.28 19.22,-46.82 3.52,-4.35 7.71,-5.09 12.57,-2.22 2.43,2 4.81,4.05 7.15,6.16 6.48,8.19 11.81,17.06 16.02,26.61 2.4,-0.97 4.86,-1.71 7.39,-2.22 14.05,-2.25 28.18,-2.83 42.38,-1.72 2.41,-9.26 6.77,-17.47 13.06,-24.64 7.92,-8.52 15.8,-8.52 23.66,0 4.27,6.88 7.39,14.27 9.36,22.18 2.55,11.36 5.18,22.69 7.89,34.01 0.92,2.26 1.74,4.56 2.46,6.9 1.87,6.3 5.89,10.49 12.07,12.57 10.94,0.44 20.47,-3.01 28.58,-10.35 0.49,-0.33 0.99,-0.33 1.48,0 1.86,3.28 2.93,6.81 3.2,10.6 1.02,23.17 -7.11,42.47 -24.39,57.91 -6.38,4.83 -13.44,8.36 -21.19,10.6 1.16,1.67 2.07,3.47 2.71,5.42 1.3,9.23 -1.16,17.28 -7.39,24.15 0.89,8.57 2.45,17.03 4.68,25.38 11.1,1.57 22.11,3.63 33.02,6.16 0.57,9.01 0.65,18.05 0.25,27.11 -1.17,0.46 -2.4,0.63 -3.7,0.49 0.45,40.57 0.62,81.15 0.49,121.73 9.89,2.53 19.74,5.16 29.57,7.89 0.29,1.36 -0.2,2.18 -1.48,2.46 -3.15,-0.91 -6.27,-1.9 -9.36,-2.96 -0.16,0.25 -0.33,0.49 -0.49,0.74 0.84,1.97 1.42,4.03 1.72,6.16 1.01,10.7 0.76,21.38 -0.74,32.03 3.78,0.08 7.56,0 11.34,-0.25 0.51,-0.25 1,-0.5 1.48,-0.74z"/>
   <path class="fil3" d="M217.94 117.83c-0.37,0.38 -0.87,0.63 -1.48,0.74 -3.86,0.4 -7.64,0.33 -11.33,-0.25 4.29,0.1 8.56,-0.06 12.81,-0.49z"/>
   <path class="fil4" d="M138.1 175.98c2.42,-0.07 4.72,0.26 6.9,0.99 -2.42,0.07 -4.72,-0.26 -6.9,-0.99z"/>
   <path class="fil5" d="M198.72 192.25c0.47,0.87 0.64,1.85 0.49,2.96 -0.49,0 -0.99,0 -1.48,0 0.49,0 0.99,0 1.48,0 0.15,-1.1 -0.02,-2.09 -0.49,-2.96z"/>
   <path class="fil6" d="M204.14 196.68c0.03,-0.27 0.19,-0.43 0.49,-0.49 0.64,1.72 0.64,3.36 0,4.93 0.15,-1.58 -0.01,-3.06 -0.49,-4.44z"/>
   <path class="fil7" d="M46.92 205.55c2.37,0.49 4.83,0.65 7.39,0.49 -2.55,0.65 -5.18,0.65 -7.89,0 0.06,-0.3 0.22,-0.46 0.49,-0.49z"/>
   <path class="fil8" d="M58.26 205.55c8.13,0.49 16.34,0.66 24.64,0.49 -8.3,0.66 -16.68,0.66 -25.13,0 0.06,-0.3 0.23,-0.46 0.49,-0.49z"/>
   <path class="fil8" d="M418.03 233.65c1.36,-0.04 2.68,0.21 3.94,0.74 -6.82,0.41 -13.56,0.33 -20.21,-0.25 5.51,0.16 10.93,-0.01 16.26,-0.49z"/>
   <path class="fil9" d="M415.07 236.6c5.75,0 11.5,0 17.25,0 0.16,7.97 0,15.86 -0.49,23.66 0,-7.72 0,-15.44 0,-23.16 -5.67,0.16 -11.26,-0 -16.76,-0.49z"/>
   <path class="fil10" d="M262.29 240.05c-22.67,0 -45.34,0 -68.01,0 0,7.39 0,14.79 0,22.18 -0.49,-7.47 -0.66,-15.03 -0.49,-22.67 22.92,-0.16 45.75,0 68.5,0.49z"/>
   <path class="fil11" d="M145 244.98c4.69,-0.33 6.74,1.81 6.16,6.41 -1.44,2.72 -3.66,3.63 -6.65,2.71 -3.39,-3.28 -3.23,-6.32 0.49,-9.12z"/>
   <path class="fil12" d="M100.15 269.13c52.24,-0.08 104.48,0 156.72,0.25 -0.36,0.51 -0.86,0.76 -1.48,0.74 -51.75,-0.33 -103.49,-0.66 -155.24,-0.99z"/>
   <path class="fil13" d="M130.7 301.66c-0.65,0.08 -1.23,-0.08 -1.72,-0.49 -0.16,-1.32 -0.33,-2.63 -0.49,-3.94 -0.74,-0.62 -1.48,-0.62 -2.22,0 0.83,1.68 0.5,3.08 -0.99,4.19 1.32,0.28 2.63,0.53 3.94,0.74 0.16,0.99 0.33,1.97 0.49,2.96 -2.35,0.15 -4.65,-0.09 -6.9,-0.74 -1.54,-2.34 -0.88,-3.74 1.97,-4.19 0.08,-0.84 -0,-1.66 -0.25,-2.46 -0.73,-0.32 -1.31,-0.82 -1.72,-1.48 2.22,-2.99 4.6,-2.99 7.15,0 0.12,1.85 0.36,3.66 0.74,5.42z"/>
   <path class="fil14" d="M137.11 295.74c0.81,-0.1 1.55,0.06 2.22,0.49 -0.02,1.51 -0.19,2.99 -0.49,4.44 1.21,0.72 2.28,1.62 3.2,2.71 -0.33,0.08 -0.66,0.16 -0.99,0.25 -1.27,-1.59 -2.91,-2.58 -4.93,-2.96 0.37,-2.67 -0.37,-3 -2.22,-0.99 -0.24,0.47 -0.32,0.96 -0.25,1.48 -1.19,0.13 -2.01,-0.37 -2.46,-1.48 0.53,-1.1 0.86,-2.25 0.99,-3.45 1.75,0.15 3.39,-0.01 4.93,-0.49z"/>
   <path class="fil15" d="M117.89 296.23c0.82,0 1.64,0 2.46,0 0,0.49 0,0.99 0,1.48 -1.78,-0.01 -3.25,0.64 -4.44,1.97 -0.63,-1.84 0.03,-2.99 1.97,-3.45z"/>
   <path class="fil16" d="M111.98 301.16c-0.27,1.63 0.06,3.27 0.99,4.93 -2.1,1.91 -2.43,4.04 -0.99,6.41 -1.12,0.35 -2.27,0.27 -3.45,-0.25 -1.09,-2.6 -0.51,-4.65 1.72,-6.16 0.16,-1.32 0.33,-2.63 0.49,-3.94 0.49,-0.28 0.9,-0.61 1.23,-0.99z"/>
   <path class="fil15" d="M144.5 304.12c1.89,-0.05 3.61,0.44 5.17,1.48 0.47,3.38 1.62,6.5 3.45,9.36 0.66,2.79 -0.24,3.53 -2.71,2.22 1.26,-1.44 1.26,-2.92 0,-4.44 -0.8,0.34 -1.62,0.83 -2.46,1.48 -0.82,0.33 -1.64,0.33 -2.46,0 1.07,-0.08 1.98,-0.49 2.71,-1.23 0.65,-1.95 0.98,-3.92 0.99,-5.91 -0.99,-1.92 -2.38,-2.33 -4.19,-1.23 -0.78,0.9 -1.19,1.97 -1.23,3.2 -1.67,-1.39 -3.23,-1.31 -4.68,0.25 -0.8,0.24 -1.63,0.33 -2.46,0.25 0.04,-2.57 1.35,-3.63 3.94,-3.2 1.5,-0.6 2.81,-1.34 3.94,-2.22z"/>
   <path class="fil17" d="M130.7 301.66c2.67,0.61 3.9,2.25 3.7,4.93 -0.96,-1.86 -2.19,-3.5 -3.7,-4.93z"/>
   <path class="fil18" d="M122.82 312.99c1.81,-0.08 3.62,0 5.42,0.25 0.33,0.33 0.66,0.66 0.99,0.99 -2.2,0.24 -4.34,0.74 -6.41,1.48 -0.89,1.3 -1.88,2.53 -2.96,3.7 -0.16,-0.25 -0.33,-0.49 -0.49,-0.74 0.31,-1.05 0.56,-2.12 0.74,-3.2 1.15,-0.57 2.05,-1.39 2.71,-2.46z"/>
   <path class="fil19" d="M107.54 314.96c2.47,0.59 4.93,0.59 7.39,0 2.4,0.43 3.47,1.91 3.2,4.44 1.39,0.8 1.55,1.79 0.49,2.96 -1.05,-1.87 -2.28,-3.59 -3.7,-5.18 -3.35,-1.45 -5.98,-0.63 -7.89,2.46 -2.28,0.37 -4.25,1.19 -5.91,2.46 -0.87,-0.35 -1.28,-0.93 -1.23,-1.73 1.81,-0.84 3.7,-1.5 5.67,-1.97 0.79,-1.08 1.44,-2.23 1.97,-3.45z"/>
   <path class="fil19" d="M159.29 329.75c-0.77,-1.78 -1.76,-3.5 -2.96,-5.17 -0.99,0 -1.97,0 -2.96,0 -0.49,-1.15 -1.31,-1.97 -2.46,-2.46 -2.3,-0.33 -4.6,-0.33 -6.9,0 -1.27,0.38 -2.26,1.12 -2.96,2.22 -0.67,-1.27 -0.5,-2.42 0.49,-3.45 2.15,-0.34 4.29,-0.76 6.41,-1.23 2.34,-0.4 4.64,-0.24 6.9,0.49 3.44,2.35 4.92,5.55 4.44,9.61z"/>
   <path class="fil20" d="M96.7 322.85c3.96,0.62 7.91,1.19 11.83,1.73 -2.53,0.03 -4.82,0.77 -6.9,2.22 -1.54,-0.91 -3.18,-1.16 -4.93,-0.74 -0.67,0.78 -1,1.68 -0.99,2.71 -1.62,-0.11 -2.85,0.54 -3.7,1.97 -0.88,1.4 -1.62,2.88 -2.22,4.43 -0.57,-1.95 -0.65,-3.92 -0.25,-5.91 2.45,-2.04 4.83,-4.18 7.15,-6.41z"/>
   <path class="fil14" d="M115.43 323.83c2.85,-0.2 5.15,0.87 6.9,3.2 -2.24,-0.57 -4.54,-0.73 -6.9,-0.49 -1.44,0.74 -2.43,1.89 -2.96,3.45 -0.97,0.31 -1.79,0.06 -2.46,-0.74 -0.53,-0.42 -0.62,-0.92 -0.25,-1.48 1.9,-1.39 3.79,-2.71 5.67,-3.94z"/>
   <path class="fil21" d="M397.82 324.33c0.65,-0.08 1.23,0.08 1.73,0.49 0.33,1.15 0.33,2.3 0,3.45 -3.8,2.73 -4.94,1.91 -3.45,-2.46 0.75,-0.33 1.33,-0.82 1.72,-1.48z"/>
   <path class="fil22" d="M87.83 326.3c0.36,-0.06 0.69,0.02 0.99,0.25 -2.07,1.92 -3.3,4.3 -3.7,7.15 -0.33,-1.48 -0.33,-2.96 0,-4.44 0.8,-1.13 1.71,-2.12 2.71,-2.96z"/>
   <path class="fil20" d="M161.26 327.78c2.8,-0.17 4.94,0.9 6.41,3.2 0.99,0.49 1.97,0.99 2.96,1.48 1.02,0.93 1.19,2 0.49,3.2 -2.45,-1.62 -4.75,-3.51 -6.9,-5.67 -1.14,-0.44 -2.29,-0.85 -3.45,-1.23 0.18,-0.33 0.34,-0.67 0.49,-0.99z"/>
   <path class="fil20" d="M169.64 330.24c0.03,-0.27 0.19,-0.43 0.49,-0.49 2.52,0.52 4.65,1.67 6.41,3.45 -0.91,1.02 -2.06,1.68 -3.45,1.97 -0.19,-2.37 -1.34,-4.01 -3.45,-4.93z"/>
   <path class="fil22" d="M81.91 330.73c0.54,0.54 0.62,1.2 0.25,1.97 -0.87,-0.58 -0.95,-1.24 -0.25,-1.97z"/>
   <path class="fil23" d="M159.29 329.75c0.7,1.48 0.62,2.96 -0.25,4.44 0.07,-1.45 0.16,-2.93 0.25,-4.44z"/>
   <path class="fil24" d="M270.18 337.14c0.8,0.27 1.62,0.43 2.46,0.49 0.21,1.91 -0.04,3.72 -0.74,5.42 -0.42,-2.03 -1,-4 -1.73,-5.91z"/>
   <path class="fil24" d="M233.21 347.49c0.81,1.28 1.63,2.6 2.46,3.94 -4.89,1.95 -9.66,4.17 -14.29,6.65 -2.36,1.54 -4.58,3.26 -6.65,5.17 -0.51,1.09 -0.84,2.24 -0.99,3.45 -1.42,-0.97 -1.58,-2.12 -0.49,-3.45 1.89,-1.89 3.78,-3.78 5.67,-5.67 4.8,-3.38 9.56,-6.75 14.29,-10.1z"/>
   <path class="fil25" d="M363.32 380.51c2.46,0 4.93,0 7.39,0 0,0.99 0,1.97 0,2.96 -12.66,0.16 -25.3,0 -37.95,-0.49 10.22,-1.15 20.41,-1.97 30.56,-2.46z"/>
   <path class="fil3" d="M288.41 433.24c-5.84,-0.16 -11.59,0.01 -17.25,0.49 -0.39,-0.14 -0.72,-0.38 -0.99,-0.74 6.17,-0.41 12.24,-0.33 18.24,0.25z"/>
   <g>
    <path class="fil26" d="M205.12 118.32c3.69,0.57 7.47,0.65 11.33,0.25 0.61,-0.11 1.1,-0.36 1.48,-0.74 9.42,-1.62 15.74,-6.88 18.97,-15.77 3.2,-17.08 7.64,-33.84 13.31,-50.27 2.76,-7.16 6.04,-14.06 9.86,-20.7 1.39,-2.29 3.27,-3.94 5.67,-4.93 2.15,0.5 4.12,1.4 5.91,2.71 3.74,3.33 7.03,7.03 9.86,11.09 -0.08,0.16 -0.16,0.33 -0.25,0.49 -3.14,-3.48 -6.84,-6.19 -11.09,-8.13 -1.15,-0.33 -2.3,-0.33 -3.45,0 -1.41,1.25 -2.65,2.65 -3.7,4.19 -4.9,9.13 -8.85,18.66 -11.83,28.58 -3.14,11.55 -5.77,23.21 -7.89,34.99 -1.02,3.88 -2.34,7.66 -3.94,11.34 -3.01,4.51 -7.2,7.38 -12.57,8.62 -8.43,1.78 -16.8,1.62 -25.13,-0.49 -2.07,-0.8 -4.05,-1.78 -5.91,-2.96 3.01,0.91 6.13,1.49 9.36,1.72z"/>
    <path class="fil26" d="M367.26 26.16c2.42,-0.22 4.72,0.2 6.9,1.23 -5.04,0.42 -8.9,2.81 -11.58,7.15 -4.52,6.25 -7.56,13.15 -9.12,20.7 -1.99,0 -3.96,-0.17 -5.91,-0.49 2.76,-9.21 7.36,-17.34 13.8,-24.4 1.92,-1.53 3.89,-2.92 5.91,-4.19z"/>
    <path class="fil27" d="M323.4 55.24c5.43,-0.08 10.85,0 16.26,0.25 9.48,0.44 18.68,2.25 27.6,5.42 -9.07,-1.1 -18.19,-1.84 -27.35,-2.22 -13.26,0.13 -26.4,1.44 -39.43,3.94 -1.58,-0.09 -2.81,-0.83 -3.7,-2.22 1.28,-0.59 2.59,-1.08 3.94,-1.48 7.56,-1.69 15.11,-2.92 22.67,-3.7z"/>
    <path class="fil28" d="M145 176.97c-2.18,-0.72 -4.48,-1.05 -6.9,-0.99 -5.17,-0.22 -9.53,-2.19 -13.06,-5.91 -0.63,-1.09 -1.12,-2.24 -1.48,-3.45 -3.04,-23.79 -5.83,-47.61 -8.38,-71.46 -0.33,-4.77 -0.33,-9.53 0,-14.29 1.56,-3.53 4.28,-5.59 8.13,-6.16 6.05,-1.03 12.13,-1.86 18.23,-2.46 29.42,-1.78 58.82,-1.62 88.22,0.49 3.59,-0.04 6.63,1.19 9.12,3.7 -0.2,3.16 -0.77,6.28 -1.72,9.36 -1.41,-2.52 -3.55,-4.08 -6.41,-4.68 -7.2,-0.93 -14.43,-1.58 -21.68,-1.97 -17.91,-0.33 -35.81,-0.33 -53.72,0 -8.81,0.21 -17.51,1.19 -26.12,2.96 -0.78,0.52 -1.52,1.09 -2.22,1.72 0.15,23.15 2.12,46.15 5.91,69 0.56,3.5 1.8,6.71 3.7,9.61 2.76,1.58 5.71,2.56 8.87,2.96 19.33,2.09 38.71,2.75 58.15,1.97 6.07,-0.66 12.15,-0.99 18.24,-0.99 4.93,3.62 10.19,6.74 15.77,9.36 -30.88,3.59 -61.76,4 -92.65,1.23z"/>
    <path class="fil29" d="M152.88 80.87c24.16,-0.27 48.31,0.14 72.45,1.23 9.63,0.3 12.84,4.98 9.61,14.05 0.14,-3.14 -0.6,-6.01 -2.22,-8.62 -1.7,-0.95 -3.5,-1.61 -5.42,-1.97 -31.36,-2.73 -62.74,-2.9 -94.13,-0.49 -1.98,0.21 -3.55,1.11 -4.68,2.71 -0.8,-2.58 0.1,-4.14 2.71,-4.68 7.28,-0.96 14.51,-1.7 21.68,-2.22z"/>
    <path class="fil30" d="M156.83 85.3c22.03,-0.25 44.04,0.16 66.04,1.23 3.08,0.15 6.03,0.81 8.87,1.97 0.98,0.65 1.55,1.55 1.72,2.71 1.97,11.9 -2.87,19.54 -14.54,22.92 -1.94,0.5 -3.91,0.75 -5.91,0.74 0.06,-2.82 -0.18,-5.61 -0.74,-8.38 -0.89,-2.34 -2.04,-2.5 -3.45,-0.49 -0.25,3.11 -0.33,6.24 -0.25,9.36 -7.54,0.08 -14.44,-1.97 -20.7,-6.16 -0.64,-0.24 -1.29,-0.33 -1.97,-0.25 1.55,14.26 6.89,26.91 16.02,37.95 0.24,0.47 0.32,0.96 0.25,1.48 -10.96,2.36 -21.81,1.95 -32.53,-1.23 -9.59,-3.18 -16.08,-9.51 -19.47,-18.97 -0.71,-0.82 -1.62,-1.14 -2.71,-0.99 1.04,8.89 5.48,15.54 13.31,19.96 10.83,5.63 22.33,7.6 34.5,5.91 3.42,-0.88 6.87,-1.38 10.35,-1.48 4.11,4.6 8.55,8.88 13.31,12.81 -24.81,3.03 -49.62,2.86 -74.42,-0.49 -2.78,-0.21 -5.16,-1.28 -7.15,-3.2 -1.21,-2.72 -2.2,-5.51 -2.96,-8.38 -3.62,-20.87 -5.6,-41.9 -5.91,-63.08 1.28,-1.75 3,-2.65 5.18,-2.71 7.8,-0.37 15.52,-0.78 23.16,-1.23z"/>
    <path class="fil27" d="M441.19 95.65c0.54,0.06 0.86,0.39 0.99,0.99 2.21,10.63 1.8,21.14 -1.23,31.54 0.63,-5.39 0.8,-10.81 0.49,-16.26 -0.2,-2.34 -0.78,-4.55 -1.73,-6.65 -1.78,-0.1 -3.42,0.39 -4.93,1.48 -5.65,1.61 -11.4,2.1 -17.25,1.48 8.35,-1.46 15.74,-4.91 22.18,-10.35 0.81,-0.56 1.3,-1.3 1.48,-2.22z"/>
    <path class="fil31" d="M76.49 157.75c0.62,0.41 0.94,1.07 0.99,1.97 0.46,2.62 0.55,5.25 0.25,7.89 -1.36,0.64 -2.59,1.46 -3.7,2.46 -0.87,-0.31 -1.61,-0.8 -2.22,-1.48 -0.71,-1.93 -0.87,-3.9 -0.49,-5.91 1.67,-1.76 3.4,-3.4 5.17,-4.93z"/>
    <path class="fil19" d="M68.61 164.65c0.87,1.42 1.45,3.07 1.72,4.93 0.7,0.64 1.43,1.21 2.22,1.72 -1.62,1.13 -3.1,2.44 -4.44,3.94 -3.6,0.8 -5.16,-0.6 -4.68,-4.19 1.84,-2.08 3.57,-4.22 5.18,-6.41z"/>
    <path class="fil32" d="M82.9 206.05c-8.3,0.16 -16.51,0 -24.64,-0.49 1.98,-9.87 5.84,-18.9 11.58,-27.11 2.65,-2.9 5.53,-5.53 8.62,-7.89 1.16,6.13 2.56,12.21 4.19,18.24 1.91,4.12 5.11,6.67 9.61,7.64 2.62,0.56 5.24,1.05 7.89,1.48 9.37,0.27 18.74,0.27 28.09,0 -3.88,1.91 -7.16,4.54 -9.86,7.89 -7.89,0.33 -15.77,0.33 -23.66,0 -3.27,-2.66 -6.88,-3.32 -10.84,-1.97 -0.76,0.55 -1.09,1.29 -0.99,2.22z"/>
    <path class="fil14" d="M61.71 173.03c0.96,1.95 2.44,3.43 4.44,4.44 -1.16,1.58 -2.23,3.22 -3.2,4.93 -2.51,0.76 -4.39,-0.06 -5.67,-2.46 1.48,-2.31 2.96,-4.61 4.44,-6.9z"/>
    <path class="fil33" d="M246.03 179.93c4.18,0.84 8.28,1.91 12.32,3.2 -14.52,2.07 -28.65,5.68 -42.38,10.84 -0.59,0.44 -1,1.02 -1.23,1.72 -0.16,1.81 -0.33,3.61 -0.49,5.42 -0.89,-2.5 -1.87,-4.97 -2.96,-7.39 -0.38,-0.71 -0.3,-1.37 0.25,-1.97 8.21,-2.54 16.42,-5.09 24.64,-7.64 3.47,-1.07 6.76,-2.47 9.86,-4.19z"/>
    <path class="fil34" d="M399.3 176.97c1.69,7.84 0.14,15.06 -4.68,21.68 -0.67,-1.08 -0.84,-2.23 -0.49,-3.45 3.47,-5.57 5.2,-11.66 5.18,-18.24z"/>
    <path class="fil35" d="M56.29 180.91c1.5,1.66 3.3,2.98 5.42,3.94 -1.06,2.03 -2.04,4.09 -2.96,6.16 -2.64,0.65 -4.77,-0.09 -6.41,-2.22 1.33,-2.66 2.64,-5.28 3.94,-7.89z"/>
    <path class="fil36" d="M198.72 192.25c0.12,1.18 -0.21,2.16 -0.99,2.96 -8,1.61 -16.05,3.01 -24.15,4.19 -3.29,0.33 -6.57,0.33 -9.86,0 -3.14,-1.02 -6.26,-2.08 -9.36,-3.2 -0.92,-2.41 -0.43,-4.46 1.48,-6.16 7.26,-1.91 14.66,-2.65 22.18,-2.22 5.44,-0.02 10.86,0.23 16.26,0.74 1.15,0.49 2.3,0.99 3.45,1.48 0.76,0.55 1.09,1.29 0.99,2.22z"/>
    <path class="fil31" d="M51.36 190.28c1.23,0.81 2.55,1.55 3.94,2.22 0.96,0.36 1.86,0.29 2.71,-0.25 -0.51,2.27 -1.08,4.57 -1.72,6.9 -1.98,0.08 -3.95,0 -5.91,-0.25 -0.93,-0.89 -1.18,-1.96 -0.74,-3.2 0.63,-1.81 1.2,-3.61 1.72,-5.42z"/>
    <path class="fil37" d="M387.47 177.96c0.03,-0.27 0.19,-0.43 0.49,-0.49 5.1,28.81 10.52,57.56 16.26,86.25 -0.87,-0.07 -1.69,0.09 -2.46,0.49 -2.7,-11.58 -5.08,-23.24 -7.15,-34.99 -2.25,-17.18 -4.63,-34.27 -7.15,-51.25z"/>
    <path class="fil26" d="M204.14 196.68c0.48,1.37 0.65,2.85 0.49,4.44 -1.04,0.48 -2.19,0.64 -3.45,0.49 0,-1.48 0,-2.96 0,-4.43 0.99,-0.16 1.97,-0.33 2.96,-0.49z"/>
    <path class="fil27" d="M138.59 197.67c2.96,-0.08 5.92,0 8.87,0.25 6.55,1.77 13.12,3.5 19.71,5.18 -0.75,1.06 -1.24,2.22 -1.48,3.45 -1.16,0.08 -2.31,0 -3.45,-0.25 -10.48,-5.87 -21.48,-7.19 -33.02,-3.94 -4.33,1.86 -7.53,4.9 -9.61,9.12 -0.31,-1.06 -0.15,-2.04 0.49,-2.96 4.78,-5.96 10.94,-9.58 18.48,-10.84z"/>
    <path class="fil31" d="M54.32 206.05c-2.56,0.16 -5.02,-0 -7.39,-0.49 0.26,-2.37 0.84,-4.67 1.72,-6.9 2.01,2.09 4.4,2.59 7.15,1.48 -0.5,2.03 -0.99,4 -1.48,5.91z"/>
    <path class="fil27" d="M186.89 200.13c1.15,0 2.3,0 3.45,0 0,0.99 0,1.97 0,2.96 -4.3,0.25 -8.57,0.74 -12.81,1.48 -0.12,-0.97 0.05,-1.87 0.49,-2.71 3.05,-0.47 6,-1.04 8.87,-1.72z"/>
    <path class="fil38" d="M85.36 204.57c1.85,-0.05 3.65,0.19 5.42,0.74 8.31,5.62 17.42,9.31 27.35,11.09 0.24,0.64 0.32,1.3 0.25,1.97 -6.29,-0.71 -12.37,-2.27 -18.23,-4.68 -5.03,-2.43 -9.95,-4.98 -14.79,-7.64 -0.52,-0.45 -0.52,-0.95 0,-1.48z"/>
    <path class="fil39" d="M15.38 209c24.31,-0.08 48.63,0 72.94,0.25 9.66,6.45 20.34,10.06 32.03,10.84 3.01,2.43 6.46,3.91 10.35,4.44 9.82,2.12 19.68,2.45 29.57,0.99 2.61,-0.38 4.25,-1.78 4.93,-4.19 4.55,0.9 9.15,1.47 13.8,1.72 13.57,0.4 27.12,0.32 40.66,-0.25 1.77,1.79 3.49,3.68 5.17,5.67 7.37,-0.42 14.59,-1.73 21.68,-3.94 6.12,-1.52 12.04,-3.57 17.74,-6.16 0.16,0.41 0.33,0.82 0.49,1.23 -0.9,6.14 -1.55,12.3 -1.97,18.48 -54.55,-0.16 -109.09,0 -163.62,0.49 -26.55,-8.33 -53.17,-16.3 -79.84,-23.9 0.49,0.25 0.99,0.49 1.48,0.74 0.45,1.06 1.02,2.04 1.72,2.96 0.25,1.14 0.33,2.29 0.25,3.45 -5.68,-0.66 -10.69,-2.79 -15.03,-6.41 -0.23,-1.28 0.18,-2.35 1.23,-3.2 2.1,-1.22 4.24,-2.28 6.41,-3.2z"/>
    <path class="fil40" d="M101.63 209.5c4.68,-0.49 9.44,-0.66 14.29,-0.49 0.08,1.65 -0,3.29 -0.25,4.93 -4.82,-1.03 -9.5,-2.51 -14.05,-4.43z"/>
    <path class="fil28" d="M132.68 213.44c0.84,-0.08 1.66,0 2.46,0.25 5.48,3.77 11.56,5.83 18.23,6.16 3.12,-0.38 6.24,-0.46 9.36,-0.25 0.68,1.25 0.35,2.24 -0.99,2.96 -1.51,0.91 -3.15,1.4 -4.93,1.48 -9.44,0.48 -18.81,-0.17 -28.09,-1.97 -2.68,-0.6 -4.98,-1.83 -6.9,-3.7 1.75,-0.73 3.55,-1.3 5.42,-1.72 1.77,-1.21 3.58,-2.28 5.42,-3.2z"/>
    <path class="fil41" d="M418.03 233.65c-5.33,0.49 -10.75,0.66 -16.26,0.49 -0.25,-1.17 -0.58,-2.32 -0.99,-3.45 0.25,-0.16 0.49,-0.33 0.74,-0.49 5.45,1.43 10.95,2.58 16.51,3.45z"/>
    <path class="fil42" d="M266.23 227.73c0.36,0.21 0.6,0.53 0.74,0.99 0.44,10.87 2.58,21.38 6.41,31.54 6.66,4.36 13.81,7.72 21.44,10.1 -10.82,-0.14 -21.33,-2.03 -31.54,-5.67 -0.16,-0.99 -0.33,-1.97 -0.49,-2.96 1.52,-11.31 2.67,-22.64 3.45,-34.01z"/>
    <path class="fil30" d="M415.07 236.6c5.5,0.49 11.08,0.66 16.76,0.49 0,7.72 0,15.44 0,23.16 -8.38,0 -16.76,0 -25.13,0 -1.37,-7.9 -2.85,-15.79 -4.44,-23.66 4.27,0 8.54,0 12.81,0z"/>
    <path class="fil43" d="M101.13 239.56c30.39,0 60.78,0 91.17,0 0,7.56 0,15.11 0,22.67 -30.23,0 -60.45,0 -90.68,0 0.07,-7.56 -0.09,-15.12 -0.49,-22.67z"/>
    <path class="fil30" d="M262.29 240.05c-0.57,7.42 -1.39,14.81 -2.46,22.18 -21.85,0 -43.7,0 -65.55,0 0,-7.39 0,-14.79 0,-22.18 22.67,0 45.34,0 68.01,0z"/>
    <path class="fil38 str3" d="M145 246.95c3.12,-0.41 4.52,0.9 4.19,3.94 -1.81,1.97 -3.61,1.97 -5.42,0 -0.48,-1.61 -0.07,-2.93 1.23,-3.94z"/>
    <path class="fil44" d="M399.79 267.16c0.66,0 1.32,0 1.97,0 2.49,6.58 4.55,13.32 6.16,20.21 4.28,18.46 -2.21,31.36 -19.47,38.69 -10.71,3.44 -21.64,4.18 -32.77,2.22 -4.45,1.21 -8.97,2.11 -13.55,2.71 -9.22,0.45 -18.42,0.29 -27.6,-0.49 -3.65,-0.83 -7.1,-2.15 -10.35,-3.94 4.2,0.97 8.47,1.79 12.81,2.46 8.62,0.69 17.17,0.19 25.63,-1.48 6.2,-1.49 11.05,-4.86 14.54,-10.1 1.37,-2.9 2.6,-5.86 3.7,-8.87 -0.31,5.09 -1.95,9.85 -4.93,14.29 13.89,3.79 27.03,2.07 39.43,-5.17 4.72,-4.11 7.43,-9.28 8.13,-15.52 0.49,-5.96 0.16,-11.88 -0.99,-17.74 -1.54,-5.54 -3.44,-10.96 -5.67,-16.26 1.05,-0.33 2.04,-0.66 2.96,-0.99z"/>
    <path class="fil29" d="M405.71 269.13c7.14,-0.49 14.37,-0.66 21.68,-0.49 -0.12,38.28 0.04,76.56 0.49,114.83 -14.29,0 -28.58,0 -42.88,0 -1.33,-16.51 -3.3,-32.94 -5.91,-49.28 5.78,-0.25 11.53,-0.82 17.25,-1.72 6.51,-1.03 8.32,-4.48 5.42,-10.35 9.46,-10.14 12.82,-22.05 10.1,-35.73 -1.24,-6.1 -3.29,-11.85 -6.16,-17.25z"/>
    <path class="fil29" d="M100.15 269.13c51.75,0.33 103.49,0.66 155.24,0.99 -8.57,2.8 -16.61,6.66 -24.15,11.58 -8.67,6.42 -12.94,15.04 -12.81,25.87 0.52,12.1 3.48,23.52 8.87,34.25 1.31,0.25 2.62,0.33 3.94,0.25 0.15,1.36 -0.01,2.67 -0.49,3.94 -6.68,4.46 -13,9.39 -18.97,14.79 -3.49,4.09 -2.76,7.13 2.22,9.12 1.13,0.4 2.28,0.73 3.45,0.99 17.04,0.47 33.46,-2.49 49.28,-8.87 1.53,-0.71 2.93,-1.61 4.19,-2.71 -0.27,8.04 -0.68,16.09 -1.23,24.15 -32.2,0 -64.4,0 -96.6,0 1.52,-15.3 3.25,-30.57 5.18,-45.83 0.33,-1.97 0.33,-3.94 0,-5.91 -0.75,-0.91 -1.65,-1.65 -2.71,-2.22 -3.63,-0.95 -7.08,-2.26 -10.35,-3.94 -1.45,-0.47 -2.92,-0.71 -4.44,-0.74 -0.72,-2.69 -2.36,-4.66 -4.93,-5.91 -1.81,-4.45 -3.21,-9.05 -4.19,-13.8 -2.09,-2.35 -4.64,-3.01 -7.64,-1.97 -1.24,-1.16 -2.56,-2.23 -3.94,-3.2 1.78,-1.8 1.95,-3.77 0.49,-5.91 -1.51,-0.94 -2.99,-0.94 -4.43,0 -3.02,0.75 -5.64,0.1 -7.89,-1.97 -3.25,-0.84 -5.71,0.15 -7.39,2.96 -3.75,-0.18 -6.22,1.46 -7.39,4.93 -1.54,0.1 -3.02,0.43 -4.43,0.99 -0.54,2.07 -1.45,3.96 -2.71,5.67 -0.14,2.31 -0.14,4.61 0,6.9 -1.32,2.43 -3.38,3.83 -6.16,4.19 -0.75,0.67 -1.41,1.4 -1.97,2.22 -0.76,0.47 -1.58,0.64 -2.46,0.49 0,-17.09 0,-34.17 0,-51.25 1.48,0 2.96,0 4.44,0z"/>
    <path class="fil44" d="M264.26 269.13c4.91,1.39 9.84,2.62 14.79,3.7 -11.38,1.82 -22.39,4.94 -33.02,9.36 -6.29,2.61 -11.63,6.47 -16.02,11.58 -4.13,6.33 -6.59,13.23 -7.39,20.7 -3,-14.94 2.17,-26.03 15.52,-33.27 8.63,-4.32 17.34,-8.34 26.12,-12.07z"/>
    <path class="fil45" d="M281.51 324.82c1.81,-0.08 3.62,0 5.42,0.25 -3.93,2.03 -5.74,5.23 -5.42,9.61 -3.12,0.08 -6.25,0 -9.36,-0.25 -1.87,-0.53 -2.69,-1.76 -2.46,-3.7 -0.03,-1.26 0.3,-2.41 0.99,-3.45 3.65,-0.93 7.26,-1.75 10.84,-2.46z"/>
    <path class="fil44" d="M80.44 334.68c4.83,2.23 9.92,3.63 15.28,4.19 9.5,1.06 19.03,1.88 28.58,2.46 -10.67,0.58 -21.35,0.91 -32.03,0.99 -2.08,0.5 -3.48,1.73 -4.19,3.7 1.03,23.02 2.51,46.01 4.44,69 0.57,5 2.95,8.86 7.15,11.58 -4.03,-1.07 -7.56,-3.13 -10.6,-6.16 -2.13,-28.67 -5,-57.25 -8.62,-85.75z"/>
    <path class="fil29" d="M362.34 334.68c1.32,0 2.63,0 3.94,0 0.96,11.82 1.95,23.65 2.96,35.48 -12,0.16 -23.99,0.49 -35.98,0.99 0.59,-11.68 0.59,-23.34 0,-34.99 9.78,-0.34 19.47,-0.83 29.08,-1.48z"/>
    <path class="fil28" d="M175.55 336.15c0.57,0.14 0.9,0.55 0.99,1.23 -4.04,28.81 -7.9,57.64 -11.58,86.49 -4.95,2.53 -10.12,4.25 -15.52,5.18 4.9,-2.82 7.94,-7.01 9.12,-12.57 3.64,-23.28 6.76,-46.61 9.36,-69.98 -0.81,-1.14 -1.87,-1.88 -3.2,-2.22 -9.41,-0.54 -18.78,-1.53 -28.09,-2.96 10.91,-0.33 21.75,-1.32 32.53,-2.96 2.27,-0.52 4.4,-1.26 6.41,-2.22z"/>
    <path class="fil27" d="M309.6 337.14c4.1,0 8.22,0 12.32,0 -1.05,10.82 -1.71,21.66 -1.97,32.53 -12.17,-1.06 -24.33,-2.21 -36.47,-3.45 0.74,-9.34 1.07,-18.71 0.99,-28.09 8.46,-0.21 16.84,-0.53 25.13,-0.99z"/>
    <path class="fil28" d="M372.69 341.08c2.12,-0.34 3.84,0.31 5.18,1.97 2.16,19.49 4.55,38.96 7.15,58.4 -0.17,1.73 -1.15,2.55 -2.96,2.46 -2.09,0.39 -4.15,0.31 -6.16,-0.25 -0.61,-7.41 -1.35,-14.8 -2.22,-22.18 0.16,-0.49 0.33,-0.99 0.49,-1.48 4.29,-2.33 4.94,-5.37 1.97,-9.12 -1.26,-0.53 -2.58,-0.78 -3.94,-0.74 -0.73,-8.14 -1.55,-16.27 -2.46,-24.4 -0.18,-2.36 0.8,-3.92 2.96,-4.68z"/>
    <path class="fil45" d="M276.58 344.53c1.95,-0.2 3.76,0.21 5.42,1.23 0.19,6.22 -0.14,12.46 -0.99,18.73 -1.1,1.7 -2.5,3.26 -4.19,4.68 -1.63,3.98 -0.39,6.44 3.7,7.39 -0.56,6.56 -0.88,13.13 -0.99,19.71 -2.31,0.08 -4.61,0 -6.9,-0.25 -0.58,-0.58 -0.91,-1.32 -0.99,-2.22 1.25,-15.75 2.16,-31.52 2.71,-47.31 0.69,-0.77 1.43,-1.43 2.22,-1.97z"/>
    <path class="fil28" d="M325.87 346.01c1.94,-0.22 3.49,0.43 4.68,1.97 0.07,19.56 -0.34,39.11 -1.23,58.65 -2.46,0.66 -4.93,0.66 -7.39,0 -0.16,-2.3 -0.33,-4.6 -0.49,-6.9 0.68,-17.09 1.42,-34.17 2.22,-51.25 0.5,-1.08 1.24,-1.9 2.22,-2.46z"/>
    <path class="fil27" d="M20.8 362.77c15.16,6.35 30.27,12.84 45.34,19.47 5.8,2.56 11.71,4.78 17.74,6.65 0.67,10.88 1.74,21.72 3.2,32.53 3.43,13.25 6.64,26.55 9.61,39.92 -24.48,0 -48.95,0 -73.43,0 -17.42,-14.81 -25.06,-33.7 -22.92,-56.68 0.79,-7.09 2.35,-13.99 4.68,-20.7 0.43,0.06 0.76,-0.1 0.99,-0.49 3,-6.84 7.52,-12.42 13.55,-16.76 0.13,-1.42 0.55,-2.73 1.23,-3.94z"/>
    <path class="fil28" d="M280.53 368.68c11.25,-0.02 22.42,0.88 33.51,2.71 1.89,1.83 1.89,3.72 0,5.67 -1.15,0.7 -2.39,1.19 -3.7,1.48 -6.97,-0.99 -13.95,-1.89 -20.95,-2.71 -3.43,-0.3 -6.72,-1.12 -9.86,-2.46 -0.46,-0.59 -0.79,-1.25 -0.99,-1.97 0.57,-0.98 1.22,-1.88 1.97,-2.71z"/>
    <path class="fil28" d="M367.26 372.13c2.14,-0.08 4.28,0 6.41,0.25 2.58,2.06 2.58,4.03 0,5.91 -10.34,0.59 -20.69,1.16 -31.05,1.72 -5.27,0.69 -6.91,-1.36 -4.93,-6.16 9.93,-0.76 19.78,-1.34 29.57,-1.72z"/>
    <path class="fil27" d="M282.99 377.06c11.82,1.37 23.65,2.76 35.48,4.19 0.79,0.52 1.12,1.26 0.99,2.22 -12.32,0 -24.64,0 -36.96,0 0.04,-2.15 0.21,-4.28 0.49,-6.41z"/>
    <path class="fil30" d="M265.74 461.33c-27.93,0 -55.85,0 -83.78,0 -3.33,-9.62 -6.95,-19.16 -10.84,-28.58 4.11,-0.16 8.21,-0.33 12.32,-0.49 15.44,0.29 30.89,0.54 46.33,0.74 11.8,9.75 23.79,19.2 35.98,28.34z"/>
    <path class="fil28" d="M271.16 433.73c5.66,-0.49 11.41,-0.66 17.25,-0.49 2.58,4.99 5.04,10.08 7.39,15.28 -0.16,0.16 -0.33,0.33 -0.49,0.49 -7.92,-5.3 -15.98,-10.39 -24.15,-15.28z"/>
    <path class="fil46" d="M414.58 433.73c2.53,-0.49 5.16,-0.65 7.89,-0.49 0.36,4.12 0.61,8.22 0.74,12.32 -2.76,-4.06 -5.64,-8 -8.62,-11.83z"/>
   </g>
   <path class="fil47" d="M450.55 433.24c0.49,-0.08 0.82,0.08 0.99,0.49 0.9,5.37 -0.58,9.97 -4.44,13.8 -0.3,-0.12 -0.46,-0.37 -0.49,-0.74 0.93,-2.31 1.58,-4.69 1.97,-7.15 0.48,-2.04 0.65,-4.17 0.49,-6.41 0.49,0 0.99,0 1.48,0z"/>
   <path class="fil48" d="M450.55 433.24c-0.49,0 -0.99,0 -1.48,0 0.16,2.23 -0.01,4.37 -0.49,6.41 0,-2.3 0,-4.6 0,-6.9 0.79,-0.13 1.44,0.03 1.97,0.49z"/>
   <path class="fil49" d="M433.8 459.86c-0.16,0.33 -0.33,0.66 -0.49,0.99 -0.43,0.06 -0.76,-0.1 -0.99,-0.49 0.4,-0.44 0.9,-0.6 1.48,-0.49z"/>
   <path class="fil50" d="M160.27 104.52c1.39,-0.21 2.46,0.29 3.2,1.48 1.4,5.84 1.89,11.75 1.48,17.74 -1.99,2.78 -3.63,2.62 -4.93,-0.49 -1,-5.72 -1.33,-11.46 -0.99,-17.25 0.51,-0.43 0.93,-0.92 1.23,-1.48z"/>
  </g>
 </g>
</svg>
